G04 ================== begin FILE IDENTIFICATION RECORD ==================*
G04 Layout Name:  C1T139A30_V1_2.brd*
G04 Film Name:    BOTTOM*
G04 File Format:  Gerber RS274X*
G04 File Origin:  Cadence Allegro 16.3-p003*
G04 Origin Date:  Fri Oct 19 14:41:28 2018*
G04 *
G04 Layer:  VIA CLASS/BOTTOM*
G04 Layer:  PIN/BOTTOM*
G04 Layer:  ETCH/BOTTOM*
G04 Layer:  BOARD GEOMETRY/OUTLINE*
G04 *
G04 Offset:    (0.0000 0.0000)*
G04 Mirror:    Yes*
G04 Mode:      Positive*
G04 Rotation:  0*
G04 FullContactRelief:  No*
G04 UndefLineWidth:     0.1000*
G04 ================== end FILE IDENTIFICATION RECORD ====================*
%FSLAX35Y35*MOMM*%
%IR0*IPPOS*OFA0.00000B0.00000*MIA1B0*SFA1.00000B1.00000*%
%ADD15C,.2*%
%ADD12C,.5*%
%ADD16R,2.X4.*%
%ADD13C,1.*%
%ADD10C,1.7*%
%ADD14C,1.65*%
%ADD11R,1.7X1.7*%
%ADD17C,.1*%
%ADD19C,2.0064*%
%ADD20C,2.1064*%
%ADD18C,2.7564*%
G75*
%LPD*%
G75*
G36*
G01X6266880Y-2573700D02*
G03X6283690Y-2582620I16809J11377D01*
G02X6303990Y-2602920I-1J-20301D01*
G01Y-2675980D01*
G02X6283690Y-2696280I-20301J1D01*
G03X6266880Y-2705200I-1J-20297D01*
G02X6236060Y-2736210I-97167J65751D01*
G03X6228690Y-2745430I11485J-16736D01*
G02X6204760Y-2757580I-18862J7508D01*
G03X6083800Y-3004400I-35052J-135872D01*
G02Y-3036500I-12425J-16050D01*
G03Y-3258400I85910J-110950D01*
G02Y-3290500I-12425J-16050D01*
G03Y-3512400I85910J-110950D01*
G02Y-3544500I-12425J-16050D01*
G03Y-3766400I85910J-110950D01*
G02Y-3798500I-12425J-16050D01*
G03X6055540Y-3991030I85909J-110949D01*
G02X6039020Y-4023130I-16517J-11801D01*
G01X6029390D01*
Y-4303770D01*
X6303990D01*
Y-4467380D01*
G02X6268230Y-4480530I-20300J5D01*
G03X6075440Y-4682400I-106877J-90924D01*
G02Y-4714500I-12425J-16050D01*
G03Y-4936400I85910J-110950D01*
G02Y-4968500I-12425J-16050D01*
G03Y-5190400I85910J-110950D01*
G02Y-5222500I-12425J-16050D01*
G03Y-5444400I85910J-110950D01*
G02Y-5476500I-12425J-16050D01*
G03Y-5698400I85910J-110950D01*
G02Y-5730500I-12425J-16050D01*
G03Y-5952400I85910J-110950D01*
G02Y-5984500I-12425J-16050D01*
G03X6047180Y-6177030I85909J-110949D01*
G02X6030660Y-6209130I-16517J-11801D01*
G01X6021030D01*
Y-6489770D01*
X6204380D01*
G02X6218740Y-6524420I2J-20300D01*
G01X6169170Y-6573990D01*
X4526170D01*
X4272170Y-6827990D01*
X4163530D01*
G02X4154050Y-6789740I-2J20299D01*
G03X4259350Y-6551460I-98051J185737D01*
G02X4293360Y-6532030I19655J5076D01*
G01X4296350Y-6535020D01*
X5708650D01*
X5950020Y-6293650D01*
Y-1743650D01*
X5978660Y-1715010D01*
X5982150Y-1714590D01*
G03X5915410Y-1647850I-7150J59590D01*
G01X5914990Y-1651340D01*
X5859980Y-1706350D01*
Y-6256350D01*
X5759100Y-6357230D01*
G02X5724450Y-6342870I-14351J14357D01*
G01X5724470Y-6209130D01*
X5714820D01*
G02X5698300Y-6177030I-3J20299D01*
G03X5670040Y-5984500I-114169J81581D01*
G02Y-5952400I12425J16050D01*
G03Y-5730500I-85910J110950D01*
G02Y-5698400I12425J16050D01*
G03Y-5476500I-85910J110950D01*
G02Y-5444400I12425J16050D01*
G03Y-5222500I-85910J110950D01*
G02Y-5190400I12425J16050D01*
G03Y-4968500I-85910J110950D01*
G02Y-4936400I12425J16050D01*
G03Y-4714500I-85910J110950D01*
G02Y-4682400I12425J16050D01*
G03X5498220I-85910J110950D01*
G02Y-4714500I-12425J-16050D01*
G03Y-4936400I85910J-110950D01*
G02Y-4968500I-12425J-16050D01*
G03Y-5190400I85910J-110950D01*
G02Y-5222500I-12425J-16050D01*
G03Y-5444400I85910J-110950D01*
G02Y-5476500I-12425J-16050D01*
G03Y-5698400I85910J-110950D01*
G02Y-5730500I-12425J-16050D01*
G03Y-5952400I85910J-110950D01*
G02Y-5984500I-12425J-16050D01*
G03X5469960Y-6177030I85909J-110949D01*
G02X5453440Y-6209130I-16517J-11801D01*
G01X5443810D01*
Y-6444980D01*
X4333650D01*
X4163650Y-6274980D01*
X3951350D01*
X3526350Y-6699980D01*
X2044320D01*
Y-6429680D01*
X1763680D01*
Y-6439310D01*
G02X1731580Y-6455830I-20299J-3D01*
G03X1554590Y-6467110I-81578J-114170D01*
G01X1547420Y-6473750D01*
X1378650Y-6304980D01*
X1111350D01*
X981350Y-6434980D01*
X894450D01*
Y-6210130D01*
X884820D01*
G02X868300Y-6178030I-3J20299D01*
G03X840040Y-5985500I-114169J81581D01*
G02Y-5953400I12425J16050D01*
G03Y-5731500I-85910J110950D01*
G02Y-5699400I12425J16050D01*
G03Y-5477500I-85910J110950D01*
G02Y-5445400I12425J16050D01*
G03Y-5223500I-85910J110950D01*
G02Y-5191400I12425J16050D01*
G03X893660Y-5095290I-85914J110944D01*
G02X928200Y-5083080I20187J-2147D01*
G01X939980Y-5094860D01*
Y-5204860D01*
X1145140Y-5410020D01*
X1234130D01*
G03Y-5289980I0J60020D01*
G01X1194860D01*
X1143040Y-5238160D01*
G02X1143880Y-5208670I14359J14348D01*
G03X1158470Y-5188900I-39977J44771D01*
G03X1226990Y-5111160I11532J58902D01*
G01X1225020Y-5105220D01*
X1255020Y-5075220D01*
Y-4876440D01*
X1261000Y-4870460D01*
X1263640Y-4869750D01*
G03X1204370Y-4770800I-15379J58014D01*
G03X1124980Y-4859690I-34364J-49206D01*
G01Y-5021350D01*
X1077350Y-5068990D01*
G02X1060020Y-5061810I-7178J7179D01*
G01Y-5045140D01*
X760910Y-4746030D01*
G02X772590Y-4711550I14352J14356D01*
G03X651790Y-4476450I-18459J139100D01*
G02X616680Y-4462570I-14810J13884D01*
G01Y-4032840D01*
G02X636980Y-4012540I20298J2D01*
G03X654260Y-4002890I-3J20302D01*
G02X687780Y-3967690I99878J-61551D01*
G03X695150Y-3958470I-11485J16736D01*
G02X719080Y-3946320I18862J-7508D01*
G03X880250Y-3871970I35055J135872D01*
G02X912850Y-3866510I18247J-8896D01*
G01X1014980Y-3968650D01*
Y-4070690D01*
X1034990Y-4090700D01*
X1035410Y-4094190D01*
G03X1154910Y-4090660I59591J7156D01*
G03X1160800Y-3975030I-12874J58621D01*
G01X1153820Y-3972730D01*
Y-3890150D01*
X1040010Y-3776340D01*
X1039590Y-3772850D01*
G03X976620Y-3720080I-59590J-7152D01*
G03X943530Y-3684780I-56621J-19917D01*
G02X937130Y-3651750I7953J18676D01*
G01X1190040Y-3398840D01*
Y-3291160D01*
X1113840Y-3214960D01*
X1005520D01*
X886360Y-3095800D01*
X888170Y-3089950D01*
G03X868300Y-2966870I-134041J41504D01*
G02X884820Y-2934770I16517J11801D01*
G01X894450D01*
Y-2710020D01*
X1017300D01*
X1186950Y-2540370D01*
G02X1220100Y-2547050I14355J-14356D01*
G03X1464170Y-2412420I129905J53047D01*
G02X1480690Y-2380320I16517J11801D01*
G01X1490320D01*
Y-2099680D01*
X1209680D01*
Y-2295440D01*
X1144620Y-2360490D01*
G02X1114830Y-2359320I-14354J14351D01*
G03X1094040Y-2339500I-106711J-91120D01*
G02Y-2307400I12425J16050D01*
G03Y-2085500I-85910J110950D01*
G02Y-2053400I12425J16050D01*
G03X1122300Y-1860870I-85909J110949D01*
G02X1138820Y-1828770I16517J11801D01*
G01X1148450D01*
Y-1686840D01*
G02X1177310Y-1668430I20300J3D01*
G03X1249790Y-1576910I25291J54431D01*
G01X1247620Y-1574150D01*
Y-1566050D01*
X1395020Y-1418650D01*
Y-1089690D01*
G03X1358960Y-990650I-45021J39693D01*
G01X1350320Y-989350D01*
Y-939680D01*
X1069680D01*
Y-1220320D01*
X1079310D01*
G02X1095830Y-1252420I3J-20299D01*
G03X1173720Y-1469550I114169J-81580D01*
G02X1182820Y-1503510I-5254J-19607D01*
G01X1157580Y-1528750D01*
Y-1548130D01*
X867810D01*
Y-1557760D01*
G02X835710Y-1574280I-20299J-3D01*
G03X668220Y-1799400I-81580J-114170D01*
G02Y-1831500I-12425J-16050D01*
G03Y-2053400I85910J-110950D01*
G02Y-2085500I-12425J-16050D01*
G03Y-2307400I85910J-110950D01*
G02Y-2339500I-12425J-16050D01*
G03X615760Y-2473780I85909J-110950D01*
G02X581390Y-2491510I-20016J-3377D01*
G01X416370Y-2326490D01*
Y-1555740D01*
G03X483190Y-1488920I-60020J126840D01*
G01X550130D01*
G03X688160Y-1463170I60220J60018D01*
G02X717260Y-1453990I18579J-8181D01*
G03X904170Y-1252420I72740J119993D01*
G02X920690Y-1220320I16517J11801D01*
G01X930320D01*
Y-939680D01*
X715660D01*
G02X695360Y-919670I-2J20300D01*
G03X550130Y-860880I-85012J-1229D01*
G01X483190D01*
G03X216460Y-909900I-126840J-60016D01*
G02X187070Y-926430I-20237J1588D01*
G03X154250Y-1039740I-27072J-53567D01*
G01X157880Y-1040090D01*
X230410Y-1112630D01*
X227660Y-1118970D01*
G03X270440Y-1285850I128691J-55933D01*
G02Y-1317950I-12425J-16050D01*
G03X296330Y-1555740I85908J-110951D01*
G01Y-2376210D01*
X613810Y-2693690D01*
Y-2934770D01*
X623440D01*
G02X639960Y-2966870I3J-20299D01*
G03X668220Y-3159400I114169J-81581D01*
G02Y-3191500I-12425J-16050D01*
G03X625440Y-3358380I85911J-110947D01*
G01X628190Y-3364720D01*
X354980Y-3637930D01*
Y-6318650D01*
X561350Y-6525020D01*
X1018650D01*
X1030320Y-6513350D01*
G02X1063830Y-6534430I14357J-14352D01*
G03X1163950Y-6789740I198172J-69573D01*
G02X1154470Y-6827990I-9478J-17951D01*
G01X1020430D01*
X766430Y-6573990D01*
X100000D01*
G02X30010Y-6504000I0J69990D01*
G01Y-6490770D01*
X317230D01*
Y-6210130D01*
X307600D01*
G02X291080Y-6178030I-3J20299D01*
G03X262820Y-5985500I-114169J81581D01*
G02Y-5953400I12425J16050D01*
G03Y-5731500I-85910J110950D01*
G02Y-5699400I12425J16050D01*
G03Y-5477500I-85910J110950D01*
G02Y-5445400I12425J16050D01*
G03Y-5223500I-85910J110950D01*
G02Y-5191400I12425J16050D01*
G03Y-4969500I-85910J110950D01*
G02Y-4937400I12425J16050D01*
G03Y-4715500I-85910J110950D01*
G02Y-4683400I12425J16050D01*
G03Y-4461500I-85910J110950D01*
G02Y-4429400I12425J16050D01*
G03Y-4207500I-85910J110950D01*
G02Y-4175400I12425J16050D01*
G03Y-3953500I-85910J110950D01*
G02Y-3921400I12425J16050D01*
G03Y-3699500I-85910J110950D01*
G02Y-3667400I12425J16050D01*
G03Y-3445500I-85910J110950D01*
G02Y-3413400I12425J16050D01*
G03X66310Y-3216090I-85915J110945D01*
G02X30010Y-3203600I-16001J12491D01*
G01Y-304800D01*
G02X304800Y-30010I274790J0D01*
G01X6029200D01*
G02X6303990Y-304800I0J-274790D01*
G01Y-1764280D01*
G02X6269280Y-1778580I-20300J-1D01*
G03X6083800Y-1988400I-99568J-98874D01*
G02Y-2020500I-12425J-16050D01*
G03Y-2242400I85910J-110950D01*
G02Y-2274500I-12425J-16050D01*
G03X6204760Y-2521320I85908J-110948D01*
G02X6228690Y-2533470I5068J-19658D01*
G03X6236060Y-2542690I18855J7516D01*
G02X6266880Y-2573700I-66347J-96761D01*
G37*
G36*
G01X598650Y-6434980D02*
X445020Y-6281350D01*
Y-3675230D01*
X579160Y-3541090D01*
G02X613810Y-3555570I14352J-14354D01*
G03X620090Y-3597950I140317J-863D01*
G01X621900Y-3603800D01*
X496640Y-3729060D01*
Y-4651520D01*
X751500Y-4906380D01*
G02X739290Y-4940920I-14357J-14353D01*
G03X668220Y-5191400I14839J-139533D01*
G02Y-5223500I-12425J-16050D01*
G03Y-5445400I85910J-110950D01*
G02Y-5477500I-12425J-16050D01*
G03Y-5699400I85910J-110950D01*
G02Y-5731500I-12425J-16050D01*
G03Y-5953400I85910J-110950D01*
G02Y-5985500I-12425J-16050D01*
G03X639960Y-6178030I85909J-110949D01*
G02X623440Y-6210130I-16517J-11801D01*
G01X613810D01*
Y-6434980D01*
X598650D01*
G37*
G36*
G01X1360050Y-6789740D02*
G03X1445940Y-6705380I-98054J185736D01*
G01X1448830Y-6700130D01*
X1464980D01*
Y-6713650D01*
X1541350Y-6790020D01*
X3563650D01*
X3817640Y-6536020D01*
G02X3851740Y-6555100I14357J-14353D01*
G03X3957950Y-6789740I204259J-48900D01*
G02X3948470Y-6827990I-9478J-17951D01*
G01X1369530D01*
G02X1360050Y-6789740I-2J20299D01*
G37*
%LPC*%
G75*
G36*
G01X2607630Y-1888700D02*
X2644980Y-1851350D01*
Y-1728650D01*
X2544980Y-1628650D01*
Y-1378650D01*
X2306340Y-1140010D01*
X2302860Y-1139590D01*
G02X2369590Y-1072860I7140J59590D01*
G01X2370010Y-1076340D01*
X2635020Y-1341350D01*
Y-1591350D01*
X2735020Y-1691350D01*
Y-1888650D01*
X2644930Y-1978740D01*
X2553410D01*
G02Y-1888700I-39690J45020D01*
G01X2607630D01*
G37*
G36*
G01X1264980Y-2847140D02*
Y-2810000D01*
G02X1385020I60020J0D01*
G01Y-2896860D01*
X1380020Y-2901860D01*
Y-3130000D01*
G02X1259980I-60020J0D01*
G01Y-2852140D01*
X1264980Y-2847140D01*
G37*
G36*
G01X4015020Y-1532690D02*
Y-1644350D01*
X4023660Y-1652990D01*
X4027140Y-1653410D01*
G02X3960410Y-1720140I-7140J-59590D01*
G01X3959990Y-1716660D01*
X3924980Y-1681650D01*
Y-1532690D01*
G02X4015020I45020J39690D01*
G37*
G36*
G01X2514140Y-1681480D02*
G02X2566290Y-1731720I-7136J-59594D01*
G02X2525310Y-1841090I-7510J-59549D01*
G01X2465560D01*
X2374980Y-1750510D01*
Y-1488650D01*
X2184170Y-1297840D01*
X1972950D01*
X1913760Y-1238650D01*
Y-1142570D01*
X1949990Y-1106340D01*
X1950410Y-1102860D01*
G02X2067620Y-1126810I59594J-7137D01*
G03X2087100Y-1152800I19485J-5691D01*
G01X2226470D01*
X2505020Y-1431350D01*
Y-1675420D01*
X2510660Y-1681060D01*
X2514140Y-1681480D01*
G37*
G36*
G01X3769870Y-1973390D02*
G03X3774930Y-2001190I16872J-11290D01*
G02X3690130Y-2016610I-34926J-48810D01*
G03X3685070Y-1988810I-16872J11290D01*
G02X3769870Y-1973390I34926J48810D01*
G37*
G36*
G01X5310320Y-1993680D02*
Y-2274320D01*
X5029680D01*
Y-1993680D01*
X5039310D01*
G03X5055830Y-1961580I3J20299D01*
G02X5284170I114170J81580D01*
G03X5300690Y-1993680I16517J-11801D01*
G01X5310320D01*
G37*
G36*
G01X4860320D02*
Y-2274320D01*
X4579680D01*
Y-1993680D01*
X4589310D01*
G03X4605830Y-1961580I3J20299D01*
G02X4834170I114170J81580D01*
G03X4850690Y-1993680I16517J-11801D01*
G01X4860320D01*
G37*
G36*
G01X1790690Y-2380320D02*
G03X1774170Y-2412420I-3J-20299D01*
G02X1545830I-114170J-81580D01*
G03X1529310Y-2380320I-16517J11801D01*
G01X1519680D01*
Y-2099680D01*
X1800320D01*
Y-2380320D01*
X1790690D01*
G37*
G36*
G01X4946680Y-2629290D02*
G03X4933320I-6680J-7643D01*
G02Y-2470710I-69320J79290D01*
G03X4946680I6680J7643D01*
G02Y-2629290I69320J-79290D01*
G37*
G36*
G01X4200000Y-2809980D02*
G02Y-2930020I0J-60020D01*
G01X3570000D01*
G02X3526260Y-2828900I0J60020D01*
G03Y-2801100I-14794J13900D01*
G02X3570000Y-2699980I43740J41100D01*
G01X4120000D01*
G02X4175770Y-2782180I0J-60019D01*
G03X4194630Y-2809980I18864J-7500D01*
G01X4200000D01*
G37*
G36*
G01X4450310Y-3605020D02*
X4239690D01*
G02Y-3514980I-39690J45020D01*
G01X4450310D01*
G02Y-3605020I39690J-45020D01*
G37*
G36*
G01X3561350Y-4195020D02*
X3430260D01*
G02Y-4104980I-130260J45020D01*
G01X3598650D01*
X3658650Y-4164980D01*
X3680150D01*
X3682910Y-4162810D01*
G02X3759690Y-4164980I37087J-47190D01*
G01X3790310D01*
G02Y-4255020I39690J-45020D01*
G01X3759690D01*
G02X3680310I-39690J45020D01*
G01X3621350D01*
X3561350Y-4195020D01*
G37*
G36*
G01X5720450Y-4023130D02*
Y-4303770D01*
X5439810D01*
Y-4023130D01*
X5449440D01*
G03X5465960Y-3991030I3J20299D01*
G02X5494220Y-3798500I114169J81581D01*
G03Y-3766400I-12425J16050D01*
G02Y-3544500I85910J110950D01*
G03Y-3512400I-12425J16050D01*
G02Y-3290500I85910J110950D01*
G03Y-3258400I-12425J16050D01*
G02Y-3036500I85910J110950D01*
G03Y-3004400I-12425J16050D01*
G02X5666040I85910J110950D01*
G03Y-3036500I12425J-16050D01*
G02Y-3258400I-85910J-110950D01*
G03Y-3290500I12425J-16050D01*
G02Y-3512400I-85910J-110950D01*
G03Y-3544500I12425J-16050D01*
G02Y-3766400I-85910J-110950D01*
G03Y-3798500I12425J-16050D01*
G02X5694300Y-3991030I-85909J-110949D01*
G03X5710820Y-4023130I16517J-11801D01*
G01X5720450D01*
G37*
G36*
G01X5300320Y-4219680D02*
Y-4500320D01*
X5019680D01*
Y-4219680D01*
X5029310D01*
G03X5045830Y-4187580I3J20299D01*
G02X5274170I114170J81580D01*
G03X5290690Y-4219680I16517J-11801D01*
G01X5300320D01*
G37*
G36*
G01X4840320D02*
Y-4500320D01*
X4559680D01*
Y-4219680D01*
X4569310D01*
G03X4585830Y-4187580I3J20299D01*
G02X4814170I114170J81580D01*
G03X4830690Y-4219680I16517J-11801D01*
G01X4840320D01*
G37*
G36*
G01X4380320D02*
Y-4500320D01*
X4099680D01*
Y-4219680D01*
X4109310D01*
G03X4125830Y-4187580I3J20299D01*
G02X4354170I114170J81580D01*
G03X4370690Y-4219680I16517J-11801D01*
G01X4380320D01*
G37*
G36*
G01X1485690Y-4808960D02*
X1486110Y-4812440D01*
X1532520Y-4858850D01*
Y-4879080D01*
G03X1558880Y-4898460I20301J-5D01*
G02X1476060Y-4969730I41121J-131541D01*
G01X1442480Y-4936150D01*
Y-4896150D01*
X1422440Y-4876110D01*
X1418960Y-4875690D01*
G02X1485690Y-4808960I7140J59590D01*
G37*
G36*
G01X5050320Y-4960320D02*
Y-5210320D01*
X4769680D01*
Y-4929680D01*
X4776550D01*
G03X4793410Y-4898080I-4J20300D01*
G02X4769690Y-4818000I116587J78087D01*
G02X4991580Y-4701830I140308J2001D01*
G03X5023680Y-4685310I11801J16517D01*
G01Y-4679680D01*
X5304320D01*
Y-4960320D01*
X5050320D01*
G37*
G36*
G01X2618260Y-5182910D02*
X2600010Y-5201160D01*
X2599590Y-5204640D01*
G02X2521240Y-5140490I-59592J7139D01*
G01X2528220Y-5138190D01*
Y-5128110D01*
X2566060Y-5090270D01*
G02X2629730Y-5153940I123940J60270D01*
G01X2618260Y-5165410D01*
Y-5182910D01*
G37*
G36*
G01X1763680Y-6270690D02*
G03X1731580Y-6254170I-20299J3D01*
G02Y-6025830I-81580J114170D01*
G03X1763680Y-6009310I11801J16517D01*
G01Y-5999680D01*
X2044320D01*
Y-6280320D01*
X1763680D01*
Y-6270690D01*
G37*
G36*
G01X2830690Y-6063320D02*
G03X2814170Y-6095420I-3J-20299D01*
G02X2585830I-114170J-81580D01*
G03X2569310Y-6063320I-16517J11801D01*
G01X2559680D01*
Y-5782680D01*
X2840320D01*
Y-6063320D01*
X2830690D01*
G37*
G36*
G01X2400690D02*
G03X2384170Y-6095420I-3J-20299D01*
G02X2155830I-114170J-81580D01*
G03X2139310Y-6063320I-16517J11801D01*
G01X2129680D01*
Y-5782680D01*
X2410320D01*
Y-6063320D01*
X2400690D01*
G37*
G36*
G01X2483680Y-6650690D02*
G03X2451580Y-6634170I-20299J3D01*
G02Y-6405830I-81580J114170D01*
G03X2483680Y-6389310I11801J16517D01*
G01Y-6379680D01*
X2764320D01*
Y-6660320D01*
X2483680D01*
Y-6650690D01*
G37*
G36*
G01X5666040Y-2274500D02*
G02X5494220I-85910J-110950D01*
G03Y-2242400I-12425J16050D01*
G02Y-2020500I85910J110950D01*
G03Y-1988400I-12425J16050D01*
G02X5508540Y-1756770I85910J110946D01*
G03X5505390Y-1720330I-10357J17461D01*
G02X5654750Y-1720280I74614J196330D01*
G03X5651630Y-1756710I7228J-18968D01*
G02X5666040Y-1988400I-71498J-120740D01*
G03Y-2020500I12425J-16050D01*
G02Y-2242400I-85910J-110950D01*
G03Y-2274500I12425J-16050D01*
G37*
G36*
G01X1920000Y-3154750D02*
G02X1834980Y-3070310I-39996J44751D01*
G01Y-2960650D01*
X1819980Y-2945650D01*
Y-2919690D01*
G02X1808120Y-2860850I45021J39690D01*
G02X1795250Y-2770000I31880J50853D01*
G02Y-2690000I44750J40000D01*
G02X1840000Y-2589980I44750J39999D01*
G01X2595860D01*
X2605860Y-2599980D01*
X2643000D01*
G02X2683520Y-2704280I0J-60021D01*
G03X2679730Y-2729550I13702J-14974D01*
G02X2671740Y-2801100I-51728J-30445D01*
G03Y-2828900I14794J-13900D01*
G02X2628000Y-2930020I-43740J-41100D01*
G01X2215140D01*
X2155140Y-2870020D01*
X2014140D01*
X2014120Y-2880150D01*
G02X1999120Y-2919690I-60019J154D01*
G01Y-3038450D01*
X2005020Y-3044350D01*
Y-3070310D01*
G02X1920000Y-3154750I-45024J-39689D01*
G37*
G54D19*
X1353070Y-474960D03*
X1793070D03*
G54D20*
X4755000Y-6310000D03*
Y-5710000D03*
G54D18*
X1600000Y-4580000D03*
X1590000Y-4150000D03*
Y-3700000D03*
X2690000Y-4580000D03*
X2220000D03*
Y-5030000D03*
X2680000Y-3700000D03*
Y-4150000D03*
X2210000D03*
Y-3700000D03*
X3310000Y-4580000D03*
Y-5030000D03*
X3300000Y-3700000D03*
X4370000Y-785000D03*
X4990000D03*
%LPD*%
G75*
G54D10*
X176910Y-5588450D03*
Y-5842450D03*
Y-6096450D03*
Y-4572450D03*
Y-4826450D03*
Y-5080450D03*
Y-5334450D03*
Y-3556450D03*
Y-3810450D03*
Y-4064450D03*
Y-4318450D03*
Y-3302450D03*
X754130Y-5588450D03*
Y-5842450D03*
Y-6096450D03*
Y-4572450D03*
Y-5080450D03*
Y-5334450D03*
Y-4318450D03*
Y-4064450D03*
Y-3810450D03*
Y-3556450D03*
X1350000Y-2494000D03*
X754130Y-3302450D03*
Y-3048450D03*
Y-2450450D03*
X1008130D03*
X790000Y-1334000D03*
X1210000D03*
X356350Y-1428900D03*
X754130Y-2196450D03*
Y-1942450D03*
Y-1688450D03*
X1008130Y-2196450D03*
Y-1942450D03*
X356350Y-1174900D03*
Y-920900D03*
Y-666900D03*
Y-412900D03*
X2370000Y-6520000D03*
X2270000Y-6177000D03*
X1650000Y-6570000D03*
Y-6140000D03*
X1660000Y-2494000D03*
X2700000Y-6177000D03*
X4240000Y-4106000D03*
X5584130Y-5587450D03*
Y-5841450D03*
Y-6095450D03*
X4910000Y-4816000D03*
Y-4820000D03*
X5584130Y-4571450D03*
Y-4825450D03*
Y-5079450D03*
Y-5333450D03*
X4700000Y-4106000D03*
X5160000D03*
X5580130Y-3909450D03*
Y-3655450D03*
Y-3401450D03*
Y-3147450D03*
Y-2893450D03*
Y-2639450D03*
Y-2385450D03*
X4720000Y-1880000D03*
X5170000D03*
X5580130Y-2131450D03*
Y-1877450D03*
X6161350Y-5587450D03*
Y-5841450D03*
Y-6095450D03*
Y-4571450D03*
Y-4825450D03*
Y-5079450D03*
Y-5333450D03*
X6169710Y-3909450D03*
Y-3655450D03*
Y-3401450D03*
Y-3147450D03*
Y-2893450D03*
Y-2639450D03*
Y-2385450D03*
Y-2131450D03*
Y-1877450D03*
G54D11*
X176910Y-6350450D03*
X754130D03*
Y-2794450D03*
X1350000Y-2240000D03*
X1008130Y-1688450D03*
X790000Y-1080000D03*
X1210000D03*
X356350Y-158900D03*
X2270000Y-5923000D03*
X1904000Y-6570000D03*
Y-6140000D03*
X1660000Y-2240000D03*
X2624000Y-6520000D03*
X2700000Y-5923000D03*
X4240000Y-4360000D03*
X5584130Y-6349450D03*
X4910000Y-5070000D03*
X5164000Y-4820000D03*
X4700000Y-4360000D03*
X5160000D03*
X5580130Y-4163450D03*
X4720000Y-2134000D03*
X5170000D03*
X6161350Y-6349450D03*
X6169710Y-4163450D03*
G54D12*
G01X1234130Y-5350000D02*
X1170000D01*
X1000000Y-5180000D01*
Y-5070000D01*
X556660Y-4626660D01*
Y-3753920D01*
X754130Y-3556450D01*
G01D02*
X848550D01*
X1060000Y-3345000D01*
G01X754130Y-3048450D02*
X980660Y-3274980D01*
X1088980D01*
X1130020Y-3316020D01*
Y-3373980D01*
X840400Y-3663600D01*
Y-3724180D01*
X754130Y-3810450D01*
G01X356350Y-1428900D02*
Y-2351350D01*
X655000Y-2650000D01*
X992440D01*
X1179970Y-2462470D01*
Y-2410030D01*
X1350000Y-2240000D01*
G01X610350Y-1428900D02*
X356350D01*
G01X610350Y-1174900D02*
X356350D01*
G01X610350Y-920900D02*
X356350D01*
G01X1325000Y-2810000D02*
Y-2872000D01*
X1320000Y-2877000D01*
Y-3130000D01*
G01X1840000Y-2650000D02*
X2571000D01*
X2581000Y-2660000D01*
X2643000D01*
G01X1840000Y-2730000D02*
X2270000D01*
X2300000Y-2760000D01*
X2628000D01*
G01X1840000Y-2810000D02*
X2180000D01*
X2240000Y-2870000D01*
X2628000D01*
G01X3570000Y-2760000D02*
X4120000D01*
G01X3570000Y-2870000D02*
X4200000D01*
X85000Y-2780000D03*
X80000Y-2935000D03*
Y-3090000D03*
X230000Y-2375000D03*
X220000Y-1520000D03*
X150000Y-2260000D03*
Y-2110000D03*
Y-1950000D03*
Y-1780000D03*
Y-1640000D03*
X60000Y-1010000D03*
Y-890000D03*
Y-530000D03*
Y-410000D03*
X230000Y-1280000D03*
X160000Y-980000D03*
X220000Y-140000D03*
X1045000Y-6785000D03*
X950000Y-6680000D03*
X1220000Y-6130000D03*
X1070000Y-5980000D03*
X970000Y-6270000D03*
X950000Y-6370000D03*
X855000Y-6580000D03*
X1180000Y-5730000D03*
X1230000Y-5830000D03*
X330000Y-5660000D03*
Y-5915000D03*
X355000Y-6430000D03*
X330000Y-6170000D03*
X455000Y-6540000D03*
X595000Y-6170000D03*
Y-5920000D03*
X605000Y-5660000D03*
X1185000Y-5445000D03*
Y-5580000D03*
X295000Y-4695000D03*
X1130000Y-4685000D03*
X905000Y-4820000D03*
X325000Y-5155000D03*
Y-5405000D03*
X605000D03*
X600000Y-5150000D03*
X470000Y-4880000D03*
X645000D03*
X470000Y-4630000D03*
X1234130Y-5350000D03*
X1170000Y-4820000D03*
X1103900Y-5163900D03*
X1248260Y-4811740D03*
X1170000Y-5130000D03*
X300000Y-3680000D03*
Y-3935000D03*
X295000Y-4185000D03*
X290000Y-4440000D03*
X1130000Y-4500000D03*
Y-4380000D03*
X470000Y-4375000D03*
Y-4115000D03*
Y-3860000D03*
X550000Y-3615000D03*
X1095000Y-4087040D03*
X920000Y-3740000D03*
X1142040Y-4032040D03*
X980000Y-3780000D03*
X350000Y-2515000D03*
X940000Y-3110000D03*
X1050000D03*
X1225000Y-2660000D03*
X1240000Y-2720000D03*
X490000Y-2625000D03*
X555000Y-2695000D03*
X305000Y-2780000D03*
Y-2940000D03*
X500000D03*
X550000Y-3090000D03*
X320000Y-3095000D03*
X555000Y-3355000D03*
X405000Y-3370000D03*
X944660Y-2755340D03*
X1200000Y-2880000D03*
X1060000Y-3345000D03*
Y-1490000D03*
X930000D03*
X820000Y-1510000D03*
X710000D03*
X585000Y-1590000D03*
X460000Y-1595000D03*
X240000Y-1585000D03*
X485000Y-2295000D03*
X1290000Y-1560000D03*
X1260000Y-1700000D03*
X1202600Y-1614000D03*
X670000Y-380000D03*
X910000Y-800000D03*
X830000Y-900000D03*
X735000Y-825000D03*
X870000Y-725000D03*
X940000Y-635000D03*
X825000D03*
X725000Y-695000D03*
X620000Y-795000D03*
X1155000Y-370000D03*
X1045000D03*
X930000D03*
X800000D03*
X720000Y-435000D03*
X640000Y-515000D03*
X385000Y-540000D03*
X270000D03*
X440000Y-1050000D03*
X1055000Y-525000D03*
X848130Y-528130D03*
X515000Y-660000D03*
X978070Y-878070D03*
X1129960Y-739960D03*
X1263070Y-896930D03*
Y-623070D03*
X880000Y-210000D03*
X760000Y-220000D03*
X610000D03*
X930000Y-140000D03*
X670000D03*
X540000D03*
X1280000Y-175000D03*
X1139960Y-139960D03*
X810040D03*
X2080000Y-5650000D03*
X2260000Y-6670000D03*
X2275000Y-6365000D03*
X2095000Y-5995000D03*
Y-6115000D03*
X2100000Y-6245000D03*
X2135000Y-6390000D03*
X2140000Y-6530000D03*
Y-6650000D03*
X1510000Y-6240000D03*
X1310000Y-5740000D03*
X1300000Y-5890000D03*
X1640000Y-5640000D03*
X1650000Y-5820000D03*
X1450000Y-5900000D03*
X1675000Y-5720000D03*
X1450000Y-5740000D03*
X2080000Y-5910000D03*
X1305000Y-5565000D03*
X1315000Y-5450000D03*
X1345000Y-4720000D03*
X2250000Y-5600000D03*
X2350000Y-5325000D03*
X2135000Y-5330000D03*
X1905000Y-5245000D03*
X1620000Y-5240000D03*
X1310000Y-5235000D03*
X2075000Y-4740000D03*
Y-4895000D03*
X1755000Y-4900000D03*
X1760000Y-4740000D03*
X2255000Y-4805000D03*
X1680000Y-5560000D03*
X1450000D03*
X2140000Y-5570000D03*
X1426100Y-4816100D03*
X2245000Y-3935000D03*
X1335000Y-3920000D03*
X1345000Y-4160000D03*
Y-4420000D03*
X2040000Y-4385000D03*
X1755000Y-4370000D03*
X1750000Y-2780000D03*
Y-2690000D03*
X2290000Y-3430000D03*
X1405000Y-2800000D03*
Y-2670000D03*
X1750000Y-2860000D03*
X1680000Y-2690000D03*
Y-2780000D03*
X1320000Y-3130000D03*
X1325000Y-2810000D03*
X1840000Y-2650000D03*
Y-2730000D03*
Y-2810000D03*
X1865000Y-2880000D03*
X1880000Y-3110000D03*
X1954100Y-2880000D03*
X1960000Y-3110000D03*
X1660000Y-1975000D03*
X1650000Y-2050000D03*
X1300000D03*
X1815000Y-2405000D03*
X1860000Y-2295000D03*
Y-2230000D03*
Y-2160000D03*
X1865000Y-2045000D03*
X1855000Y-1940000D03*
Y-1830000D03*
X1870000Y-1690000D03*
X1800000Y-1650000D03*
X1875000Y-1385000D03*
X1820000Y-1430000D03*
X1650000D03*
X1460000Y-1470000D03*
X1440000Y-2025000D03*
Y-1905000D03*
X1380000Y-1500000D03*
X1530000Y-1790000D03*
X1470000D03*
X1400000D03*
X1330000D03*
X2320000Y-300000D03*
X2240000Y-1130000D03*
X2220000Y-1010000D03*
X2120000Y-900000D03*
X1910000Y-1320000D03*
X2115000Y-330000D03*
X2225000Y-445000D03*
X2280000Y-625000D03*
Y-770000D03*
X2320000Y-925000D03*
X1490000Y-895000D03*
X1415000D03*
X1495000Y-625000D03*
X1415000D03*
X1790000Y-1175000D03*
X1730000Y-1210000D03*
X1605000D03*
X1500000D03*
X1945000Y-510000D03*
X1868070Y-878070D03*
Y-601930D03*
X1343070Y-896930D03*
Y-623070D03*
X2029960Y-739960D03*
X1350000Y-1050000D03*
X2010000Y-1110000D03*
X2310000Y-1080000D03*
X2017820Y-1197820D03*
X1630000Y-85000D03*
X1375000D03*
X1605000Y-205000D03*
X1435000Y-210000D03*
X1735000D03*
X2220000Y-205000D03*
X1535000Y-170000D03*
X1710040Y-139960D03*
X2450000Y-6670000D03*
X3370000Y-5920000D03*
X3360000Y-6050000D03*
X2870000Y-5660000D03*
X2695000Y-5730000D03*
X3020000Y-5800000D03*
X3280000Y-5805000D03*
X3100000D03*
X2980000Y-6390000D03*
X2850000Y-6500000D03*
X2930000Y-6340000D03*
X2790000Y-6345000D03*
X2420000Y-6360000D03*
X2540000Y-5640000D03*
X3020000Y-6470000D03*
X2950000Y-6540000D03*
X3370000Y-5530000D03*
X3040000Y-5520000D03*
X2640000Y-5590000D03*
X3310000Y-5215000D03*
X3045000D03*
X2785000D03*
X2530000Y-5290000D03*
X2425000Y-5410000D03*
X2445000Y-5010000D03*
X2835000Y-4740000D03*
X3165000Y-4880000D03*
X2580000Y-4810000D03*
X3405000Y-4825000D03*
X3340000Y-5370000D03*
X3170000D03*
X3000000D03*
X2830000D03*
X2660000Y-5410000D03*
X2580000Y-5490000D03*
X2540000Y-5197500D03*
X3325000Y-3495000D03*
X2875000Y-3625000D03*
X3110000Y-3620000D03*
X2465000Y-3695000D03*
X2400000Y-3820000D03*
X2580000Y-4380000D03*
X3160000D03*
X3365000Y-3920000D03*
X2655000Y-3925000D03*
X2480000Y-4045000D03*
X2450000Y-4285000D03*
X3270000Y-2480000D03*
X3120000Y-2500000D03*
X3100000Y-2420000D03*
X3050000Y-2540000D03*
X2840000Y-2620000D03*
X2770000Y-2570000D03*
X2740000Y-2470000D03*
X3425000Y-2580000D03*
X3400000Y-2660000D03*
X3290000Y-3180000D03*
X3220000Y-3380000D03*
X2805000Y-3390000D03*
X2530000Y-3400000D03*
X3280000Y-2970000D03*
X3050000Y-2965000D03*
X2790000D03*
X2570000Y-2970000D03*
X2575000Y-3125000D03*
X2455000Y-3265000D03*
X3360000Y-2550000D03*
X3130000Y-2590000D03*
X3195000Y-2490000D03*
X2970000Y-2615000D03*
X2810000Y-2480000D03*
X2560000Y-2530000D03*
X3350000Y-2480000D03*
X2643000Y-2660000D03*
X2628000Y-2760000D03*
Y-2870000D03*
X3080000Y-2210000D03*
X3370000Y-2390000D03*
X3090000Y-2310000D03*
X3300000Y-1790000D03*
X3130000D03*
X2960000D03*
X3300000Y-1620000D03*
X3130000D03*
X2960000D03*
X2710000Y-2160000D03*
X2722000Y-2000270D03*
X2660000D03*
X2850000Y-2130000D03*
X2780000Y-2140000D03*
X2880000Y-1880000D03*
X3020000Y-1960000D03*
X2950000D03*
X2885000D03*
X2575000Y-2260000D03*
X2560000Y-2370000D03*
X2790000Y-2400000D03*
X2725000Y-2375000D03*
X2585000Y-2185000D03*
X3294730Y-1540590D03*
X3296790Y-1707630D03*
Y-1879830D03*
X3120470Y-1541630D03*
X3128720Y-1704550D03*
X3126650Y-1877780D03*
X2952390Y-1536470D03*
X2957550Y-1705580D03*
X2955490Y-1873650D03*
X2558780Y-1791270D03*
X2513720Y-1933720D03*
X2507000Y-1741070D03*
X2500000Y-450000D03*
X2390000Y-470000D03*
X2400000Y-600000D03*
X2640000Y-595000D03*
X2455000Y-810000D03*
X2810000Y-745000D03*
Y-680000D03*
X2845000Y-500000D03*
X3075000Y-545000D03*
X3105000Y-625000D03*
Y-715000D03*
Y-805000D03*
Y-900000D03*
X3160000Y-535000D03*
X3185000Y-450000D03*
X3245000Y-510000D03*
Y-625000D03*
X3175000Y-1000000D03*
X2660000Y-325000D03*
X2560000Y-1030000D03*
X2435000Y-1035000D03*
X2950000Y-305000D03*
X3175000Y-805000D03*
X2723950Y-1022120D03*
X3245000Y-1000000D03*
Y-900000D03*
Y-805000D03*
Y-715000D03*
X3075000Y-455000D03*
X3175000Y-715000D03*
X2453620Y-713430D03*
X3175000Y-625000D03*
X2961520Y-450980D03*
X2753090Y-483910D03*
X2750000Y-590000D03*
X2575080Y-713430D03*
X3175000Y-900000D03*
X2810000Y-210000D03*
X2690000D03*
X2560000Y-100000D03*
X2490000Y-260000D03*
X2725000Y-120000D03*
X2950000Y-60000D03*
Y-155000D03*
X3600000Y-6800000D03*
X3770000D03*
X3915000D03*
X3825000Y-6710000D03*
X4260000Y-6770000D03*
X3850000Y-5980000D03*
X3730000Y-5800000D03*
X3530000D03*
X3430000D03*
X3690000Y-6090000D03*
X3820000Y-6080000D03*
X3665000Y-6365000D03*
X3525000Y-6375000D03*
X3810000Y-6590000D03*
X4315000Y-6660000D03*
X4220000Y-5905000D03*
Y-5690000D03*
X4045000Y-6075000D03*
X4040000Y-5770000D03*
X3840000Y-5870000D03*
X3860000Y-6170000D03*
X4025000Y-6250000D03*
X3850000Y-6340000D03*
X4145000Y-6250000D03*
X3695000Y-6450000D03*
X4410000Y-5735000D03*
X4400000Y-5900000D03*
X4445000Y-6615000D03*
X4410000Y-6325000D03*
X3520000Y-6470000D03*
X3600000Y-6540000D03*
X4240000Y-6315000D03*
X3620000Y-5530000D03*
X4285000Y-5305000D03*
X3855000Y-5320000D03*
X3845000Y-5510000D03*
X3610000Y-4945000D03*
X3560000Y-5085000D03*
X3490000Y-5200000D03*
X4145000Y-4675000D03*
X4205000Y-4545000D03*
X4460000Y-4970000D03*
X4224000Y-4904000D03*
X4371000D03*
X4290000Y-4830000D03*
X4200000Y-5150000D03*
X4040000D03*
X3830000Y-4550000D03*
X3825000Y-4945000D03*
X3515000Y-4685000D03*
X3985000Y-4545000D03*
X3990000Y-4960000D03*
X3840000Y-5150000D03*
X3760000Y-5230000D03*
X3610000Y-5370000D03*
X4120000Y-5225000D03*
X4290000Y-4970000D03*
X4460000Y-4835000D03*
X4380000Y-3980000D03*
Y-4180000D03*
X4485000Y-4405000D03*
X3500000Y-3605000D03*
X3490000Y-4370000D03*
X3605000Y-3915000D03*
X4365000Y-4530000D03*
X4400000Y-4340000D03*
X4370000Y-3865000D03*
X4335000Y-3745000D03*
X4270000Y-3670000D03*
X4050000Y-3600000D03*
Y-3965000D03*
X3895000Y-3540000D03*
Y-3710000D03*
Y-3905000D03*
Y-4105000D03*
X3900000Y-4375000D03*
X3720000Y-4210000D03*
X3830000D03*
X4200000Y-3560000D03*
X4490000D03*
X3525000Y-2660000D03*
X3595000Y-2610000D03*
X3530000Y-2540000D03*
X3465000Y-2480000D03*
X3500000Y-3180000D03*
X3490000Y-3380000D03*
X3655000Y-3420000D03*
Y-3205000D03*
Y-2960000D03*
X3520000Y-2965000D03*
X4420000Y-2545000D03*
Y-2715000D03*
Y-2905000D03*
Y-3075000D03*
Y-3290000D03*
X4150000Y-3410000D03*
X4160000Y-3205000D03*
Y-3040000D03*
X4265000Y-3275000D03*
X4270000Y-3110000D03*
Y-2955000D03*
Y-2800000D03*
Y-2655000D03*
Y-2510000D03*
X4050000Y-2465000D03*
Y-2670000D03*
Y-2960000D03*
Y-3120000D03*
Y-3335000D03*
X3890000Y-2560000D03*
X3895000Y-2660000D03*
Y-2975000D03*
Y-3175000D03*
Y-3355000D03*
X4420000Y-3460000D03*
X4270000D03*
X3570000Y-2760000D03*
X4120000D03*
X4200000Y-2870000D03*
X3570000D03*
X4380000Y-1940000D03*
X4420000Y-1750000D03*
X3565000Y-1995000D03*
X3925000Y-2000000D03*
X3850000Y-2270000D03*
X4410000Y-1490000D03*
X4220000D03*
X4075000D03*
X4375000Y-1850000D03*
X4270000Y-1765000D03*
X4365000Y-1650000D03*
X4210000D03*
X4230000Y-1880000D03*
X4385000Y-2035000D03*
X4210000Y-2045000D03*
X4340000Y-2175000D03*
X4420000Y-2360000D03*
X4270000Y-2350000D03*
X4180000Y-2260000D03*
X4080000Y-2155000D03*
X3980000Y-2060000D03*
X3750000Y-2160000D03*
X3650000Y-2090000D03*
X3925000Y-2345000D03*
X3570000Y-2235000D03*
X3645000Y-2310000D03*
X3715000Y-2380000D03*
X3600000Y-2040000D03*
X3840000Y-1770000D03*
Y-1690000D03*
Y-1890000D03*
X3740000Y-2050000D03*
X3720000Y-1940000D03*
X4020000Y-1713000D03*
X3970000Y-1493000D03*
X3750000Y-1070000D03*
X3740000Y-880000D03*
X3730000Y-660000D03*
Y-520000D03*
X3660000Y-590000D03*
X3670000Y-780000D03*
X3675000Y-1010000D03*
X3820000Y-1195000D03*
X3745000Y-1145000D03*
X3635000Y-1255000D03*
X3480000Y-1345000D03*
X3545000Y-1270000D03*
X3520000Y-605000D03*
Y-685000D03*
X3550000Y-870000D03*
X3545000Y-950000D03*
X3510000Y-455000D03*
X4005000Y-510000D03*
X4065000Y-310000D03*
X4115000Y-640000D03*
X4085000Y-835000D03*
X4455000Y-1110000D03*
X4210000Y-1105000D03*
X4175000Y-1255000D03*
X4025000Y-1250000D03*
X3640000Y-470000D03*
X3750000Y-415000D03*
X3755000Y-295000D03*
X3595000Y-1085000D03*
X3635000Y-1175000D03*
X3520680Y-788580D03*
X3524720Y-508580D03*
X3450000Y-655000D03*
Y-850000D03*
Y-570000D03*
Y-745000D03*
Y-935000D03*
X3545000Y-1030000D03*
X3450000Y-1035000D03*
X3495000Y-1085000D03*
X4060000Y-85000D03*
X3755000Y-175000D03*
X3750000Y-60000D03*
X4755000Y-6310000D03*
Y-5710000D03*
X4865000Y-5845000D03*
X4730000Y-5945000D03*
X4935000Y-6250000D03*
X4915000Y-6545000D03*
X4775000D03*
X4640000D03*
X4560000Y-6240000D03*
X4675000Y-6170000D03*
X4905000Y-6075000D03*
X5060000Y-5810000D03*
X5055000Y-5965000D03*
Y-6120000D03*
X5250000Y-6115000D03*
X5255000Y-5990000D03*
X5250000Y-5810000D03*
X5400000D03*
X5395000Y-5965000D03*
X5390000Y-6100000D03*
X5410000Y-6290000D03*
X5350000Y-6545000D03*
X5555000D03*
X4615000Y-5950000D03*
Y-5795000D03*
X4535000Y-6545000D03*
X5215000D03*
X5060000D03*
X5005000Y-6360000D03*
X5105000Y-6250000D03*
X5270000D03*
X4655000Y-5300000D03*
Y-4975000D03*
X5390000Y-4605000D03*
X5395000Y-4765000D03*
X5380000Y-4925000D03*
X5385000Y-5140000D03*
X5350000Y-5260000D03*
X5345000Y-5450000D03*
X4830000Y-5570000D03*
X5075000Y-5470000D03*
X5205000Y-5370000D03*
X5260000Y-5220000D03*
Y-5055000D03*
X5080000Y-5080000D03*
X5085000Y-5215000D03*
X5025000Y-5300000D03*
X4915000Y-5390000D03*
X4710000Y-5400000D03*
X4555000Y-5530000D03*
X5025000Y-4590000D03*
X4885000Y-4625000D03*
X4725000D03*
X4630000Y-4650000D03*
X4534000Y-4904000D03*
X4565000Y-4650000D03*
X4830000Y-3990000D03*
X5020000Y-4190000D03*
X4840000D03*
X4550000D03*
X5495000Y-4370000D03*
X5345000Y-3670000D03*
X5215000Y-3805000D03*
X5180000Y-3570000D03*
X5040000Y-3535000D03*
X4790000Y-3515000D03*
X4600000Y-3600000D03*
X4745000Y-3750000D03*
X5090000Y-3955000D03*
X5305000Y-4035000D03*
X5310000Y-4220000D03*
X4765000Y-3890000D03*
X4950000Y-4335000D03*
X4880000Y-4455000D03*
X5300000Y-4510000D03*
X5135000D03*
X5210000Y-2460000D03*
X5340000Y-2800000D03*
X4930000Y-2955000D03*
X4650000Y-2945000D03*
X4550000Y-2710000D03*
Y-2600000D03*
X5360000Y-2895000D03*
X5340000Y-3165000D03*
X5350000Y-3430000D03*
X5180000Y-3260000D03*
Y-3000000D03*
X4940000Y-2810000D03*
X4960000Y-3090000D03*
X4965000Y-3365000D03*
X4755000Y-3345000D03*
X4735000Y-3080000D03*
X5280000Y-2520000D03*
X5160000Y-2545000D03*
X5120000Y-2830000D03*
X5045000Y-2760000D03*
X4825000D03*
X4750000Y-2835000D03*
X4540000Y-2505000D03*
Y-2850000D03*
X4535000Y-3100000D03*
X4545000Y-3380000D03*
X4710000Y-2330000D03*
X4870000Y-1960000D03*
X4880000Y-1810000D03*
X4550000Y-2230000D03*
X4860000Y-1690000D03*
X4945000Y-2255000D03*
X4725000Y-1700000D03*
X5280000Y-1520000D03*
X5065000Y-1375000D03*
X5085000Y-1715000D03*
X4865000Y-1490000D03*
X4695000D03*
X5275000Y-2355000D03*
X4820000D03*
X4560000Y-2375000D03*
X4780000Y-1650000D03*
X5105000Y-2405000D03*
X5390000Y-1215000D03*
X5485000Y-985000D03*
X5415000Y-685000D03*
X4615000D03*
X4800000Y-690000D03*
X5170000D03*
X5160000Y-920000D03*
X5025000Y-980000D03*
X5145000Y-1235000D03*
X5085000Y-1110000D03*
X4885000D03*
X4795000Y-1250000D03*
X4545000Y-1265000D03*
X5835000Y-6450000D03*
X5820000Y-6540000D03*
X5990000D03*
X5975000Y-6265000D03*
Y-6180000D03*
Y-6010000D03*
X5980000Y-5935000D03*
X5985000Y-5760000D03*
Y-5670000D03*
Y-5505000D03*
X5980000Y-5415000D03*
X5975000Y-5255000D03*
Y-5160000D03*
Y-5000000D03*
X5970000Y-4905000D03*
X5975000Y-4745000D03*
Y-4655000D03*
X6265000Y-4375000D03*
X6135000D03*
X5835000Y-4305000D03*
X5715000Y-4370000D03*
X5965000Y-4065000D03*
X6010000Y-3990000D03*
X5980000Y-3830000D03*
Y-3735000D03*
Y-3575000D03*
X5985000Y-3480000D03*
X5990000Y-3325000D03*
X5985000Y-3225000D03*
Y-3070000D03*
Y-2975000D03*
X6070000Y-2750000D03*
X5820000Y-2680000D03*
X5670000Y-2755000D03*
X6085000Y-2525000D03*
X5665000D03*
X5990000Y-2260000D03*
X5690000D03*
X5700000Y-2005000D03*
X6050000Y-2000000D03*
X5875000Y-1375000D03*
X6110000Y-1435000D03*
X5875000Y-1630000D03*
X5975000Y-1655000D03*
X6100000Y-1230000D03*
X5740000D03*
Y-995000D03*
X5760000Y-705000D03*
X6190000Y-995000D03*
X5875000Y-735000D03*
X6190000Y-725000D03*
X5735000Y-425000D03*
X6150000Y-355000D03*
X5740000Y-125000D03*
G54D13*
X610350Y-1428900D03*
Y-412900D03*
Y-666900D03*
Y-920900D03*
Y-1174900D03*
Y-158900D03*
X4864000Y-2550000D03*
X5016000D03*
G54D14*
X1600000Y-4580000D03*
X2220000D03*
X1600000Y-5030000D03*
X2220000D03*
X2210000Y-4150000D03*
X1590000D03*
X2210000Y-3700000D03*
X1590000D03*
X2690000Y-4580000D03*
X3310000D03*
X2690000Y-5030000D03*
X3310000D03*
X2680000Y-3700000D03*
X3300000D03*
X2680000Y-4150000D03*
X3300000D03*
X4370000Y-785000D03*
Y-1235000D03*
X4990000Y-785000D03*
Y-1235000D03*
G54D15*
G01X356350Y-1174900D02*
X161450Y-980000D01*
X160000D01*
G01X754130Y-3302450D02*
X400000Y-3656580D01*
Y-6300000D01*
X580000Y-6480000D01*
X1000000D01*
X1130000Y-6350000D01*
X1360000D01*
X1510000Y-6500000D01*
Y-6695000D01*
X1560000Y-6745000D01*
X3545000D01*
X3970000Y-6320000D01*
X4145000D01*
X4315000Y-6490000D01*
X5690000D01*
X5905000Y-6275000D01*
Y-1725000D01*
X5975000Y-1655000D01*
G01X1170000Y-4820000D02*
Y-5040000D01*
X1103900Y-5106100D01*
Y-5163900D01*
G01X1170000Y-5130000D02*
Y-5096570D01*
X1210000Y-5056570D01*
Y-4857790D01*
X1225000Y-4842790D01*
Y-4835000D01*
X1248260Y-4811740D01*
G01X1095000Y-4087040D02*
X1060000Y-4052040D01*
Y-3950000D01*
X920000Y-3810000D01*
Y-3740000D01*
G01X980000Y-3780000D02*
X1108800Y-3908800D01*
Y-3998800D01*
X1142040Y-4032040D01*
G01X1350000Y-1050000D02*
Y-1400000D01*
X1202600Y-1547400D01*
Y-1614000D01*
G01X1426100Y-4816100D02*
X1487500Y-4877500D01*
Y-4917500D01*
X1600000Y-5030000D01*
G01X1880000Y-3110000D02*
Y-2942000D01*
X1865000Y-2927000D01*
Y-2880000D01*
G01X1960000Y-3110000D02*
Y-3063000D01*
X1954100Y-3057100D01*
Y-2880000D01*
G01X2558780Y-1791270D02*
X2553980Y-1796070D01*
X2484210D01*
X2420000Y-1731860D01*
Y-1470000D01*
X2202820Y-1252820D01*
X1991600D01*
X1958780Y-1220000D01*
Y-1161220D01*
X2010000Y-1110000D01*
G01X2513720Y-1933720D02*
X2626280D01*
X2690000Y-1870000D01*
Y-1710000D01*
X2590000Y-1610000D01*
Y-1360000D01*
X2310000Y-1080000D01*
G01X2017820Y-1197820D02*
X2207820D01*
X2460000Y-1450000D01*
Y-1694070D01*
X2507000Y-1741070D01*
G01X2540000Y-5197500D02*
X2573240Y-5164260D01*
Y-5146760D01*
X2690000Y-5030000D01*
G01X3720000Y-4210000D02*
X3640000D01*
X3580000Y-4150000D01*
X3300000D01*
G01X2349760Y-2057760D02*
Y-2076360D01*
G01X3830000Y-4210000D02*
X3720000D01*
G01X4490000Y-3560000D02*
X4200000D01*
G01X4020000Y-1713000D02*
X3970000Y-1663000D01*
Y-1493000D01*
G01X4565000Y-4650000D02*
X4630000D01*
X1353070Y-474960D03*
X1793070D03*
G54D16*
X3093910Y-220000D03*
X3601910D03*
G54D17*
G01X254000Y-6604000D02*
X100000D01*
G01D02*
G02X0Y-6504000I0J100000D01*
G01D02*
Y-304800D01*
G01X254000Y-6604000D02*
X100000D01*
G01D02*
G02X0Y-6504000I0J100000D01*
G01D02*
Y-304800D01*
G01X254000Y-6604000D02*
X100000D01*
G01D02*
G02X0Y-6504000I0J100000D01*
G01D02*
Y-304800D01*
G01X254000Y-6604000D02*
X100000D01*
G01D02*
G02X0Y-6504000I0J100000D01*
G01D02*
Y-304800D01*
G01X254000Y-6604000D02*
X100000D01*
G01D02*
G02X0Y-6504000I0J100000D01*
G01D02*
Y-304800D01*
G01X254000Y-6604000D02*
X100000D01*
G01D02*
G02X0Y-6504000I0J100000D01*
G01D02*
Y-304800D01*
G01X254000Y-6604000D02*
X100000D01*
G01D02*
G02X0Y-6504000I0J100000D01*
G01D02*
Y-304800D01*
G01X254000Y-6604000D02*
X100000D01*
G01D02*
G02X0Y-6504000I0J100000D01*
G01D02*
Y-304800D01*
G01X254000Y-6604000D02*
X100000D01*
G01D02*
G02X0Y-6504000I0J100000D01*
G01D02*
Y-304800D01*
G01X254000Y-6604000D02*
X100000D01*
G01D02*
G02X0Y-6504000I0J100000D01*
G01D02*
Y-304800D01*
G01X254000Y-6604000D02*
X100000D01*
G01D02*
G02X0Y-6504000I0J100000D01*
G01D02*
Y-304800D01*
G01X6334000D02*
G03X6029200Y0I-304800J0D01*
G01X304800D01*
G03X0Y-304800I0J-304800D01*
G01X1262000Y-6764000D02*
G03Y-6444000I0J160000D01*
G03Y-6764000I0J-160000D01*
G01X254000Y-6604000D02*
X754000D01*
X1008000Y-6858000D01*
X4284600D01*
X4538600Y-6604000D01*
G01X4056000Y-6764000D02*
G03Y-6444000I0J160000D01*
G03Y-6764000I0J-160000D01*
G01X4538600Y-6604000D02*
X4284600Y-6858000D01*
G01X4538600Y-6604000D02*
X4284600Y-6858000D01*
G01X4538600Y-6604000D02*
X4284600Y-6858000D01*
G01X4538600Y-6604000D02*
X4284600Y-6858000D01*
G01X4538600Y-6604000D02*
X4284600Y-6858000D01*
G01X4538600Y-6604000D02*
X4284600Y-6858000D01*
G01X4538600Y-6604000D02*
X4284600Y-6858000D01*
G01X4538600Y-6604000D02*
X4284600Y-6858000D01*
G01X4538600Y-6604000D02*
X4284600Y-6858000D01*
G01X4538600Y-6604000D02*
X4284600Y-6858000D01*
G01X4538600Y-6604000D02*
X4284600Y-6858000D01*
G01X6334000Y-6451600D02*
X6181600Y-6604000D01*
X4538600D01*
G01X5580000Y-1684000D02*
G03Y-1364000I0J160000D01*
G03Y-1684000I0J-160000D01*
G01X6334000Y-304800D02*
Y-6451600D01*
G01Y-304800D02*
Y-6451600D01*
G01Y-304800D02*
Y-6451600D01*
G01Y-304800D02*
Y-6451600D01*
G01Y-304800D02*
Y-6451600D01*
G01Y-304800D02*
Y-6451600D01*
G01Y-304800D02*
Y-6451600D01*
G01Y-304800D02*
Y-6451600D01*
G01Y-304800D02*
Y-6451600D01*
G01Y-304800D02*
Y-6451600D01*
G01Y-304800D02*
Y-6451600D01*
M02*
