G04 ================== begin FILE IDENTIFICATION RECORD ==================*
G04 Layout Name:  C1T139A30_V1_2.brd*
G04 Film Name:    PASTEMASK_TOP*
G04 File Format:  Gerber RS274X*
G04 File Origin:  Cadence Allegro 16.3-p003*
G04 Origin Date:  Fri Oct 19 14:41:28 2018*
G04 *
G04 Layer:  PIN/PASTEMASK_TOP*
G04 Layer:  PACKAGE GEOMETRY/PASTEMASK_TOP*
G04 Layer:  BOARD GEOMETRY/OUTLINE*
G04 *
G04 Offset:    (0.0000 0.0000)*
G04 Mirror:    No*
G04 Mode:      Positive*
G04 Rotation:  0*
G04 FullContactRelief:  No*
G04 UndefLineWidth:     0.1000*
G04 ================== end FILE IDENTIFICATION RECORD ====================*
%FSLAX35Y35*MOMM*%
%IR0*IPPOS*OFA0.00000B0.00000*MIA0B0*SFA1.00000B1.00000*%
%ADD16R,.5X2.*%
%ADD23R,.5X4.*%
%ADD15R,.6X1.25*%
%ADD26C,.8*%
%ADD11R,.5X.5*%
%ADD10R,.8X.8*%
%ADD18R,1.2X1.*%
%AMMACRO14*
21,1,.3,1.1,0.0,0.0,45.*
1,1,1.1,.106066,.106066*
1,1,1.1,-.106066,-.106066*%
%ADD14MACRO14*%
%ADD24R,2.X4.*%
%ADD22R,1.4X1.3*%
%ADD25R,3.X1.5*%
%ADD17R,3.X1.15*%
%ADD12R,2.5X2.2*%
%ADD19R,4.2X4.2*%
%ADD20O,.26X.6*%
%ADD13C,1.1*%
%ADD21O,.6X.26*%
%ADD27C,.1*%
G75*
%LPD*%
G75*
G54D10*
X150000Y-1710000D03*
Y-1870000D03*
Y-2030000D03*
Y-2190000D03*
X310000Y-1710000D03*
Y-1870000D03*
Y-2030000D03*
Y-2190000D03*
X1870000Y-2530000D03*
Y-2370000D03*
X1860000Y-1600000D03*
X1700000D03*
X1860000Y-1760000D03*
X1700000D03*
X4120000Y-5150000D03*
Y-4990000D03*
G54D20*
X2847910Y-1376070D03*
X2897910D03*
X2947910D03*
X2997910D03*
X3047910D03*
X3097910D03*
X3147910D03*
X3197910D03*
X3247910D03*
X3297910D03*
X3347910D03*
X3397910D03*
Y-2046070D03*
X3347910D03*
X3297910D03*
X3247910D03*
X3197910D03*
X3147910D03*
X3097910D03*
X3047910D03*
X2997910D03*
X2947910D03*
X2897910D03*
X2847910D03*
G54D11*
X440000Y-1710000D03*
X540000D03*
X440000Y-1870000D03*
X540000D03*
X440000Y-2030000D03*
X540000D03*
X440000Y-2190000D03*
X540000D03*
X1980000Y-5860000D03*
X2080000D03*
Y-5570000D03*
X1980000D03*
X1860000Y-1990000D03*
X1760000D03*
X1855000Y-1890000D03*
X1755000D03*
X1660000Y-1000000D03*
Y-1100000D03*
X1560000Y-1000000D03*
Y-1100000D03*
X1760000Y-1000000D03*
Y-1100000D03*
X3420000Y-6540000D03*
X3120000D03*
X3020000D03*
X3320000D03*
X3220000D03*
X2630000Y-2070000D03*
Y-2170000D03*
X2780000Y-2350000D03*
Y-2250000D03*
X3090000Y-2260000D03*
X3190000D03*
X3290000Y-2400000D03*
Y-2300000D03*
X3090000Y-2360000D03*
X3190000D03*
X2950000Y-560000D03*
X2850000D03*
X2530000Y-910000D03*
Y-810000D03*
X3220000Y-1160000D03*
Y-1060000D03*
X3347910Y-603580D03*
Y-703580D03*
Y-1183580D03*
Y-893580D03*
Y-993580D03*
Y-508580D03*
Y-798580D03*
Y-1088580D03*
X3120000Y-1090000D03*
Y-990000D03*
X3520000Y-6540000D03*
X4420000Y-4650000D03*
X4150000Y-4870000D03*
X4050000D03*
X4320000Y-4750000D03*
X4220000D03*
X4320000Y-4650000D03*
X4220000D03*
X4420000Y-4750000D03*
X3800000Y-1680000D03*
X3700000D03*
X3690000Y-2120000D03*
Y-2020000D03*
X3800000Y-1890000D03*
X3700000D03*
Y-1780000D03*
X3800000D03*
X3745000Y-1300000D03*
Y-1200000D03*
X3545870Y-1083480D03*
Y-1183480D03*
X3447910Y-1183580D03*
Y-508580D03*
Y-798580D03*
Y-1088580D03*
X4520000Y-4650000D03*
Y-4750000D03*
X5120000Y-2660000D03*
Y-2760000D03*
X4750000Y-2660000D03*
Y-2760000D03*
X4990000Y-2440000D03*
X4890000D03*
G54D21*
X2787910Y-1986070D03*
Y-1936070D03*
Y-1886070D03*
Y-1836070D03*
Y-1786070D03*
Y-1736070D03*
Y-1686070D03*
Y-1636070D03*
Y-1586070D03*
Y-1536070D03*
Y-1486070D03*
Y-1436070D03*
X3457910D03*
Y-1486070D03*
Y-1536070D03*
Y-1586070D03*
Y-1636070D03*
Y-1686070D03*
Y-1736070D03*
Y-1786070D03*
Y-1836070D03*
Y-1886070D03*
Y-1936070D03*
Y-1986070D03*
G54D12*
X1128070Y-739960D03*
Y-139960D03*
X2018070Y-739960D03*
Y-139960D03*
G54D13*
X1583000Y-5680000D03*
Y-5845000D03*
X1817000D03*
Y-5680000D03*
X1583000Y-5515000D03*
G54D22*
X2954200Y-719120D03*
Y-912120D03*
X2701200Y-719120D03*
Y-912120D03*
G54D14*
X1817000Y-5515000D03*
G54D23*
X3347910Y-220000D03*
G54D24*
X3093910D03*
X3601910D03*
G54D15*
X1534600Y-1907390D03*
X1344600D03*
Y-1678390D03*
X1439600D03*
X1534600D03*
G54D25*
X4320000Y-6440000D03*
Y-6090000D03*
Y-5470000D03*
X5190000Y-6360000D03*
Y-5650000D03*
G54D16*
X1733070Y-764960D03*
X1653070D03*
X1573070D03*
X1493070D03*
X1413070D03*
G54D17*
X3160000Y-6242500D03*
Y-5937500D03*
X3590000Y-6242500D03*
Y-5937500D03*
G54D26*
X4460000Y-5150000D03*
X4290000D03*
X4460000Y-4904000D03*
X4290000D03*
G54D27*
G01X254000Y-6604000D02*
X100000D01*
G01D02*
G02X0Y-6504000I0J100000D01*
G01D02*
Y-304800D01*
G01X254000Y-6604000D02*
X100000D01*
G01D02*
G02X0Y-6504000I0J100000D01*
G01D02*
Y-304800D01*
G01X254000Y-6604000D02*
X100000D01*
G01D02*
G02X0Y-6504000I0J100000D01*
G01D02*
Y-304800D01*
G01X254000Y-6604000D02*
X100000D01*
G01D02*
G02X0Y-6504000I0J100000D01*
G01D02*
Y-304800D01*
G01X254000Y-6604000D02*
X100000D01*
G01D02*
G02X0Y-6504000I0J100000D01*
G01D02*
Y-304800D01*
G01X254000Y-6604000D02*
X100000D01*
G01D02*
G02X0Y-6504000I0J100000D01*
G01D02*
Y-304800D01*
G01X254000Y-6604000D02*
X100000D01*
G01D02*
G02X0Y-6504000I0J100000D01*
G01D02*
Y-304800D01*
G01X254000Y-6604000D02*
X100000D01*
G01D02*
G02X0Y-6504000I0J100000D01*
G01D02*
Y-304800D01*
G01X254000Y-6604000D02*
X100000D01*
G01D02*
G02X0Y-6504000I0J100000D01*
G01D02*
Y-304800D01*
G01X254000Y-6604000D02*
X100000D01*
G01D02*
G02X0Y-6504000I0J100000D01*
G01D02*
Y-304800D01*
G01X254000Y-6604000D02*
X100000D01*
G01D02*
G02X0Y-6504000I0J100000D01*
G01D02*
Y-304800D01*
G01X6334000D02*
G03X6029200Y0I-304800J0D01*
G01X304800D01*
G03X0Y-304800I0J-304800D01*
G01X1262000Y-6764000D02*
G03Y-6444000I0J160000D01*
G03Y-6764000I0J-160000D01*
G01X254000Y-6604000D02*
X754000D01*
X1008000Y-6858000D01*
X4284600D01*
X4538600Y-6604000D01*
G01X4056000Y-6764000D02*
G03Y-6444000I0J160000D01*
G03Y-6764000I0J-160000D01*
G01X4538600Y-6604000D02*
X4284600Y-6858000D01*
G01X4538600Y-6604000D02*
X4284600Y-6858000D01*
G01X4538600Y-6604000D02*
X4284600Y-6858000D01*
G01X4538600Y-6604000D02*
X4284600Y-6858000D01*
G01X4538600Y-6604000D02*
X4284600Y-6858000D01*
G01X4538600Y-6604000D02*
X4284600Y-6858000D01*
G01X4538600Y-6604000D02*
X4284600Y-6858000D01*
G01X4538600Y-6604000D02*
X4284600Y-6858000D01*
G01X4538600Y-6604000D02*
X4284600Y-6858000D01*
G01X4538600Y-6604000D02*
X4284600Y-6858000D01*
G01X4538600Y-6604000D02*
X4284600Y-6858000D01*
G01X6334000Y-6451600D02*
X6181600Y-6604000D01*
X4538600D01*
G01X5580000Y-1684000D02*
G03Y-1364000I0J160000D01*
G03Y-1684000I0J-160000D01*
G01X6334000Y-304800D02*
Y-6451600D01*
G01Y-304800D02*
Y-6451600D01*
G01Y-304800D02*
Y-6451600D01*
G01Y-304800D02*
Y-6451600D01*
G01Y-304800D02*
Y-6451600D01*
G01Y-304800D02*
Y-6451600D01*
G01Y-304800D02*
Y-6451600D01*
G01Y-304800D02*
Y-6451600D01*
G01Y-304800D02*
Y-6451600D01*
G01Y-304800D02*
Y-6451600D01*
G01Y-304800D02*
Y-6451600D01*
G54D18*
X2930000Y-2500000D03*
Y-2300000D03*
G54D19*
X3122910Y-1711070D03*
M02*
