G04 ================== begin FILE IDENTIFICATION RECORD ==================*
G04 Layout Name:  C1T139A30_V1_2.brd*
G04 Film Name:    SILKSCREEN_TOP*
G04 File Format:  Gerber RS274X*
G04 File Origin:  Cadence Allegro 16.3-p003*
G04 Origin Date:  Fri Oct 19 14:41:28 2018*
G04 *
G04 Layer:  REF DES/SILKSCREEN_TOP*
G04 Layer:  PACKAGE GEOMETRY/SILKSCREEN_TOP*
G04 Layer:  BOARD GEOMETRY/OUTLINE*
G04 Layer:  BOARD GEOMETRY/SILKSCREEN_TOP*
G04 *
G04 Offset:    (0.0000 0.0000)*
G04 Mirror:    No*
G04 Mode:      Positive*
G04 Rotation:  0*
G04 FullContactRelief:  No*
G04 UndefLineWidth:     0.1000*
G04 ================== end FILE IDENTIFICATION RECORD ====================*
%FSLAX35Y35*MOMM*%
%IR0*IPPOS*OFA0.00000B0.00000*MIA0B0*SFA1.00000B1.00000*%
%ADD10C,.1*%
%ADD11C,.2*%
%ADD12C,.25*%
%ADD13C,.127*%
G75*
%LPD*%
G75*
G36*
G01X2817510Y-1391370D02*
G03I-16800J0D01*
G37*
G36*
G01X4523000Y-5249500D02*
G03I-25500J0D01*
G37*
G54D10*
G01X53910Y-6223450D02*
X299910D01*
G01X53910Y-3150450D02*
Y-6502450D01*
X299910D01*
Y-3150450D01*
X53910D01*
G01X65670Y-2500000D02*
Y-2420000D01*
X92330D01*
X103000Y-2424000D01*
X111000Y-2429330D01*
X117670Y-2437330D01*
X123000Y-2446670D01*
X124330Y-2460000D01*
X123000Y-2473330D01*
X117670Y-2482670D01*
X111000Y-2490670D01*
X103000Y-2496000D01*
X92330Y-2500000D01*
X65670D01*
G01X159670Y-2433330D02*
X167670Y-2425330D01*
X177000Y-2421330D01*
X187670Y-2420000D01*
X201000Y-2422670D01*
X210330Y-2429330D01*
X213000Y-2437330D01*
X211670Y-2445340D01*
X206330Y-2452000D01*
X179670Y-2465330D01*
X167670Y-2474670D01*
X159670Y-2488000D01*
X157000Y-2500000D01*
X213000D01*
G01X65670Y-2620000D02*
Y-2540000D01*
X92330D01*
X103000Y-2544000D01*
X111000Y-2549330D01*
X117670Y-2557330D01*
X123000Y-2566670D01*
X124330Y-2580000D01*
X123000Y-2593330D01*
X117670Y-2602670D01*
X111000Y-2610670D01*
X103000Y-2616000D01*
X92330Y-2620000D01*
X65670D01*
G01X155670Y-2604000D02*
X163670Y-2613330D01*
X174330Y-2618670D01*
X186330Y-2620000D01*
X197000Y-2618670D01*
X207670Y-2612000D01*
X214330Y-2604000D01*
X215670Y-2596000D01*
X213000Y-2586670D01*
X203670Y-2580000D01*
X194330Y-2577330D01*
X182330D01*
G01X194330D02*
X202330Y-2573330D01*
X209000Y-2566670D01*
X211670Y-2558670D01*
X209000Y-2550670D01*
X202330Y-2544000D01*
X190330Y-2540000D01*
X178330Y-2541330D01*
X166330Y-2546670D01*
G01X65670Y-2730000D02*
Y-2650000D01*
X92330D01*
X103000Y-2654000D01*
X111000Y-2659330D01*
X117670Y-2667330D01*
X123000Y-2676670D01*
X124330Y-2690000D01*
X123000Y-2703330D01*
X117670Y-2712670D01*
X111000Y-2720670D01*
X103000Y-2726000D01*
X92330Y-2730000D01*
X65670D01*
G01X201000D02*
Y-2650000D01*
X151670Y-2707330D01*
X218330D01*
G01X106000Y-1330670D02*
X96670Y-1338670D01*
X91330Y-1349330D01*
X90000Y-1361330D01*
X91330Y-1372000D01*
X98000Y-1382670D01*
X106000Y-1389330D01*
X114000Y-1390670D01*
X123330Y-1388000D01*
X130000Y-1378670D01*
X132670Y-1369330D01*
Y-1357330D01*
G01Y-1369330D02*
X136670Y-1377330D01*
X143330Y-1384000D01*
X151330Y-1386670D01*
X159330Y-1384000D01*
X166000Y-1377330D01*
X170000Y-1365330D01*
X168670Y-1353330D01*
X163330Y-1341330D01*
G01X170000Y-1416670D02*
X90000Y-1450000D01*
X170000Y-1483330D01*
G01X106000Y-1510670D02*
X96670Y-1518670D01*
X91330Y-1529330D01*
X90000Y-1541330D01*
X91330Y-1552000D01*
X98000Y-1562670D01*
X106000Y-1569330D01*
X114000Y-1570670D01*
X123330Y-1568000D01*
X130000Y-1558670D01*
X132670Y-1549330D01*
Y-1537330D01*
G01Y-1549330D02*
X136670Y-1557330D01*
X143330Y-1564000D01*
X151330Y-1566670D01*
X159330Y-1564000D01*
X166000Y-1557330D01*
X170000Y-1545330D01*
X168670Y-1533330D01*
X163330Y-1521330D01*
G01X65670Y-2385000D02*
Y-2305000D01*
X92330D01*
X103000Y-2309000D01*
X111000Y-2314330D01*
X117670Y-2322330D01*
X123000Y-2331670D01*
X124330Y-2345000D01*
X123000Y-2358330D01*
X117670Y-2367670D01*
X111000Y-2375670D01*
X103000Y-2381000D01*
X92330Y-2385000D01*
X65670D01*
G01X185000D02*
Y-2305000D01*
X169000Y-2321000D01*
G01Y-2385000D02*
X201000D01*
G01X150000Y-1640000D02*
X80000D01*
Y-1780000D01*
X150000D01*
G01Y-1800000D02*
X80000D01*
Y-1940000D01*
X150000D01*
G01Y-1960000D02*
X80000D01*
Y-2100000D01*
X150000D01*
G01Y-2120000D02*
X80000D01*
Y-2260000D01*
X150000D01*
G01X130000Y-188000D02*
Y-214670D01*
X106000D01*
X98000Y-206670D01*
X92670Y-197330D01*
X90000Y-184000D01*
X92670Y-170670D01*
X98000Y-161330D01*
X106000Y-153330D01*
X115330Y-148000D01*
X126000Y-145330D01*
X135330D01*
X143330Y-148000D01*
X152670Y-153330D01*
X160670Y-161330D01*
X166000Y-169330D01*
X170000Y-180000D01*
Y-189330D01*
X167330Y-200000D01*
X162000Y-208000D01*
G01X90000Y-239330D02*
X170000D01*
X90000Y-300670D01*
X170000D01*
G01X90000Y-330670D02*
X170000D01*
Y-357330D01*
X166000Y-368000D01*
X160670Y-376000D01*
X152670Y-382670D01*
X143330Y-388000D01*
X130000Y-389330D01*
X116670Y-388000D01*
X107330Y-382670D01*
X99330Y-376000D01*
X94000Y-368000D01*
X90000Y-357330D01*
Y-330670D01*
G01X130000Y-618000D02*
Y-644670D01*
X106000D01*
X98000Y-636670D01*
X92670Y-627330D01*
X90000Y-614000D01*
X92670Y-600670D01*
X98000Y-591330D01*
X106000Y-583330D01*
X115330Y-578000D01*
X126000Y-575330D01*
X135330D01*
X143330Y-578000D01*
X152670Y-583330D01*
X160670Y-591330D01*
X166000Y-599330D01*
X170000Y-610000D01*
Y-619330D01*
X167330Y-630000D01*
X162000Y-638000D01*
G01X90000Y-669330D02*
X170000D01*
X90000Y-730670D01*
X170000D01*
G01X90000Y-760670D02*
X170000D01*
Y-787330D01*
X166000Y-798000D01*
X160670Y-806000D01*
X152670Y-812670D01*
X143330Y-818000D01*
X130000Y-819330D01*
X116670Y-818000D01*
X107330Y-812670D01*
X99330Y-806000D01*
X94000Y-798000D01*
X90000Y-787330D01*
Y-760670D01*
G01X100660Y-1052000D02*
X94000Y-1062670D01*
X90000Y-1074670D01*
Y-1085330D01*
X94000Y-1096000D01*
X100660Y-1104000D01*
X110000Y-1108000D01*
X119330Y-1105330D01*
X127330Y-1098670D01*
X132670Y-1086670D01*
X135330Y-1070670D01*
X140670Y-1061330D01*
X150000Y-1057330D01*
X159330Y-1060000D01*
X166000Y-1066670D01*
X170000Y-1076000D01*
Y-1085330D01*
X167330Y-1094670D01*
X160670Y-1102670D01*
G01X170000Y-1130000D02*
X90000Y-1148670D01*
X170000Y-1170000D01*
X90000Y-1191330D01*
X170000Y-1210000D01*
G01X100660Y-1232000D02*
X94000Y-1242670D01*
X90000Y-1254670D01*
Y-1265330D01*
X94000Y-1276000D01*
X100660Y-1284000D01*
X110000Y-1288000D01*
X119330Y-1285330D01*
X127330Y-1278670D01*
X132670Y-1266670D01*
X135330Y-1250670D01*
X140670Y-1241330D01*
X150000Y-1237330D01*
X159330Y-1240000D01*
X166000Y-1246670D01*
X170000Y-1256000D01*
Y-1265330D01*
X167330Y-1274670D01*
X160670Y-1282670D01*
G01X348330Y-6286670D02*
Y-6206670D01*
X380330D01*
X391000Y-6210670D01*
X399000Y-6220000D01*
X401670Y-6230670D01*
X399000Y-6241340D01*
X392330Y-6249340D01*
X380330Y-6253340D01*
X348330D01*
G01X475670Y-6244000D02*
X481000Y-6240000D01*
X485000Y-6233340D01*
X487670Y-6224000D01*
X485000Y-6216000D01*
X479670Y-6210670D01*
X470330Y-6206670D01*
X434330D01*
Y-6286670D01*
X478330D01*
X487670Y-6281340D01*
X493000Y-6273340D01*
X495670Y-6264000D01*
X493000Y-6254670D01*
X485000Y-6246670D01*
X475670Y-6244000D01*
X434330D01*
G01X525670Y-6274670D02*
X533670Y-6281340D01*
X543000Y-6285340D01*
X555000Y-6286670D01*
X567000Y-6284000D01*
X576330Y-6278670D01*
X583000Y-6269340D01*
X584330Y-6258670D01*
X581670Y-6248000D01*
X575000Y-6241340D01*
X565670Y-6236000D01*
X556330Y-6234670D01*
X547000Y-6236000D01*
X535000Y-6241340D01*
X539000Y-6206670D01*
X575000D01*
G01X348330Y-6032670D02*
Y-5952670D01*
X380330D01*
X391000Y-5956670D01*
X399000Y-5966000D01*
X401670Y-5976670D01*
X399000Y-5987340D01*
X392330Y-5995340D01*
X380330Y-5999340D01*
X348330D01*
G01X475670Y-5990000D02*
X481000Y-5986000D01*
X485000Y-5979340D01*
X487670Y-5970000D01*
X485000Y-5962000D01*
X479670Y-5956670D01*
X470330Y-5952670D01*
X434330D01*
Y-6032670D01*
X478330D01*
X487670Y-6027340D01*
X493000Y-6019340D01*
X495670Y-6010000D01*
X493000Y-6000670D01*
X485000Y-5992670D01*
X475670Y-5990000D01*
X434330D01*
G01X571000Y-6032670D02*
Y-5952670D01*
X521670Y-6010000D01*
X588330D01*
G01X348330Y-5778670D02*
Y-5698670D01*
X380330D01*
X391000Y-5702670D01*
X399000Y-5712000D01*
X401670Y-5722670D01*
X399000Y-5733340D01*
X392330Y-5741340D01*
X380330Y-5745340D01*
X348330D01*
G01X475670Y-5736000D02*
X481000Y-5732000D01*
X485000Y-5725340D01*
X487670Y-5716000D01*
X485000Y-5708000D01*
X479670Y-5702670D01*
X470330Y-5698670D01*
X434330D01*
Y-5778670D01*
X478330D01*
X487670Y-5773340D01*
X493000Y-5765340D01*
X495670Y-5756000D01*
X493000Y-5746670D01*
X485000Y-5738670D01*
X475670Y-5736000D01*
X434330D01*
G01X525670Y-5762670D02*
X533670Y-5772000D01*
X544330Y-5777340D01*
X556330Y-5778670D01*
X567000Y-5777340D01*
X577670Y-5770670D01*
X584330Y-5762670D01*
X585670Y-5754670D01*
X583000Y-5745340D01*
X573670Y-5738670D01*
X564330Y-5736000D01*
X552330D01*
G01X564330D02*
X572330Y-5732000D01*
X579000Y-5725340D01*
X581670Y-5717340D01*
X579000Y-5709340D01*
X572330Y-5702670D01*
X560330Y-5698670D01*
X548330Y-5700000D01*
X536330Y-5705340D01*
G01X607400Y-6354900D02*
X327400D01*
G01X607400Y-6100900D02*
X327400D01*
G01X607400Y-5846900D02*
X327400D01*
G01X1213330Y-6244000D02*
X1220000Y-6252000D01*
X1228000Y-6257330D01*
X1237330Y-6260000D01*
X1248000Y-6257330D01*
X1256000Y-6252000D01*
X1264000Y-6244000D01*
X1266670Y-6233330D01*
Y-6180000D01*
G01X1346000Y-6260000D02*
Y-6180000D01*
X1296670Y-6237330D01*
X1363330D01*
G01X1420000Y-6180000D02*
X1409330Y-6182670D01*
X1401330Y-6189330D01*
X1396000Y-6197330D01*
X1392000Y-6208000D01*
X1390670Y-6220000D01*
X1392000Y-6232000D01*
X1396000Y-6242670D01*
X1401330Y-6250670D01*
X1409330Y-6257330D01*
X1420000Y-6260000D01*
X1430670Y-6257330D01*
X1438670Y-6250670D01*
X1444000Y-6242670D01*
X1448000Y-6232000D01*
X1449330Y-6220000D01*
X1448000Y-6208000D01*
X1444000Y-6197330D01*
X1438670Y-6189330D01*
X1430670Y-6182670D01*
X1420000Y-6180000D01*
G01X1213330Y-6034000D02*
X1220000Y-6042000D01*
X1228000Y-6047330D01*
X1237330Y-6050000D01*
X1248000Y-6047330D01*
X1256000Y-6042000D01*
X1264000Y-6034000D01*
X1266670Y-6023330D01*
Y-5970000D01*
G01X1346000Y-6050000D02*
Y-5970000D01*
X1296670Y-6027330D01*
X1363330D01*
G01X1420000Y-6050000D02*
Y-5970000D01*
X1404000Y-5986000D01*
G01Y-6050000D02*
X1436000D01*
G01X956000Y-6048330D02*
X948000Y-6055000D01*
X942670Y-6063000D01*
X940000Y-6072330D01*
X942670Y-6083000D01*
X948000Y-6091000D01*
X956000Y-6099000D01*
X966670Y-6101670D01*
X1020000D01*
G01X973330Y-6139670D02*
X982670Y-6149000D01*
X988000Y-6157000D01*
X990670Y-6167670D01*
X988000Y-6177000D01*
X982670Y-6183670D01*
X974670Y-6189000D01*
X965330Y-6190330D01*
X957330Y-6189000D01*
X949330Y-6183670D01*
X942670Y-6175670D01*
X940000Y-6166330D01*
X942670Y-6155670D01*
X950660Y-6146330D01*
X962670Y-6141000D01*
X976000Y-6139670D01*
X993330Y-6142330D01*
X1002670Y-6146330D01*
X1012000Y-6153000D01*
X1018670Y-6162330D01*
X1020000Y-6171670D01*
X1017330Y-6181000D01*
X1010670Y-6187670D01*
G01X1076000Y-6053330D02*
X1068000Y-6060000D01*
X1062670Y-6068000D01*
X1060000Y-6077330D01*
X1062670Y-6088000D01*
X1068000Y-6096000D01*
X1076000Y-6104000D01*
X1086670Y-6106670D01*
X1140000D01*
G01X1060000Y-6170000D02*
X1140000D01*
X1124000Y-6154000D01*
G01X1060000D02*
Y-6186000D01*
G01X1076000Y-6230670D02*
X1066670Y-6238670D01*
X1061330Y-6249330D01*
X1060000Y-6261330D01*
X1061330Y-6272000D01*
X1068000Y-6282670D01*
X1076000Y-6289330D01*
X1084000Y-6290670D01*
X1093330Y-6288000D01*
X1100000Y-6278670D01*
X1102670Y-6269330D01*
Y-6257330D01*
G01Y-6269330D02*
X1106670Y-6277330D01*
X1113330Y-6284000D01*
X1121330Y-6286670D01*
X1129330Y-6284000D01*
X1136000Y-6277330D01*
X1140000Y-6265330D01*
X1138670Y-6253330D01*
X1133330Y-6241330D01*
G01X631130Y-6223450D02*
X877130D01*
G01X631130Y-4928450D02*
Y-6502450D01*
X877130D01*
Y-4928450D01*
X631130D01*
G01X348330Y-5524670D02*
Y-5444670D01*
X380330D01*
X391000Y-5448670D01*
X399000Y-5458000D01*
X401670Y-5468670D01*
X399000Y-5479340D01*
X392330Y-5487340D01*
X380330Y-5491340D01*
X348330D01*
G01X475670Y-5482000D02*
X481000Y-5478000D01*
X485000Y-5471340D01*
X487670Y-5462000D01*
X485000Y-5454000D01*
X479670Y-5448670D01*
X470330Y-5444670D01*
X434330D01*
Y-5524670D01*
X478330D01*
X487670Y-5519340D01*
X493000Y-5511340D01*
X495670Y-5502000D01*
X493000Y-5492670D01*
X485000Y-5484670D01*
X475670Y-5482000D01*
X434330D01*
G01X529670Y-5458000D02*
X537670Y-5450000D01*
X547000Y-5446000D01*
X557670Y-5444670D01*
X571000Y-5447340D01*
X580330Y-5454000D01*
X583000Y-5462000D01*
X581670Y-5470010D01*
X576330Y-5476670D01*
X549670Y-5490000D01*
X537670Y-5499340D01*
X529670Y-5512670D01*
X527000Y-5524670D01*
X583000D01*
G01X348330Y-5270670D02*
Y-5190670D01*
X380330D01*
X391000Y-5194670D01*
X399000Y-5204000D01*
X401670Y-5214670D01*
X399000Y-5225340D01*
X392330Y-5233340D01*
X380330Y-5237340D01*
X348330D01*
G01X475670Y-5228000D02*
X481000Y-5224000D01*
X485000Y-5217340D01*
X487670Y-5208000D01*
X485000Y-5200000D01*
X479670Y-5194670D01*
X470330Y-5190670D01*
X434330D01*
Y-5270670D01*
X478330D01*
X487670Y-5265340D01*
X493000Y-5257340D01*
X495670Y-5248000D01*
X493000Y-5238670D01*
X485000Y-5230670D01*
X475670Y-5228000D01*
X434330D01*
G01X555000Y-5270670D02*
Y-5190670D01*
X539000Y-5206670D01*
G01Y-5270670D02*
X571000D01*
G01X348330Y-5016670D02*
Y-4936670D01*
X380330D01*
X391000Y-4940670D01*
X399000Y-4950000D01*
X401670Y-4960670D01*
X399000Y-4971340D01*
X392330Y-4979340D01*
X380330Y-4983340D01*
X348330D01*
G01X475670Y-4974000D02*
X481000Y-4970000D01*
X485000Y-4963340D01*
X487670Y-4954000D01*
X485000Y-4946000D01*
X479670Y-4940670D01*
X470330Y-4936670D01*
X434330D01*
Y-5016670D01*
X478330D01*
X487670Y-5011340D01*
X493000Y-5003340D01*
X495670Y-4994000D01*
X493000Y-4984670D01*
X485000Y-4976670D01*
X475670Y-4974000D01*
X434330D01*
G01X555000Y-4936670D02*
X544330Y-4939340D01*
X536330Y-4946000D01*
X531000Y-4954000D01*
X527000Y-4964670D01*
X525670Y-4976670D01*
X527000Y-4988670D01*
X531000Y-4999340D01*
X536330Y-5007340D01*
X544330Y-5014000D01*
X555000Y-5016670D01*
X565670Y-5014000D01*
X573670Y-5007340D01*
X579000Y-4999340D01*
X583000Y-4988670D01*
X584330Y-4976670D01*
X583000Y-4964670D01*
X579000Y-4954000D01*
X573670Y-4946000D01*
X565670Y-4939340D01*
X555000Y-4936670D01*
G01X348330Y-4762670D02*
Y-4682670D01*
X380330D01*
X391000Y-4686670D01*
X399000Y-4696000D01*
X401670Y-4706670D01*
X399000Y-4717340D01*
X392330Y-4725340D01*
X380330Y-4729340D01*
X348330D01*
G01X431670Y-4762670D02*
X465000Y-4682670D01*
X498330Y-4762670D01*
G01X486330Y-4734670D02*
X443670D01*
G01X571000Y-4762670D02*
Y-4682670D01*
X521670Y-4740000D01*
X588330D01*
G01X607400Y-5592900D02*
X327400D01*
G01X607400Y-5338900D02*
X327400D01*
G01X607400Y-5084900D02*
X327400D01*
G01X607400Y-4830900D02*
X327400D01*
X378300Y-4780000D01*
X380000D01*
G01X607400Y-4576900D02*
X327400D01*
G01X1187400D02*
X907400D01*
G01X607400D02*
X327400D01*
X378300Y-4526000D01*
X380000D01*
G01X1190000Y-4575450D02*
X910000D01*
X960900Y-4524550D01*
X962600D01*
G01X1190000Y-4575450D02*
X910000D01*
X960900Y-4524550D01*
X962600D01*
G01X877130Y-4724450D02*
Y-2642450D01*
X631130D01*
Y-4724450D01*
X877130D01*
G01X348330Y-4508670D02*
Y-4428670D01*
X380330D01*
X391000Y-4432670D01*
X399000Y-4442000D01*
X401670Y-4452670D01*
X399000Y-4463340D01*
X392330Y-4471340D01*
X380330Y-4475340D01*
X348330D01*
G01X431670Y-4508670D02*
X465000Y-4428670D01*
X498330Y-4508670D01*
G01X486330Y-4480670D02*
X443670D01*
G01X525670Y-4492670D02*
X533670Y-4502000D01*
X544330Y-4507340D01*
X556330Y-4508670D01*
X567000Y-4507340D01*
X577670Y-4500670D01*
X584330Y-4492670D01*
X585670Y-4484670D01*
X583000Y-4475340D01*
X573670Y-4468670D01*
X564330Y-4466000D01*
X552330D01*
G01X564330D02*
X572330Y-4462000D01*
X579000Y-4455340D01*
X581670Y-4447340D01*
X579000Y-4439340D01*
X572330Y-4432670D01*
X560330Y-4428670D01*
X548330Y-4430000D01*
X536330Y-4435340D01*
G01X348330Y-4254670D02*
Y-4174670D01*
X380330D01*
X391000Y-4178670D01*
X399000Y-4188000D01*
X401670Y-4198670D01*
X399000Y-4209340D01*
X392330Y-4217340D01*
X380330Y-4221340D01*
X348330D01*
G01X431670Y-4254670D02*
X465000Y-4174670D01*
X498330Y-4254670D01*
G01X486330Y-4226670D02*
X443670D01*
G01X529670Y-4188000D02*
X537670Y-4180000D01*
X547000Y-4176000D01*
X557670Y-4174670D01*
X571000Y-4177340D01*
X580330Y-4184000D01*
X583000Y-4192000D01*
X581670Y-4200010D01*
X576330Y-4206670D01*
X549670Y-4220000D01*
X537670Y-4229340D01*
X529670Y-4242670D01*
X527000Y-4254670D01*
X583000D01*
G01X348330Y-4000670D02*
Y-3920670D01*
X380330D01*
X391000Y-3924670D01*
X399000Y-3934000D01*
X401670Y-3944670D01*
X399000Y-3955340D01*
X392330Y-3963340D01*
X380330Y-3967340D01*
X348330D01*
G01X435670Y-4000670D02*
Y-3920670D01*
X462330D01*
X473000Y-3924670D01*
X481000Y-3930000D01*
X487670Y-3938000D01*
X493000Y-3947340D01*
X494330Y-3960670D01*
X493000Y-3974000D01*
X487670Y-3983340D01*
X481000Y-3991340D01*
X473000Y-3996670D01*
X462330Y-4000670D01*
X435670D01*
G01X552330D02*
X555000Y-3983340D01*
X559000Y-3968670D01*
X564330Y-3955340D01*
X571000Y-3940670D01*
X581670Y-3920670D01*
X528330D01*
G01X348330Y-3746670D02*
Y-3666670D01*
X380330D01*
X391000Y-3670670D01*
X399000Y-3680000D01*
X401670Y-3690670D01*
X399000Y-3701340D01*
X392330Y-3709340D01*
X380330Y-3713340D01*
X348330D01*
G01X435670Y-3746670D02*
Y-3666670D01*
X462330D01*
X473000Y-3670670D01*
X481000Y-3676000D01*
X487670Y-3684000D01*
X493000Y-3693340D01*
X494330Y-3706670D01*
X493000Y-3720000D01*
X487670Y-3729340D01*
X481000Y-3737340D01*
X473000Y-3742670D01*
X462330Y-3746670D01*
X435670D01*
G01X529670Y-3713340D02*
X539000Y-3704000D01*
X547000Y-3698670D01*
X557670Y-3696000D01*
X567000Y-3698670D01*
X573670Y-3704000D01*
X579000Y-3712000D01*
X580330Y-3721340D01*
X579000Y-3729340D01*
X573670Y-3737340D01*
X565670Y-3744000D01*
X556330Y-3746670D01*
X545670Y-3744000D01*
X536330Y-3736010D01*
X531000Y-3724000D01*
X529670Y-3710670D01*
X532330Y-3693340D01*
X536330Y-3684000D01*
X543000Y-3674670D01*
X552330Y-3668000D01*
X561670Y-3666670D01*
X571000Y-3669340D01*
X577670Y-3676000D01*
G01X348330Y-3492670D02*
Y-3412670D01*
X380330D01*
X391000Y-3416670D01*
X399000Y-3426000D01*
X401670Y-3436670D01*
X399000Y-3447340D01*
X392330Y-3455340D01*
X380330Y-3459340D01*
X348330D01*
G01X435670Y-3492670D02*
Y-3412670D01*
X462330D01*
X473000Y-3416670D01*
X481000Y-3422000D01*
X487670Y-3430000D01*
X493000Y-3439340D01*
X494330Y-3452670D01*
X493000Y-3466000D01*
X487670Y-3475340D01*
X481000Y-3483340D01*
X473000Y-3488670D01*
X462330Y-3492670D01*
X435670D01*
G01X555000D02*
Y-3412670D01*
X539000Y-3428670D01*
G01Y-3492670D02*
X571000D01*
G01X924330Y-4508670D02*
Y-4428670D01*
X985670Y-4508670D01*
Y-4428670D01*
G01X1074330Y-4435340D02*
X1066330Y-4431340D01*
X1057000Y-4428670D01*
X1046330D01*
X1034330Y-4432670D01*
X1025000Y-4439340D01*
X1018330Y-4447340D01*
X1013000Y-4460670D01*
X1011670Y-4472670D01*
X1014330Y-4484670D01*
X1018330Y-4492670D01*
X1026330Y-4500670D01*
X1035670Y-4506000D01*
X1045000Y-4508670D01*
X1054330D01*
X1063670Y-4506000D01*
X1071670Y-4502000D01*
X1078330Y-4496670D01*
G01X963000Y-4214670D02*
X989670D01*
Y-4238670D01*
X981670Y-4246670D01*
X972330Y-4252000D01*
X959000Y-4254670D01*
X945670Y-4252000D01*
X936330Y-4246670D01*
X928330Y-4238670D01*
X923000Y-4229340D01*
X920330Y-4218670D01*
Y-4209340D01*
X923000Y-4201340D01*
X928330Y-4192000D01*
X936330Y-4184000D01*
X944330Y-4178670D01*
X955000Y-4174670D01*
X964330D01*
X975000Y-4177340D01*
X983000Y-4182670D01*
G01X1014330Y-4254670D02*
Y-4174670D01*
X1075670Y-4254670D01*
Y-4174670D01*
G01X1105670Y-4254670D02*
Y-4174670D01*
X1132330D01*
X1143000Y-4178670D01*
X1151000Y-4184000D01*
X1157670Y-4192000D01*
X1163000Y-4201340D01*
X1164330Y-4214670D01*
X1163000Y-4228000D01*
X1157670Y-4237340D01*
X1151000Y-4245340D01*
X1143000Y-4250670D01*
X1132330Y-4254670D01*
X1105670D01*
G01X963000Y-3930000D02*
X989670D01*
Y-3954000D01*
X981670Y-3962000D01*
X972330Y-3967330D01*
X959000Y-3970000D01*
X945670Y-3967330D01*
X936330Y-3962000D01*
X928330Y-3954000D01*
X923000Y-3944670D01*
X920330Y-3934000D01*
Y-3924670D01*
X923000Y-3916670D01*
X928330Y-3907330D01*
X936330Y-3899330D01*
X944330Y-3894000D01*
X955000Y-3890000D01*
X964330D01*
X975000Y-3892670D01*
X983000Y-3898000D01*
G01X1014330Y-3970000D02*
Y-3890000D01*
X1075670Y-3970000D01*
Y-3890000D01*
G01X1105670Y-3970000D02*
Y-3890000D01*
X1132330D01*
X1143000Y-3894000D01*
X1151000Y-3899330D01*
X1157670Y-3907330D01*
X1163000Y-3916670D01*
X1164330Y-3930000D01*
X1163000Y-3943330D01*
X1157670Y-3952670D01*
X1151000Y-3960670D01*
X1143000Y-3966000D01*
X1132330Y-3970000D01*
X1105670D01*
G01X965670Y-3708000D02*
X973670Y-3714670D01*
X983000Y-3718670D01*
X995000Y-3720000D01*
X1007000Y-3717330D01*
X1016330Y-3712000D01*
X1023000Y-3702670D01*
X1024330Y-3692000D01*
X1021670Y-3681330D01*
X1015000Y-3674670D01*
X1005670Y-3669330D01*
X996330Y-3668000D01*
X987000Y-3669330D01*
X975000Y-3674670D01*
X979000Y-3640000D01*
X1015000D01*
G01X1051670D02*
X1085000Y-3720000D01*
X1118330Y-3640000D01*
G01X925670Y-3476670D02*
X933670Y-3486000D01*
X944330Y-3491340D01*
X956330Y-3492670D01*
X967000Y-3491340D01*
X977670Y-3484670D01*
X984330Y-3476670D01*
X985670Y-3468670D01*
X983000Y-3459340D01*
X973670Y-3452670D01*
X964330Y-3450000D01*
X952330D01*
G01X964330D02*
X972330Y-3446000D01*
X979000Y-3439340D01*
X981670Y-3431340D01*
X979000Y-3423340D01*
X972330Y-3416670D01*
X960330Y-3412670D01*
X948330Y-3414000D01*
X936330Y-3419340D01*
G01X1011670Y-3412670D02*
X1045000Y-3492670D01*
X1078330Y-3412670D01*
G01X1105670Y-3476670D02*
X1113670Y-3486000D01*
X1124330Y-3491340D01*
X1136330Y-3492670D01*
X1147000Y-3491340D01*
X1157670Y-3484670D01*
X1164330Y-3476670D01*
X1165670Y-3468670D01*
X1163000Y-3459340D01*
X1153670Y-3452670D01*
X1144330Y-3450000D01*
X1132330D01*
G01X1144330D02*
X1152330Y-3446000D01*
X1159000Y-3439340D01*
X1161670Y-3431340D01*
X1159000Y-3423340D01*
X1152330Y-3416670D01*
X1140330Y-3412670D01*
X1128330Y-3414000D01*
X1116330Y-3419340D01*
G01X1225000Y-3492670D02*
X1214330Y-3491340D01*
X1205000Y-3486000D01*
X1197000Y-3478000D01*
X1191670Y-3468670D01*
X1189000Y-3458000D01*
Y-3447340D01*
X1191670Y-3436670D01*
X1197000Y-3427340D01*
X1205000Y-3419340D01*
X1214330Y-3414000D01*
X1225000Y-3412670D01*
X1235670Y-3414000D01*
X1245000Y-3419340D01*
X1253000Y-3427340D01*
X1258330Y-3436670D01*
X1261000Y-3447340D01*
Y-3458000D01*
X1258330Y-3468670D01*
X1253000Y-3478000D01*
X1245000Y-3486000D01*
X1235670Y-3491340D01*
X1225000Y-3492670D01*
G01X1285670Y-3412670D02*
Y-3470000D01*
X1291000Y-3482010D01*
X1301670Y-3490000D01*
X1315000Y-3492670D01*
X1328330Y-3490000D01*
X1339000Y-3482010D01*
X1344330Y-3470000D01*
Y-3412670D01*
G01X1405000D02*
Y-3492670D01*
G01X1374330Y-3412670D02*
X1435670D01*
G01X607400Y-4322900D02*
X327400D01*
G01X607400Y-4068900D02*
X327400D01*
G01X607400Y-3814900D02*
X327400D01*
G01X607400Y-3560900D02*
X327400D01*
G01X1187400Y-3814900D02*
X907400D01*
G01X1187400Y-4322900D02*
X907400D01*
G01X1187400Y-4068900D02*
X907400D01*
G01X1187400Y-3565900D02*
Y-3560900D01*
X907400D01*
G01X607400Y-4322900D02*
X327400D01*
X378300Y-4272000D01*
X380000D01*
G01X607400Y-4068900D02*
X327400D01*
X378300Y-4018000D01*
X380000D01*
G01X607400Y-3814900D02*
X327400D01*
X378300Y-3764000D01*
X380000D01*
G01X607400Y-3560900D02*
X327400D01*
X378300Y-3510000D01*
X380000D01*
G01X1190000Y-4321450D02*
X910000D01*
X960900Y-4270550D01*
X962600D01*
G01X1190000Y-4321450D02*
X910000D01*
X960900Y-4270550D01*
X962600D01*
G01X1190000Y-4067450D02*
X910000D01*
X960900Y-4016550D01*
X962600D01*
G01X1190000Y-3813450D02*
X910000D01*
X960900Y-3762550D01*
X962600D01*
G01X1190000Y-3559450D02*
X910000D01*
X960900Y-3508550D01*
X962600D01*
G01X348330Y-3238670D02*
Y-3158670D01*
X380330D01*
X391000Y-3162670D01*
X399000Y-3172000D01*
X401670Y-3182670D01*
X399000Y-3193340D01*
X392330Y-3201340D01*
X380330Y-3205340D01*
X348330D01*
G01X435670Y-3238670D02*
Y-3158670D01*
X462330D01*
X473000Y-3162670D01*
X481000Y-3168000D01*
X487670Y-3176000D01*
X493000Y-3185340D01*
X494330Y-3198670D01*
X493000Y-3212000D01*
X487670Y-3221340D01*
X481000Y-3229340D01*
X473000Y-3234670D01*
X462330Y-3238670D01*
X435670D01*
G01X555000Y-3158670D02*
X544330Y-3161340D01*
X536330Y-3168000D01*
X531000Y-3176000D01*
X527000Y-3186670D01*
X525670Y-3198670D01*
X527000Y-3210670D01*
X531000Y-3221340D01*
X536330Y-3229340D01*
X544330Y-3236000D01*
X555000Y-3238670D01*
X565670Y-3236000D01*
X573670Y-3229340D01*
X579000Y-3221340D01*
X583000Y-3210670D01*
X584330Y-3198670D01*
X583000Y-3186670D01*
X579000Y-3176000D01*
X573670Y-3168000D01*
X565670Y-3161340D01*
X555000Y-3158670D01*
G01X920670Y-2933000D02*
X928670Y-2939670D01*
X938000Y-2943670D01*
X950000Y-2945000D01*
X962000Y-2942330D01*
X971330Y-2937000D01*
X978000Y-2927670D01*
X979330Y-2917000D01*
X976670Y-2906330D01*
X970000Y-2899670D01*
X960670Y-2894330D01*
X951330Y-2893000D01*
X942000Y-2894330D01*
X930000Y-2899670D01*
X934000Y-2865000D01*
X970000D01*
G01X1006670D02*
X1040000Y-2945000D01*
X1073330Y-2865000D01*
G01X924330Y-2730670D02*
Y-2650670D01*
X985670Y-2730670D01*
Y-2650670D01*
G01X1074330Y-2657340D02*
X1066330Y-2653340D01*
X1057000Y-2650670D01*
X1046330D01*
X1034330Y-2654670D01*
X1025000Y-2661340D01*
X1018330Y-2669340D01*
X1013000Y-2682670D01*
X1011670Y-2694670D01*
X1014330Y-2706670D01*
X1018330Y-2714670D01*
X1026330Y-2722670D01*
X1035670Y-2728000D01*
X1045000Y-2730670D01*
X1054330D01*
X1063670Y-2728000D01*
X1071670Y-2724000D01*
X1078330Y-2718670D01*
G01X928330Y-3238670D02*
Y-3158670D01*
X961670D01*
X972330Y-3162670D01*
X979000Y-3168000D01*
X981670Y-3178670D01*
X979000Y-3189340D01*
X971000Y-3196000D01*
X961670Y-3200000D01*
X928330D01*
G01X961670D02*
X981670Y-3238670D01*
G01X1017000Y-3228010D02*
X1027670Y-3234670D01*
X1039670Y-3238670D01*
X1050330D01*
X1061000Y-3234670D01*
X1069000Y-3228010D01*
X1073000Y-3218670D01*
X1070330Y-3209340D01*
X1063670Y-3201340D01*
X1051670Y-3196000D01*
X1035670Y-3193340D01*
X1026330Y-3188000D01*
X1022330Y-3178670D01*
X1025000Y-3169340D01*
X1031670Y-3162670D01*
X1041000Y-3158670D01*
X1050330D01*
X1059670Y-3161340D01*
X1067670Y-3168000D01*
G01X1135000Y-3158670D02*
Y-3238670D01*
G01X1104330Y-3158670D02*
X1165670D01*
G01X607400Y-3306900D02*
X327400D01*
G01X1187400D02*
X907400D01*
G01X1187400Y-3052900D02*
X907400D01*
G01Y-2798900D02*
X1187400D01*
G01X607400Y-3306900D02*
X327400D01*
X378300Y-3256000D01*
X380000D01*
G01X1190000Y-3305450D02*
X910000D01*
X960900Y-3254550D01*
X962600D01*
G01X1190000Y-3051450D02*
X910000D01*
X960900Y-3000550D01*
X962600D01*
G01X1400000Y-2940000D02*
X1900000D01*
Y-3560000D01*
X1490000D01*
Y-2940000D01*
X1400000D01*
X1120000Y-2660000D01*
Y-2590000D01*
G01X1473000Y-2646000D02*
Y-2088000D01*
X1227000D01*
Y-2646000D01*
X1473000D01*
G01X506000Y-2728330D02*
X498000Y-2735000D01*
X492670Y-2743000D01*
X490000Y-2752330D01*
X492670Y-2763000D01*
X498000Y-2771000D01*
X506000Y-2779000D01*
X516670Y-2781670D01*
X570000D01*
G01X490000Y-2842330D02*
X507330Y-2845000D01*
X522000Y-2849000D01*
X535330Y-2854330D01*
X550000Y-2861000D01*
X570000Y-2871670D01*
Y-2818330D01*
G01X877130Y-2921450D02*
X631130D01*
G01X268330Y-2500000D02*
Y-2420000D01*
X301670D01*
X312330Y-2424000D01*
X319000Y-2429330D01*
X321670Y-2440000D01*
X319000Y-2450670D01*
X311000Y-2457330D01*
X301670Y-2461330D01*
X268330D01*
G01X301670D02*
X321670Y-2500000D01*
G01X401000D02*
Y-2420000D01*
X351670Y-2477330D01*
X418330D01*
G01X268330Y-2620000D02*
Y-2540000D01*
X301670D01*
X312330Y-2544000D01*
X319000Y-2549330D01*
X321670Y-2560000D01*
X319000Y-2570670D01*
X311000Y-2577330D01*
X301670Y-2581330D01*
X268330D01*
G01X301670D02*
X321670Y-2620000D01*
G01X355670Y-2608000D02*
X363670Y-2614670D01*
X373000Y-2618670D01*
X385000Y-2620000D01*
X397000Y-2617330D01*
X406330Y-2612000D01*
X413000Y-2602670D01*
X414330Y-2592000D01*
X411670Y-2581330D01*
X405000Y-2574670D01*
X395670Y-2569330D01*
X386330Y-2568000D01*
X377000Y-2569330D01*
X365000Y-2574670D01*
X369000Y-2540000D01*
X405000D01*
G01X268330Y-2730000D02*
Y-2650000D01*
X301670D01*
X312330Y-2654000D01*
X319000Y-2659330D01*
X321670Y-2670000D01*
X319000Y-2680670D01*
X311000Y-2687330D01*
X301670Y-2691330D01*
X268330D01*
G01X301670D02*
X321670Y-2730000D01*
G01X359670Y-2696670D02*
X369000Y-2687330D01*
X377000Y-2682000D01*
X387670Y-2679330D01*
X397000Y-2682000D01*
X403670Y-2687330D01*
X409000Y-2695330D01*
X410330Y-2704670D01*
X409000Y-2712670D01*
X403670Y-2720670D01*
X395670Y-2727330D01*
X386330Y-2730000D01*
X375670Y-2727330D01*
X366330Y-2719340D01*
X361000Y-2707330D01*
X359670Y-2694000D01*
X362330Y-2676670D01*
X366330Y-2667330D01*
X373000Y-2658000D01*
X382330Y-2651330D01*
X391670Y-2650000D01*
X401000Y-2652670D01*
X407670Y-2659330D01*
G01X496000Y-2343330D02*
X488000Y-2350000D01*
X482670Y-2358000D01*
X480000Y-2367330D01*
X482670Y-2378000D01*
X488000Y-2386000D01*
X496000Y-2394000D01*
X506670Y-2396670D01*
X560000D01*
G01X496000Y-2430670D02*
X486670Y-2438670D01*
X481330Y-2449330D01*
X480000Y-2461330D01*
X481330Y-2472000D01*
X488000Y-2482670D01*
X496000Y-2489330D01*
X504000Y-2490670D01*
X513330Y-2488000D01*
X520000Y-2478670D01*
X522670Y-2469330D01*
Y-2457330D01*
G01Y-2469330D02*
X526670Y-2477330D01*
X533330Y-2484000D01*
X541330Y-2486670D01*
X549330Y-2484000D01*
X556000Y-2477330D01*
X560000Y-2465330D01*
X558670Y-2453330D01*
X553330Y-2441330D01*
G01X480000Y-2550000D02*
X481330Y-2559330D01*
X485330Y-2570000D01*
X492000Y-2576670D01*
X501330Y-2579330D01*
X510660Y-2576670D01*
X518670Y-2568670D01*
X522670Y-2556670D01*
Y-2543330D01*
X525330Y-2535330D01*
X532000Y-2528670D01*
X541330Y-2526000D01*
X550670Y-2530000D01*
X557330Y-2539330D01*
X560000Y-2550000D01*
X557330Y-2560670D01*
X550670Y-2570000D01*
X541330Y-2574000D01*
X532000Y-2571330D01*
X525330Y-2564670D01*
X522670Y-2556670D01*
Y-2543330D01*
X518670Y-2531330D01*
X510660Y-2523330D01*
X501330Y-2520670D01*
X492000Y-2523330D01*
X485330Y-2530000D01*
X481330Y-2540670D01*
X480000Y-2550000D01*
G01X638130Y-2584450D02*
X1131130D01*
Y-1536450D01*
X631130D01*
Y-2584450D01*
X638130D01*
G01X970000Y-1010670D02*
X1050000D01*
Y-1037330D01*
X1046000Y-1048000D01*
X1040670Y-1056000D01*
X1032670Y-1062670D01*
X1023330Y-1068000D01*
X1010000Y-1069330D01*
X996670Y-1068000D01*
X987330Y-1062670D01*
X979330Y-1056000D01*
X974000Y-1048000D01*
X970000Y-1037330D01*
Y-1010670D01*
G01Y-1103330D02*
X1050000D01*
Y-1135330D01*
X1046000Y-1146000D01*
X1036670Y-1154000D01*
X1026000Y-1156670D01*
X1015330Y-1154000D01*
X1007330Y-1147330D01*
X1003330Y-1135330D01*
Y-1103330D01*
G01X967330Y-1196000D02*
X1050000Y-1244000D01*
G01X970000Y-1276670D02*
X1050000Y-1310000D01*
X970000Y-1343330D01*
G01X998000Y-1331330D02*
Y-1288670D01*
G01X1003330Y-1374670D02*
X1012670Y-1384000D01*
X1018000Y-1392000D01*
X1020670Y-1402670D01*
X1018000Y-1412000D01*
X1012670Y-1418670D01*
X1004670Y-1424000D01*
X995330Y-1425330D01*
X987330Y-1424000D01*
X979330Y-1418670D01*
X972670Y-1410670D01*
X970000Y-1401330D01*
X972670Y-1390670D01*
X980660Y-1381330D01*
X992670Y-1376000D01*
X1006000Y-1374670D01*
X1023330Y-1377330D01*
X1032670Y-1381330D01*
X1042000Y-1388000D01*
X1048670Y-1397330D01*
X1050000Y-1406670D01*
X1047330Y-1416000D01*
X1040670Y-1422670D01*
G01X1473000Y-2367000D02*
X1227000D01*
G01X913000Y-1486000D02*
Y-928000D01*
X667000D01*
Y-1486000D01*
X913000D01*
G01X1333000D02*
Y-928000D01*
X1087000D01*
Y-1486000D01*
X1333000D01*
G01X1614600Y-1997890D02*
X1264600D01*
Y-1592890D01*
X1614600D01*
Y-1997890D01*
G01X268330Y-2390000D02*
Y-2310000D01*
X301670D01*
X312330Y-2314000D01*
X319000Y-2319330D01*
X321670Y-2330000D01*
X319000Y-2340670D01*
X311000Y-2347330D01*
X301670Y-2351330D01*
X268330D01*
G01X301670D02*
X321670Y-2390000D01*
G01X355670Y-2374000D02*
X363670Y-2383330D01*
X374330Y-2388670D01*
X386330Y-2390000D01*
X397000Y-2388670D01*
X407670Y-2382000D01*
X414330Y-2374000D01*
X415670Y-2366000D01*
X413000Y-2356670D01*
X403670Y-2350000D01*
X394330Y-2347330D01*
X382330D01*
G01X394330D02*
X402330Y-2343330D01*
X409000Y-2336670D01*
X411670Y-2328670D01*
X409000Y-2320670D01*
X402330Y-2314000D01*
X390330Y-2310000D01*
X378330Y-2311330D01*
X366330Y-2316670D01*
G01X440000Y-1670000D02*
X400000D01*
Y-1750000D01*
X440000D01*
G01X540000Y-1670000D02*
X580000D01*
Y-1750000D01*
X540000D01*
G01X440000Y-1830000D02*
X400000D01*
Y-1910000D01*
X440000D01*
G01X540000Y-1830000D02*
X580000D01*
Y-1910000D01*
X540000D01*
G01X440000Y-1990000D02*
X400000D01*
Y-2070000D01*
X440000D01*
G01X540000Y-1990000D02*
X580000D01*
Y-2070000D01*
X540000D01*
G01X440000Y-2150000D02*
X400000D01*
Y-2230000D01*
X440000D01*
G01X540000Y-2150000D02*
X580000D01*
Y-2230000D01*
X540000D01*
G01X526000Y-1253330D02*
X518000Y-1260000D01*
X512670Y-1268000D01*
X510000Y-1277330D01*
X512670Y-1288000D01*
X518000Y-1296000D01*
X526000Y-1304000D01*
X536670Y-1306670D01*
X590000D01*
G01X510000Y-1370000D02*
X590000D01*
X574000Y-1354000D01*
G01X510000D02*
Y-1386000D01*
G01Y-1460000D02*
X511330Y-1469330D01*
X515330Y-1480000D01*
X522000Y-1486670D01*
X531330Y-1489330D01*
X540660Y-1486670D01*
X548670Y-1478670D01*
X552670Y-1466670D01*
Y-1453330D01*
X555330Y-1445330D01*
X562000Y-1438670D01*
X571330Y-1436000D01*
X580670Y-1440000D01*
X587330Y-1449330D01*
X590000Y-1460000D01*
X587330Y-1470670D01*
X580670Y-1480000D01*
X571330Y-1484000D01*
X562000Y-1481330D01*
X555330Y-1474670D01*
X552670Y-1466670D01*
Y-1453330D01*
X548670Y-1441330D01*
X540660Y-1433330D01*
X531330Y-1430670D01*
X522000Y-1433330D01*
X515330Y-1440000D01*
X511330Y-1450670D01*
X510000Y-1460000D01*
G01X226350Y-1568900D02*
Y-28900D01*
X476350D01*
Y-1568900D01*
X226350D01*
G01X310000Y-1640000D02*
X380000D01*
Y-1780000D01*
X310000D01*
G01Y-1800000D02*
X380000D01*
Y-1940000D01*
X310000D01*
G01Y-1960000D02*
X380000D01*
Y-2100000D01*
X310000D01*
G01Y-2120000D02*
X380000D01*
Y-2260000D01*
X310000D01*
G01X631130Y-1536450D02*
X1131130D01*
G01Y-1815450D02*
X881130D01*
Y-1536450D01*
G01X550000Y-378000D02*
Y-404670D01*
X526000D01*
X518000Y-396670D01*
X512670Y-387330D01*
X510000Y-374000D01*
X512670Y-360670D01*
X518000Y-351330D01*
X526000Y-343330D01*
X535330Y-338000D01*
X546000Y-335330D01*
X555330D01*
X563330Y-338000D01*
X572670Y-343330D01*
X580670Y-351330D01*
X586000Y-359330D01*
X590000Y-370000D01*
Y-379330D01*
X587330Y-390000D01*
X582000Y-398000D01*
G01X510000Y-429330D02*
X590000D01*
X510000Y-490670D01*
X590000D01*
G01X510000Y-520670D02*
X590000D01*
Y-547330D01*
X586000Y-558000D01*
X580670Y-566000D01*
X572670Y-572670D01*
X563330Y-578000D01*
X550000Y-579330D01*
X536670Y-578000D01*
X527330Y-572670D01*
X519330Y-566000D01*
X514000Y-558000D01*
X510000Y-547330D01*
Y-520670D01*
G01X522000Y-850670D02*
X515330Y-858670D01*
X511330Y-868000D01*
X510000Y-880000D01*
X512670Y-892000D01*
X518000Y-901330D01*
X527330Y-908000D01*
X538000Y-909330D01*
X548670Y-906670D01*
X555330Y-900000D01*
X560670Y-890670D01*
X562000Y-881330D01*
X560670Y-872000D01*
X555330Y-860000D01*
X590000Y-864000D01*
Y-900000D01*
G01Y-936670D02*
X510000Y-970000D01*
X590000Y-1003330D01*
G01X913000Y-1207000D02*
X667000D01*
G01X1333000D02*
X1087000D01*
G01X1288070Y40D02*
Y-284960D01*
X1128070D01*
Y-589960D01*
X1288070D01*
Y-819960D01*
X1358070D01*
Y-629960D01*
X1793070D01*
Y-824960D01*
X1863070D01*
Y-584960D01*
G01X226350Y-288900D02*
X476350D01*
G01X1988070Y-584960D02*
X2013070D01*
Y-289960D01*
X1858070D01*
Y40D01*
X2013070D01*
Y35040D01*
X1128070D01*
Y40D01*
X1288070D01*
G01X1403330Y-6806670D02*
Y-6726670D01*
X1435330D01*
X1446000Y-6730670D01*
X1454000Y-6740000D01*
X1456670Y-6750670D01*
X1454000Y-6761340D01*
X1447330Y-6769340D01*
X1435330Y-6773340D01*
X1403330D01*
G01X1486670Y-6806670D02*
X1520000Y-6726670D01*
X1553330Y-6806670D01*
G01X1541330Y-6778670D02*
X1498670D01*
G01X1610000Y-6806670D02*
Y-6726670D01*
X1594000Y-6742670D01*
G01Y-6806670D02*
X1626000D01*
G01X1676000Y-6809340D02*
X1724000Y-6726670D01*
G01X1760670Y-6806670D02*
Y-6726670D01*
X1787330D01*
X1798000Y-6730670D01*
X1806000Y-6736000D01*
X1812670Y-6744000D01*
X1818000Y-6753340D01*
X1819330Y-6766670D01*
X1818000Y-6780000D01*
X1812670Y-6789340D01*
X1806000Y-6797340D01*
X1798000Y-6802670D01*
X1787330Y-6806670D01*
X1760670D01*
G01X1909330Y-6733340D02*
X1901330Y-6729340D01*
X1892000Y-6726670D01*
X1881330D01*
X1869330Y-6730670D01*
X1860000Y-6737340D01*
X1853330Y-6745340D01*
X1848000Y-6758670D01*
X1846670Y-6770670D01*
X1849330Y-6782670D01*
X1853330Y-6790670D01*
X1861330Y-6798670D01*
X1870670Y-6804000D01*
X1880000Y-6806670D01*
X1889330D01*
X1898670Y-6804000D01*
X1906670Y-6800000D01*
X1913330Y-6794670D01*
G01X1940670Y-6806670D02*
Y-6726670D01*
G01X1991330D02*
X1940670Y-6776010D01*
G01X1999330Y-6806670D02*
X1963330Y-6753340D01*
G01X2193330Y-6774000D02*
X2200000Y-6782000D01*
X2208000Y-6787330D01*
X2217330Y-6790000D01*
X2228000Y-6787330D01*
X2236000Y-6782000D01*
X2244000Y-6774000D01*
X2246670Y-6763330D01*
Y-6710000D01*
G01X2280670Y-6774000D02*
X2288670Y-6783330D01*
X2299330Y-6788670D01*
X2311330Y-6790000D01*
X2322000Y-6788670D01*
X2332670Y-6782000D01*
X2339330Y-6774000D01*
X2340670Y-6766000D01*
X2338000Y-6756670D01*
X2328670Y-6750000D01*
X2319330Y-6747330D01*
X2307330D01*
G01X2319330D02*
X2327330Y-6743330D01*
X2334000Y-6736670D01*
X2336670Y-6728670D01*
X2334000Y-6720670D01*
X2327330Y-6714000D01*
X2315330Y-6710000D01*
X2303330Y-6711330D01*
X2291330Y-6716670D01*
G01X2377330Y-6780670D02*
X2386670Y-6787330D01*
X2397330Y-6790000D01*
X2408000Y-6787330D01*
X2417330Y-6779340D01*
X2424000Y-6767330D01*
X2426670Y-6755330D01*
Y-6740670D01*
X2424000Y-6728670D01*
X2417330Y-6718000D01*
X2409330Y-6712670D01*
X2400000Y-6710000D01*
X2389330Y-6712670D01*
X2381330Y-6718000D01*
X2376000Y-6726000D01*
X2373330Y-6736670D01*
X2376000Y-6746000D01*
X2382670Y-6755330D01*
X2390670Y-6760670D01*
X2400000Y-6762000D01*
X2410670Y-6759340D01*
X2418670Y-6752670D01*
X2426670Y-6740670D01*
G01X1413330Y-6381670D02*
Y-6301670D01*
X1445330D01*
X1456000Y-6305670D01*
X1464000Y-6315000D01*
X1466670Y-6325670D01*
X1464000Y-6336340D01*
X1457330Y-6344340D01*
X1445330Y-6348340D01*
X1413330D01*
G01X1496670Y-6381670D02*
X1530000Y-6301670D01*
X1563330Y-6381670D01*
G01X1551330Y-6353670D02*
X1508670D01*
G01X1620000Y-6301670D02*
X1609330Y-6304340D01*
X1601330Y-6311000D01*
X1596000Y-6319000D01*
X1592000Y-6329670D01*
X1590670Y-6341670D01*
X1592000Y-6353670D01*
X1596000Y-6364340D01*
X1601330Y-6372340D01*
X1609330Y-6379000D01*
X1620000Y-6381670D01*
X1630670Y-6379000D01*
X1638670Y-6372340D01*
X1644000Y-6364340D01*
X1648000Y-6353670D01*
X1649330Y-6341670D01*
X1648000Y-6329670D01*
X1644000Y-6319000D01*
X1638670Y-6311000D01*
X1630670Y-6304340D01*
X1620000Y-6301670D01*
G01X1686000Y-6384340D02*
X1734000Y-6301670D01*
G01X1770670Y-6381670D02*
Y-6301670D01*
X1797330D01*
X1808000Y-6305670D01*
X1816000Y-6311000D01*
X1822670Y-6319000D01*
X1828000Y-6328340D01*
X1829330Y-6341670D01*
X1828000Y-6355000D01*
X1822670Y-6364340D01*
X1816000Y-6372340D01*
X1808000Y-6377670D01*
X1797330Y-6381670D01*
X1770670D01*
G01X1860670D02*
Y-6301670D01*
X1887330D01*
X1898000Y-6305670D01*
X1906000Y-6311000D01*
X1912670Y-6319000D01*
X1918000Y-6328340D01*
X1919330Y-6341670D01*
X1918000Y-6355000D01*
X1912670Y-6364340D01*
X1906000Y-6372340D01*
X1898000Y-6377670D01*
X1887330Y-6381670D01*
X1860670D01*
G01X1964000Y-6301670D02*
X1996000D01*
G01X1980000D02*
Y-6381670D01*
G01X1964000D02*
X1996000D01*
G01X2218000Y-6643000D02*
X2776000D01*
Y-6397000D01*
X2218000D01*
Y-6643000D01*
G01X2336000Y-5503330D02*
X2328000Y-5510000D01*
X2322670Y-5518000D01*
X2320000Y-5527330D01*
X2322670Y-5538000D01*
X2328000Y-5546000D01*
X2336000Y-5554000D01*
X2346670Y-5556670D01*
X2400000D01*
G01X2320000Y-5620000D02*
X2400000D01*
X2384000Y-5604000D01*
G01X2320000D02*
Y-5636000D01*
G01X2353330Y-5684670D02*
X2362670Y-5694000D01*
X2368000Y-5702000D01*
X2370670Y-5712670D01*
X2368000Y-5722000D01*
X2362670Y-5728670D01*
X2354670Y-5734000D01*
X2345330Y-5735330D01*
X2337330Y-5734000D01*
X2329330Y-5728670D01*
X2322670Y-5720670D01*
X2320000Y-5711330D01*
X2322670Y-5700670D01*
X2330660Y-5691330D01*
X2342670Y-5686000D01*
X2356000Y-5684670D01*
X2373330Y-5687330D01*
X2382670Y-5691330D01*
X2392000Y-5698000D01*
X2398670Y-5707330D01*
X2400000Y-5716670D01*
X2397330Y-5726000D01*
X2390670Y-5732670D01*
G01X2393000Y-6050000D02*
X2147000D01*
G01X2393000Y-6329000D02*
Y-5771000D01*
X2147000D01*
Y-6329000D01*
X2393000D01*
G01X1777000Y-6693000D02*
Y-6447000D01*
G01X1498000Y-6693000D02*
X2056000D01*
Y-6447000D01*
X1498000D01*
Y-6693000D01*
G01X1777000Y-6263000D02*
Y-6017000D01*
G01X1498000Y-6263000D02*
X2056000D01*
Y-6017000D01*
X1498000D01*
Y-6263000D01*
G01X1896000Y-5444000D02*
Y-5924000D01*
X1505000D01*
Y-5436000D01*
X1896000D01*
Y-5444000D01*
G01X1938330Y-5780000D02*
Y-5700000D01*
X1971670D01*
X1982330Y-5704000D01*
X1989000Y-5709330D01*
X1991670Y-5720000D01*
X1989000Y-5730670D01*
X1981000Y-5737330D01*
X1971670Y-5741330D01*
X1938330D01*
G01X1971670D02*
X1991670Y-5780000D01*
G01X2029670Y-5713330D02*
X2037670Y-5705330D01*
X2047000Y-5701330D01*
X2057670Y-5700000D01*
X2071000Y-5702670D01*
X2080330Y-5709330D01*
X2083000Y-5717330D01*
X2081670Y-5725340D01*
X2076330Y-5732000D01*
X2049670Y-5745330D01*
X2037670Y-5754670D01*
X2029670Y-5768000D01*
X2027000Y-5780000D01*
X2083000D01*
G01X1980000Y-5820000D02*
X1940000D01*
Y-5900000D01*
X1980000D01*
G01X2080000Y-5820000D02*
X2120000D01*
Y-5900000D01*
X2080000D01*
G01X1510670Y-5300000D02*
Y-5357330D01*
X1516000Y-5369340D01*
X1526670Y-5377330D01*
X1540000Y-5380000D01*
X1553330Y-5377330D01*
X1564000Y-5369340D01*
X1569330Y-5357330D01*
Y-5300000D01*
G01X1604670Y-5313330D02*
X1612670Y-5305330D01*
X1622000Y-5301330D01*
X1632670Y-5300000D01*
X1646000Y-5302670D01*
X1655330Y-5309330D01*
X1658000Y-5317330D01*
X1656670Y-5325340D01*
X1651330Y-5332000D01*
X1624670Y-5345330D01*
X1612670Y-5354670D01*
X1604670Y-5368000D01*
X1602000Y-5380000D01*
X1658000D01*
G01X1999330Y-5406670D02*
X1991330Y-5402670D01*
X1982000Y-5400000D01*
X1971330D01*
X1959330Y-5404000D01*
X1950000Y-5410670D01*
X1943330Y-5418670D01*
X1938000Y-5432000D01*
X1936670Y-5444000D01*
X1939330Y-5456000D01*
X1943330Y-5464000D01*
X1951330Y-5472000D01*
X1960670Y-5477330D01*
X1970000Y-5480000D01*
X1979330D01*
X1988670Y-5477330D01*
X1996670Y-5473330D01*
X2003330Y-5468000D01*
G01X2034670Y-5413330D02*
X2042670Y-5405330D01*
X2052000Y-5401330D01*
X2062670Y-5400000D01*
X2076000Y-5402670D01*
X2085330Y-5409330D01*
X2088000Y-5417330D01*
X2086670Y-5425340D01*
X2081330Y-5432000D01*
X2054670Y-5445330D01*
X2042670Y-5454670D01*
X2034670Y-5468000D01*
X2032000Y-5480000D01*
X2088000D01*
G01X2124670Y-5413330D02*
X2132670Y-5405330D01*
X2142000Y-5401330D01*
X2152670Y-5400000D01*
X2166000Y-5402670D01*
X2175330Y-5409330D01*
X2178000Y-5417330D01*
X2176670Y-5425340D01*
X2171330Y-5432000D01*
X2144670Y-5445330D01*
X2132670Y-5454670D01*
X2124670Y-5468000D01*
X2122000Y-5480000D01*
X2178000D01*
G01X2080000Y-5610000D02*
X2120000D01*
Y-5530000D01*
X2080000D01*
G01X1980000Y-5610000D02*
X1940000D01*
Y-5530000D01*
X1980000D01*
G01X1660000Y-4755000D02*
Y-4855000D01*
G01X2160000Y-4755000D02*
Y-4855000D01*
G01X1760000Y-4655000D02*
X2060000D01*
G01X1760000Y-4955000D02*
X2060000D01*
G01X2010000Y-4805000D02*
G03I-100000J0D01*
G01X1660000D02*
X1860000D01*
X1925000Y-4740000D01*
G01X1960000Y-4805000D02*
X2160000D01*
G01X1533330Y-3506670D02*
Y-3426670D01*
X1566670D01*
X1577330Y-3430670D01*
X1584000Y-3436000D01*
X1586670Y-3446670D01*
X1584000Y-3457340D01*
X1576000Y-3464000D01*
X1566670Y-3468000D01*
X1533330D01*
G01X1566670D02*
X1586670Y-3506670D01*
G01X1610000Y-3533340D02*
X1690000D01*
G01X1710670Y-3506670D02*
Y-3426670D01*
X1737330D01*
X1748000Y-3430670D01*
X1756000Y-3436000D01*
X1762670Y-3444000D01*
X1768000Y-3453340D01*
X1769330Y-3466670D01*
X1768000Y-3480000D01*
X1762670Y-3489340D01*
X1756000Y-3497340D01*
X1748000Y-3502670D01*
X1737330Y-3506670D01*
X1710670D01*
G01X1800670Y-3494670D02*
X1808670Y-3501340D01*
X1818000Y-3505340D01*
X1830000Y-3506670D01*
X1842000Y-3504000D01*
X1851330Y-3498670D01*
X1858000Y-3489340D01*
X1859330Y-3478670D01*
X1856670Y-3468000D01*
X1850000Y-3461340D01*
X1840670Y-3456000D01*
X1831330Y-3454670D01*
X1822000Y-3456000D01*
X1810000Y-3461340D01*
X1814000Y-3426670D01*
X1850000D01*
G01X2222000Y-3559340D02*
X2232670Y-3566000D01*
X2244670Y-3570000D01*
X2255330D01*
X2266000Y-3566000D01*
X2274000Y-3559340D01*
X2278000Y-3550000D01*
X2275330Y-3540670D01*
X2268670Y-3532670D01*
X2256670Y-3527330D01*
X2240670Y-3524670D01*
X2231330Y-3519330D01*
X2227330Y-3510000D01*
X2230000Y-3500670D01*
X2236670Y-3494000D01*
X2246000Y-3490000D01*
X2255330D01*
X2264670Y-3492670D01*
X2272670Y-3499330D01*
G01X2300000Y-3490000D02*
X2318670Y-3570000D01*
X2340000Y-3490000D01*
X2361330Y-3570000D01*
X2380000Y-3490000D01*
G01X2404670Y-3503330D02*
X2412670Y-3495330D01*
X2422000Y-3491330D01*
X2432670Y-3490000D01*
X2446000Y-3492670D01*
X2455330Y-3499330D01*
X2458000Y-3507330D01*
X2456670Y-3515340D01*
X2451330Y-3522000D01*
X2424670Y-3535330D01*
X2412670Y-3544670D01*
X2404670Y-3558000D01*
X2402000Y-3570000D01*
X2458000D01*
G01X2150000Y-3975000D02*
Y-3875000D01*
G01X1650000Y-3975000D02*
Y-3875000D01*
G01X2050000Y-4075000D02*
X1750000D01*
G01X2050000Y-3775000D02*
X1750000D01*
G01X2000000Y-3925000D02*
G03I-100000J0D01*
G01X2150000D02*
X1950000D01*
X1885000Y-3990000D01*
G01X1850000Y-3925000D02*
X1650000D01*
G01X2222000Y-4409340D02*
X2232670Y-4416000D01*
X2244670Y-4420000D01*
X2255330D01*
X2266000Y-4416000D01*
X2274000Y-4409340D01*
X2278000Y-4400000D01*
X2275330Y-4390670D01*
X2268670Y-4382670D01*
X2256670Y-4377330D01*
X2240670Y-4374670D01*
X2231330Y-4369330D01*
X2227330Y-4360000D01*
X2230000Y-4350670D01*
X2236670Y-4344000D01*
X2246000Y-4340000D01*
X2255330D01*
X2264670Y-4342670D01*
X2272670Y-4349330D01*
G01X2300000Y-4340000D02*
X2318670Y-4420000D01*
X2340000Y-4340000D01*
X2361330Y-4420000D01*
X2380000Y-4340000D01*
G01X2446000Y-4420000D02*
Y-4340000D01*
X2396670Y-4397330D01*
X2463330D01*
G01X1570670Y-3014000D02*
X1576000Y-3010000D01*
X1580000Y-3003340D01*
X1582670Y-2994000D01*
X1580000Y-2986000D01*
X1574670Y-2980670D01*
X1565330Y-2976670D01*
X1529330D01*
Y-3056670D01*
X1573330D01*
X1582670Y-3051340D01*
X1588000Y-3043340D01*
X1590670Y-3034000D01*
X1588000Y-3024670D01*
X1580000Y-3016670D01*
X1570670Y-3014000D01*
X1529330D01*
G01X1610000Y-3083340D02*
X1690000D01*
G01X1710670Y-3056670D02*
Y-2976670D01*
X1737330D01*
X1748000Y-2980670D01*
X1756000Y-2986000D01*
X1762670Y-2994000D01*
X1768000Y-3003340D01*
X1769330Y-3016670D01*
X1768000Y-3030000D01*
X1762670Y-3039340D01*
X1756000Y-3047340D01*
X1748000Y-3052670D01*
X1737330Y-3056670D01*
X1710670D01*
G01X1804670Y-2990000D02*
X1812670Y-2982000D01*
X1822000Y-2978000D01*
X1832670Y-2976670D01*
X1846000Y-2979340D01*
X1855330Y-2986000D01*
X1858000Y-2994000D01*
X1856670Y-3002010D01*
X1851330Y-3008670D01*
X1824670Y-3022000D01*
X1812670Y-3031340D01*
X1804670Y-3044670D01*
X1802000Y-3056670D01*
X1858000D01*
G01X1568000Y-3166670D02*
X1594670D01*
Y-3190670D01*
X1586670Y-3198670D01*
X1577330Y-3204000D01*
X1564000Y-3206670D01*
X1550670Y-3204000D01*
X1541330Y-3198670D01*
X1533330Y-3190670D01*
X1528000Y-3181340D01*
X1525330Y-3170670D01*
Y-3161340D01*
X1528000Y-3153340D01*
X1533330Y-3144000D01*
X1541330Y-3136000D01*
X1549330Y-3130670D01*
X1560000Y-3126670D01*
X1569330D01*
X1580000Y-3129340D01*
X1588000Y-3134670D01*
G01X1610000Y-3233340D02*
X1690000D01*
G01X1710670Y-3206670D02*
Y-3126670D01*
X1737330D01*
X1748000Y-3130670D01*
X1756000Y-3136000D01*
X1762670Y-3144000D01*
X1768000Y-3153340D01*
X1769330Y-3166670D01*
X1768000Y-3180000D01*
X1762670Y-3189340D01*
X1756000Y-3197340D01*
X1748000Y-3202670D01*
X1737330Y-3206670D01*
X1710670D01*
G01X1800670Y-3190670D02*
X1808670Y-3200000D01*
X1819330Y-3205340D01*
X1831330Y-3206670D01*
X1842000Y-3205340D01*
X1852670Y-3198670D01*
X1859330Y-3190670D01*
X1860670Y-3182670D01*
X1858000Y-3173340D01*
X1848670Y-3166670D01*
X1839330Y-3164000D01*
X1827330D01*
G01X1839330D02*
X1847330Y-3160000D01*
X1854000Y-3153340D01*
X1856670Y-3145340D01*
X1854000Y-3137340D01*
X1847330Y-3130670D01*
X1835330Y-3126670D01*
X1823330Y-3128000D01*
X1811330Y-3133340D01*
G01X1520000Y-3276670D02*
X1538670Y-3356670D01*
X1560000Y-3276670D01*
X1581330Y-3356670D01*
X1600000Y-3276670D01*
G01X1610000Y-3383340D02*
X1690000D01*
G01X1710670Y-3356670D02*
Y-3276670D01*
X1737330D01*
X1748000Y-3280670D01*
X1756000Y-3286000D01*
X1762670Y-3294000D01*
X1768000Y-3303340D01*
X1769330Y-3316670D01*
X1768000Y-3330000D01*
X1762670Y-3339340D01*
X1756000Y-3347340D01*
X1748000Y-3352670D01*
X1737330Y-3356670D01*
X1710670D01*
G01X1846000D02*
Y-3276670D01*
X1796670Y-3334000D01*
X1863330D01*
G01X2146000Y-2770670D02*
X2136670Y-2778670D01*
X2131330Y-2789330D01*
X2130000Y-2801330D01*
X2131330Y-2812000D01*
X2138000Y-2822670D01*
X2146000Y-2829330D01*
X2154000Y-2830670D01*
X2163330Y-2828000D01*
X2170000Y-2818670D01*
X2172670Y-2809330D01*
Y-2797330D01*
G01Y-2809330D02*
X2176670Y-2817330D01*
X2183330Y-2824000D01*
X2191330Y-2826670D01*
X2199330Y-2824000D01*
X2206000Y-2817330D01*
X2210000Y-2805330D01*
X2208670Y-2793330D01*
X2203330Y-2781330D01*
G01X2210000Y-2856670D02*
X2130000Y-2890000D01*
X2210000Y-2923330D01*
G01X2146000Y-2950670D02*
X2136670Y-2958670D01*
X2131330Y-2969330D01*
X2130000Y-2981330D01*
X2131330Y-2992000D01*
X2138000Y-3002670D01*
X2146000Y-3009330D01*
X2154000Y-3010670D01*
X2163330Y-3008000D01*
X2170000Y-2998670D01*
X2172670Y-2989330D01*
Y-2977330D01*
G01Y-2989330D02*
X2176670Y-2997330D01*
X2183330Y-3004000D01*
X2191330Y-3006670D01*
X2199330Y-3004000D01*
X2206000Y-2997330D01*
X2210000Y-2985330D01*
X2208670Y-2973330D01*
X2203330Y-2961330D01*
G01X2130000Y-3070000D02*
X2131330Y-3059330D01*
X2136670Y-3050000D01*
X2144670Y-3042000D01*
X2154000Y-3036670D01*
X2164670Y-3034000D01*
X2175330D01*
X2186000Y-3036670D01*
X2195330Y-3042000D01*
X2203330Y-3050000D01*
X2208670Y-3059330D01*
X2210000Y-3070000D01*
X2208670Y-3080670D01*
X2203330Y-3090000D01*
X2195330Y-3098000D01*
X2186000Y-3103330D01*
X2175330Y-3106000D01*
X2164670D01*
X2154000Y-3103330D01*
X2144670Y-3098000D01*
X2136670Y-3090000D01*
X2131330Y-3080670D01*
X2130000Y-3070000D01*
G01X2210000Y-3130670D02*
X2152670D01*
X2140660Y-3136000D01*
X2132670Y-3146670D01*
X2130000Y-3160000D01*
X2132670Y-3173330D01*
X2140660Y-3184000D01*
X2152670Y-3189330D01*
X2210000D01*
G01Y-3250000D02*
X2130000D01*
G01X2210000Y-3219330D02*
Y-3280670D01*
G01X2279330Y-2095670D02*
X2270000Y-2103670D01*
X2264660Y-2114330D01*
X2263330Y-2126330D01*
X2264660Y-2137000D01*
X2271330Y-2147670D01*
X2279330Y-2154330D01*
X2287330Y-2155670D01*
X2296660Y-2153000D01*
X2303330Y-2143670D01*
X2306000Y-2134330D01*
Y-2122330D01*
G01Y-2134330D02*
X2310000Y-2142330D01*
X2316660Y-2149000D01*
X2324660Y-2151670D01*
X2332660Y-2149000D01*
X2339330Y-2142330D01*
X2343330Y-2130330D01*
X2342000Y-2118330D01*
X2336660Y-2106330D01*
G01X2343330Y-2181670D02*
X2263330Y-2215000D01*
X2343330Y-2248330D01*
G01X2279330Y-2275670D02*
X2270000Y-2283670D01*
X2264660Y-2294330D01*
X2263330Y-2306330D01*
X2264660Y-2317000D01*
X2271330Y-2327670D01*
X2279330Y-2334330D01*
X2287330Y-2335670D01*
X2296660Y-2333000D01*
X2303330Y-2323670D01*
X2306000Y-2314330D01*
Y-2302330D01*
G01Y-2314330D02*
X2310000Y-2322330D01*
X2316660Y-2329000D01*
X2324660Y-2331670D01*
X2332660Y-2329000D01*
X2339330Y-2322330D01*
X2343330Y-2310330D01*
X2342000Y-2298330D01*
X2336660Y-2286330D01*
G01X2343330Y-2368330D02*
X2263330D01*
Y-2421670D01*
G01Y-2455670D02*
X2343330D01*
Y-2482330D01*
X2339330Y-2493000D01*
X2334000Y-2501000D01*
X2326000Y-2507670D01*
X2316660Y-2513000D01*
X2303330Y-2514330D01*
X2290000Y-2513000D01*
X2280660Y-2507670D01*
X2272660Y-2501000D01*
X2267330Y-2493000D01*
X2263330Y-2482330D01*
Y-2455670D01*
G01Y-2575000D02*
X2264660Y-2564330D01*
X2270000Y-2555000D01*
X2278000Y-2547000D01*
X2287330Y-2541670D01*
X2298000Y-2539000D01*
X2308660D01*
X2319330Y-2541670D01*
X2328660Y-2547000D01*
X2336660Y-2555000D01*
X2342000Y-2564330D01*
X2343330Y-2575000D01*
X2342000Y-2585670D01*
X2336660Y-2595000D01*
X2328660Y-2603000D01*
X2319330Y-2608330D01*
X2308660Y-2611000D01*
X2298000D01*
X2287330Y-2608330D01*
X2278000Y-2603000D01*
X2270000Y-2595000D01*
X2264660Y-2585670D01*
X2263330Y-2575000D01*
G01X2146000Y-2090670D02*
X2136670Y-2098670D01*
X2131330Y-2109330D01*
X2130000Y-2121330D01*
X2131330Y-2132000D01*
X2138000Y-2142670D01*
X2146000Y-2149330D01*
X2154000Y-2150670D01*
X2163330Y-2148000D01*
X2170000Y-2138670D01*
X2172670Y-2129330D01*
Y-2117330D01*
G01Y-2129330D02*
X2176670Y-2137330D01*
X2183330Y-2144000D01*
X2191330Y-2146670D01*
X2199330Y-2144000D01*
X2206000Y-2137330D01*
X2210000Y-2125330D01*
X2208670Y-2113330D01*
X2203330Y-2101330D01*
G01X2210000Y-2176670D02*
X2130000Y-2210000D01*
X2210000Y-2243330D01*
G01X2146000Y-2270670D02*
X2136670Y-2278670D01*
X2131330Y-2289330D01*
X2130000Y-2301330D01*
X2131330Y-2312000D01*
X2138000Y-2322670D01*
X2146000Y-2329330D01*
X2154000Y-2330670D01*
X2163330Y-2328000D01*
X2170000Y-2318670D01*
X2172670Y-2309330D01*
Y-2297330D01*
G01Y-2309330D02*
X2176670Y-2317330D01*
X2183330Y-2324000D01*
X2191330Y-2326670D01*
X2199330Y-2324000D01*
X2206000Y-2317330D01*
X2210000Y-2305330D01*
X2208670Y-2293330D01*
X2203330Y-2281330D01*
G01Y-2419330D02*
X2207330Y-2411330D01*
X2210000Y-2402000D01*
Y-2391330D01*
X2206000Y-2379330D01*
X2199330Y-2370000D01*
X2191330Y-2363330D01*
X2178000Y-2358000D01*
X2166000Y-2356670D01*
X2154000Y-2359330D01*
X2146000Y-2363330D01*
X2138000Y-2371330D01*
X2132670Y-2380670D01*
X2130000Y-2390000D01*
Y-2399330D01*
X2132670Y-2408670D01*
X2136670Y-2416670D01*
X2142000Y-2423330D01*
G01X2130000Y-2452000D02*
X2210000D01*
G01Y-2508000D02*
X2130000D01*
G01X2170000D02*
Y-2452000D01*
G01X2210000Y-2554000D02*
Y-2586000D01*
G01Y-2570000D02*
X2130000D01*
G01Y-2554000D02*
Y-2586000D01*
G01Y-2633330D02*
X2210000D01*
Y-2665330D01*
X2206000Y-2676000D01*
X2196670Y-2684000D01*
X2186000Y-2686670D01*
X2175330Y-2684000D01*
X2167330Y-2677330D01*
X2163330Y-2665330D01*
Y-2633330D01*
G01X2289330Y-2685670D02*
X2280000Y-2693670D01*
X2274660Y-2704330D01*
X2273330Y-2716330D01*
X2274660Y-2727000D01*
X2281330Y-2737670D01*
X2289330Y-2744330D01*
X2297330Y-2745670D01*
X2306660Y-2743000D01*
X2313330Y-2733670D01*
X2316000Y-2724330D01*
Y-2712330D01*
G01Y-2724330D02*
X2320000Y-2732330D01*
X2326660Y-2739000D01*
X2334660Y-2741670D01*
X2342660Y-2739000D01*
X2349330Y-2732330D01*
X2353330Y-2720330D01*
X2352000Y-2708330D01*
X2346660Y-2696330D01*
G01X2353330Y-2771670D02*
X2273330Y-2805000D01*
X2353330Y-2838330D01*
G01X2289330Y-2865670D02*
X2280000Y-2873670D01*
X2274660Y-2884330D01*
X2273330Y-2896330D01*
X2274660Y-2907000D01*
X2281330Y-2917670D01*
X2289330Y-2924330D01*
X2297330Y-2925670D01*
X2306660Y-2923000D01*
X2313330Y-2913670D01*
X2316000Y-2904330D01*
Y-2892330D01*
G01Y-2904330D02*
X2320000Y-2912330D01*
X2326660Y-2919000D01*
X2334660Y-2921670D01*
X2342660Y-2919000D01*
X2349330Y-2912330D01*
X2353330Y-2900330D01*
X2352000Y-2888330D01*
X2346660Y-2876330D01*
G01Y-3014330D02*
X2350660Y-3006330D01*
X2353330Y-2997000D01*
Y-2986330D01*
X2349330Y-2974330D01*
X2342660Y-2965000D01*
X2334660Y-2958330D01*
X2321330Y-2953000D01*
X2309330Y-2951670D01*
X2297330Y-2954330D01*
X2289330Y-2958330D01*
X2281330Y-2966330D01*
X2276000Y-2975670D01*
X2273330Y-2985000D01*
Y-2994330D01*
X2276000Y-3003670D01*
X2280000Y-3011670D01*
X2285330Y-3018330D01*
G01X2273330Y-3047000D02*
X2353330D01*
G01Y-3103000D02*
X2273330D01*
G01X2313330D02*
Y-3047000D01*
G01X2353330Y-3149000D02*
Y-3181000D01*
G01Y-3165000D02*
X2273330D01*
G01Y-3149000D02*
Y-3181000D01*
G01Y-3228330D02*
X2353330D01*
Y-3260330D01*
X2349330Y-3271000D01*
X2340000Y-3279000D01*
X2329330Y-3281670D01*
X2318660Y-3279000D01*
X2310660Y-3272330D01*
X2306660Y-3260330D01*
Y-3228330D01*
G01X1420000Y-2210000D02*
X2090000D01*
Y-3320000D01*
X2410000D01*
Y-2070000D01*
X2090000D01*
Y-2210000D01*
G01X1456000Y-2663330D02*
X1448000Y-2670000D01*
X1442670Y-2678000D01*
X1440000Y-2687330D01*
X1442670Y-2698000D01*
X1448000Y-2706000D01*
X1456000Y-2714000D01*
X1466670Y-2716670D01*
X1520000D01*
G01X1456000Y-2750670D02*
X1446670Y-2758670D01*
X1441330Y-2769330D01*
X1440000Y-2781330D01*
X1441330Y-2792000D01*
X1448000Y-2802670D01*
X1456000Y-2809330D01*
X1464000Y-2810670D01*
X1473330Y-2808000D01*
X1480000Y-2798670D01*
X1482670Y-2789330D01*
Y-2777330D01*
G01Y-2789330D02*
X1486670Y-2797330D01*
X1493330Y-2804000D01*
X1501330Y-2806670D01*
X1509330Y-2804000D01*
X1516000Y-2797330D01*
X1520000Y-2785330D01*
X1518670Y-2773330D01*
X1513330Y-2761330D01*
G01X1452000Y-2840670D02*
X1445330Y-2848670D01*
X1441330Y-2858000D01*
X1440000Y-2870000D01*
X1442670Y-2882000D01*
X1448000Y-2891330D01*
X1457330Y-2898000D01*
X1468000Y-2899330D01*
X1478670Y-2896670D01*
X1485330Y-2890000D01*
X1490670Y-2880670D01*
X1492000Y-2871330D01*
X1490670Y-2862000D01*
X1485330Y-2850000D01*
X1520000Y-2854000D01*
Y-2890000D01*
G01X1576000Y-2663330D02*
X1568000Y-2670000D01*
X1562670Y-2678000D01*
X1560000Y-2687330D01*
X1562670Y-2698000D01*
X1568000Y-2706000D01*
X1576000Y-2714000D01*
X1586670Y-2716670D01*
X1640000D01*
G01X1626670Y-2754670D02*
X1634670Y-2762670D01*
X1638670Y-2772000D01*
X1640000Y-2782670D01*
X1637330Y-2796000D01*
X1630670Y-2805330D01*
X1622670Y-2808000D01*
X1614660Y-2806670D01*
X1608000Y-2801330D01*
X1594670Y-2774670D01*
X1585330Y-2762670D01*
X1572000Y-2754670D01*
X1560000Y-2752000D01*
Y-2808000D01*
G01X1569330Y-2847330D02*
X1562670Y-2856670D01*
X1560000Y-2867330D01*
X1562670Y-2878000D01*
X1570660Y-2887330D01*
X1582670Y-2894000D01*
X1594670Y-2896670D01*
X1609330D01*
X1621330Y-2894000D01*
X1632000Y-2887330D01*
X1637330Y-2879330D01*
X1640000Y-2870000D01*
X1637330Y-2859330D01*
X1632000Y-2851330D01*
X1624000Y-2846000D01*
X1613330Y-2843330D01*
X1604000Y-2846000D01*
X1594670Y-2852670D01*
X1589330Y-2860670D01*
X1588000Y-2870000D01*
X1590660Y-2880670D01*
X1597330Y-2888670D01*
X1609330Y-2896670D01*
G01X1783000Y-2646000D02*
Y-2088000D01*
X1537000D01*
Y-2646000D01*
X1783000D01*
G01X1838370Y-2423000D02*
X1834370Y-2429000D01*
X1831700Y-2436000D01*
Y-2444000D01*
X1835700Y-2453000D01*
X1842370Y-2460000D01*
X1850370Y-2465000D01*
X1863700Y-2469000D01*
X1875700Y-2470000D01*
X1887700Y-2468000D01*
X1895700Y-2465000D01*
X1903700Y-2459000D01*
X1909030Y-2452000D01*
X1911700Y-2445000D01*
Y-2438000D01*
X1909030Y-2431000D01*
X1905030Y-2425000D01*
X1899700Y-2420000D01*
G01X2043330Y-2659330D02*
X2047330Y-2651330D01*
X2050000Y-2642000D01*
Y-2631330D01*
X2046000Y-2619330D01*
X2039330Y-2610000D01*
X2031330Y-2603330D01*
X2018000Y-2598000D01*
X2006000Y-2596670D01*
X1994000Y-2599330D01*
X1986000Y-2603330D01*
X1978000Y-2611330D01*
X1972670Y-2620670D01*
X1970000Y-2630000D01*
Y-2639330D01*
X1972670Y-2648670D01*
X1976670Y-2656670D01*
X1982000Y-2663330D01*
G01X2036670Y-2694670D02*
X2044670Y-2702670D01*
X2048670Y-2712000D01*
X2050000Y-2722670D01*
X2047330Y-2736000D01*
X2040670Y-2745330D01*
X2032670Y-2748000D01*
X2024660Y-2746670D01*
X2018000Y-2741330D01*
X2004670Y-2714670D01*
X1995330Y-2702670D01*
X1982000Y-2694670D01*
X1970000Y-2692000D01*
Y-2748000D01*
G01X1979330Y-2787330D02*
X1972670Y-2796670D01*
X1970000Y-2807330D01*
X1972670Y-2818000D01*
X1980660Y-2827330D01*
X1992670Y-2834000D01*
X2004670Y-2836670D01*
X2019330D01*
X2031330Y-2834000D01*
X2042000Y-2827330D01*
X2047330Y-2819330D01*
X2050000Y-2810000D01*
X2047330Y-2799330D01*
X2042000Y-2791330D01*
X2034000Y-2786000D01*
X2023330Y-2783330D01*
X2014000Y-2786000D01*
X2004670Y-2792670D01*
X1999330Y-2800670D01*
X1998000Y-2810000D01*
X2000660Y-2820670D01*
X2007330Y-2828670D01*
X2019330Y-2836670D01*
G01X1940000Y-2530000D02*
Y-2590000D01*
X1800000D01*
Y-2530000D01*
G01X1390000Y-1010670D02*
X1470000D01*
Y-1037330D01*
X1466000Y-1048000D01*
X1460670Y-1056000D01*
X1452670Y-1062670D01*
X1443330Y-1068000D01*
X1430000Y-1069330D01*
X1416670Y-1068000D01*
X1407330Y-1062670D01*
X1399330Y-1056000D01*
X1394000Y-1048000D01*
X1390000Y-1037330D01*
Y-1010670D01*
G01Y-1095330D02*
X1470000D01*
X1403330Y-1130000D01*
X1470000Y-1164670D01*
X1390000D01*
G01X1387330Y-1196000D02*
X1470000Y-1244000D01*
G01X1390000Y-1276670D02*
X1470000Y-1310000D01*
X1390000Y-1343330D01*
G01X1418000Y-1331330D02*
Y-1288670D01*
G01X1402000Y-1370670D02*
X1395330Y-1378670D01*
X1391330Y-1388000D01*
X1390000Y-1400000D01*
X1392670Y-1412000D01*
X1398000Y-1421330D01*
X1407330Y-1428000D01*
X1418000Y-1429330D01*
X1428670Y-1426670D01*
X1435330Y-1420000D01*
X1440670Y-1410670D01*
X1442000Y-1401330D01*
X1440670Y-1392000D01*
X1435330Y-1380000D01*
X1470000Y-1384000D01*
Y-1420000D01*
G01X1526000Y-1248330D02*
X1518000Y-1255000D01*
X1512670Y-1263000D01*
X1510000Y-1272330D01*
X1512670Y-1283000D01*
X1518000Y-1291000D01*
X1526000Y-1299000D01*
X1536670Y-1301670D01*
X1590000D01*
G01X1576670Y-1339670D02*
X1584670Y-1347670D01*
X1588670Y-1357000D01*
X1590000Y-1367670D01*
X1587330Y-1381000D01*
X1580670Y-1390330D01*
X1572670Y-1393000D01*
X1564660Y-1391670D01*
X1558000Y-1386330D01*
X1544670Y-1359670D01*
X1535330Y-1347670D01*
X1522000Y-1339670D01*
X1510000Y-1337000D01*
Y-1393000D01*
G01Y-1455000D02*
X1511330Y-1464330D01*
X1515330Y-1475000D01*
X1522000Y-1481670D01*
X1531330Y-1484330D01*
X1540660Y-1481670D01*
X1548670Y-1473670D01*
X1552670Y-1461670D01*
Y-1448330D01*
X1555330Y-1440330D01*
X1562000Y-1433670D01*
X1571330Y-1431000D01*
X1580670Y-1435000D01*
X1587330Y-1444330D01*
X1590000Y-1455000D01*
X1587330Y-1465670D01*
X1580670Y-1475000D01*
X1571330Y-1479000D01*
X1562000Y-1476330D01*
X1555330Y-1469670D01*
X1552670Y-1461670D01*
Y-1448330D01*
X1548670Y-1436330D01*
X1540660Y-1428330D01*
X1531330Y-1425670D01*
X1522000Y-1428330D01*
X1515330Y-1435000D01*
X1511330Y-1445670D01*
X1510000Y-1455000D01*
G01X1711000Y-1248330D02*
X1703000Y-1255000D01*
X1697670Y-1263000D01*
X1695000Y-1272330D01*
X1697670Y-1283000D01*
X1703000Y-1291000D01*
X1711000Y-1299000D01*
X1721670Y-1301670D01*
X1775000D01*
G01X1761670Y-1339670D02*
X1769670Y-1347670D01*
X1773670Y-1357000D01*
X1775000Y-1367670D01*
X1772330Y-1381000D01*
X1765670Y-1390330D01*
X1757670Y-1393000D01*
X1749660Y-1391670D01*
X1743000Y-1386330D01*
X1729670Y-1359670D01*
X1720330Y-1347670D01*
X1707000Y-1339670D01*
X1695000Y-1337000D01*
Y-1393000D01*
G01Y-1452330D02*
X1712330Y-1455000D01*
X1727000Y-1459000D01*
X1740330Y-1464330D01*
X1755000Y-1471000D01*
X1775000Y-1481670D01*
Y-1428330D01*
G01X1783000Y-2367000D02*
X1537000D01*
G01X2310000Y-1555670D02*
X2252670D01*
X2240660Y-1561000D01*
X2232670Y-1571670D01*
X2230000Y-1585000D01*
X2232670Y-1598330D01*
X2240660Y-1609000D01*
X2252670Y-1614330D01*
X2310000D01*
G01X2230000Y-1691000D02*
X2310000D01*
X2252670Y-1641670D01*
Y-1708330D01*
G01X2009330Y-1886670D02*
X2001330Y-1882670D01*
X1992000Y-1880000D01*
X1981330D01*
X1969330Y-1884000D01*
X1960000Y-1890670D01*
X1953330Y-1898670D01*
X1948000Y-1912000D01*
X1946670Y-1924000D01*
X1949330Y-1936000D01*
X1953330Y-1944000D01*
X1961330Y-1952000D01*
X1970670Y-1957330D01*
X1980000Y-1960000D01*
X1989330D01*
X1998670Y-1957330D01*
X2006670Y-1953330D01*
X2013330Y-1948000D01*
G01X2040670Y-1944000D02*
X2048670Y-1953330D01*
X2059330Y-1958670D01*
X2071330Y-1960000D01*
X2082000Y-1958670D01*
X2092670Y-1952000D01*
X2099330Y-1944000D01*
X2100670Y-1936000D01*
X2098000Y-1926670D01*
X2088670Y-1920000D01*
X2079330Y-1917330D01*
X2067330D01*
G01X2079330D02*
X2087330Y-1913330D01*
X2094000Y-1906670D01*
X2096670Y-1898670D01*
X2094000Y-1890670D01*
X2087330Y-1884000D01*
X2075330Y-1880000D01*
X2063330Y-1881330D01*
X2051330Y-1886670D01*
G01X2134670Y-1893330D02*
X2142670Y-1885330D01*
X2152000Y-1881330D01*
X2162670Y-1880000D01*
X2176000Y-1882670D01*
X2185330Y-1889330D01*
X2188000Y-1897330D01*
X2186670Y-1905340D01*
X2181330Y-1912000D01*
X2154670Y-1925330D01*
X2142670Y-1934670D01*
X2134670Y-1948000D01*
X2132000Y-1960000D01*
X2188000D01*
G01X1860000Y-2030000D02*
X1900000D01*
Y-1950000D01*
X1860000D01*
G01X1760000Y-2030000D02*
X1720000D01*
Y-1950000D01*
X1760000D01*
G01X2009330Y-1776670D02*
X2001330Y-1772670D01*
X1992000Y-1770000D01*
X1981330D01*
X1969330Y-1774000D01*
X1960000Y-1780670D01*
X1953330Y-1788670D01*
X1948000Y-1802000D01*
X1946670Y-1814000D01*
X1949330Y-1826000D01*
X1953330Y-1834000D01*
X1961330Y-1842000D01*
X1970670Y-1847330D01*
X1980000Y-1850000D01*
X1989330D01*
X1998670Y-1847330D01*
X2006670Y-1843330D01*
X2013330Y-1838000D01*
G01X2040670Y-1834000D02*
X2048670Y-1843330D01*
X2059330Y-1848670D01*
X2071330Y-1850000D01*
X2082000Y-1848670D01*
X2092670Y-1842000D01*
X2099330Y-1834000D01*
X2100670Y-1826000D01*
X2098000Y-1816670D01*
X2088670Y-1810000D01*
X2079330Y-1807330D01*
X2067330D01*
G01X2079330D02*
X2087330Y-1803330D01*
X2094000Y-1796670D01*
X2096670Y-1788670D01*
X2094000Y-1780670D01*
X2087330Y-1774000D01*
X2075330Y-1770000D01*
X2063330Y-1771330D01*
X2051330Y-1776670D01*
G01X2130670Y-1834000D02*
X2138670Y-1843330D01*
X2149330Y-1848670D01*
X2161330Y-1850000D01*
X2172000Y-1848670D01*
X2182670Y-1842000D01*
X2189330Y-1834000D01*
X2190670Y-1826000D01*
X2188000Y-1816670D01*
X2178670Y-1810000D01*
X2169330Y-1807330D01*
X2157330D01*
G01X2169330D02*
X2177330Y-1803330D01*
X2184000Y-1796670D01*
X2186670Y-1788670D01*
X2184000Y-1780670D01*
X2177330Y-1774000D01*
X2165330Y-1770000D01*
X2153330Y-1771330D01*
X2141330Y-1776670D01*
G01X1855000Y-1930000D02*
X1895000D01*
Y-1850000D01*
X1855000D01*
G01X1755000Y-1930000D02*
X1715000D01*
Y-1850000D01*
X1755000D01*
G01X1940000Y-2370000D02*
Y-2310000D01*
X1800000D01*
Y-2370000D01*
G01X1802000Y-1566670D02*
X1796000Y-1562670D01*
X1789000Y-1560000D01*
X1781000D01*
X1772000Y-1564000D01*
X1765000Y-1570670D01*
X1760000Y-1578670D01*
X1756000Y-1592000D01*
X1755000Y-1604000D01*
X1757000Y-1616000D01*
X1760000Y-1624000D01*
X1766000Y-1632000D01*
X1773000Y-1637330D01*
X1780000Y-1640000D01*
X1787000D01*
X1794000Y-1637330D01*
X1800000Y-1633330D01*
X1805000Y-1628000D01*
G01X2009330Y-1556670D02*
X2001330Y-1552670D01*
X1992000Y-1550000D01*
X1981330D01*
X1969330Y-1554000D01*
X1960000Y-1560670D01*
X1953330Y-1568670D01*
X1948000Y-1582000D01*
X1946670Y-1594000D01*
X1949330Y-1606000D01*
X1953330Y-1614000D01*
X1961330Y-1622000D01*
X1970670Y-1627330D01*
X1980000Y-1630000D01*
X1989330D01*
X1998670Y-1627330D01*
X2006670Y-1623330D01*
X2013330Y-1618000D01*
G01X2040670Y-1614000D02*
X2048670Y-1623330D01*
X2059330Y-1628670D01*
X2071330Y-1630000D01*
X2082000Y-1628670D01*
X2092670Y-1622000D01*
X2099330Y-1614000D01*
X2100670Y-1606000D01*
X2098000Y-1596670D01*
X2088670Y-1590000D01*
X2079330Y-1587330D01*
X2067330D01*
G01X2079330D02*
X2087330Y-1583330D01*
X2094000Y-1576670D01*
X2096670Y-1568670D01*
X2094000Y-1560670D01*
X2087330Y-1554000D01*
X2075330Y-1550000D01*
X2063330Y-1551330D01*
X2051330Y-1556670D01*
G01X2160000Y-1550000D02*
X2149330Y-1552670D01*
X2141330Y-1559330D01*
X2136000Y-1567330D01*
X2132000Y-1578000D01*
X2130670Y-1590000D01*
X2132000Y-1602000D01*
X2136000Y-1612670D01*
X2141330Y-1620670D01*
X2149330Y-1627330D01*
X2160000Y-1630000D01*
X2170670Y-1627330D01*
X2178670Y-1620670D01*
X2184000Y-1612670D01*
X2188000Y-1602000D01*
X2189330Y-1590000D01*
X2188000Y-1578000D01*
X2184000Y-1567330D01*
X2178670Y-1559330D01*
X2170670Y-1552670D01*
X2160000Y-1550000D01*
G01X1860000Y-1670000D02*
X1920000D01*
Y-1530000D01*
X1860000D01*
G01X1700000Y-1670000D02*
X1640000D01*
Y-1530000D01*
X1700000D01*
G01X1802000Y-1726670D02*
X1796000Y-1722670D01*
X1789000Y-1720000D01*
X1781000D01*
X1772000Y-1724000D01*
X1765000Y-1730670D01*
X1760000Y-1738670D01*
X1756000Y-1752000D01*
X1755000Y-1764000D01*
X1757000Y-1776000D01*
X1760000Y-1784000D01*
X1766000Y-1792000D01*
X1773000Y-1797330D01*
X1780000Y-1800000D01*
X1787000D01*
X1794000Y-1797330D01*
X1800000Y-1793330D01*
X1805000Y-1788000D01*
G01X2009330Y-1666670D02*
X2001330Y-1662670D01*
X1992000Y-1660000D01*
X1981330D01*
X1969330Y-1664000D01*
X1960000Y-1670670D01*
X1953330Y-1678670D01*
X1948000Y-1692000D01*
X1946670Y-1704000D01*
X1949330Y-1716000D01*
X1953330Y-1724000D01*
X1961330Y-1732000D01*
X1970670Y-1737330D01*
X1980000Y-1740000D01*
X1989330D01*
X1998670Y-1737330D01*
X2006670Y-1733330D01*
X2013330Y-1728000D01*
G01X2040670Y-1724000D02*
X2048670Y-1733330D01*
X2059330Y-1738670D01*
X2071330Y-1740000D01*
X2082000Y-1738670D01*
X2092670Y-1732000D01*
X2099330Y-1724000D01*
X2100670Y-1716000D01*
X2098000Y-1706670D01*
X2088670Y-1700000D01*
X2079330Y-1697330D01*
X2067330D01*
G01X2079330D02*
X2087330Y-1693330D01*
X2094000Y-1686670D01*
X2096670Y-1678670D01*
X2094000Y-1670670D01*
X2087330Y-1664000D01*
X2075330Y-1660000D01*
X2063330Y-1661330D01*
X2051330Y-1666670D01*
G01X2160000Y-1740000D02*
Y-1660000D01*
X2144000Y-1676000D01*
G01Y-1740000D02*
X2176000D01*
G01X1860000Y-1830000D02*
X1920000D01*
Y-1690000D01*
X1860000D01*
G01X1700000Y-1830000D02*
X1640000D01*
Y-1690000D01*
X1700000D01*
G01X1988070Y-584960D02*
X1863070D01*
G01X2413330Y-794330D02*
X2417330Y-786330D01*
X2420000Y-777000D01*
Y-766330D01*
X2416000Y-754330D01*
X2409330Y-745000D01*
X2401330Y-738330D01*
X2388000Y-733000D01*
X2376000Y-731670D01*
X2364000Y-734330D01*
X2356000Y-738330D01*
X2348000Y-746330D01*
X2342670Y-755670D01*
X2340000Y-765000D01*
Y-774330D01*
X2342670Y-783670D01*
X2346670Y-791670D01*
X2352000Y-798330D01*
G01X2340000Y-871000D02*
X2420000D01*
X2362670Y-821670D01*
Y-888330D01*
G01X1955000Y-948330D02*
X2035000D01*
Y-981670D01*
X2031000Y-992330D01*
X2025670Y-999000D01*
X2015000Y-1001670D01*
X2004330Y-999000D01*
X1997670Y-991000D01*
X1993670Y-981670D01*
Y-948330D01*
G01Y-981670D02*
X1955000Y-1001670D01*
G01Y-1065000D02*
X2035000D01*
X2019000Y-1049000D01*
G01X1955000D02*
Y-1081000D01*
G01Y-1155000D02*
X2035000D01*
X2019000Y-1139000D01*
G01X1955000D02*
Y-1171000D01*
G01X1620000Y-1000000D02*
Y-960000D01*
X1700000D01*
Y-1000000D01*
G01X1620000Y-1100000D02*
Y-1140000D01*
X1700000D01*
Y-1100000D01*
G01X1845000Y-948330D02*
X1925000D01*
Y-981670D01*
X1921000Y-992330D01*
X1915670Y-999000D01*
X1905000Y-1001670D01*
X1894330Y-999000D01*
X1887670Y-991000D01*
X1883670Y-981670D01*
Y-948330D01*
G01Y-981670D02*
X1845000Y-1001670D01*
G01Y-1065000D02*
X1925000D01*
X1909000Y-1049000D01*
G01X1845000D02*
Y-1081000D01*
G01X1911670Y-1129670D02*
X1919670Y-1137670D01*
X1923670Y-1147000D01*
X1925000Y-1157670D01*
X1922330Y-1171000D01*
X1915670Y-1180330D01*
X1907670Y-1183000D01*
X1899660Y-1181670D01*
X1893000Y-1176330D01*
X1879670Y-1149670D01*
X1870330Y-1137670D01*
X1857000Y-1129670D01*
X1845000Y-1127000D01*
Y-1183000D01*
G01X1520000Y-1000000D02*
Y-960000D01*
X1600000D01*
Y-1000000D01*
G01X1520000Y-1100000D02*
Y-1140000D01*
X1600000D01*
Y-1100000D01*
G01X2060000Y-948330D02*
X2140000D01*
Y-981670D01*
X2136000Y-992330D01*
X2130670Y-999000D01*
X2120000Y-1001670D01*
X2109330Y-999000D01*
X2102670Y-991000D01*
X2098670Y-981670D01*
Y-948330D01*
G01Y-981670D02*
X2060000Y-1001670D01*
G01Y-1065000D02*
X2140000D01*
X2124000Y-1049000D01*
G01X2060000D02*
Y-1081000D01*
G01X2140000Y-1155000D02*
X2137330Y-1144330D01*
X2130670Y-1136330D01*
X2122670Y-1131000D01*
X2112000Y-1127000D01*
X2100000Y-1125670D01*
X2088000Y-1127000D01*
X2077330Y-1131000D01*
X2069330Y-1136330D01*
X2062670Y-1144330D01*
X2060000Y-1155000D01*
X2062670Y-1165670D01*
X2069330Y-1173670D01*
X2077330Y-1179000D01*
X2088000Y-1183000D01*
X2100000Y-1184330D01*
X2112000Y-1183000D01*
X2122670Y-1179000D01*
X2130670Y-1173670D01*
X2137330Y-1165670D01*
X2140000Y-1155000D01*
G01X1720000Y-1000000D02*
Y-960000D01*
X1800000D01*
Y-1000000D01*
G01X1720000Y-1100000D02*
Y-1140000D01*
X1800000D01*
Y-1100000D01*
G01X2203330Y-124000D02*
X2210000Y-132000D01*
X2218000Y-137330D01*
X2227330Y-140000D01*
X2238000Y-137330D01*
X2246000Y-132000D01*
X2254000Y-124000D01*
X2256670Y-113330D01*
Y-60000D01*
G01X2294670Y-73330D02*
X2302670Y-65330D01*
X2312000Y-61330D01*
X2322670Y-60000D01*
X2336000Y-62670D01*
X2345330Y-69330D01*
X2348000Y-77330D01*
X2346670Y-85340D01*
X2341330Y-92000D01*
X2314670Y-105330D01*
X2302670Y-114670D01*
X2294670Y-128000D01*
X2292000Y-140000D01*
X2348000D01*
G01X2384670Y-106670D02*
X2394000Y-97330D01*
X2402000Y-92000D01*
X2412670Y-89330D01*
X2422000Y-92000D01*
X2428670Y-97330D01*
X2434000Y-105330D01*
X2435330Y-114670D01*
X2434000Y-122670D01*
X2428670Y-130670D01*
X2420670Y-137330D01*
X2411330Y-140000D01*
X2400670Y-137330D01*
X2391330Y-129340D01*
X2386000Y-117330D01*
X2384670Y-104000D01*
X2387330Y-86670D01*
X2391330Y-77330D01*
X2398000Y-68000D01*
X2407330Y-61330D01*
X2416670Y-60000D01*
X2426000Y-62670D01*
X2432670Y-69330D01*
G01X2476670Y-6795000D02*
X2510000Y-6715000D01*
X2543330Y-6795000D01*
G01X2531330Y-6767000D02*
X2488670D01*
G01X2577330Y-6741670D02*
Y-6779000D01*
X2582670Y-6788330D01*
X2590670Y-6793670D01*
X2600000Y-6795000D01*
X2609330Y-6793670D01*
X2617330Y-6788330D01*
X2622670Y-6779000D01*
G01Y-6795000D02*
Y-6741670D01*
G01X2714000Y-6715000D02*
Y-6795000D01*
G01Y-6783000D02*
X2708670Y-6789670D01*
X2700670Y-6793670D01*
X2691330Y-6795000D01*
X2680670Y-6792330D01*
X2672670Y-6785670D01*
X2667330Y-6777670D01*
X2666000Y-6768330D01*
X2667330Y-6759000D01*
X2672670Y-6751000D01*
X2680670Y-6744330D01*
X2691330Y-6741670D01*
X2700670Y-6743000D01*
X2707330Y-6745670D01*
X2714000Y-6751000D01*
G01X2780000Y-6741670D02*
Y-6795000D01*
G01Y-6720330D02*
X2777330Y-6719000D01*
Y-6716330D01*
X2780000Y-6715000D01*
X2782670Y-6716330D01*
Y-6719000D01*
X2780000Y-6720330D01*
G01X2870000Y-6795000D02*
X2862000Y-6793670D01*
X2854000Y-6788330D01*
X2848670Y-6779000D01*
X2846000Y-6768330D01*
X2848670Y-6757670D01*
X2854000Y-6748330D01*
X2862000Y-6743000D01*
X2870000Y-6741670D01*
X2878000Y-6743000D01*
X2886000Y-6748330D01*
X2891330Y-6757670D01*
X2892670Y-6768330D01*
X2891330Y-6779000D01*
X2886000Y-6788330D01*
X2878000Y-6793670D01*
X2870000Y-6795000D01*
G01X2960000D02*
X2949330Y-6793670D01*
X2940000Y-6788330D01*
X2932000Y-6780330D01*
X2926670Y-6771000D01*
X2924000Y-6760330D01*
Y-6749670D01*
X2926670Y-6739000D01*
X2932000Y-6729670D01*
X2940000Y-6721670D01*
X2949330Y-6716330D01*
X2960000Y-6715000D01*
X2970670Y-6716330D01*
X2980000Y-6721670D01*
X2988000Y-6729670D01*
X2993330Y-6739000D01*
X2996000Y-6749670D01*
Y-6760330D01*
X2993330Y-6771000D01*
X2988000Y-6780330D01*
X2980000Y-6788330D01*
X2970670Y-6793670D01*
X2960000Y-6795000D01*
G01X3027330Y-6741670D02*
Y-6779000D01*
X3032670Y-6788330D01*
X3040670Y-6793670D01*
X3050000Y-6795000D01*
X3059330Y-6793670D01*
X3067330Y-6788330D01*
X3072670Y-6779000D01*
G01Y-6795000D02*
Y-6741670D01*
G01X3140000Y-6715000D02*
Y-6795000D01*
G01X3121330Y-6741670D02*
X3158670D01*
G01X3029330Y-6606670D02*
X3021330Y-6602670D01*
X3012000Y-6600000D01*
X3001330D01*
X2989330Y-6604000D01*
X2980000Y-6610670D01*
X2973330Y-6618670D01*
X2968000Y-6632000D01*
X2966670Y-6644000D01*
X2969330Y-6656000D01*
X2973330Y-6664000D01*
X2981330Y-6672000D01*
X2990670Y-6677330D01*
X3000000Y-6680000D01*
X3009330D01*
X3018670Y-6677330D01*
X3026670Y-6673330D01*
X3033330Y-6668000D01*
G01X3064670Y-6613330D02*
X3072670Y-6605330D01*
X3082000Y-6601330D01*
X3092670Y-6600000D01*
X3106000Y-6602670D01*
X3115330Y-6609330D01*
X3118000Y-6617330D01*
X3116670Y-6625340D01*
X3111330Y-6632000D01*
X3084670Y-6645330D01*
X3072670Y-6654670D01*
X3064670Y-6668000D01*
X3062000Y-6680000D01*
X3118000D01*
G01X3180000Y-6600000D02*
X3169330Y-6602670D01*
X3161330Y-6609330D01*
X3156000Y-6617330D01*
X3152000Y-6628000D01*
X3150670Y-6640000D01*
X3152000Y-6652000D01*
X3156000Y-6662670D01*
X3161330Y-6670670D01*
X3169330Y-6677330D01*
X3180000Y-6680000D01*
X3190670Y-6677330D01*
X3198670Y-6670670D01*
X3204000Y-6662670D01*
X3208000Y-6652000D01*
X3209330Y-6640000D01*
X3208000Y-6628000D01*
X3204000Y-6617330D01*
X3198670Y-6609330D01*
X3190670Y-6602670D01*
X3180000Y-6600000D01*
G01X3299330Y-6606670D02*
X3291330Y-6602670D01*
X3282000Y-6600000D01*
X3271330D01*
X3259330Y-6604000D01*
X3250000Y-6610670D01*
X3243330Y-6618670D01*
X3238000Y-6632000D01*
X3236670Y-6644000D01*
X3239330Y-6656000D01*
X3243330Y-6664000D01*
X3251330Y-6672000D01*
X3260670Y-6677330D01*
X3270000Y-6680000D01*
X3279330D01*
X3288670Y-6677330D01*
X3296670Y-6673330D01*
X3303330Y-6668000D01*
G01X3334670Y-6613330D02*
X3342670Y-6605330D01*
X3352000Y-6601330D01*
X3362670Y-6600000D01*
X3376000Y-6602670D01*
X3385330Y-6609330D01*
X3388000Y-6617330D01*
X3386670Y-6625340D01*
X3381330Y-6632000D01*
X3354670Y-6645330D01*
X3342670Y-6654670D01*
X3334670Y-6668000D01*
X3332000Y-6680000D01*
X3388000D01*
G01X3450000D02*
Y-6600000D01*
X3434000Y-6616000D01*
G01Y-6680000D02*
X3466000D01*
G01X2450000Y-5723330D02*
X2530000D01*
Y-5755330D01*
X2526000Y-5766000D01*
X2516670Y-5774000D01*
X2506000Y-5776670D01*
X2495330Y-5774000D01*
X2487330Y-5767330D01*
X2483330Y-5755330D01*
Y-5723330D01*
G01X2492670Y-5850670D02*
X2496670Y-5856000D01*
X2503330Y-5860000D01*
X2512670Y-5862670D01*
X2520670Y-5860000D01*
X2526000Y-5854670D01*
X2530000Y-5845330D01*
Y-5809330D01*
X2450000D01*
Y-5853330D01*
X2455330Y-5862670D01*
X2463330Y-5868000D01*
X2472670Y-5870670D01*
X2482000Y-5868000D01*
X2490000Y-5860000D01*
X2492670Y-5850670D01*
Y-5809330D01*
G01X2483330Y-5904670D02*
X2492670Y-5914000D01*
X2498000Y-5922000D01*
X2500670Y-5932670D01*
X2498000Y-5942000D01*
X2492670Y-5948670D01*
X2484670Y-5954000D01*
X2475330Y-5955330D01*
X2467330Y-5954000D01*
X2459330Y-5948670D01*
X2452670Y-5940670D01*
X2450000Y-5931330D01*
X2452670Y-5920670D01*
X2460660Y-5911330D01*
X2472670Y-5906000D01*
X2486000Y-5904670D01*
X2503330Y-5907330D01*
X2512670Y-5911330D01*
X2522000Y-5918000D01*
X2528670Y-5927330D01*
X2530000Y-5936670D01*
X2527330Y-5946000D01*
X2520670Y-5952670D01*
G01X2447330Y-5996000D02*
X2530000Y-6044000D01*
G01X2460660Y-6082000D02*
X2454000Y-6092670D01*
X2450000Y-6104670D01*
Y-6115330D01*
X2454000Y-6126000D01*
X2460660Y-6134000D01*
X2470000Y-6138000D01*
X2479330Y-6135330D01*
X2487330Y-6128670D01*
X2492670Y-6116670D01*
X2495330Y-6100670D01*
X2500670Y-6091330D01*
X2510000Y-6087330D01*
X2519330Y-6090000D01*
X2526000Y-6096670D01*
X2530000Y-6106000D01*
Y-6115330D01*
X2527330Y-6124670D01*
X2520670Y-6132670D01*
G01X2450000Y-6173330D02*
X2530000D01*
Y-6205330D01*
X2526000Y-6216000D01*
X2516670Y-6224000D01*
X2506000Y-6226670D01*
X2495330Y-6224000D01*
X2487330Y-6217330D01*
X2483330Y-6205330D01*
Y-6173330D01*
G01X2450000Y-6290000D02*
X2530000D01*
X2514000Y-6274000D01*
G01X2450000D02*
Y-6306000D01*
G01X2860000Y-5723330D02*
X2940000D01*
Y-5755330D01*
X2936000Y-5766000D01*
X2926670Y-5774000D01*
X2916000Y-5776670D01*
X2905330Y-5774000D01*
X2897330Y-5767330D01*
X2893330Y-5755330D01*
Y-5723330D01*
G01X2902670Y-5850670D02*
X2906670Y-5856000D01*
X2913330Y-5860000D01*
X2922670Y-5862670D01*
X2930670Y-5860000D01*
X2936000Y-5854670D01*
X2940000Y-5845330D01*
Y-5809330D01*
X2860000D01*
Y-5853330D01*
X2865330Y-5862670D01*
X2873330Y-5868000D01*
X2882670Y-5870670D01*
X2892000Y-5868000D01*
X2900000Y-5860000D01*
X2902670Y-5850670D01*
Y-5809330D01*
G01X2860000Y-5927330D02*
X2877330Y-5930000D01*
X2892000Y-5934000D01*
X2905330Y-5939330D01*
X2920000Y-5946000D01*
X2940000Y-5956670D01*
Y-5903330D01*
G01X2857330Y-5996000D02*
X2940000Y-6044000D01*
G01X2870660Y-6082000D02*
X2864000Y-6092670D01*
X2860000Y-6104670D01*
Y-6115330D01*
X2864000Y-6126000D01*
X2870660Y-6134000D01*
X2880000Y-6138000D01*
X2889330Y-6135330D01*
X2897330Y-6128670D01*
X2902670Y-6116670D01*
X2905330Y-6100670D01*
X2910670Y-6091330D01*
X2920000Y-6087330D01*
X2929330Y-6090000D01*
X2936000Y-6096670D01*
X2940000Y-6106000D01*
Y-6115330D01*
X2937330Y-6124670D01*
X2930670Y-6132670D01*
G01X2860000Y-6169330D02*
X2940000D01*
X2860000Y-6230670D01*
X2940000D01*
G01X2860000Y-6290000D02*
X2940000D01*
X2924000Y-6274000D01*
G01X2860000D02*
Y-6306000D01*
G01X2497000Y-6643000D02*
Y-6397000D01*
G01X2746000Y-5503330D02*
X2738000Y-5510000D01*
X2732670Y-5518000D01*
X2730000Y-5527330D01*
X2732670Y-5538000D01*
X2738000Y-5546000D01*
X2746000Y-5554000D01*
X2756670Y-5556670D01*
X2810000D01*
G01X2730000Y-5620000D02*
X2810000D01*
X2794000Y-5604000D01*
G01X2730000D02*
Y-5636000D01*
G01Y-5707330D02*
X2747330Y-5710000D01*
X2762000Y-5714000D01*
X2775330Y-5719330D01*
X2790000Y-5726000D01*
X2810000Y-5736670D01*
Y-5683330D01*
G01X2823000Y-6050000D02*
X2577000D01*
G01X2823000Y-6329000D02*
Y-5771000D01*
X2577000D01*
Y-6329000D01*
X2823000D01*
G01X3420000Y-6580000D02*
X3380000D01*
Y-6500000D01*
X3420000D01*
G01X3120000Y-6580000D02*
X3160000D01*
Y-6500000D01*
X3120000D01*
G01X3020000Y-6580000D02*
X2980000D01*
Y-6500000D01*
X3020000D01*
G01X3320000Y-6580000D02*
X3360000D01*
Y-6500000D01*
X3320000D01*
G01X3220000Y-6580000D02*
X3180000D01*
Y-6500000D01*
X3220000D01*
G01X3240000Y-5638330D02*
X3160000D01*
Y-5691670D01*
G01Y-5771000D02*
X3240000D01*
X3182670Y-5721670D01*
Y-5788330D01*
G01X3130000Y-6110000D02*
G03X3190000I30000J0D01*
G01Y-6070000D01*
G03X3130000I-30000J0D01*
G01Y-6110000D01*
G01X3335000Y-5855000D02*
Y-6325000D01*
X2985000D01*
Y-5855000D01*
X3335000D01*
G01X3160000Y-6170000D02*
Y-6140000D01*
G01Y-6040000D02*
Y-6010000D01*
G01X2750000Y-4755000D02*
Y-4855000D01*
G01X3250000Y-4755000D02*
Y-4855000D01*
G01X2850000Y-4655000D02*
X3150000D01*
G01X2850000Y-4955000D02*
X3150000D01*
G01X3100000Y-4805000D02*
G03I-100000J0D01*
G01X2750000D02*
X2950000D01*
X3015000Y-4740000D01*
G01X3050000Y-4805000D02*
X3250000D01*
G01X2692000Y-3549340D02*
X2702670Y-3556000D01*
X2714670Y-3560000D01*
X2725330D01*
X2736000Y-3556000D01*
X2744000Y-3549340D01*
X2748000Y-3540000D01*
X2745330Y-3530670D01*
X2738670Y-3522670D01*
X2726670Y-3517330D01*
X2710670Y-3514670D01*
X2701330Y-3509330D01*
X2697330Y-3500000D01*
X2700000Y-3490670D01*
X2706670Y-3484000D01*
X2716000Y-3480000D01*
X2725330D01*
X2734670Y-3482670D01*
X2742670Y-3489330D01*
G01X2770000Y-3480000D02*
X2788670Y-3560000D01*
X2810000Y-3480000D01*
X2831330Y-3560000D01*
X2850000Y-3480000D01*
G01X2870670Y-3544000D02*
X2878670Y-3553330D01*
X2889330Y-3558670D01*
X2901330Y-3560000D01*
X2912000Y-3558670D01*
X2922670Y-3552000D01*
X2929330Y-3544000D01*
X2930670Y-3536000D01*
X2928000Y-3526670D01*
X2918670Y-3520000D01*
X2909330Y-3517330D01*
X2897330D01*
G01X2909330D02*
X2917330Y-3513330D01*
X2924000Y-3506670D01*
X2926670Y-3498670D01*
X2924000Y-3490670D01*
X2917330Y-3484000D01*
X2905330Y-3480000D01*
X2893330Y-3481330D01*
X2881330Y-3486670D01*
G01X2740000Y-3875000D02*
Y-3975000D01*
G01X3240000Y-3875000D02*
Y-3975000D01*
G01X2840000Y-3775000D02*
X3140000D01*
G01X2840000Y-4075000D02*
X3140000D01*
G01X3090000Y-3925000D02*
G03I-100000J0D01*
G01X2740000D02*
X2940000D01*
X3005000Y-3860000D01*
G01X3040000Y-3925000D02*
X3240000D01*
G01X2702000Y-4409340D02*
X2712670Y-4416000D01*
X2724670Y-4420000D01*
X2735330D01*
X2746000Y-4416000D01*
X2754000Y-4409340D01*
X2758000Y-4400000D01*
X2755330Y-4390670D01*
X2748670Y-4382670D01*
X2736670Y-4377330D01*
X2720670Y-4374670D01*
X2711330Y-4369330D01*
X2707330Y-4360000D01*
X2710000Y-4350670D01*
X2716670Y-4344000D01*
X2726000Y-4340000D01*
X2735330D01*
X2744670Y-4342670D01*
X2752670Y-4349330D01*
G01X2780000Y-4340000D02*
X2798670Y-4420000D01*
X2820000Y-4340000D01*
X2841330Y-4420000D01*
X2860000Y-4340000D01*
G01X2880670Y-4408000D02*
X2888670Y-4414670D01*
X2898000Y-4418670D01*
X2910000Y-4420000D01*
X2922000Y-4417330D01*
X2931330Y-4412000D01*
X2938000Y-4402670D01*
X2939330Y-4392000D01*
X2936670Y-4381330D01*
X2930000Y-4374670D01*
X2920670Y-4369330D01*
X2911330Y-4368000D01*
X2902000Y-4369330D01*
X2890000Y-4374670D01*
X2894000Y-4340000D01*
X2930000D01*
G01X2648000Y-3270000D02*
X2674670D01*
Y-3294000D01*
X2666670Y-3302000D01*
X2657330Y-3307330D01*
X2644000Y-3310000D01*
X2630670Y-3307330D01*
X2621330Y-3302000D01*
X2613330Y-3294000D01*
X2608000Y-3284670D01*
X2605330Y-3274000D01*
Y-3264670D01*
X2608000Y-3256670D01*
X2613330Y-3247330D01*
X2621330Y-3239330D01*
X2629330Y-3234000D01*
X2640000Y-3230000D01*
X2649330D01*
X2660000Y-3232670D01*
X2668000Y-3238000D01*
G01X2699330Y-3310000D02*
Y-3230000D01*
X2760670Y-3310000D01*
Y-3230000D01*
G01X2790670Y-3310000D02*
Y-3230000D01*
X2817330D01*
X2828000Y-3234000D01*
X2836000Y-3239330D01*
X2842670Y-3247330D01*
X2848000Y-3256670D01*
X2849330Y-3270000D01*
X2848000Y-3283330D01*
X2842670Y-3292670D01*
X2836000Y-3300670D01*
X2828000Y-3306000D01*
X2817330Y-3310000D01*
X2790670D01*
G01X2950000Y-2658330D02*
X2870000D01*
Y-2711670D01*
G01X2886000Y-2745670D02*
X2876670Y-2753670D01*
X2871330Y-2764330D01*
X2870000Y-2776330D01*
X2871330Y-2787000D01*
X2878000Y-2797670D01*
X2886000Y-2804330D01*
X2894000Y-2805670D01*
X2903330Y-2803000D01*
X2910000Y-2793670D01*
X2912670Y-2784330D01*
Y-2772330D01*
G01Y-2784330D02*
X2916670Y-2792330D01*
X2923330Y-2799000D01*
X2931330Y-2801670D01*
X2939330Y-2799000D01*
X2946000Y-2792330D01*
X2950000Y-2780330D01*
X2948670Y-2768330D01*
X2943330Y-2756330D01*
G01X3020000Y-2500000D02*
Y-2580000D01*
X2840000D01*
Y-2500000D01*
G01X2683330Y-2439330D02*
X2687330Y-2431330D01*
X2690000Y-2422000D01*
Y-2411330D01*
X2686000Y-2399330D01*
X2679330Y-2390000D01*
X2671330Y-2383330D01*
X2658000Y-2378000D01*
X2646000Y-2376670D01*
X2634000Y-2379330D01*
X2626000Y-2383330D01*
X2618000Y-2391330D01*
X2612670Y-2400670D01*
X2610000Y-2410000D01*
Y-2419330D01*
X2612670Y-2428670D01*
X2616670Y-2436670D01*
X2622000Y-2443330D01*
G01X2610000Y-2500000D02*
X2690000D01*
X2674000Y-2484000D01*
G01X2610000D02*
Y-2516000D01*
G01X2643330Y-2564670D02*
X2652670Y-2574000D01*
X2658000Y-2582000D01*
X2660670Y-2592670D01*
X2658000Y-2602000D01*
X2652670Y-2608670D01*
X2644670Y-2614000D01*
X2635330Y-2615330D01*
X2627330Y-2614000D01*
X2619330Y-2608670D01*
X2612670Y-2600670D01*
X2610000Y-2591330D01*
X2612670Y-2580670D01*
X2620660Y-2571330D01*
X2632670Y-2566000D01*
X2646000Y-2564670D01*
X2663330Y-2567330D01*
X2672670Y-2571330D01*
X2682000Y-2578000D01*
X2688670Y-2587330D01*
X2690000Y-2596670D01*
X2687330Y-2606000D01*
X2680670Y-2612670D01*
G01X3119330Y-2686670D02*
X3111330Y-2682670D01*
X3102000Y-2680000D01*
X3091330D01*
X3079330Y-2684000D01*
X3070000Y-2690670D01*
X3063330Y-2698670D01*
X3058000Y-2712000D01*
X3056670Y-2724000D01*
X3059330Y-2736000D01*
X3063330Y-2744000D01*
X3071330Y-2752000D01*
X3080670Y-2757330D01*
X3090000Y-2760000D01*
X3099330D01*
X3108670Y-2757330D01*
X3116670Y-2753330D01*
X3123330Y-2748000D01*
G01X3180000Y-2760000D02*
Y-2680000D01*
X3164000Y-2696000D01*
G01Y-2760000D02*
X3196000D01*
G01X3267330D02*
X3270000Y-2742670D01*
X3274000Y-2728000D01*
X3279330Y-2714670D01*
X3286000Y-2700000D01*
X3296670Y-2680000D01*
X3243330D01*
G01X3403330Y-2779330D02*
X3407330Y-2771330D01*
X3410000Y-2762000D01*
Y-2751330D01*
X3406000Y-2739330D01*
X3399330Y-2730000D01*
X3391330Y-2723330D01*
X3378000Y-2718000D01*
X3366000Y-2716670D01*
X3354000Y-2719330D01*
X3346000Y-2723330D01*
X3338000Y-2731330D01*
X3332670Y-2740670D01*
X3330000Y-2750000D01*
Y-2759330D01*
X3332670Y-2768670D01*
X3336670Y-2776670D01*
X3342000Y-2783330D01*
G01X3330000Y-2840000D02*
X3410000D01*
X3394000Y-2824000D01*
G01X3330000D02*
Y-2856000D01*
G01X3339330Y-2907330D02*
X3332670Y-2916670D01*
X3330000Y-2927330D01*
X3332670Y-2938000D01*
X3340660Y-2947330D01*
X3352670Y-2954000D01*
X3364670Y-2956670D01*
X3379330D01*
X3391330Y-2954000D01*
X3402000Y-2947330D01*
X3407330Y-2939330D01*
X3410000Y-2930000D01*
X3407330Y-2919330D01*
X3402000Y-2911330D01*
X3394000Y-2906000D01*
X3383330Y-2903330D01*
X3374000Y-2906000D01*
X3364670Y-2912670D01*
X3359330Y-2920670D01*
X3358000Y-2930000D01*
X3360660Y-2940670D01*
X3367330Y-2948670D01*
X3379330Y-2956670D01*
G01X3119330Y-2796670D02*
X3111330Y-2792670D01*
X3102000Y-2790000D01*
X3091330D01*
X3079330Y-2794000D01*
X3070000Y-2800670D01*
X3063330Y-2808670D01*
X3058000Y-2822000D01*
X3056670Y-2834000D01*
X3059330Y-2846000D01*
X3063330Y-2854000D01*
X3071330Y-2862000D01*
X3080670Y-2867330D01*
X3090000Y-2870000D01*
X3099330D01*
X3108670Y-2867330D01*
X3116670Y-2863330D01*
X3123330Y-2858000D01*
G01X3180000Y-2870000D02*
Y-2790000D01*
X3164000Y-2806000D01*
G01Y-2870000D02*
X3196000D01*
G01X3270000D02*
X3279330Y-2868670D01*
X3290000Y-2864670D01*
X3296670Y-2858000D01*
X3299330Y-2848670D01*
X3296670Y-2839340D01*
X3288670Y-2831330D01*
X3276670Y-2827330D01*
X3263330D01*
X3255330Y-2824670D01*
X3248670Y-2818000D01*
X3246000Y-2808670D01*
X3250000Y-2799330D01*
X3259330Y-2792670D01*
X3270000Y-2790000D01*
X3280670Y-2792670D01*
X3290000Y-2799330D01*
X3294000Y-2808670D01*
X3291330Y-2818000D01*
X3284670Y-2824670D01*
X3276670Y-2827330D01*
X3263330D01*
X3251330Y-2831330D01*
X3243330Y-2839340D01*
X3240670Y-2848670D01*
X3243330Y-2858000D01*
X3250000Y-2864670D01*
X3260670Y-2868670D01*
X3270000Y-2870000D01*
G01X2970000Y-2370000D02*
X2890000D01*
Y-2410000D01*
G01X3020000Y-2300000D02*
Y-2220000D01*
X2840000D01*
Y-2300000D01*
G01X2702910Y-1291070D02*
X3542910D01*
Y-2131070D01*
X2702910D01*
Y-1291070D01*
G01X2772110Y-1408170D02*
Y-1389570D01*
X2800510Y-1361170D01*
X2820610D01*
G01X2772710Y-2016870D02*
Y-2060370D01*
X2819610D01*
Y-2060270D01*
G01X2543330Y-2089330D02*
X2547330Y-2081330D01*
X2550000Y-2072000D01*
Y-2061330D01*
X2546000Y-2049330D01*
X2539330Y-2040000D01*
X2531330Y-2033330D01*
X2518000Y-2028000D01*
X2506000Y-2026670D01*
X2494000Y-2029330D01*
X2486000Y-2033330D01*
X2478000Y-2041330D01*
X2472670Y-2050670D01*
X2470000Y-2060000D01*
Y-2069330D01*
X2472670Y-2078670D01*
X2476670Y-2086670D01*
X2482000Y-2093330D01*
G01X2470000Y-2150000D02*
X2550000D01*
X2534000Y-2134000D01*
G01X2470000D02*
Y-2166000D01*
G01Y-2256000D02*
X2550000D01*
X2492670Y-2206670D01*
Y-2273330D01*
G01X2670000Y-2070000D02*
Y-2030000D01*
X2590000D01*
Y-2070000D01*
G01X2670000Y-2170000D02*
Y-2210000D01*
X2590000D01*
Y-2170000D01*
G01X2740000Y-2350000D02*
Y-2390000D01*
X2820000D01*
Y-2350000D01*
G01X2740000Y-2250000D02*
Y-2210000D01*
X2820000D01*
Y-2250000D01*
G01X3090000Y-2220000D02*
X3050000D01*
Y-2300000D01*
X3090000D01*
G01X3190000Y-2220000D02*
X3230000D01*
Y-2300000D01*
X3190000D01*
G01X3250000Y-2400000D02*
X3250010Y-2440000D01*
X3329990D01*
X3330000Y-2400000D01*
G01X3250000Y-2300000D02*
X3250010Y-2260000D01*
X3329990D01*
X3330000Y-2300000D01*
G01X3090000Y-2320000D02*
X3050000D01*
Y-2400000D01*
X3090000D01*
G01X3190000Y-2320000D02*
X3230000D01*
Y-2400000D01*
X3190000D01*
G01X2605000Y-600000D02*
Y-564000D01*
X2578330Y-520000D01*
G01X2631670D02*
X2605000Y-564000D01*
G01X2695000Y-600000D02*
Y-520000D01*
X2679000Y-536000D01*
G01Y-600000D02*
X2711000D01*
G01X2657700Y-835620D02*
Y-795620D01*
G01X2872700Y-680620D02*
X2782700D01*
G01X2997700Y-835620D02*
Y-795620D01*
G01X2782700Y-950620D02*
X2872700D01*
G01X2757700Y-815620D02*
X2727700D01*
Y-835620D01*
G01X2762700Y-840620D02*
Y-790620D01*
G01X2789400Y-800620D02*
X2864400D01*
Y-830620D01*
X2789400D01*
Y-800620D01*
G01X2892700Y-790620D02*
Y-840620D01*
G01X2897700Y-815620D02*
X2927700D01*
Y-795620D01*
G01X2597700Y-965620D02*
Y-625620D01*
X3057700D01*
Y-1005620D01*
X2597700D01*
Y-965620D01*
G01X2610670Y-1140000D02*
Y-1197330D01*
X2616000Y-1209340D01*
X2626670Y-1217330D01*
X2640000Y-1220000D01*
X2653330Y-1217330D01*
X2664000Y-1209340D01*
X2669330Y-1197330D01*
Y-1140000D01*
G01X2730000Y-1220000D02*
Y-1140000D01*
X2714000Y-1156000D01*
G01Y-1220000D02*
X2746000D01*
G01X2804330Y-356670D02*
X2796330Y-352670D01*
X2787000Y-350000D01*
X2776330D01*
X2764330Y-354000D01*
X2755000Y-360670D01*
X2748330Y-368670D01*
X2743000Y-382000D01*
X2741670Y-394000D01*
X2744330Y-406000D01*
X2748330Y-414000D01*
X2756330Y-422000D01*
X2765670Y-427330D01*
X2775000Y-430000D01*
X2784330D01*
X2793670Y-427330D01*
X2801670Y-423330D01*
X2808330Y-418000D01*
G01X2835670Y-414000D02*
X2843670Y-423330D01*
X2854330Y-428670D01*
X2866330Y-430000D01*
X2877000Y-428670D01*
X2887670Y-422000D01*
X2894330Y-414000D01*
X2895670Y-406000D01*
X2893000Y-396670D01*
X2883670Y-390000D01*
X2874330Y-387330D01*
X2862330D01*
G01X2874330D02*
X2882330Y-383330D01*
X2889000Y-376670D01*
X2891670Y-368670D01*
X2889000Y-360670D01*
X2882330Y-354000D01*
X2870330Y-350000D01*
X2858330Y-351330D01*
X2846330Y-356670D01*
G01X2950000Y-600000D02*
X2990000D01*
Y-520000D01*
X2950000D01*
G01X2850000Y-600000D02*
X2810000D01*
Y-520000D01*
X2850000D01*
G01X2490000Y-910000D02*
Y-950000D01*
X2570000D01*
Y-910000D01*
G01X2490000Y-810000D02*
Y-770000D01*
X2570000D01*
Y-810000D01*
G01X3043330Y-1134330D02*
X3047330Y-1126330D01*
X3050000Y-1117000D01*
Y-1106330D01*
X3046000Y-1094330D01*
X3039330Y-1085000D01*
X3031330Y-1078330D01*
X3018000Y-1073000D01*
X3006000Y-1071670D01*
X2994000Y-1074330D01*
X2986000Y-1078330D01*
X2978000Y-1086330D01*
X2972670Y-1095670D01*
X2970000Y-1105000D01*
Y-1114330D01*
X2972670Y-1123670D01*
X2976670Y-1131670D01*
X2982000Y-1138330D01*
G01X2970000Y-1195000D02*
X3050000D01*
X3034000Y-1179000D01*
G01X2970000D02*
Y-1211000D01*
G01X3180000Y-1160000D02*
Y-1200000D01*
X3260000D01*
Y-1160000D01*
G01X3180000Y-1060000D02*
Y-1020000D01*
X3260000D01*
Y-1060000D01*
G01X3387910Y-603580D02*
Y-563580D01*
X3307910D01*
Y-603580D01*
G01X3387910Y-703580D02*
Y-743580D01*
X3307910D01*
Y-703580D01*
G01X3347910Y-1143580D02*
X3307910D01*
Y-1223580D01*
X3347910D01*
G01X3387910Y-893580D02*
Y-853580D01*
X3307910D01*
Y-893580D01*
G01X3387910Y-993580D02*
Y-1033580D01*
X3307910D01*
Y-993580D01*
G01X3347910Y-468580D02*
X3307910D01*
Y-548580D01*
X3347910D01*
G01Y-758580D02*
X3307910D01*
Y-838580D01*
X3347910D01*
G01Y-1048580D02*
X3307910D01*
Y-1128580D01*
X3347910D01*
G01X2923330Y-1124330D02*
X2927330Y-1116330D01*
X2930000Y-1107000D01*
Y-1096330D01*
X2926000Y-1084330D01*
X2919330Y-1075000D01*
X2911330Y-1068330D01*
X2898000Y-1063000D01*
X2886000Y-1061670D01*
X2874000Y-1064330D01*
X2866000Y-1068330D01*
X2858000Y-1076330D01*
X2852670Y-1085670D01*
X2850000Y-1095000D01*
Y-1104330D01*
X2852670Y-1113670D01*
X2856670Y-1121670D01*
X2862000Y-1128330D01*
G01X2916670Y-1159670D02*
X2924670Y-1167670D01*
X2928670Y-1177000D01*
X2930000Y-1187670D01*
X2927330Y-1201000D01*
X2920670Y-1210330D01*
X2912670Y-1213000D01*
X2904660Y-1211670D01*
X2898000Y-1206330D01*
X2884670Y-1179670D01*
X2875330Y-1167670D01*
X2862000Y-1159670D01*
X2850000Y-1157000D01*
Y-1213000D01*
G01X3080000Y-1090000D02*
Y-1130000D01*
X3160000D01*
Y-1090000D01*
G01X3080000Y-990000D02*
Y-950000D01*
X3160000D01*
Y-990000D01*
G01X3347910Y-440000D02*
X3717910D01*
Y0D01*
X2977910D01*
Y-440000D01*
X3347910D01*
G01X3559330Y-6606670D02*
X3551330Y-6602670D01*
X3542000Y-6600000D01*
X3531330D01*
X3519330Y-6604000D01*
X3510000Y-6610670D01*
X3503330Y-6618670D01*
X3498000Y-6632000D01*
X3496670Y-6644000D01*
X3499330Y-6656000D01*
X3503330Y-6664000D01*
X3511330Y-6672000D01*
X3520670Y-6677330D01*
X3530000Y-6680000D01*
X3539330D01*
X3548670Y-6677330D01*
X3556670Y-6673330D01*
X3563330Y-6668000D01*
G01X3594670Y-6613330D02*
X3602670Y-6605330D01*
X3612000Y-6601330D01*
X3622670Y-6600000D01*
X3636000Y-6602670D01*
X3645330Y-6609330D01*
X3648000Y-6617330D01*
X3646670Y-6625340D01*
X3641330Y-6632000D01*
X3614670Y-6645330D01*
X3602670Y-6654670D01*
X3594670Y-6668000D01*
X3592000Y-6680000D01*
X3648000D01*
G01X3680670Y-6664000D02*
X3688670Y-6673330D01*
X3699330Y-6678670D01*
X3711330Y-6680000D01*
X3722000Y-6678670D01*
X3732670Y-6672000D01*
X3739330Y-6664000D01*
X3740670Y-6656000D01*
X3738000Y-6646670D01*
X3728670Y-6640000D01*
X3719330Y-6637330D01*
X3707330D01*
G01X3719330D02*
X3727330Y-6633330D01*
X3734000Y-6626670D01*
X3736670Y-6618670D01*
X3734000Y-6610670D01*
X3727330Y-6604000D01*
X3715330Y-6600000D01*
X3703330Y-6601330D01*
X3691330Y-6606670D01*
G01X4016000Y-5403330D02*
X4008000Y-5410000D01*
X4002670Y-5418000D01*
X4000000Y-5427330D01*
X4002670Y-5438000D01*
X4008000Y-5446000D01*
X4016000Y-5454000D01*
X4026670Y-5456670D01*
X4080000D01*
G01X4066670Y-5494670D02*
X4074670Y-5502670D01*
X4078670Y-5512000D01*
X4080000Y-5522670D01*
X4077330Y-5536000D01*
X4070670Y-5545330D01*
X4062670Y-5548000D01*
X4054660Y-5546670D01*
X4048000Y-5541330D01*
X4034670Y-5514670D01*
X4025330Y-5502670D01*
X4012000Y-5494670D01*
X4000000Y-5492000D01*
Y-5548000D01*
G01X4016000Y-5580670D02*
X4006670Y-5588670D01*
X4001330Y-5599330D01*
X4000000Y-5611330D01*
X4001330Y-5622000D01*
X4008000Y-5632670D01*
X4016000Y-5639330D01*
X4024000Y-5640670D01*
X4033330Y-5638000D01*
X4040000Y-5628670D01*
X4042670Y-5619330D01*
Y-5607330D01*
G01Y-5619330D02*
X4046670Y-5627330D01*
X4053330Y-5634000D01*
X4061330Y-5636670D01*
X4069330Y-5634000D01*
X4076000Y-5627330D01*
X4080000Y-5615330D01*
X4078670Y-5603330D01*
X4073330Y-5591330D01*
G01X3520000Y-6580000D02*
X3560000D01*
Y-6500000D01*
X3520000D01*
G01X3670000Y-5638330D02*
X3590000D01*
Y-5691670D01*
G01X3602000Y-5725670D02*
X3595330Y-5733670D01*
X3591330Y-5743000D01*
X3590000Y-5755000D01*
X3592670Y-5767000D01*
X3598000Y-5776330D01*
X3607330Y-5783000D01*
X3618000Y-5784330D01*
X3628670Y-5781670D01*
X3635330Y-5775000D01*
X3640670Y-5765670D01*
X3642000Y-5756330D01*
X3640670Y-5747000D01*
X3635330Y-5735000D01*
X3670000Y-5739000D01*
Y-5775000D01*
G01X3560000Y-6110000D02*
G03X3620000I30000J0D01*
G01Y-6070000D01*
G03X3560000I-30000J0D01*
G01Y-6110000D01*
G01X3765000Y-5855000D02*
Y-6325000D01*
X3415000D01*
Y-5855000D01*
X3765000D01*
G01X3590000Y-6170000D02*
Y-6140000D01*
G01Y-6040000D02*
Y-6010000D01*
G01X3825670Y-5020000D02*
Y-5077330D01*
X3831000Y-5089340D01*
X3841670Y-5097330D01*
X3855000Y-5100000D01*
X3868330Y-5097330D01*
X3879000Y-5089340D01*
X3884330Y-5077330D01*
Y-5020000D01*
G01X3915670Y-5084000D02*
X3923670Y-5093330D01*
X3934330Y-5098670D01*
X3946330Y-5100000D01*
X3957000Y-5098670D01*
X3967670Y-5092000D01*
X3974330Y-5084000D01*
X3975670Y-5076000D01*
X3973000Y-5066670D01*
X3963670Y-5060000D01*
X3954330Y-5057330D01*
X3942330D01*
G01X3954330D02*
X3962330Y-5053330D01*
X3969000Y-5046670D01*
X3971670Y-5038670D01*
X3969000Y-5030670D01*
X3962330Y-5024000D01*
X3950330Y-5020000D01*
X3938330Y-5021330D01*
X3926330Y-5026670D01*
G01X4522500Y-5215000D02*
Y-4839000D01*
X4227500D01*
Y-5215000D01*
X4522500D01*
G01X4400000Y-5097000D02*
G03I-25000J0D01*
G01X3939330Y-4606670D02*
X3931330Y-4602670D01*
X3922000Y-4600000D01*
X3911330D01*
X3899330Y-4604000D01*
X3890000Y-4610670D01*
X3883330Y-4618670D01*
X3878000Y-4632000D01*
X3876670Y-4644000D01*
X3879330Y-4656000D01*
X3883330Y-4664000D01*
X3891330Y-4672000D01*
X3900670Y-4677330D01*
X3910000Y-4680000D01*
X3919330D01*
X3928670Y-4677330D01*
X3936670Y-4673330D01*
X3943330Y-4668000D01*
G01X3974670Y-4613330D02*
X3982670Y-4605330D01*
X3992000Y-4601330D01*
X4002670Y-4600000D01*
X4016000Y-4602670D01*
X4025330Y-4609330D01*
X4028000Y-4617330D01*
X4026670Y-4625340D01*
X4021330Y-4632000D01*
X3994670Y-4645330D01*
X3982670Y-4654670D01*
X3974670Y-4668000D01*
X3972000Y-4680000D01*
X4028000D01*
G01X4087330D02*
X4090000Y-4662670D01*
X4094000Y-4648000D01*
X4099330Y-4634670D01*
X4106000Y-4620000D01*
X4116670Y-4600000D01*
X4063330D01*
G01X4420000Y-4690000D02*
X4380000D01*
Y-4610000D01*
X4420000D01*
G01X3698330Y-4900000D02*
Y-4820000D01*
X3731670D01*
X3742330Y-4824000D01*
X3749000Y-4829330D01*
X3751670Y-4840000D01*
X3749000Y-4850670D01*
X3741000Y-4857330D01*
X3731670Y-4861330D01*
X3698330D01*
G01X3731670D02*
X3751670Y-4900000D01*
G01X3812330D02*
X3815000Y-4882670D01*
X3819000Y-4868000D01*
X3824330Y-4854670D01*
X3831000Y-4840000D01*
X3841670Y-4820000D01*
X3788330D01*
G01X4150000Y-4910000D02*
X4190000D01*
Y-4830000D01*
X4150000D01*
G01X4050000Y-4910000D02*
X4010000D01*
Y-4830000D01*
X4050000D01*
G01X3698330Y-4790000D02*
Y-4710000D01*
X3731670D01*
X3742330Y-4714000D01*
X3749000Y-4719330D01*
X3751670Y-4730000D01*
X3749000Y-4740670D01*
X3741000Y-4747330D01*
X3731670Y-4751330D01*
X3698330D01*
G01X3731670D02*
X3751670Y-4790000D01*
G01X3815000D02*
X3824330Y-4788670D01*
X3835000Y-4784670D01*
X3841670Y-4778000D01*
X3844330Y-4768670D01*
X3841670Y-4759340D01*
X3833670Y-4751330D01*
X3821670Y-4747330D01*
X3808330D01*
X3800330Y-4744670D01*
X3793670Y-4738000D01*
X3791000Y-4728670D01*
X3795000Y-4719330D01*
X3804330Y-4712670D01*
X3815000Y-4710000D01*
X3825670Y-4712670D01*
X3835000Y-4719330D01*
X3839000Y-4728670D01*
X3836330Y-4738000D01*
X3829670Y-4744670D01*
X3821670Y-4747330D01*
X3808330D01*
X3796330Y-4751330D01*
X3788330Y-4759340D01*
X3785670Y-4768670D01*
X3788330Y-4778000D01*
X3795000Y-4784670D01*
X3805670Y-4788670D01*
X3815000Y-4790000D01*
G01X4320000D02*
X4360000D01*
Y-4710000D01*
X4320000D01*
G01X4220000Y-4790000D02*
X4180000D01*
Y-4710000D01*
X4220000D01*
G01X3698330Y-4680000D02*
Y-4600000D01*
X3731670D01*
X3742330Y-4604000D01*
X3749000Y-4609330D01*
X3751670Y-4620000D01*
X3749000Y-4630670D01*
X3741000Y-4637330D01*
X3731670Y-4641330D01*
X3698330D01*
G01X3731670D02*
X3751670Y-4680000D01*
G01X3792330Y-4670670D02*
X3801670Y-4677330D01*
X3812330Y-4680000D01*
X3823000Y-4677330D01*
X3832330Y-4669340D01*
X3839000Y-4657330D01*
X3841670Y-4645330D01*
Y-4630670D01*
X3839000Y-4618670D01*
X3832330Y-4608000D01*
X3824330Y-4602670D01*
X3815000Y-4600000D01*
X3804330Y-4602670D01*
X3796330Y-4608000D01*
X3791000Y-4616000D01*
X3788330Y-4626670D01*
X3791000Y-4636000D01*
X3797670Y-4645330D01*
X3805670Y-4650670D01*
X3815000Y-4652000D01*
X3825670Y-4649340D01*
X3833670Y-4642670D01*
X3841670Y-4630670D01*
G01X4320000Y-4690000D02*
X4360000D01*
Y-4610000D01*
X4320000D01*
G01X4220000Y-4690000D02*
X4180000D01*
Y-4610000D01*
X4220000D01*
G01X3939330Y-4716670D02*
X3931330Y-4712670D01*
X3922000Y-4710000D01*
X3911330D01*
X3899330Y-4714000D01*
X3890000Y-4720670D01*
X3883330Y-4728670D01*
X3878000Y-4742000D01*
X3876670Y-4754000D01*
X3879330Y-4766000D01*
X3883330Y-4774000D01*
X3891330Y-4782000D01*
X3900670Y-4787330D01*
X3910000Y-4790000D01*
X3919330D01*
X3928670Y-4787330D01*
X3936670Y-4783330D01*
X3943330Y-4778000D01*
G01X3974670Y-4723330D02*
X3982670Y-4715330D01*
X3992000Y-4711330D01*
X4002670Y-4710000D01*
X4016000Y-4712670D01*
X4025330Y-4719330D01*
X4028000Y-4727330D01*
X4026670Y-4735340D01*
X4021330Y-4742000D01*
X3994670Y-4755330D01*
X3982670Y-4764670D01*
X3974670Y-4778000D01*
X3972000Y-4790000D01*
X4028000D01*
G01X4106000D02*
Y-4710000D01*
X4056670Y-4767330D01*
X4123330D01*
G01X4420000Y-4790000D02*
X4380000D01*
Y-4710000D01*
X4420000D01*
G01X4153330Y-5092000D02*
X4157330Y-5086000D01*
X4160000Y-5079000D01*
Y-5071000D01*
X4156000Y-5062000D01*
X4149330Y-5055000D01*
X4141330Y-5050000D01*
X4128000Y-5046000D01*
X4116000Y-5045000D01*
X4104000Y-5047000D01*
X4096000Y-5050000D01*
X4088000Y-5056000D01*
X4082670Y-5063000D01*
X4080000Y-5070000D01*
Y-5077000D01*
X4082670Y-5084000D01*
X4086670Y-5090000D01*
X4092000Y-5095000D01*
G01X3763330Y-4999330D02*
X3767330Y-4991330D01*
X3770000Y-4982000D01*
Y-4971330D01*
X3766000Y-4959330D01*
X3759330Y-4950000D01*
X3751330Y-4943330D01*
X3738000Y-4938000D01*
X3726000Y-4936670D01*
X3714000Y-4939330D01*
X3706000Y-4943330D01*
X3698000Y-4951330D01*
X3692670Y-4960670D01*
X3690000Y-4970000D01*
Y-4979330D01*
X3692670Y-4988670D01*
X3696670Y-4996670D01*
X3702000Y-5003330D01*
G01X3756670Y-5034670D02*
X3764670Y-5042670D01*
X3768670Y-5052000D01*
X3770000Y-5062670D01*
X3767330Y-5076000D01*
X3760670Y-5085330D01*
X3752670Y-5088000D01*
X3744660Y-5086670D01*
X3738000Y-5081330D01*
X3724670Y-5054670D01*
X3715330Y-5042670D01*
X3702000Y-5034670D01*
X3690000Y-5032000D01*
Y-5088000D01*
G01X3723330Y-5124670D02*
X3732670Y-5134000D01*
X3738000Y-5142000D01*
X3740670Y-5152670D01*
X3738000Y-5162000D01*
X3732670Y-5168670D01*
X3724670Y-5174000D01*
X3715330Y-5175330D01*
X3707330Y-5174000D01*
X3699330Y-5168670D01*
X3692670Y-5160670D01*
X3690000Y-5151330D01*
X3692670Y-5140670D01*
X3700660Y-5131330D01*
X3712670Y-5126000D01*
X3726000Y-5124670D01*
X3743330Y-5127330D01*
X3752670Y-5131330D01*
X3762000Y-5138000D01*
X3768670Y-5147330D01*
X3770000Y-5156670D01*
X3767330Y-5166000D01*
X3760670Y-5172670D01*
G01X4050000Y-5150000D02*
Y-5210000D01*
X4190000D01*
Y-5150000D01*
G01X4050000Y-4990000D02*
Y-4930000D01*
X4190000D01*
Y-4990000D01*
G01X4423330Y-3668330D02*
X4503330D01*
Y-3700330D01*
X4499330Y-3711000D01*
X4490000Y-3719000D01*
X4479330Y-3721670D01*
X4468660Y-3719000D01*
X4460660Y-3712330D01*
X4456660Y-3700330D01*
Y-3668330D01*
G01X4496660Y-3814330D02*
X4500660Y-3806330D01*
X4503330Y-3797000D01*
Y-3786330D01*
X4499330Y-3774330D01*
X4492660Y-3765000D01*
X4484660Y-3758330D01*
X4471330Y-3753000D01*
X4459330Y-3751670D01*
X4447330Y-3754330D01*
X4439330Y-3758330D01*
X4431330Y-3766330D01*
X4426000Y-3775670D01*
X4423330Y-3785000D01*
Y-3794330D01*
X4426000Y-3803670D01*
X4430000Y-3811670D01*
X4435330Y-3818330D01*
G01X4503330Y-3875000D02*
X4500660Y-3864330D01*
X4494000Y-3856330D01*
X4486000Y-3851000D01*
X4475330Y-3847000D01*
X4463330Y-3845670D01*
X4451330Y-3847000D01*
X4440660Y-3851000D01*
X4432660Y-3856330D01*
X4426000Y-3864330D01*
X4423330Y-3875000D01*
X4426000Y-3885670D01*
X4432660Y-3893670D01*
X4440660Y-3899000D01*
X4451330Y-3903000D01*
X4463330Y-3904330D01*
X4475330Y-3903000D01*
X4486000Y-3899000D01*
X4494000Y-3893670D01*
X4500660Y-3885670D01*
X4503330Y-3875000D01*
G01X4420660Y-3941000D02*
X4503330Y-3989000D01*
G01X4423330Y-4028330D02*
X4503330D01*
Y-4060330D01*
X4499330Y-4071000D01*
X4490000Y-4079000D01*
X4479330Y-4081670D01*
X4468660Y-4079000D01*
X4460660Y-4072330D01*
X4456660Y-4060330D01*
Y-4028330D01*
G01X4423330Y-4118330D02*
X4503330D01*
Y-4150330D01*
X4499330Y-4161000D01*
X4490000Y-4169000D01*
X4479330Y-4171670D01*
X4468660Y-4169000D01*
X4460660Y-4162330D01*
X4456660Y-4150330D01*
Y-4118330D01*
G01X4503330Y-4235000D02*
X4500660Y-4224330D01*
X4494000Y-4216330D01*
X4486000Y-4211000D01*
X4475330Y-4207000D01*
X4463330Y-4205670D01*
X4451330Y-4207000D01*
X4440660Y-4211000D01*
X4432660Y-4216330D01*
X4426000Y-4224330D01*
X4423330Y-4235000D01*
X4426000Y-4245670D01*
X4432660Y-4253670D01*
X4440660Y-4259000D01*
X4451330Y-4263000D01*
X4463330Y-4264330D01*
X4475330Y-4263000D01*
X4486000Y-4259000D01*
X4494000Y-4253670D01*
X4500660Y-4245670D01*
X4503330Y-4235000D01*
G01X3963330Y-3668330D02*
X4043330D01*
Y-3700330D01*
X4039330Y-3711000D01*
X4030000Y-3719000D01*
X4019330Y-3721670D01*
X4008660Y-3719000D01*
X4000660Y-3712330D01*
X3996660Y-3700330D01*
Y-3668330D01*
G01X4036660Y-3814330D02*
X4040660Y-3806330D01*
X4043330Y-3797000D01*
Y-3786330D01*
X4039330Y-3774330D01*
X4032660Y-3765000D01*
X4024660Y-3758330D01*
X4011330Y-3753000D01*
X3999330Y-3751670D01*
X3987330Y-3754330D01*
X3979330Y-3758330D01*
X3971330Y-3766330D01*
X3966000Y-3775670D01*
X3963330Y-3785000D01*
Y-3794330D01*
X3966000Y-3803670D01*
X3970000Y-3811670D01*
X3975330Y-3818330D01*
G01X3963330Y-3891000D02*
X4043330D01*
X3986000Y-3841670D01*
Y-3908330D01*
G01X3960660Y-3941000D02*
X4043330Y-3989000D01*
G01X3963330Y-4021670D02*
X4043330Y-4055000D01*
X3963330Y-4088330D01*
G01X3991330Y-4076330D02*
Y-4033670D01*
G01X4006000Y-4155670D02*
X4010000Y-4161000D01*
X4016660Y-4165000D01*
X4026000Y-4167670D01*
X4034000Y-4165000D01*
X4039330Y-4159670D01*
X4043330Y-4150330D01*
Y-4114330D01*
X3963330D01*
Y-4158330D01*
X3968660Y-4167670D01*
X3976660Y-4173000D01*
X3986000Y-4175670D01*
X3995330Y-4173000D01*
X4003330Y-4165000D01*
X4006000Y-4155670D01*
Y-4114330D01*
G01X4043330Y-4219000D02*
Y-4251000D01*
G01Y-4235000D02*
X3963330D01*
G01Y-4219000D02*
Y-4251000D01*
G01Y-4291670D02*
X4043330Y-4325000D01*
X3963330Y-4358330D01*
G01X3991330Y-4346330D02*
Y-4303670D01*
G01X3973990Y-4387000D02*
X3967330Y-4397670D01*
X3963330Y-4409670D01*
Y-4420330D01*
X3967330Y-4431000D01*
X3973990Y-4439000D01*
X3983330Y-4443000D01*
X3992660Y-4440330D01*
X4000660Y-4433670D01*
X4006000Y-4421670D01*
X4008660Y-4405670D01*
X4014000Y-4396330D01*
X4023330Y-4392330D01*
X4032660Y-4395000D01*
X4039330Y-4401670D01*
X4043330Y-4411000D01*
Y-4420330D01*
X4040660Y-4429670D01*
X4034000Y-4437670D01*
G01X4136000Y-3673330D02*
X4128000Y-3680000D01*
X4122670Y-3688000D01*
X4120000Y-3697330D01*
X4122670Y-3708000D01*
X4128000Y-3716000D01*
X4136000Y-3724000D01*
X4146670Y-3726670D01*
X4200000D01*
G01X4186670Y-3764670D02*
X4194670Y-3772670D01*
X4198670Y-3782000D01*
X4200000Y-3792670D01*
X4197330Y-3806000D01*
X4190670Y-3815330D01*
X4182670Y-3818000D01*
X4174660Y-3816670D01*
X4168000Y-3811330D01*
X4154670Y-3784670D01*
X4145330Y-3772670D01*
X4132000Y-3764670D01*
X4120000Y-3762000D01*
Y-3818000D01*
G01X4200000Y-3880000D02*
X4197330Y-3869330D01*
X4190670Y-3861330D01*
X4182670Y-3856000D01*
X4172000Y-3852000D01*
X4160000Y-3850670D01*
X4148000Y-3852000D01*
X4137330Y-3856000D01*
X4129330Y-3861330D01*
X4122670Y-3869330D01*
X4120000Y-3880000D01*
X4122670Y-3890670D01*
X4129330Y-3898670D01*
X4137330Y-3904000D01*
X4148000Y-3908000D01*
X4160000Y-3909330D01*
X4172000Y-3908000D01*
X4182670Y-3904000D01*
X4190670Y-3898670D01*
X4197330Y-3890670D01*
X4200000Y-3880000D01*
G01X4117000Y-4233000D02*
X4363000D01*
G01X4117000Y-3954000D02*
Y-4512000D01*
X4363000D01*
Y-3954000D01*
X4117000D01*
G01X4543330Y-1639330D02*
X4547330Y-1631330D01*
X4550000Y-1622000D01*
Y-1611330D01*
X4546000Y-1599330D01*
X4539330Y-1590000D01*
X4531330Y-1583330D01*
X4518000Y-1578000D01*
X4506000Y-1576670D01*
X4494000Y-1579330D01*
X4486000Y-1583330D01*
X4478000Y-1591330D01*
X4472670Y-1600670D01*
X4470000Y-1610000D01*
Y-1619330D01*
X4472670Y-1628670D01*
X4476670Y-1636670D01*
X4482000Y-1643330D01*
G01X4536670Y-1674670D02*
X4544670Y-1682670D01*
X4548670Y-1692000D01*
X4550000Y-1702670D01*
X4547330Y-1716000D01*
X4540670Y-1725330D01*
X4532670Y-1728000D01*
X4524660Y-1726670D01*
X4518000Y-1721330D01*
X4504670Y-1694670D01*
X4495330Y-1682670D01*
X4482000Y-1674670D01*
X4470000Y-1672000D01*
Y-1728000D01*
G01X4467330Y-1766000D02*
X4550000Y-1814000D01*
G01X4486000Y-1850670D02*
X4476670Y-1858670D01*
X4471330Y-1869330D01*
X4470000Y-1881330D01*
X4471330Y-1892000D01*
X4478000Y-1902670D01*
X4486000Y-1909330D01*
X4494000Y-1910670D01*
X4503330Y-1908000D01*
X4510000Y-1898670D01*
X4512670Y-1889330D01*
Y-1877330D01*
G01Y-1889330D02*
X4516670Y-1897330D01*
X4523330Y-1904000D01*
X4531330Y-1906670D01*
X4539330Y-1904000D01*
X4546000Y-1897330D01*
X4550000Y-1885330D01*
X4548670Y-1873330D01*
X4543330Y-1861330D01*
G01X4536670Y-1944670D02*
X4544670Y-1952670D01*
X4548670Y-1962000D01*
X4550000Y-1972670D01*
X4547330Y-1986000D01*
X4540670Y-1995330D01*
X4532670Y-1998000D01*
X4524660Y-1996670D01*
X4518000Y-1991330D01*
X4504670Y-1964670D01*
X4495330Y-1952670D01*
X4482000Y-1944670D01*
X4470000Y-1942000D01*
Y-1998000D01*
G01Y-2030670D02*
X4550000D01*
G01Y-2081330D02*
X4500660Y-2030670D01*
G01X4470000Y-2089330D02*
X4523330Y-2053330D01*
G01X4470000Y-2150000D02*
X4471330Y-2139330D01*
X4476670Y-2130000D01*
X4484670Y-2122000D01*
X4494000Y-2116670D01*
X4504670Y-2114000D01*
X4515330D01*
X4526000Y-2116670D01*
X4535330Y-2122000D01*
X4543330Y-2130000D01*
X4548670Y-2139330D01*
X4550000Y-2150000D01*
X4548670Y-2160670D01*
X4543330Y-2170000D01*
X4535330Y-2178000D01*
X4526000Y-2183330D01*
X4515330Y-2186000D01*
X4504670D01*
X4494000Y-2183330D01*
X4484670Y-2178000D01*
X4476670Y-2170000D01*
X4471330Y-2160670D01*
X4470000Y-2150000D01*
G01X3473710Y-1404370D02*
Y-1360870D01*
X3426810D01*
Y-1360970D01*
G01X3429410Y-2063170D02*
X3472910D01*
Y-2016270D01*
X3472810D01*
G01X3979330Y-1576670D02*
X3971330Y-1572670D01*
X3962000Y-1570000D01*
X3951330D01*
X3939330Y-1574000D01*
X3930000Y-1580670D01*
X3923330Y-1588670D01*
X3918000Y-1602000D01*
X3916670Y-1614000D01*
X3919330Y-1626000D01*
X3923330Y-1634000D01*
X3931330Y-1642000D01*
X3940670Y-1647330D01*
X3950000Y-1650000D01*
X3959330D01*
X3968670Y-1647330D01*
X3976670Y-1643330D01*
X3983330Y-1638000D01*
G01X4014670Y-1583330D02*
X4022670Y-1575330D01*
X4032000Y-1571330D01*
X4042670Y-1570000D01*
X4056000Y-1572670D01*
X4065330Y-1579330D01*
X4068000Y-1587330D01*
X4066670Y-1595340D01*
X4061330Y-1602000D01*
X4034670Y-1615330D01*
X4022670Y-1624670D01*
X4014670Y-1638000D01*
X4012000Y-1650000D01*
X4068000D01*
G01X4130000D02*
X4139330Y-1648670D01*
X4150000Y-1644670D01*
X4156670Y-1638000D01*
X4159330Y-1628670D01*
X4156670Y-1619340D01*
X4148670Y-1611330D01*
X4136670Y-1607330D01*
X4123330D01*
X4115330Y-1604670D01*
X4108670Y-1598000D01*
X4106000Y-1588670D01*
X4110000Y-1579330D01*
X4119330Y-1572670D01*
X4130000Y-1570000D01*
X4140670Y-1572670D01*
X4150000Y-1579330D01*
X4154000Y-1588670D01*
X4151330Y-1598000D01*
X4144670Y-1604670D01*
X4136670Y-1607330D01*
X4123330D01*
X4111330Y-1611330D01*
X4103330Y-1619340D01*
X4100670Y-1628670D01*
X4103330Y-1638000D01*
X4110000Y-1644670D01*
X4120670Y-1648670D01*
X4130000Y-1650000D01*
G01X3800000Y-1720000D02*
X3840000D01*
Y-1640000D01*
X3800000D01*
G01X3700000Y-1720000D02*
X3660000D01*
Y-1640000D01*
X3700000D01*
G01X3883330Y-1359330D02*
X3887330Y-1351330D01*
X3890000Y-1342000D01*
Y-1331330D01*
X3886000Y-1319330D01*
X3879330Y-1310000D01*
X3871330Y-1303330D01*
X3858000Y-1298000D01*
X3846000Y-1296670D01*
X3834000Y-1299330D01*
X3826000Y-1303330D01*
X3818000Y-1311330D01*
X3812670Y-1320670D01*
X3810000Y-1330000D01*
Y-1339330D01*
X3812670Y-1348670D01*
X3816670Y-1356670D01*
X3822000Y-1363330D01*
G01X3810000Y-1420000D02*
X3890000D01*
X3874000Y-1404000D01*
G01X3810000D02*
Y-1436000D01*
G01X3822000Y-1480670D02*
X3815330Y-1488670D01*
X3811330Y-1498000D01*
X3810000Y-1510000D01*
X3812670Y-1522000D01*
X3818000Y-1531330D01*
X3827330Y-1538000D01*
X3838000Y-1539330D01*
X3848670Y-1536670D01*
X3855330Y-1530000D01*
X3860670Y-1520670D01*
X3862000Y-1511330D01*
X3860670Y-1502000D01*
X3855330Y-1490000D01*
X3890000Y-1494000D01*
Y-1530000D01*
G01X3863330Y-2034330D02*
X3867330Y-2026330D01*
X3870000Y-2017000D01*
Y-2006330D01*
X3866000Y-1994330D01*
X3859330Y-1985000D01*
X3851330Y-1978330D01*
X3838000Y-1973000D01*
X3826000Y-1971670D01*
X3814000Y-1974330D01*
X3806000Y-1978330D01*
X3798000Y-1986330D01*
X3792670Y-1995670D01*
X3790000Y-2005000D01*
Y-2014330D01*
X3792670Y-2023670D01*
X3796670Y-2031670D01*
X3802000Y-2038330D01*
G01X3790000Y-2095000D02*
X3870000D01*
X3854000Y-2079000D01*
G01X3790000D02*
Y-2111000D01*
G01X3806000Y-2155670D02*
X3796670Y-2163670D01*
X3791330Y-2174330D01*
X3790000Y-2186330D01*
X3791330Y-2197000D01*
X3798000Y-2207670D01*
X3806000Y-2214330D01*
X3814000Y-2215670D01*
X3823330Y-2213000D01*
X3830000Y-2203670D01*
X3832670Y-2194330D01*
Y-2182330D01*
G01Y-2194330D02*
X3836670Y-2202330D01*
X3843330Y-2209000D01*
X3851330Y-2211670D01*
X3859330Y-2209000D01*
X3866000Y-2202330D01*
X3870000Y-2190330D01*
X3868670Y-2178330D01*
X3863330Y-2166330D01*
G01X3650000Y-2120000D02*
Y-2160000D01*
X3730000D01*
Y-2120000D01*
G01X3650000Y-2020000D02*
Y-1980000D01*
X3730000D01*
Y-2020000D01*
G01X3974330Y-1866670D02*
X3966330Y-1862670D01*
X3957000Y-1860000D01*
X3946330D01*
X3934330Y-1864000D01*
X3925000Y-1870670D01*
X3918330Y-1878670D01*
X3913000Y-1892000D01*
X3911670Y-1904000D01*
X3914330Y-1916000D01*
X3918330Y-1924000D01*
X3926330Y-1932000D01*
X3935670Y-1937330D01*
X3945000Y-1940000D01*
X3954330D01*
X3963670Y-1937330D01*
X3971670Y-1933330D01*
X3978330Y-1928000D01*
G01X4035000Y-1940000D02*
Y-1860000D01*
X4019000Y-1876000D01*
G01Y-1940000D02*
X4051000D01*
G01X4099670Y-1873330D02*
X4107670Y-1865330D01*
X4117000Y-1861330D01*
X4127670Y-1860000D01*
X4141000Y-1862670D01*
X4150330Y-1869330D01*
X4153000Y-1877330D01*
X4151670Y-1885340D01*
X4146330Y-1892000D01*
X4119670Y-1905330D01*
X4107670Y-1914670D01*
X4099670Y-1928000D01*
X4097000Y-1940000D01*
X4153000D01*
G01X3800000Y-1930000D02*
X3840000D01*
Y-1850000D01*
X3800000D01*
G01X3700000Y-1930000D02*
X3660000D01*
Y-1850000D01*
X3700000D01*
G01X3979330Y-1756670D02*
X3971330Y-1752670D01*
X3962000Y-1750000D01*
X3951330D01*
X3939330Y-1754000D01*
X3930000Y-1760670D01*
X3923330Y-1768670D01*
X3918000Y-1782000D01*
X3916670Y-1794000D01*
X3919330Y-1806000D01*
X3923330Y-1814000D01*
X3931330Y-1822000D01*
X3940670Y-1827330D01*
X3950000Y-1830000D01*
X3959330D01*
X3968670Y-1827330D01*
X3976670Y-1823330D01*
X3983330Y-1818000D01*
G01X4014670Y-1763330D02*
X4022670Y-1755330D01*
X4032000Y-1751330D01*
X4042670Y-1750000D01*
X4056000Y-1752670D01*
X4065330Y-1759330D01*
X4068000Y-1767330D01*
X4066670Y-1775340D01*
X4061330Y-1782000D01*
X4034670Y-1795330D01*
X4022670Y-1804670D01*
X4014670Y-1818000D01*
X4012000Y-1830000D01*
X4068000D01*
G01X4100670Y-1818000D02*
X4108670Y-1824670D01*
X4118000Y-1828670D01*
X4130000Y-1830000D01*
X4142000Y-1827330D01*
X4151330Y-1822000D01*
X4158000Y-1812670D01*
X4159330Y-1802000D01*
X4156670Y-1791330D01*
X4150000Y-1784670D01*
X4140670Y-1779330D01*
X4131330Y-1778000D01*
X4122000Y-1779330D01*
X4110000Y-1784670D01*
X4114000Y-1750000D01*
X4150000D01*
G01X3700000Y-1740000D02*
X3660000D01*
Y-1820000D01*
X3700000D01*
G01X3800000Y-1740000D02*
X3840000D01*
Y-1820000D01*
X3800000D01*
G01X4316670Y-288330D02*
X4306670Y-283330D01*
X4295000Y-280000D01*
X4281670D01*
X4266660Y-285000D01*
X4255000Y-293330D01*
X4246670Y-303330D01*
X4240000Y-320000D01*
X4238330Y-335000D01*
X4241670Y-350000D01*
X4246670Y-360000D01*
X4256670Y-370000D01*
X4268330Y-376670D01*
X4280000Y-380000D01*
X4291670D01*
X4303330Y-376670D01*
X4313330Y-371670D01*
X4321670Y-365000D01*
G01X4390000Y-380000D02*
Y-280000D01*
X4370000Y-300000D01*
G01Y-380000D02*
X4410000D01*
G01X4500000Y-280000D02*
Y-380000D01*
G01X4461670Y-280000D02*
X4538330D01*
G01X4610000Y-380000D02*
Y-280000D01*
X4590000Y-300000D01*
G01Y-380000D02*
X4630000D01*
G01X4683330Y-360000D02*
X4693330Y-371670D01*
X4706660Y-378330D01*
X4721670Y-380000D01*
X4735000Y-378330D01*
X4748330Y-370000D01*
X4756670Y-360000D01*
X4758330Y-350000D01*
X4755000Y-338340D01*
X4743330Y-330000D01*
X4731670Y-326670D01*
X4716670D01*
G01X4731670D02*
X4741670Y-321670D01*
X4750000Y-313340D01*
X4753330Y-303330D01*
X4750000Y-293330D01*
X4741670Y-285000D01*
X4726670Y-280000D01*
X4711670Y-281670D01*
X4696670Y-288330D01*
G01X4801670Y-368340D02*
X4813330Y-376670D01*
X4826670Y-380000D01*
X4840000Y-376670D01*
X4851670Y-366670D01*
X4860000Y-351670D01*
X4863330Y-336670D01*
Y-318330D01*
X4860000Y-303330D01*
X4851670Y-290000D01*
X4841670Y-283330D01*
X4830000Y-280000D01*
X4816660Y-283330D01*
X4806670Y-290000D01*
X4800000Y-300000D01*
X4796670Y-313340D01*
X4800000Y-325000D01*
X4808330Y-336670D01*
X4818330Y-343340D01*
X4830000Y-345000D01*
X4843330Y-341670D01*
X4853330Y-333330D01*
X4863330Y-318330D01*
G01X4898330Y-380000D02*
X4940000Y-280000D01*
X4981670Y-380000D01*
G01X4966670Y-345000D02*
X4913330D01*
G01X5013330Y-360000D02*
X5023330Y-371670D01*
X5036660Y-378330D01*
X5051670Y-380000D01*
X5065000Y-378330D01*
X5078330Y-370000D01*
X5086670Y-360000D01*
X5088330Y-350000D01*
X5085000Y-338340D01*
X5073330Y-330000D01*
X5061670Y-326670D01*
X5046670D01*
G01X5061670D02*
X5071670Y-321670D01*
X5080000Y-313340D01*
X5083330Y-303330D01*
X5080000Y-293330D01*
X5071670Y-285000D01*
X5056670Y-280000D01*
X5041670Y-281670D01*
X5026670Y-288330D01*
G01X5160000Y-280000D02*
X5146660Y-283330D01*
X5136670Y-291670D01*
X5130000Y-301670D01*
X5125000Y-315000D01*
X5123330Y-330000D01*
X5125000Y-345000D01*
X5130000Y-358330D01*
X5136670Y-368340D01*
X5146660Y-376670D01*
X5160000Y-380000D01*
X5173330Y-376670D01*
X5183330Y-368340D01*
X5190000Y-358330D01*
X5195000Y-345000D01*
X5196670Y-330000D01*
X5195000Y-315000D01*
X5190000Y-301670D01*
X5183330Y-291670D01*
X5173330Y-283330D01*
X5160000Y-280000D01*
G01X5220000Y-413330D02*
X5320000D01*
G01X5338330Y-280000D02*
X5380000Y-380000D01*
X5421670Y-280000D01*
G01X5490000Y-380000D02*
Y-280000D01*
X5470000Y-300000D01*
G01Y-380000D02*
X5510000D01*
G01X5600000Y-383330D02*
X5596670Y-381670D01*
Y-378330D01*
X5600000Y-376670D01*
X5603330Y-378330D01*
Y-381670D01*
X5600000Y-383330D01*
G01X5678330Y-296670D02*
X5688330Y-286670D01*
X5700000Y-281670D01*
X5713330Y-280000D01*
X5730000Y-283330D01*
X5741670Y-291670D01*
X5745000Y-301670D01*
X5743330Y-311670D01*
X5736670Y-320000D01*
X5703330Y-336670D01*
X5688330Y-348330D01*
X5678330Y-365000D01*
X5675000Y-380000D01*
X5745000D01*
G01X4248330Y-476670D02*
X4258330Y-466670D01*
X4270000Y-461670D01*
X4283330Y-460000D01*
X4300000Y-463330D01*
X4311670Y-471670D01*
X4315000Y-481670D01*
X4313330Y-491670D01*
X4306670Y-500000D01*
X4273330Y-516670D01*
X4258330Y-528330D01*
X4248330Y-545000D01*
X4245000Y-560000D01*
X4315000D01*
G01X4390000Y-460000D02*
X4376660Y-463330D01*
X4366670Y-471670D01*
X4360000Y-481670D01*
X4355000Y-495000D01*
X4353330Y-510000D01*
X4355000Y-525000D01*
X4360000Y-538330D01*
X4366670Y-548340D01*
X4376660Y-556670D01*
X4390000Y-560000D01*
X4403330Y-556670D01*
X4413330Y-548340D01*
X4420000Y-538330D01*
X4425000Y-525000D01*
X4426670Y-510000D01*
X4425000Y-495000D01*
X4420000Y-481670D01*
X4413330Y-471670D01*
X4403330Y-463330D01*
X4390000Y-460000D01*
G01X4500000Y-560000D02*
Y-460000D01*
X4480000Y-480000D01*
G01Y-560000D02*
X4520000D01*
G01X4610000D02*
X4621670Y-558330D01*
X4635000Y-553330D01*
X4643330Y-545000D01*
X4646670Y-533330D01*
X4643330Y-521670D01*
X4633330Y-511670D01*
X4618330Y-506670D01*
X4601670D01*
X4591670Y-503330D01*
X4583330Y-495000D01*
X4580000Y-483330D01*
X4585000Y-471670D01*
X4596660Y-463330D01*
X4610000Y-460000D01*
X4623330Y-463330D01*
X4635000Y-471670D01*
X4640000Y-483330D01*
X4636670Y-495000D01*
X4628330Y-503330D01*
X4618330Y-506670D01*
X4601670D01*
X4586670Y-511670D01*
X4576670Y-521670D01*
X4573330Y-533330D01*
X4576670Y-545000D01*
X4585000Y-553330D01*
X4598330Y-558330D01*
X4610000Y-560000D01*
G01X4698330Y-526670D02*
X4741670D01*
G01X4830000Y-560000D02*
Y-460000D01*
X4810000Y-480000D01*
G01Y-560000D02*
X4850000D01*
G01X4940000Y-460000D02*
X4926660Y-463330D01*
X4916670Y-471670D01*
X4910000Y-481670D01*
X4905000Y-495000D01*
X4903330Y-510000D01*
X4905000Y-525000D01*
X4910000Y-538330D01*
X4916670Y-548340D01*
X4926660Y-556670D01*
X4940000Y-560000D01*
X4953330Y-556670D01*
X4963330Y-548340D01*
X4970000Y-538330D01*
X4975000Y-525000D01*
X4976670Y-510000D01*
X4975000Y-495000D01*
X4970000Y-481670D01*
X4963330Y-471670D01*
X4953330Y-463330D01*
X4940000Y-460000D01*
G01X5028330Y-526670D02*
X5071670D01*
G01X5160000Y-560000D02*
Y-460000D01*
X5140000Y-480000D01*
G01Y-560000D02*
X5180000D01*
G01X5270000D02*
X5281670Y-558330D01*
X5295000Y-553330D01*
X5303330Y-545000D01*
X5306670Y-533330D01*
X5303330Y-521670D01*
X5293330Y-511670D01*
X5278330Y-506670D01*
X5261670D01*
X5251670Y-503330D01*
X5243330Y-495000D01*
X5240000Y-483330D01*
X5245000Y-471670D01*
X5256660Y-463330D01*
X5270000Y-460000D01*
X5283330Y-463330D01*
X5295000Y-471670D01*
X5300000Y-483330D01*
X5296670Y-495000D01*
X5288330Y-503330D01*
X5278330Y-506670D01*
X5261670D01*
X5246670Y-511670D01*
X5236670Y-521670D01*
X5233330Y-533330D01*
X5236670Y-545000D01*
X5245000Y-553330D01*
X5258330Y-558330D01*
X5270000Y-560000D01*
G01X3705000Y-1300000D02*
Y-1340000D01*
X3785000D01*
Y-1300000D01*
G01X3705000Y-1200000D02*
Y-1160000D01*
X3785000D01*
Y-1200000D01*
G01X3953330Y-1124330D02*
X3957330Y-1116330D01*
X3960000Y-1107000D01*
Y-1096330D01*
X3956000Y-1084330D01*
X3949330Y-1075000D01*
X3941330Y-1068330D01*
X3928000Y-1063000D01*
X3916000Y-1061670D01*
X3904000Y-1064330D01*
X3896000Y-1068330D01*
X3888000Y-1076330D01*
X3882670Y-1085670D01*
X3880000Y-1095000D01*
Y-1104330D01*
X3882670Y-1113670D01*
X3886670Y-1121670D01*
X3892000Y-1128330D01*
G01X3889330Y-1162330D02*
X3882670Y-1171670D01*
X3880000Y-1182330D01*
X3882670Y-1193000D01*
X3890660Y-1202330D01*
X3902670Y-1209000D01*
X3914670Y-1211670D01*
X3929330D01*
X3941330Y-1209000D01*
X3952000Y-1202330D01*
X3957330Y-1194330D01*
X3960000Y-1185000D01*
X3957330Y-1174330D01*
X3952000Y-1166330D01*
X3944000Y-1161000D01*
X3933330Y-1158330D01*
X3924000Y-1161000D01*
X3914670Y-1167670D01*
X3909330Y-1175670D01*
X3908000Y-1185000D01*
X3910660Y-1195670D01*
X3917330Y-1203670D01*
X3929330Y-1211670D01*
G01X3585870Y-1083480D02*
Y-1043480D01*
X3505870D01*
Y-1083480D01*
G01X3585870Y-1183480D02*
Y-1223480D01*
X3505870D01*
Y-1183480D01*
G01X3890000Y-408330D02*
X3810000D01*
Y-461670D01*
G01X3876670Y-499670D02*
X3884670Y-507670D01*
X3888670Y-517000D01*
X3890000Y-527670D01*
X3887330Y-541000D01*
X3880670Y-550330D01*
X3872670Y-553000D01*
X3864660Y-551670D01*
X3858000Y-546330D01*
X3844670Y-519670D01*
X3835330Y-507670D01*
X3822000Y-499670D01*
X3810000Y-497000D01*
Y-553000D01*
G01X3808330Y-950000D02*
Y-1030000D01*
X3861670D01*
G01X3925000D02*
Y-950000D01*
X3909000Y-966000D01*
G01Y-1030000D02*
X3941000D01*
G01X3447910Y-1143580D02*
X3487910D01*
Y-1223580D01*
X3447910D01*
G01X3873330Y-744330D02*
X3877330Y-736330D01*
X3880000Y-727000D01*
Y-716330D01*
X3876000Y-704330D01*
X3869330Y-695000D01*
X3861330Y-688330D01*
X3848000Y-683000D01*
X3836000Y-681670D01*
X3824000Y-684330D01*
X3816000Y-688330D01*
X3808000Y-696330D01*
X3802670Y-705670D01*
X3800000Y-715000D01*
Y-724330D01*
X3802670Y-733670D01*
X3806670Y-741670D01*
X3812000Y-748330D01*
G01X3800000Y-805000D02*
X3801330Y-814330D01*
X3805330Y-825000D01*
X3812000Y-831670D01*
X3821330Y-834330D01*
X3830660Y-831670D01*
X3838670Y-823670D01*
X3842670Y-811670D01*
Y-798330D01*
X3845330Y-790330D01*
X3852000Y-783670D01*
X3861330Y-781000D01*
X3870670Y-785000D01*
X3877330Y-794330D01*
X3880000Y-805000D01*
X3877330Y-815670D01*
X3870670Y-825000D01*
X3861330Y-829000D01*
X3852000Y-826330D01*
X3845330Y-819670D01*
X3842670Y-811670D01*
Y-798330D01*
X3838670Y-786330D01*
X3830660Y-778330D01*
X3821330Y-775670D01*
X3812000Y-778330D01*
X3805330Y-785000D01*
X3801330Y-795670D01*
X3800000Y-805000D01*
G01X3864330Y-306670D02*
X3856330Y-302670D01*
X3847000Y-300000D01*
X3836330D01*
X3824330Y-304000D01*
X3815000Y-310670D01*
X3808330Y-318670D01*
X3803000Y-332000D01*
X3801670Y-344000D01*
X3804330Y-356000D01*
X3808330Y-364000D01*
X3816330Y-372000D01*
X3825670Y-377330D01*
X3835000Y-380000D01*
X3844330D01*
X3853670Y-377330D01*
X3861670Y-373330D01*
X3868330Y-368000D01*
G01X3922330Y-380000D02*
X3925000Y-362670D01*
X3929000Y-348000D01*
X3934330Y-334670D01*
X3941000Y-320000D01*
X3951670Y-300000D01*
X3898330D01*
G01X3447910Y-468580D02*
X3487910D01*
Y-548580D01*
X3447910D01*
G01X3864330Y-586670D02*
X3856330Y-582670D01*
X3847000Y-580000D01*
X3836330D01*
X3824330Y-584000D01*
X3815000Y-590670D01*
X3808330Y-598670D01*
X3803000Y-612000D01*
X3801670Y-624000D01*
X3804330Y-636000D01*
X3808330Y-644000D01*
X3816330Y-652000D01*
X3825670Y-657330D01*
X3835000Y-660000D01*
X3844330D01*
X3853670Y-657330D01*
X3861670Y-653330D01*
X3868330Y-648000D01*
G01X3899670Y-626670D02*
X3909000Y-617330D01*
X3917000Y-612000D01*
X3927670Y-609330D01*
X3937000Y-612000D01*
X3943670Y-617330D01*
X3949000Y-625330D01*
X3950330Y-634670D01*
X3949000Y-642670D01*
X3943670Y-650670D01*
X3935670Y-657330D01*
X3926330Y-660000D01*
X3915670Y-657330D01*
X3906330Y-649340D01*
X3901000Y-637330D01*
X3899670Y-624000D01*
X3902330Y-606670D01*
X3906330Y-597330D01*
X3913000Y-588000D01*
X3922330Y-581330D01*
X3931670Y-580000D01*
X3941000Y-582670D01*
X3947670Y-589330D01*
G01X3447910Y-758580D02*
X3487910D01*
Y-838580D01*
X3447910D01*
G01X3864330Y-856670D02*
X3856330Y-852670D01*
X3847000Y-850000D01*
X3836330D01*
X3824330Y-854000D01*
X3815000Y-860670D01*
X3808330Y-868670D01*
X3803000Y-882000D01*
X3801670Y-894000D01*
X3804330Y-906000D01*
X3808330Y-914000D01*
X3816330Y-922000D01*
X3825670Y-927330D01*
X3835000Y-930000D01*
X3844330D01*
X3853670Y-927330D01*
X3861670Y-923330D01*
X3868330Y-918000D01*
G01X3895670D02*
X3903670Y-924670D01*
X3913000Y-928670D01*
X3925000Y-930000D01*
X3937000Y-927330D01*
X3946330Y-922000D01*
X3953000Y-912670D01*
X3954330Y-902000D01*
X3951670Y-891330D01*
X3945000Y-884670D01*
X3935670Y-879330D01*
X3926330Y-878000D01*
X3917000Y-879330D01*
X3905000Y-884670D01*
X3909000Y-850000D01*
X3945000D01*
G01X3447910Y-1048580D02*
X3487910D01*
Y-1128580D01*
X3447910D01*
G01X4012000Y-779340D02*
X4022670Y-786000D01*
X4034670Y-790000D01*
X4045330D01*
X4056000Y-786000D01*
X4064000Y-779340D01*
X4068000Y-770000D01*
X4065330Y-760670D01*
X4058670Y-752670D01*
X4046670Y-747330D01*
X4030670Y-744670D01*
X4021330Y-739330D01*
X4017330Y-730000D01*
X4020000Y-720670D01*
X4026670Y-714000D01*
X4036000Y-710000D01*
X4045330D01*
X4054670Y-712670D01*
X4062670Y-719330D01*
G01X4090000Y-710000D02*
X4108670Y-790000D01*
X4130000Y-710000D01*
X4151330Y-790000D01*
X4170000Y-710000D01*
G01X4220000Y-790000D02*
Y-710000D01*
X4204000Y-726000D01*
G01Y-790000D02*
X4236000D01*
G01X4430000Y-960000D02*
Y-1060000D01*
G01Y-1010000D02*
X4630000D01*
X4695000Y-945000D01*
G01X4280000Y-100000D02*
Y-200000D01*
G01X4241670Y-100000D02*
X4318330D01*
G01X4356670D02*
Y-200000D01*
X4423330D01*
G01X4465000Y-186670D02*
X4478330Y-195000D01*
X4493330Y-200000D01*
X4506670D01*
X4520000Y-195000D01*
X4530000Y-186670D01*
X4535000Y-175000D01*
X4531670Y-163340D01*
X4523330Y-153330D01*
X4508330Y-146670D01*
X4488330Y-143330D01*
X4476670Y-136670D01*
X4471670Y-125000D01*
X4475000Y-113330D01*
X4483330Y-105000D01*
X4495000Y-100000D01*
X4506670D01*
X4518330Y-103330D01*
X4528330Y-111670D01*
G01X4576670Y-200000D02*
Y-100000D01*
X4618330D01*
X4631670Y-105000D01*
X4640000Y-111670D01*
X4643330Y-125000D01*
X4640000Y-138330D01*
X4630000Y-146670D01*
X4618330Y-151670D01*
X4576670D01*
G01X4618330D02*
X4643330Y-200000D01*
G01X4720000D02*
X4731670Y-198330D01*
X4745000Y-193330D01*
X4753330Y-185000D01*
X4756670Y-173330D01*
X4753330Y-161670D01*
X4743330Y-151670D01*
X4728330Y-146670D01*
X4711670D01*
X4701670Y-143330D01*
X4693330Y-135000D01*
X4690000Y-123330D01*
X4695000Y-111670D01*
X4706660Y-103330D01*
X4720000Y-100000D01*
X4733330Y-103330D01*
X4745000Y-111670D01*
X4750000Y-123330D01*
X4746670Y-135000D01*
X4738330Y-143330D01*
X4728330Y-146670D01*
X4711670D01*
X4696670Y-151670D01*
X4686670Y-161670D01*
X4683330Y-173330D01*
X4686670Y-185000D01*
X4695000Y-193330D01*
X4708330Y-198330D01*
X4720000Y-200000D01*
G01X4798330Y-116670D02*
X4808330Y-106670D01*
X4820000Y-101670D01*
X4833330Y-100000D01*
X4850000Y-103330D01*
X4861670Y-111670D01*
X4865000Y-121670D01*
X4863330Y-131670D01*
X4856670Y-140000D01*
X4823330Y-156670D01*
X4808330Y-168330D01*
X4798330Y-185000D01*
X4795000Y-200000D01*
X4865000D01*
G01X4903330Y-185000D02*
X4913330Y-193330D01*
X4925000Y-198330D01*
X4940000Y-200000D01*
X4955000Y-196670D01*
X4966670Y-190000D01*
X4975000Y-178330D01*
X4976670Y-165000D01*
X4973330Y-151670D01*
X4965000Y-143330D01*
X4953330Y-136670D01*
X4941670Y-135000D01*
X4930000Y-136670D01*
X4915000Y-143330D01*
X4920000Y-100000D01*
X4965000D01*
G01X5050000Y-200000D02*
X5061670Y-198330D01*
X5075000Y-193330D01*
X5083330Y-185000D01*
X5086670Y-173330D01*
X5083330Y-161670D01*
X5073330Y-151670D01*
X5058330Y-146670D01*
X5041670D01*
X5031670Y-143330D01*
X5023330Y-135000D01*
X5020000Y-123330D01*
X5025000Y-111670D01*
X5036660Y-103330D01*
X5050000Y-100000D01*
X5063330Y-103330D01*
X5075000Y-111670D01*
X5080000Y-123330D01*
X5076670Y-135000D01*
X5068330Y-143330D01*
X5058330Y-146670D01*
X5041670D01*
X5026670Y-151670D01*
X5016670Y-161670D01*
X5013330Y-173330D01*
X5016670Y-185000D01*
X5025000Y-193330D01*
X5038330Y-198330D01*
X5050000Y-200000D01*
G01X5123330D02*
Y-100000D01*
X5156670D01*
X5170000Y-105000D01*
X5180000Y-111670D01*
X5188330Y-121670D01*
X5195000Y-133340D01*
X5196670Y-150000D01*
X5195000Y-166670D01*
X5188330Y-178330D01*
X5180000Y-188340D01*
X5170000Y-195000D01*
X5156670Y-200000D01*
X5123330D01*
G01X5233330D02*
Y-100000D01*
G01X5296670D02*
X5233330Y-161670D01*
G01X5306670Y-200000D02*
X5261670Y-133340D01*
G01X5400000Y-200000D02*
Y-100000D01*
X5338330Y-171670D01*
X5421670D01*
G01X5490000Y-200000D02*
X5501670Y-198330D01*
X5515000Y-193330D01*
X5523330Y-185000D01*
X5526670Y-173330D01*
X5523330Y-161670D01*
X5513330Y-151670D01*
X5498330Y-146670D01*
X5481670D01*
X5471670Y-143330D01*
X5463330Y-135000D01*
X5460000Y-123330D01*
X5465000Y-111670D01*
X5476660Y-103330D01*
X5490000Y-100000D01*
X5503330Y-103330D01*
X5515000Y-111670D01*
X5520000Y-123330D01*
X5516670Y-135000D01*
X5508330Y-143330D01*
X5498330Y-146670D01*
X5481670D01*
X5466670Y-151670D01*
X5456670Y-161670D01*
X5453330Y-173330D01*
X5456670Y-185000D01*
X5465000Y-193330D01*
X5478330Y-198330D01*
X5490000Y-200000D01*
G01X3791240Y-114000D02*
X3797910Y-122000D01*
X3805910Y-127330D01*
X3815240Y-130000D01*
X3825910Y-127330D01*
X3833910Y-122000D01*
X3841910Y-114000D01*
X3844580Y-103330D01*
Y-50000D01*
G01X3907910Y-130000D02*
Y-50000D01*
X3891910Y-66000D01*
G01Y-130000D02*
X3923910D01*
G01X5120000Y-5150000D02*
X5180000Y-5090000D01*
Y-5280000D01*
X4950000Y-5510000D01*
Y-5890000D01*
X4740000Y-6100000D01*
X4520000D01*
X4590000Y-6030000D01*
G01X5461130Y-6222450D02*
X5707130D01*
G01X5461130Y-4419450D02*
Y-6501450D01*
X5707130D01*
Y-4419450D01*
X5461130D01*
G01X4750000Y-5150000D02*
X4540000D01*
X4590000Y-5100000D01*
G01X4636000Y-4683330D02*
X4628000Y-4690000D01*
X4622670Y-4698000D01*
X4620000Y-4707330D01*
X4622670Y-4718000D01*
X4628000Y-4726000D01*
X4636000Y-4734000D01*
X4646670Y-4736670D01*
X4700000D01*
G01X4636000Y-4770670D02*
X4626670Y-4778670D01*
X4621330Y-4789330D01*
X4620000Y-4801330D01*
X4621330Y-4812000D01*
X4628000Y-4822670D01*
X4636000Y-4829330D01*
X4644000Y-4830670D01*
X4653330Y-4828000D01*
X4660000Y-4818670D01*
X4662670Y-4809330D01*
Y-4797330D01*
G01Y-4809330D02*
X4666670Y-4817330D01*
X4673330Y-4824000D01*
X4681330Y-4826670D01*
X4689330Y-4824000D01*
X4696000Y-4817330D01*
X4700000Y-4805330D01*
X4698670Y-4793330D01*
X4693330Y-4781330D01*
G01X4653330Y-4864670D02*
X4662670Y-4874000D01*
X4668000Y-4882000D01*
X4670670Y-4892670D01*
X4668000Y-4902000D01*
X4662670Y-4908670D01*
X4654670Y-4914000D01*
X4645330Y-4915330D01*
X4637330Y-4914000D01*
X4629330Y-4908670D01*
X4622670Y-4900670D01*
X4620000Y-4891330D01*
X4622670Y-4880670D01*
X4630660Y-4871330D01*
X4642670Y-4866000D01*
X4656000Y-4864670D01*
X4673330Y-4867330D01*
X4682670Y-4871330D01*
X4692000Y-4878000D01*
X4698670Y-4887330D01*
X4700000Y-4896670D01*
X4697330Y-4906000D01*
X4690670Y-4912670D01*
G01X4787000Y-4943000D02*
X5033000D01*
G01X4787000Y-4664000D02*
Y-5222000D01*
X5033000D01*
Y-4664000D01*
X4787000D01*
G01X5083330Y-4634000D02*
X5090000Y-4642000D01*
X5098000Y-4647330D01*
X5107330Y-4650000D01*
X5118000Y-4647330D01*
X5126000Y-4642000D01*
X5134000Y-4634000D01*
X5136670Y-4623330D01*
Y-4570000D01*
G01X5170670Y-4634000D02*
X5178670Y-4643330D01*
X5189330Y-4648670D01*
X5201330Y-4650000D01*
X5212000Y-4648670D01*
X5222670Y-4642000D01*
X5229330Y-4634000D01*
X5230670Y-4626000D01*
X5228000Y-4616670D01*
X5218670Y-4610000D01*
X5209330Y-4607330D01*
X5197330D01*
G01X5209330D02*
X5217330Y-4603330D01*
X5224000Y-4596670D01*
X5226670Y-4588670D01*
X5224000Y-4580670D01*
X5217330Y-4574000D01*
X5205330Y-4570000D01*
X5193330Y-4571330D01*
X5181330Y-4576670D01*
G01X5287330Y-4650000D02*
X5290000Y-4632670D01*
X5294000Y-4618000D01*
X5299330Y-4604670D01*
X5306000Y-4590000D01*
X5316670Y-4570000D01*
X5263330D01*
G01X5037000Y-4943000D02*
Y-4697000D01*
G01X4758000Y-4943000D02*
X5316000D01*
Y-4697000D01*
X4758000D01*
Y-4943000D01*
G01X4520000Y-4690000D02*
X4560000D01*
Y-4610000D01*
X4520000D01*
G01Y-4790000D02*
X4560000D01*
Y-4710000D01*
X4520000D01*
G01X4883330Y-3668330D02*
X4963330D01*
Y-3700330D01*
X4959330Y-3711000D01*
X4950000Y-3719000D01*
X4939330Y-3721670D01*
X4928660Y-3719000D01*
X4920660Y-3712330D01*
X4916660Y-3700330D01*
Y-3668330D01*
G01X4956660Y-3814330D02*
X4960660Y-3806330D01*
X4963330Y-3797000D01*
Y-3786330D01*
X4959330Y-3774330D01*
X4952660Y-3765000D01*
X4944660Y-3758330D01*
X4931330Y-3753000D01*
X4919330Y-3751670D01*
X4907330Y-3754330D01*
X4899330Y-3758330D01*
X4891330Y-3766330D01*
X4886000Y-3775670D01*
X4883330Y-3785000D01*
Y-3794330D01*
X4886000Y-3803670D01*
X4890000Y-3811670D01*
X4895330Y-3818330D01*
G01X4883330Y-3875000D02*
X4963330D01*
X4947330Y-3859000D01*
G01X4883330D02*
Y-3891000D01*
G01X4880660Y-3941000D02*
X4963330Y-3989000D01*
G01X4883330Y-4028330D02*
X4963330D01*
Y-4060330D01*
X4959330Y-4071000D01*
X4950000Y-4079000D01*
X4939330Y-4081670D01*
X4928660Y-4079000D01*
X4920660Y-4072330D01*
X4916660Y-4060330D01*
Y-4028330D01*
G01X4883330Y-4114330D02*
X4963330D01*
X4883330Y-4175670D01*
X4963330D01*
G01Y-4235000D02*
X4960660Y-4224330D01*
X4954000Y-4216330D01*
X4946000Y-4211000D01*
X4935330Y-4207000D01*
X4923330Y-4205670D01*
X4911330Y-4207000D01*
X4900660Y-4211000D01*
X4892660Y-4216330D01*
X4886000Y-4224330D01*
X4883330Y-4235000D01*
X4886000Y-4245670D01*
X4892660Y-4253670D01*
X4900660Y-4259000D01*
X4911330Y-4263000D01*
X4923330Y-4264330D01*
X4935330Y-4263000D01*
X4946000Y-4259000D01*
X4954000Y-4253670D01*
X4960660Y-4245670D01*
X4963330Y-4235000D01*
G01X4596000Y-3673330D02*
X4588000Y-3680000D01*
X4582670Y-3688000D01*
X4580000Y-3697330D01*
X4582670Y-3708000D01*
X4588000Y-3716000D01*
X4596000Y-3724000D01*
X4606670Y-3726670D01*
X4660000D01*
G01X4646670Y-3764670D02*
X4654670Y-3772670D01*
X4658670Y-3782000D01*
X4660000Y-3792670D01*
X4657330Y-3806000D01*
X4650670Y-3815330D01*
X4642670Y-3818000D01*
X4634660Y-3816670D01*
X4628000Y-3811330D01*
X4614670Y-3784670D01*
X4605330Y-3772670D01*
X4592000Y-3764670D01*
X4580000Y-3762000D01*
Y-3818000D01*
G01X4646670Y-3854670D02*
X4654670Y-3862670D01*
X4658670Y-3872000D01*
X4660000Y-3882670D01*
X4657330Y-3896000D01*
X4650670Y-3905330D01*
X4642670Y-3908000D01*
X4634660Y-3906670D01*
X4628000Y-3901330D01*
X4614670Y-3874670D01*
X4605330Y-3862670D01*
X4592000Y-3854670D01*
X4580000Y-3852000D01*
Y-3908000D01*
G01X4577000Y-4233000D02*
X4823000D01*
G01X4577000Y-3954000D02*
Y-4512000D01*
X4823000D01*
Y-3954000D01*
X4577000D01*
G01X5046000Y-3673330D02*
X5038000Y-3680000D01*
X5032670Y-3688000D01*
X5030000Y-3697330D01*
X5032670Y-3708000D01*
X5038000Y-3716000D01*
X5046000Y-3724000D01*
X5056670Y-3726670D01*
X5110000D01*
G01X5096670Y-3764670D02*
X5104670Y-3772670D01*
X5108670Y-3782000D01*
X5110000Y-3792670D01*
X5107330Y-3806000D01*
X5100670Y-3815330D01*
X5092670Y-3818000D01*
X5084660Y-3816670D01*
X5078000Y-3811330D01*
X5064670Y-3784670D01*
X5055330Y-3772670D01*
X5042000Y-3764670D01*
X5030000Y-3762000D01*
Y-3818000D01*
G01X5042000Y-3850670D02*
X5035330Y-3858670D01*
X5031330Y-3868000D01*
X5030000Y-3880000D01*
X5032670Y-3892000D01*
X5038000Y-3901330D01*
X5047330Y-3908000D01*
X5058000Y-3909330D01*
X5068670Y-3906670D01*
X5075330Y-3900000D01*
X5080670Y-3890670D01*
X5082000Y-3881330D01*
X5080670Y-3872000D01*
X5075330Y-3860000D01*
X5110000Y-3864000D01*
Y-3900000D01*
G01X5037000Y-4233000D02*
X5283000D01*
G01X5037000Y-3954000D02*
Y-4512000D01*
X5283000D01*
Y-3954000D01*
X5037000D01*
G01X5366000Y-4243330D02*
X5358000Y-4250000D01*
X5352670Y-4258000D01*
X5350000Y-4267330D01*
X5352670Y-4278000D01*
X5358000Y-4286000D01*
X5366000Y-4294000D01*
X5376670Y-4296670D01*
X5430000D01*
G01X5350000Y-4360000D02*
X5430000D01*
X5414000Y-4344000D01*
G01X5350000D02*
Y-4376000D01*
G01Y-4450000D02*
X5430000D01*
X5414000Y-4434000D01*
G01X5350000D02*
Y-4466000D01*
G01X5457130Y-1725450D02*
Y-4315450D01*
X5703130D01*
Y-1725450D01*
X5457130D01*
G01Y-4036450D02*
X5703130D01*
G01X4660000Y-2560000D02*
Y-2524000D01*
X4633330Y-2480000D01*
G01X4686670D02*
X4660000Y-2524000D01*
G01X4724670Y-2493330D02*
X4732670Y-2485330D01*
X4742000Y-2481330D01*
X4752670Y-2480000D01*
X4766000Y-2482670D01*
X4775330Y-2489330D01*
X4778000Y-2497330D01*
X4776670Y-2505340D01*
X4771330Y-2512000D01*
X4744670Y-2525330D01*
X4732670Y-2534670D01*
X4724670Y-2548000D01*
X4722000Y-2560000D01*
X4778000D01*
G01X4840000Y-3235000D02*
Y-2635000D01*
X5040000D01*
Y-3235000D01*
X4840000D01*
G01X5263330Y-2679330D02*
X5267330Y-2671330D01*
X5270000Y-2662000D01*
Y-2651330D01*
X5266000Y-2639330D01*
X5259330Y-2630000D01*
X5251330Y-2623330D01*
X5238000Y-2618000D01*
X5226000Y-2616670D01*
X5214000Y-2619330D01*
X5206000Y-2623330D01*
X5198000Y-2631330D01*
X5192670Y-2640670D01*
X5190000Y-2650000D01*
Y-2659330D01*
X5192670Y-2668670D01*
X5196670Y-2676670D01*
X5202000Y-2683330D01*
G01X5190000Y-2740000D02*
X5270000D01*
X5254000Y-2724000D01*
G01X5190000D02*
Y-2756000D01*
G01Y-2830000D02*
X5270000D01*
X5254000Y-2814000D01*
G01X5190000D02*
Y-2846000D01*
G01X5160000Y-2660000D02*
Y-2620000D01*
X5080000D01*
Y-2660000D01*
G01X5160000Y-2760000D02*
Y-2800000D01*
X5080000D01*
Y-2760000D01*
G01X4673330Y-2679330D02*
X4677330Y-2671330D01*
X4680000Y-2662000D01*
Y-2651330D01*
X4676000Y-2639330D01*
X4669330Y-2630000D01*
X4661330Y-2623330D01*
X4648000Y-2618000D01*
X4636000Y-2616670D01*
X4624000Y-2619330D01*
X4616000Y-2623330D01*
X4608000Y-2631330D01*
X4602670Y-2640670D01*
X4600000Y-2650000D01*
Y-2659330D01*
X4602670Y-2668670D01*
X4606670Y-2676670D01*
X4612000Y-2683330D01*
G01X4600000Y-2740000D02*
X4680000D01*
X4664000Y-2724000D01*
G01X4600000D02*
Y-2756000D01*
G01X4680000Y-2830000D02*
X4677330Y-2819330D01*
X4670670Y-2811330D01*
X4662670Y-2806000D01*
X4652000Y-2802000D01*
X4640000Y-2800670D01*
X4628000Y-2802000D01*
X4617330Y-2806000D01*
X4609330Y-2811330D01*
X4602670Y-2819330D01*
X4600000Y-2830000D01*
X4602670Y-2840670D01*
X4609330Y-2848670D01*
X4617330Y-2854000D01*
X4628000Y-2858000D01*
X4640000Y-2859330D01*
X4652000Y-2858000D01*
X4662670Y-2854000D01*
X4670670Y-2848670D01*
X4677330Y-2840670D01*
X4680000Y-2830000D01*
G01X4790000Y-2660000D02*
Y-2620000D01*
X4710000D01*
Y-2660000D01*
G01X4790000Y-2760000D02*
Y-2800000D01*
X4710000D01*
Y-2760000D01*
G01X4638330Y-2450000D02*
Y-2370000D01*
X4671670D01*
X4682330Y-2374000D01*
X4689000Y-2379330D01*
X4691670Y-2390000D01*
X4689000Y-2400670D01*
X4681000Y-2407330D01*
X4671670Y-2411330D01*
X4638330D01*
G01X4671670D02*
X4691670Y-2450000D01*
G01X4755000D02*
Y-2370000D01*
X4739000Y-2386000D01*
G01Y-2450000D02*
X4771000D01*
G01X4990000Y-2480000D02*
X5030000D01*
Y-2400000D01*
X4990000D01*
G01X4890000Y-2480000D02*
X4850000D01*
Y-2400000D01*
X4890000D01*
G01X4983330Y-1639330D02*
X4987330Y-1631330D01*
X4990000Y-1622000D01*
Y-1611330D01*
X4986000Y-1599330D01*
X4979330Y-1590000D01*
X4971330Y-1583330D01*
X4958000Y-1578000D01*
X4946000Y-1576670D01*
X4934000Y-1579330D01*
X4926000Y-1583330D01*
X4918000Y-1591330D01*
X4912670Y-1600670D01*
X4910000Y-1610000D01*
Y-1619330D01*
X4912670Y-1628670D01*
X4916670Y-1636670D01*
X4922000Y-1643330D01*
G01X4926000Y-1670670D02*
X4916670Y-1678670D01*
X4911330Y-1689330D01*
X4910000Y-1701330D01*
X4911330Y-1712000D01*
X4918000Y-1722670D01*
X4926000Y-1729330D01*
X4934000Y-1730670D01*
X4943330Y-1728000D01*
X4950000Y-1718670D01*
X4952670Y-1709330D01*
Y-1697330D01*
G01Y-1709330D02*
X4956670Y-1717330D01*
X4963330Y-1724000D01*
X4971330Y-1726670D01*
X4979330Y-1724000D01*
X4986000Y-1717330D01*
X4990000Y-1705330D01*
X4988670Y-1693330D01*
X4983330Y-1681330D01*
G01X4907330Y-1766000D02*
X4990000Y-1814000D01*
G01X4926000Y-1850670D02*
X4916670Y-1858670D01*
X4911330Y-1869330D01*
X4910000Y-1881330D01*
X4911330Y-1892000D01*
X4918000Y-1902670D01*
X4926000Y-1909330D01*
X4934000Y-1910670D01*
X4943330Y-1908000D01*
X4950000Y-1898670D01*
X4952670Y-1889330D01*
Y-1877330D01*
G01Y-1889330D02*
X4956670Y-1897330D01*
X4963330Y-1904000D01*
X4971330Y-1906670D01*
X4979330Y-1904000D01*
X4986000Y-1897330D01*
X4990000Y-1885330D01*
X4988670Y-1873330D01*
X4983330Y-1861330D01*
G01X4976670Y-1944670D02*
X4984670Y-1952670D01*
X4988670Y-1962000D01*
X4990000Y-1972670D01*
X4987330Y-1986000D01*
X4980670Y-1995330D01*
X4972670Y-1998000D01*
X4964660Y-1996670D01*
X4958000Y-1991330D01*
X4944670Y-1964670D01*
X4935330Y-1952670D01*
X4922000Y-1944670D01*
X4910000Y-1942000D01*
Y-1998000D01*
G01Y-2030670D02*
X4990000D01*
G01Y-2081330D02*
X4940660Y-2030670D01*
G01X4910000Y-2089330D02*
X4963330Y-2053330D01*
G01X4990000Y-2134000D02*
Y-2166000D01*
G01Y-2150000D02*
X4910000D01*
G01Y-2134000D02*
Y-2166000D01*
G01X4636000Y-1518330D02*
X4628000Y-1525000D01*
X4622670Y-1533000D01*
X4620000Y-1542330D01*
X4622670Y-1553000D01*
X4628000Y-1561000D01*
X4636000Y-1569000D01*
X4646670Y-1571670D01*
X4700000D01*
G01X4620000Y-1651000D02*
X4700000D01*
X4642670Y-1601670D01*
Y-1668330D01*
G01X4597000Y-2007000D02*
X4843000D01*
G01X4597000Y-1728000D02*
Y-2286000D01*
X4843000D01*
Y-1728000D01*
X4597000D01*
G01X5076000Y-1518330D02*
X5068000Y-1525000D01*
X5062670Y-1533000D01*
X5060000Y-1542330D01*
X5062670Y-1553000D01*
X5068000Y-1561000D01*
X5076000Y-1569000D01*
X5086670Y-1571670D01*
X5140000D01*
G01X5126670Y-1609670D02*
X5134670Y-1617670D01*
X5138670Y-1627000D01*
X5140000Y-1637670D01*
X5137330Y-1651000D01*
X5130670Y-1660330D01*
X5122670Y-1663000D01*
X5114660Y-1661670D01*
X5108000Y-1656330D01*
X5094670Y-1629670D01*
X5085330Y-1617670D01*
X5072000Y-1609670D01*
X5060000Y-1607000D01*
Y-1663000D01*
G01X5047000Y-2007000D02*
X5293000D01*
G01X5047000Y-1728000D02*
Y-2286000D01*
X5293000D01*
Y-1728000D01*
X5047000D01*
G01X4930000Y-960000D02*
Y-1060000D01*
G01X4530000Y-860000D02*
X4830000D01*
G01X4530000Y-1160000D02*
X4830000D01*
G01X4780000Y-1010000D02*
G03I-100000J0D01*
G01X4730000D02*
X4930000D01*
G01X5754330Y-6276670D02*
Y-6196670D01*
X5815670Y-6276670D01*
Y-6196670D01*
G01X5904330Y-6203340D02*
X5896330Y-6199340D01*
X5887000Y-6196670D01*
X5876330D01*
X5864330Y-6200670D01*
X5855000Y-6207340D01*
X5848330Y-6215340D01*
X5843000Y-6228670D01*
X5841670Y-6240670D01*
X5844330Y-6252670D01*
X5848330Y-6260670D01*
X5856330Y-6268670D01*
X5865670Y-6274000D01*
X5875000Y-6276670D01*
X5884330D01*
X5893670Y-6274000D01*
X5901670Y-6270000D01*
X5908330Y-6264670D01*
G01X5754330Y-6022670D02*
Y-5942670D01*
X5815670Y-6022670D01*
Y-5942670D01*
G01X5904330Y-5949340D02*
X5896330Y-5945340D01*
X5887000Y-5942670D01*
X5876330D01*
X5864330Y-5946670D01*
X5855000Y-5953340D01*
X5848330Y-5961340D01*
X5843000Y-5974670D01*
X5841670Y-5986670D01*
X5844330Y-5998670D01*
X5848330Y-6006670D01*
X5856330Y-6014670D01*
X5865670Y-6020000D01*
X5875000Y-6022670D01*
X5884330D01*
X5893670Y-6020000D01*
X5901670Y-6016000D01*
X5908330Y-6010670D01*
G01X5754330Y-5768670D02*
Y-5688670D01*
X5815670Y-5768670D01*
Y-5688670D01*
G01X5904330Y-5695340D02*
X5896330Y-5691340D01*
X5887000Y-5688670D01*
X5876330D01*
X5864330Y-5692670D01*
X5855000Y-5699340D01*
X5848330Y-5707340D01*
X5843000Y-5720670D01*
X5841670Y-5732670D01*
X5844330Y-5744670D01*
X5848330Y-5752670D01*
X5856330Y-5760670D01*
X5865670Y-5766000D01*
X5875000Y-5768670D01*
X5884330D01*
X5893670Y-5766000D01*
X5901670Y-5762000D01*
X5908330Y-5756670D01*
G01X6007400Y-5849900D02*
X5727400D01*
G01X6007400Y-6103900D02*
X5727400D01*
G01X6017400Y-6344900D02*
X5737400D01*
G01X6038350Y-6222450D02*
X6284350D01*
G01X6038350Y-4419450D02*
Y-6501450D01*
X6284350D01*
Y-4419450D01*
X6038350D01*
G01X5754330Y-5514670D02*
Y-5434670D01*
X5815670Y-5514670D01*
Y-5434670D01*
G01X5904330Y-5441340D02*
X5896330Y-5437340D01*
X5887000Y-5434670D01*
X5876330D01*
X5864330Y-5438670D01*
X5855000Y-5445340D01*
X5848330Y-5453340D01*
X5843000Y-5466670D01*
X5841670Y-5478670D01*
X5844330Y-5490670D01*
X5848330Y-5498670D01*
X5856330Y-5506670D01*
X5865670Y-5512000D01*
X5875000Y-5514670D01*
X5884330D01*
X5893670Y-5512000D01*
X5901670Y-5508000D01*
X5908330Y-5502670D01*
G01X5754330Y-5260670D02*
Y-5180670D01*
X5815670Y-5260670D01*
Y-5180670D01*
G01X5904330Y-5187340D02*
X5896330Y-5183340D01*
X5887000Y-5180670D01*
X5876330D01*
X5864330Y-5184670D01*
X5855000Y-5191340D01*
X5848330Y-5199340D01*
X5843000Y-5212670D01*
X5841670Y-5224670D01*
X5844330Y-5236670D01*
X5848330Y-5244670D01*
X5856330Y-5252670D01*
X5865670Y-5258000D01*
X5875000Y-5260670D01*
X5884330D01*
X5893670Y-5258000D01*
X5901670Y-5254000D01*
X5908330Y-5248670D01*
G01X5754330Y-5006670D02*
Y-4926670D01*
X5815670Y-5006670D01*
Y-4926670D01*
G01X5904330Y-4933340D02*
X5896330Y-4929340D01*
X5887000Y-4926670D01*
X5876330D01*
X5864330Y-4930670D01*
X5855000Y-4937340D01*
X5848330Y-4945340D01*
X5843000Y-4958670D01*
X5841670Y-4970670D01*
X5844330Y-4982670D01*
X5848330Y-4990670D01*
X5856330Y-4998670D01*
X5865670Y-5004000D01*
X5875000Y-5006670D01*
X5884330D01*
X5893670Y-5004000D01*
X5901670Y-5000000D01*
X5908330Y-4994670D01*
G01X5754330Y-4752670D02*
Y-4672670D01*
X5815670Y-4752670D01*
Y-4672670D01*
G01X5904330Y-4679340D02*
X5896330Y-4675340D01*
X5887000Y-4672670D01*
X5876330D01*
X5864330Y-4676670D01*
X5855000Y-4683340D01*
X5848330Y-4691340D01*
X5843000Y-4704670D01*
X5841670Y-4716670D01*
X5844330Y-4728670D01*
X5848330Y-4736670D01*
X5856330Y-4744670D01*
X5865670Y-4750000D01*
X5875000Y-4752670D01*
X5884330D01*
X5893670Y-4750000D01*
X5901670Y-4746000D01*
X5908330Y-4740670D01*
G01X6007400Y-4579900D02*
X5727400D01*
G01X6007400Y-4833900D02*
X5727400D01*
G01X6007400Y-5087900D02*
X5727400D01*
G01X6007400Y-5341900D02*
X5727400D01*
G01X6007400Y-5595900D02*
X5727400D01*
G01X5754330Y-4498670D02*
Y-4418670D01*
X5815670Y-4498670D01*
Y-4418670D01*
G01X5904330Y-4425340D02*
X5896330Y-4421340D01*
X5887000Y-4418670D01*
X5876330D01*
X5864330Y-4422670D01*
X5855000Y-4429340D01*
X5848330Y-4437340D01*
X5843000Y-4450670D01*
X5841670Y-4462670D01*
X5844330Y-4474670D01*
X5848330Y-4482670D01*
X5856330Y-4490670D01*
X5865670Y-4496000D01*
X5875000Y-4498670D01*
X5884330D01*
X5893670Y-4496000D01*
X5901670Y-4492000D01*
X5908330Y-4486670D01*
G01X5754330Y-4084670D02*
Y-4004670D01*
X5815670Y-4084670D01*
Y-4004670D01*
G01X5904330Y-4011340D02*
X5896330Y-4007340D01*
X5887000Y-4004670D01*
X5876330D01*
X5864330Y-4008670D01*
X5855000Y-4015340D01*
X5848330Y-4023340D01*
X5843000Y-4036670D01*
X5841670Y-4048670D01*
X5844330Y-4060670D01*
X5848330Y-4068670D01*
X5856330Y-4076670D01*
X5865670Y-4082000D01*
X5875000Y-4084670D01*
X5884330D01*
X5893670Y-4082000D01*
X5901670Y-4078000D01*
X5908330Y-4072670D01*
G01X5754330Y-3830670D02*
Y-3750670D01*
X5815670Y-3830670D01*
Y-3750670D01*
G01X5904330Y-3757340D02*
X5896330Y-3753340D01*
X5887000Y-3750670D01*
X5876330D01*
X5864330Y-3754670D01*
X5855000Y-3761340D01*
X5848330Y-3769340D01*
X5843000Y-3782670D01*
X5841670Y-3794670D01*
X5844330Y-3806670D01*
X5848330Y-3814670D01*
X5856330Y-3822670D01*
X5865670Y-3828000D01*
X5875000Y-3830670D01*
X5884330D01*
X5893670Y-3828000D01*
X5901670Y-3824000D01*
X5908330Y-3818670D01*
G01X5754330Y-3576670D02*
Y-3496670D01*
X5815670Y-3576670D01*
Y-3496670D01*
G01X5904330Y-3503340D02*
X5896330Y-3499340D01*
X5887000Y-3496670D01*
X5876330D01*
X5864330Y-3500670D01*
X5855000Y-3507340D01*
X5848330Y-3515340D01*
X5843000Y-3528670D01*
X5841670Y-3540670D01*
X5844330Y-3552670D01*
X5848330Y-3560670D01*
X5856330Y-3568670D01*
X5865670Y-3574000D01*
X5875000Y-3576670D01*
X5884330D01*
X5893670Y-3574000D01*
X5901670Y-3570000D01*
X5908330Y-3564670D01*
G01X6017400Y-3644900D02*
X5737400D01*
G01X6012400Y-3909900D02*
X5732400D01*
G01X6012400Y-4219900D02*
X5732400D01*
G01X5946000Y-4243330D02*
X5938000Y-4250000D01*
X5932670Y-4258000D01*
X5930000Y-4267330D01*
X5932670Y-4278000D01*
X5938000Y-4286000D01*
X5946000Y-4294000D01*
X5956670Y-4296670D01*
X6010000D01*
G01X5930000Y-4360000D02*
X6010000D01*
X5994000Y-4344000D01*
G01X5930000D02*
Y-4376000D01*
G01X5996670Y-4424670D02*
X6004670Y-4432670D01*
X6008670Y-4442000D01*
X6010000Y-4452670D01*
X6007330Y-4466000D01*
X6000670Y-4475330D01*
X5992670Y-4478000D01*
X5984660Y-4476670D01*
X5978000Y-4471330D01*
X5964670Y-4444670D01*
X5955330Y-4432670D01*
X5942000Y-4424670D01*
X5930000Y-4422000D01*
Y-4478000D01*
G01X6046710Y-1725450D02*
Y-4315450D01*
X6292710D01*
Y-1725450D01*
X6046710D01*
G01Y-4036450D02*
X6292710D01*
G01X5754330Y-3322670D02*
Y-3242670D01*
X5815670Y-3322670D01*
Y-3242670D01*
G01X5904330Y-3249340D02*
X5896330Y-3245340D01*
X5887000Y-3242670D01*
X5876330D01*
X5864330Y-3246670D01*
X5855000Y-3253340D01*
X5848330Y-3261340D01*
X5843000Y-3274670D01*
X5841670Y-3286670D01*
X5844330Y-3298670D01*
X5848330Y-3306670D01*
X5856330Y-3314670D01*
X5865670Y-3320000D01*
X5875000Y-3322670D01*
X5884330D01*
X5893670Y-3320000D01*
X5901670Y-3316000D01*
X5908330Y-3310670D01*
G01X5754330Y-3068670D02*
Y-2988670D01*
X5815670Y-3068670D01*
Y-2988670D01*
G01X5904330Y-2995340D02*
X5896330Y-2991340D01*
X5887000Y-2988670D01*
X5876330D01*
X5864330Y-2992670D01*
X5855000Y-2999340D01*
X5848330Y-3007340D01*
X5843000Y-3020670D01*
X5841670Y-3032670D01*
X5844330Y-3044670D01*
X5848330Y-3052670D01*
X5856330Y-3060670D01*
X5865670Y-3066000D01*
X5875000Y-3068670D01*
X5884330D01*
X5893670Y-3066000D01*
X5901670Y-3062000D01*
X5908330Y-3056670D01*
G01X5758330Y-2814670D02*
Y-2734670D01*
X5790330D01*
X5801000Y-2738670D01*
X5809000Y-2748000D01*
X5811670Y-2758670D01*
X5809000Y-2769340D01*
X5802330Y-2777340D01*
X5790330Y-2781340D01*
X5758330D01*
G01X5904330Y-2741340D02*
X5896330Y-2737340D01*
X5887000Y-2734670D01*
X5876330D01*
X5864330Y-2738670D01*
X5855000Y-2745340D01*
X5848330Y-2753340D01*
X5843000Y-2766670D01*
X5841670Y-2778670D01*
X5844330Y-2790670D01*
X5848330Y-2798670D01*
X5856330Y-2806670D01*
X5865670Y-2812000D01*
X5875000Y-2814670D01*
X5884330D01*
X5893670Y-2812000D01*
X5901670Y-2808000D01*
X5908330Y-2802670D01*
G01X5935670D02*
X5943670Y-2809340D01*
X5953000Y-2813340D01*
X5965000Y-2814670D01*
X5977000Y-2812000D01*
X5986330Y-2806670D01*
X5993000Y-2797340D01*
X5994330Y-2786670D01*
X5991670Y-2776000D01*
X5985000Y-2769340D01*
X5975670Y-2764000D01*
X5966330Y-2762670D01*
X5957000Y-2764000D01*
X5945000Y-2769340D01*
X5949000Y-2734670D01*
X5985000D01*
G01X5793000Y-2520670D02*
X5819670D01*
Y-2544670D01*
X5811670Y-2552670D01*
X5802330Y-2558000D01*
X5789000Y-2560670D01*
X5775670Y-2558000D01*
X5766330Y-2552670D01*
X5758330Y-2544670D01*
X5753000Y-2535340D01*
X5750330Y-2524670D01*
Y-2515340D01*
X5753000Y-2507340D01*
X5758330Y-2498000D01*
X5766330Y-2490000D01*
X5774330Y-2484670D01*
X5785000Y-2480670D01*
X5794330D01*
X5805000Y-2483340D01*
X5813000Y-2488670D01*
G01X5844330Y-2560670D02*
Y-2480670D01*
X5905670Y-2560670D01*
Y-2480670D01*
G01X5935670Y-2560670D02*
Y-2480670D01*
X5962330D01*
X5973000Y-2484670D01*
X5981000Y-2490000D01*
X5987670Y-2498000D01*
X5993000Y-2507340D01*
X5994330Y-2520670D01*
X5993000Y-2534000D01*
X5987670Y-2543340D01*
X5981000Y-2551340D01*
X5973000Y-2556670D01*
X5962330Y-2560670D01*
X5935670D01*
G01X6017400Y-2628900D02*
X5737400D01*
G01X6017400Y-2882900D02*
X5737400D01*
G01X6017400Y-3136900D02*
X5737400D01*
G01X6017400Y-3390900D02*
X5737400D01*
G01X5754330Y-2306670D02*
Y-2226670D01*
X5815670Y-2306670D01*
Y-2226670D01*
G01X5904330Y-2233340D02*
X5896330Y-2229340D01*
X5887000Y-2226670D01*
X5876330D01*
X5864330Y-2230670D01*
X5855000Y-2237340D01*
X5848330Y-2245340D01*
X5843000Y-2258670D01*
X5841670Y-2270670D01*
X5844330Y-2282670D01*
X5848330Y-2290670D01*
X5856330Y-2298670D01*
X5865670Y-2304000D01*
X5875000Y-2306670D01*
X5884330D01*
X5893670Y-2304000D01*
X5901670Y-2300000D01*
X5908330Y-2294670D01*
G01X5758330Y-2052670D02*
Y-1972670D01*
X5790330D01*
X5801000Y-1976670D01*
X5809000Y-1986000D01*
X5811670Y-1996670D01*
X5809000Y-2007340D01*
X5802330Y-2015340D01*
X5790330Y-2019340D01*
X5758330D01*
G01X5904330Y-1979340D02*
X5896330Y-1975340D01*
X5887000Y-1972670D01*
X5876330D01*
X5864330Y-1976670D01*
X5855000Y-1983340D01*
X5848330Y-1991340D01*
X5843000Y-2004670D01*
X5841670Y-2016670D01*
X5844330Y-2028670D01*
X5848330Y-2036670D01*
X5856330Y-2044670D01*
X5865670Y-2050000D01*
X5875000Y-2052670D01*
X5884330D01*
X5893670Y-2050000D01*
X5901670Y-2046000D01*
X5908330Y-2040670D01*
G01X5939670Y-2019340D02*
X5949000Y-2010000D01*
X5957000Y-2004670D01*
X5967670Y-2002000D01*
X5977000Y-2004670D01*
X5983670Y-2010000D01*
X5989000Y-2018000D01*
X5990330Y-2027340D01*
X5989000Y-2035340D01*
X5983670Y-2043340D01*
X5975670Y-2050000D01*
X5966330Y-2052670D01*
X5955670Y-2050000D01*
X5946330Y-2042010D01*
X5941000Y-2030000D01*
X5939670Y-2016670D01*
X5942330Y-1999340D01*
X5946330Y-1990000D01*
X5953000Y-1980670D01*
X5962330Y-1974000D01*
X5971670Y-1972670D01*
X5981000Y-1975340D01*
X5987670Y-1982000D01*
G01X5758330Y-1798670D02*
Y-1718670D01*
X5790330D01*
X5801000Y-1722670D01*
X5809000Y-1732000D01*
X5811670Y-1742670D01*
X5809000Y-1753340D01*
X5802330Y-1761340D01*
X5790330Y-1765340D01*
X5758330D01*
G01X5904330Y-1725340D02*
X5896330Y-1721340D01*
X5887000Y-1718670D01*
X5876330D01*
X5864330Y-1722670D01*
X5855000Y-1729340D01*
X5848330Y-1737340D01*
X5843000Y-1750670D01*
X5841670Y-1762670D01*
X5844330Y-1774670D01*
X5848330Y-1782670D01*
X5856330Y-1790670D01*
X5865670Y-1796000D01*
X5875000Y-1798670D01*
X5884330D01*
X5893670Y-1796000D01*
X5901670Y-1792000D01*
X5908330Y-1786670D01*
G01X5962330Y-1798670D02*
X5965000Y-1781340D01*
X5969000Y-1766670D01*
X5974330Y-1753340D01*
X5981000Y-1738670D01*
X5991670Y-1718670D01*
X5938330D01*
G01X6017400Y-1866900D02*
X5737400D01*
G01X6017400Y-2120900D02*
X5737400D01*
G01X6017400Y-2374900D02*
X5737400D01*
G01X6226000Y-1528330D02*
X6218000Y-1535000D01*
X6212670Y-1543000D01*
X6210000Y-1552330D01*
X6212670Y-1563000D01*
X6218000Y-1571000D01*
X6226000Y-1579000D01*
X6236670Y-1581670D01*
X6290000D01*
G01X6219330Y-1622330D02*
X6212670Y-1631670D01*
X6210000Y-1642330D01*
X6212670Y-1653000D01*
X6220660Y-1662330D01*
X6232670Y-1669000D01*
X6244670Y-1671670D01*
X6259330D01*
X6271330Y-1669000D01*
X6282000Y-1662330D01*
X6287330Y-1654330D01*
X6290000Y-1645000D01*
X6287330Y-1634330D01*
X6282000Y-1626330D01*
X6274000Y-1621000D01*
X6263330Y-1618330D01*
X6254000Y-1621000D01*
X6244670Y-1627670D01*
X6239330Y-1635670D01*
X6238000Y-1645000D01*
X6240660Y-1655670D01*
X6247330Y-1663670D01*
X6259330Y-1671670D01*
G01X6086000Y-1528330D02*
X6078000Y-1535000D01*
X6072670Y-1543000D01*
X6070000Y-1552330D01*
X6072670Y-1563000D01*
X6078000Y-1571000D01*
X6086000Y-1579000D01*
X6096670Y-1581670D01*
X6150000D01*
G01X6070000Y-1645000D02*
X6071330Y-1654330D01*
X6075330Y-1665000D01*
X6082000Y-1671670D01*
X6091330Y-1674330D01*
X6100660Y-1671670D01*
X6108670Y-1663670D01*
X6112670Y-1651670D01*
Y-1638330D01*
X6115330Y-1630330D01*
X6122000Y-1623670D01*
X6131330Y-1621000D01*
X6140670Y-1625000D01*
X6147330Y-1634330D01*
X6150000Y-1645000D01*
X6147330Y-1655670D01*
X6140670Y-1665000D01*
X6131330Y-1669000D01*
X6122000Y-1666330D01*
X6115330Y-1659670D01*
X6112670Y-1651670D01*
Y-1638330D01*
X6108670Y-1626330D01*
X6100660Y-1618330D01*
X6091330Y-1615670D01*
X6082000Y-1618330D01*
X6075330Y-1625000D01*
X6071330Y-1635670D01*
X6070000Y-1645000D01*
G01X254000Y-6604000D02*
X100000D01*
G01D02*
G02X0Y-6504000I0J100000D01*
G01D02*
Y-304800D01*
G01X254000Y-6604000D02*
X100000D01*
G01D02*
G02X0Y-6504000I0J100000D01*
G01D02*
Y-304800D01*
G01X254000Y-6604000D02*
X100000D01*
G01D02*
G02X0Y-6504000I0J100000D01*
G01D02*
Y-304800D01*
G01X254000Y-6604000D02*
X100000D01*
G01D02*
G02X0Y-6504000I0J100000D01*
G01D02*
Y-304800D01*
G01X254000Y-6604000D02*
X100000D01*
G01D02*
G02X0Y-6504000I0J100000D01*
G01D02*
Y-304800D01*
G01X254000Y-6604000D02*
X100000D01*
G01D02*
G02X0Y-6504000I0J100000D01*
G01D02*
Y-304800D01*
G01X254000Y-6604000D02*
X100000D01*
G01D02*
G02X0Y-6504000I0J100000D01*
G01D02*
Y-304800D01*
G01X254000Y-6604000D02*
X100000D01*
G01D02*
G02X0Y-6504000I0J100000D01*
G01D02*
Y-304800D01*
G01X254000Y-6604000D02*
X100000D01*
G01D02*
G02X0Y-6504000I0J100000D01*
G01D02*
Y-304800D01*
G01X254000Y-6604000D02*
X100000D01*
G01D02*
G02X0Y-6504000I0J100000D01*
G01D02*
Y-304800D01*
G01X254000Y-6604000D02*
X100000D01*
G01D02*
G02X0Y-6504000I0J100000D01*
G01D02*
Y-304800D01*
G01X6334000D02*
G03X6029200Y0I-304800J0D01*
G01X304800D01*
G03X0Y-304800I0J-304800D01*
G01X1262000Y-6764000D02*
G03Y-6444000I0J160000D01*
G03Y-6764000I0J-160000D01*
G01X254000Y-6604000D02*
X754000D01*
X1008000Y-6858000D01*
X4284600D01*
X4538600Y-6604000D01*
G01X4056000Y-6764000D02*
G03Y-6444000I0J160000D01*
G03Y-6764000I0J-160000D01*
G01X4538600Y-6604000D02*
X4284600Y-6858000D01*
G01X4538600Y-6604000D02*
X4284600Y-6858000D01*
G01X4538600Y-6604000D02*
X4284600Y-6858000D01*
G01X4538600Y-6604000D02*
X4284600Y-6858000D01*
G01X4538600Y-6604000D02*
X4284600Y-6858000D01*
G01X4538600Y-6604000D02*
X4284600Y-6858000D01*
G01X4538600Y-6604000D02*
X4284600Y-6858000D01*
G01X4538600Y-6604000D02*
X4284600Y-6858000D01*
G01X4538600Y-6604000D02*
X4284600Y-6858000D01*
G01X4538600Y-6604000D02*
X4284600Y-6858000D01*
G01X4538600Y-6604000D02*
X4284600Y-6858000D01*
G01X6334000Y-6451600D02*
X6181600Y-6604000D01*
X4538600D01*
G01X5580000Y-1684000D02*
G03Y-1364000I0J160000D01*
G03Y-1684000I0J-160000D01*
G01X6334000Y-304800D02*
Y-6451600D01*
G01Y-304800D02*
Y-6451600D01*
G01Y-304800D02*
Y-6451600D01*
G01Y-304800D02*
Y-6451600D01*
G01Y-304800D02*
Y-6451600D01*
G01Y-304800D02*
Y-6451600D01*
G01Y-304800D02*
Y-6451600D01*
G01Y-304800D02*
Y-6451600D01*
G01Y-304800D02*
Y-6451600D01*
G01Y-304800D02*
Y-6451600D01*
G01Y-304800D02*
Y-6451600D01*
G54D11*
G01X205000Y-1755000D02*
Y-1655000D01*
G01X260000Y-1710000D02*
Y-1755000D01*
X210000Y-1705000D01*
X260000Y-1655000D01*
Y-1710000D01*
G01X295000Y-1705000D02*
X155000D01*
G01X205000Y-1925000D02*
Y-1825000D01*
G01X260000Y-1880000D02*
Y-1925000D01*
X210000Y-1875000D01*
X260000Y-1825000D01*
Y-1880000D01*
G01X295000Y-1875000D02*
X155000D01*
G01X205000Y-2075000D02*
Y-1975000D01*
G01X260000Y-2030000D02*
Y-2075000D01*
X210000Y-2025000D01*
X260000Y-1975000D01*
Y-2030000D01*
G01X295000Y-2025000D02*
X155000D01*
G01X205000Y-2235000D02*
Y-2135000D01*
G01X260000Y-2190000D02*
Y-2235000D01*
X210000Y-2185000D01*
X260000Y-2135000D01*
Y-2190000D01*
G01X295000Y-2185000D02*
X155000D01*
G01X306090Y-6499550D02*
X406090Y-6472850D01*
G01X306090Y-6499550D02*
X406090Y-6492850D01*
G01X306090Y-6499550D02*
X406090Y-6512850D01*
G01X306090Y-6499550D02*
X406090Y-6466250D01*
Y-6532850D01*
X306090Y-6499550D01*
G01X878870D02*
X978870Y-6472850D01*
G01X878870Y-6499550D02*
X978870Y-6492850D01*
G01X878870Y-6499550D02*
X978870Y-6512850D01*
G01X878870Y-6499550D02*
X978870Y-6466250D01*
Y-6532850D01*
X878870Y-6499550D01*
G01X877130Y-2794450D02*
X977130Y-2767750D01*
G01X877130Y-2794450D02*
X977130Y-2787750D01*
G01X877130Y-2794450D02*
X977130Y-2807750D01*
G01X877130Y-2794450D02*
X977130Y-2761150D01*
Y-2827750D01*
X877130Y-2794450D01*
G01X240000Y-1725000D02*
Y-1690000D01*
G01X250000Y-1730000D02*
Y-1680000D01*
G01X240000Y-1895000D02*
Y-1860000D01*
G01X250000Y-1900000D02*
Y-1850000D01*
G01X240000Y-2045000D02*
Y-2010000D01*
G01X250000Y-2050000D02*
Y-2000000D01*
G01X240000Y-2205000D02*
Y-2170000D01*
G01X250000Y-2210000D02*
Y-2160000D01*
G01X1131130Y-1558450D02*
X1231130Y-1531750D01*
G01X1131130Y-1558450D02*
X1231130Y-1551750D01*
G01X1131130Y-1558450D02*
X1231130Y-1571750D01*
G01X1131130Y-1558450D02*
X1231130Y-1525150D01*
Y-1591750D01*
X1131130Y-1558450D01*
G01X913000Y-930000D02*
X1013000Y-903300D01*
G01X913000Y-930000D02*
X1013000Y-923300D01*
G01X913000Y-930000D02*
X1013000Y-943300D01*
G01X913000Y-930000D02*
X1013000Y-896700D01*
Y-963300D01*
X913000Y-930000D01*
G01X2054000Y-6693000D02*
X2080700Y-6793000D01*
G01X2054000Y-6693000D02*
X2060700Y-6793000D01*
G01X2054000Y-6693000D02*
X2040700Y-6793000D01*
G01X2054000Y-6693000D02*
X2087300Y-6793000D01*
X2020700D01*
X2054000Y-6693000D01*
G01X2192120Y-5762180D02*
X2165420Y-5662180D01*
G01X2192120Y-5762180D02*
X2185420Y-5662180D01*
G01X2192120Y-5762180D02*
X2205420Y-5662180D01*
G01X2192120Y-5762180D02*
X2158820Y-5662180D01*
X2225420D01*
X2192120Y-5762180D01*
G01X2054000Y-6263000D02*
X2080700Y-6363000D01*
G01X2054000Y-6263000D02*
X2060700Y-6363000D01*
G01X2054000Y-6263000D02*
X2040700Y-6363000D01*
G01X2054000Y-6263000D02*
X2087300Y-6363000D01*
X2020700D01*
X2054000Y-6263000D01*
G01X1473000Y-2090000D02*
X1573000Y-2063300D01*
G01X1473000Y-2090000D02*
X1573000Y-2083300D01*
G01X1473000Y-2090000D02*
X1573000Y-2103300D01*
G01X1473000Y-2090000D02*
X1573000Y-2056700D01*
Y-2123300D01*
X1473000Y-2090000D01*
G01X1783000D02*
X1883000Y-2063300D01*
G01X1783000Y-2090000D02*
X1883000Y-2083300D01*
G01X1783000Y-2090000D02*
X1883000Y-2103300D01*
G01X1783000Y-2090000D02*
X1883000Y-2056700D01*
Y-2123300D01*
X1783000Y-2090000D01*
G01X1554600Y-1827890D02*
X1329600D01*
Y-1762890D01*
X1554600D01*
Y-1827890D01*
G01X1333000Y-930000D02*
X1433000Y-903300D01*
G01X1333000Y-930000D02*
X1433000Y-923300D01*
G01X1333000Y-930000D02*
X1433000Y-943300D01*
G01X1333000Y-930000D02*
X1433000Y-896700D01*
Y-963300D01*
X1333000Y-930000D01*
G01X2780000Y-6393000D02*
X2880000Y-6366300D01*
G01X2780000Y-6393000D02*
X2880000Y-6386300D01*
G01X2780000Y-6393000D02*
X2880000Y-6406300D01*
G01X2780000Y-6393000D02*
X2880000Y-6359700D01*
Y-6426300D01*
X2780000Y-6393000D01*
G01X2606500Y-5763380D02*
X2579800Y-5663380D01*
G01X2606500Y-5763380D02*
X2599800Y-5663380D01*
G01X2606500Y-5763380D02*
X2619800Y-5663380D01*
G01X2606500Y-5763380D02*
X2573200Y-5663380D01*
X2639800D01*
X2606500Y-5763380D01*
G01X4117000Y-4510000D02*
X4017000Y-4536700D01*
G01X4117000Y-4510000D02*
X4017000Y-4516700D01*
G01X4117000Y-4510000D02*
X4017000Y-4496700D01*
G01X4117000Y-4510000D02*
X4017000Y-4543300D01*
Y-4476700D01*
X4117000Y-4510000D01*
G01X5461130Y-6419450D02*
X5361130Y-6446150D01*
G01X5461130Y-6419450D02*
X5361130Y-6426150D01*
G01X5461130Y-6419450D02*
X5361130Y-6406150D01*
G01X5461130Y-6419450D02*
X5361130Y-6452750D01*
Y-6386150D01*
X5461130Y-6419450D01*
G01X4787000Y-5070000D02*
X4687000Y-5096700D01*
G01X4787000Y-5070000D02*
X4687000Y-5076700D01*
G01X4787000Y-5070000D02*
X4687000Y-5056700D01*
G01X4787000Y-5070000D02*
X4687000Y-5103300D01*
Y-5036700D01*
X4787000Y-5070000D01*
G01X5164000Y-4943000D02*
X5190700Y-5043000D01*
G01X5164000Y-4943000D02*
X5170700Y-5043000D01*
G01X5164000Y-4943000D02*
X5150700Y-5043000D01*
G01X5164000Y-4943000D02*
X5197300Y-5043000D01*
X5130700D01*
X5164000Y-4943000D01*
G01X4577000Y-4510000D02*
X4477000Y-4536700D01*
G01X4577000Y-4510000D02*
X4477000Y-4516700D01*
G01X4577000Y-4510000D02*
X4477000Y-4496700D01*
G01X4577000Y-4510000D02*
X4477000Y-4543300D01*
Y-4476700D01*
X4577000Y-4510000D01*
G01X5037000D02*
X4937000Y-4536700D01*
G01X5037000Y-4510000D02*
X4937000Y-4516700D01*
G01X5037000Y-4510000D02*
X4937000Y-4496700D01*
G01X5037000Y-4510000D02*
X4937000Y-4543300D01*
Y-4476700D01*
X5037000Y-4510000D01*
G01X5457130Y-4143450D02*
X5357130Y-4176750D01*
Y-4110150D01*
X5457130Y-4143450D01*
G01D02*
X5357130Y-4130150D01*
G01X5457130Y-4143450D02*
X5357130Y-4150150D01*
G01X5457130Y-4143450D02*
X5357130Y-4170150D01*
G01X4597000Y-2284000D02*
X4497000Y-2310700D01*
G01X4597000Y-2284000D02*
X4497000Y-2290700D01*
G01X4597000Y-2284000D02*
X4497000Y-2270700D01*
G01X4597000Y-2284000D02*
X4497000Y-2317300D01*
Y-2250700D01*
X4597000Y-2284000D01*
G01X5047000D02*
X4947000Y-2310700D01*
G01X5047000Y-2284000D02*
X4947000Y-2290700D01*
G01X5047000Y-2284000D02*
X4947000Y-2270700D01*
G01X5047000Y-2284000D02*
X4947000Y-2317300D01*
Y-2250700D01*
X5047000Y-2284000D01*
G01X6038350Y-6419450D02*
X5938350Y-6446150D01*
G01X6038350Y-6419450D02*
X5938350Y-6426150D01*
G01X6038350Y-6419450D02*
X5938350Y-6406150D01*
G01X6038350Y-6419450D02*
X5938350Y-6452750D01*
Y-6386150D01*
X6038350Y-6419450D01*
G01X6046710Y-4143450D02*
X5946710Y-4176750D01*
Y-4110150D01*
X6046710Y-4143450D01*
G01D02*
X5946710Y-4130150D01*
G01X6046710Y-4143450D02*
X5946710Y-4150150D01*
G01X6046710Y-4143450D02*
X5946710Y-4170150D01*
G54D12*
G01X1592100Y-1548390D02*
G02I-12500J0D01*
G01X2693700Y-1050620D02*
G02I-12500J0D01*
G54D13*
G01X5186800Y-6457600D02*
Y-6610000D01*
X5059800D01*
Y-6813200D01*
X4450200D01*
Y-6610000D01*
X4323200D01*
Y-6533800D01*
G01Y-6356000D02*
Y-6178200D01*
G01Y-6000400D02*
Y-5555900D01*
G01X5059800Y-6610000D02*
X4450200D01*
G01X4323200Y-5403500D02*
Y-5390800D01*
X5186800D01*
Y-5555900D01*
G01Y-5746400D02*
Y-6267100D01*
M02*
