G04 ================== begin FILE IDENTIFICATION RECORD ==================*
G04 Layout Name:  C1T139A30_V1_2.brd*
G04 Film Name:    TOP*
G04 File Format:  Gerber RS274X*
G04 File Origin:  Cadence Allegro 16.3-p003*
G04 Origin Date:  Fri Oct 19 14:41:28 2018*
G04 *
G04 Layer:  VIA CLASS/TOP*
G04 Layer:  PIN/TOP*
G04 Layer:  ETCH/TOP*
G04 Layer:  BOARD GEOMETRY/OUTLINE*
G04 *
G04 Offset:    (0.0000 0.0000)*
G04 Mirror:    No*
G04 Mode:      Positive*
G04 Rotation:  0*
G04 FullContactRelief:  No*
G04 UndefLineWidth:     0.1000*
G04 ================== end FILE IDENTIFICATION RECORD ====================*
%FSLAX35Y35*MOMM*%
%IR0*IPPOS*OFA0.00000B0.00000*MIA0B0*SFA1.00000B1.00000*%
%ADD20R,.5X2.*%
%ADD28R,.5X4.*%
%ADD19R,.6X1.25*%
%ADD21C,.2*%
%ADD12C,.5*%
%ADD31C,.8*%
%ADD14R,.5X.5*%
%ADD13R,.8X.8*%
%ADD23R,1.2X1.*%
%AMMACRO17*
21,1,.3,1.1,0.0,0.0,45.*
1,1,1.1,.106066,.106066*
1,1,1.1,-.106066,-.106066*%
%ADD17MACRO17*%
%ADD29R,2.X4.*%
%ADD27R,1.4X1.3*%
%ADD30R,3.X1.5*%
%ADD22R,3.X1.15*%
%ADD15R,2.5X2.2*%
%ADD24R,4.2X4.2*%
%ADD32C,1.*%
%ADD25O,.26X.6*%
%ADD16C,1.1*%
%ADD26O,.6X.26*%
%ADD10C,1.7*%
%ADD18C,1.65*%
%ADD11R,1.7X1.7*%
%ADD33C,.3*%
%ADD34C,.4*%
%ADD35C,.6*%
%ADD36C,.25*%
%ADD37C,.1*%
%ADD38R,3.7004X2.2004*%
%ADD39C,2.1064*%
%ADD40R,1.3004X1.9504*%
G75*
%LPD*%
G75*
G36*
G01X1020430Y-6827990D02*
X766430Y-6573990D01*
X100000D01*
G02X30010Y-6504000I0J69990D01*
G01Y-6490770D01*
X317230D01*
Y-6395470D01*
X613810D01*
Y-6490770D01*
X894450D01*
Y-6273800D01*
X914150Y-6254100D01*
Y-6059520D01*
X1075840Y-5897820D01*
X1363040Y-6185020D01*
X1517100D01*
G03X1697770Y-6271940I132902J45019D01*
G02X1724980Y-6291030I6911J-19087D01*
G01Y-6431350D01*
X1712270Y-6444060D01*
X1705930Y-6441310D01*
G03X1731580Y-6684170I-55930J-128692D01*
G02X1763680Y-6700690I11801J-16517D01*
G01Y-6710320D01*
X2044320D01*
Y-6493350D01*
X2064020Y-6473650D01*
Y-5970350D01*
X2031010Y-5937350D01*
G02X2038190Y-5920020I7179J7178D01*
G01X2040020D01*
Y-5799980D01*
X1894950D01*
G03X1876760Y-5777680I-77953J-45017D01*
G02Y-5747320I13481J15180D01*
G03X1903700Y-5655780I-59760J67321D01*
G02X1923250Y-5630020I19552J5460D01*
G01X2040020D01*
Y-5475140D01*
X1854860Y-5289980D01*
X1234130D01*
G03X1189530Y-5309830I0J-60030D01*
G02X1154150Y-5296250I-15081J13587D01*
G01Y-5256520D01*
X1215020Y-5195650D01*
Y-5169690D01*
G03X1230020Y-5130150I-45019J39694D01*
G01X1230040Y-5120020D01*
X1467240D01*
X1534740Y-5187520D01*
X2257280D01*
X2312280Y-5242520D01*
X2500310D01*
G03X2600020Y-5197650I39691J45021D01*
G01X2600040Y-5187520D01*
X3375260D01*
X3482070Y-5080710D01*
Y-4980960D01*
X3805020Y-4658010D01*
Y-4293650D01*
X3828540Y-4270130D01*
X3832490Y-4269970D01*
G03X3874600Y-4250170I-2488J59970D01*
G02X3909980Y-4263750I15081J-13587D01*
G01Y-4414200D01*
X3842980Y-4481200D01*
Y-4943350D01*
X3556350Y-5229980D01*
X2634780D01*
X2394980Y-5469780D01*
Y-5734350D01*
X2346650Y-5782680D01*
X2129680D01*
Y-6063320D01*
X2139310D01*
G02X2155830Y-6095420I3J-20299D01*
G03X2398690Y-6121070I114168J-81580D01*
G01X2395940Y-6114730D01*
X2405650Y-6105020D01*
X2547920D01*
G02X2567140Y-6131850I0J-20299D01*
G03X2832900Y-6222020I132858J-45149D01*
G01X2851650D01*
X2898650Y-6175020D01*
X2974980D01*
Y-6335020D01*
X3187100D01*
G02X3207400Y-6355320I-1J-20301D01*
G03X3213340Y-6369670I20298J-2D01*
G01X3245000Y-6401330D01*
X3174980Y-6471350D01*
Y-6479980D01*
X3059980D01*
Y-6536350D01*
X3041350Y-6554980D01*
X2833650D01*
X2800020Y-6521350D01*
Y-6411350D01*
X2743650Y-6354980D01*
X2471350D01*
X2432140Y-6394190D01*
G03X2451580Y-6634170I-62140J-125811D01*
G02X2483680Y-6650690I11801J-16517D01*
G01Y-6660320D01*
X2700650D01*
X2725350Y-6685020D01*
X3095220D01*
X3143220Y-6637020D01*
X3286650D01*
X3323650Y-6600020D01*
X3480020D01*
Y-6479980D01*
X3402700D01*
G02X3388340Y-6445330I-3J20299D01*
G01X3445020Y-6388650D01*
Y-6335020D01*
X3775020D01*
Y-6149980D01*
X3602700D01*
G02X3588340Y-6115330I-3J20299D01*
G01X3635020Y-6068650D01*
Y-6030020D01*
X3775020D01*
Y-5844980D01*
X3404980D01*
Y-6030020D01*
X3497300D01*
G02X3511660Y-6064670I3J-20299D01*
G01X3491350Y-6084980D01*
X3207700D01*
G02X3193340Y-6050330I-3J20299D01*
G01X3205020Y-6038650D01*
Y-6030020D01*
X3345020D01*
Y-5844980D01*
X2974980D01*
Y-6014980D01*
X2840320D01*
Y-5782680D01*
X2623350D01*
X2525020Y-5684350D01*
Y-5523650D01*
X2688650Y-5360020D01*
X3610220D01*
X3973020Y-4997220D01*
Y-4930020D01*
X4044980D01*
Y-5065020D01*
X4131350D01*
X4214890Y-5148560D01*
X4215020Y-5152560D01*
G03X4356900Y-5183950I74978J2557D01*
G02X4393100I18100J-9188D01*
G03X4534780Y-5143950I66903J33946D01*
G01X4534400Y-5139270D01*
X4558650Y-5115020D01*
X4769680D01*
Y-5210320D01*
X5050320D01*
Y-4960320D01*
X5118980D01*
Y-5267350D01*
X4951350Y-5434980D01*
X4701350D01*
X4464980Y-5671350D01*
Y-5956350D01*
X4441350Y-5979980D01*
X4134980D01*
Y-6200020D01*
X4505020D01*
Y-6043650D01*
X4555020Y-5993650D01*
Y-5708650D01*
X4738650Y-5525020D01*
X4988650D01*
X5209020Y-5304650D01*
Y-4960320D01*
X5304320D01*
Y-4679680D01*
X5023680D01*
Y-4685310D01*
G02X4991580Y-4701830I-20299J-3D01*
G03X4824180Y-4704980I-81581J-114169D01*
G01X4580020D01*
Y-4689980D01*
X4480020D01*
Y-4653650D01*
X4528630Y-4605040D01*
X4978630D01*
X5083350Y-4500320D01*
X5300320D01*
Y-4219680D01*
X5290690D01*
G02X5274170Y-4187580I-3J20299D01*
G03X5104070Y-3977310I-114169J81579D01*
G01X5097730Y-3980060D01*
X4882650Y-3764980D01*
X4568650D01*
X4410020Y-3606350D01*
Y-2259780D01*
X3940020Y-1789780D01*
Y-1709750D01*
X3959370D01*
X3960270Y-1718900D01*
G03X3974980Y-1752690I59728J5905D01*
G01Y-1788650D01*
X4434980Y-2248650D01*
Y-3521650D01*
X4439730Y-3526400D01*
X4436420Y-3532950D01*
G03X4430270Y-3554100I53580J-27049D01*
G01X4429690Y-3560000D01*
X4430270Y-3565900D01*
G03X4535020Y-3520310I59729J5898D01*
G01Y-3494350D01*
X4525020Y-3484350D01*
Y-2211350D01*
X4066040Y-1752370D01*
X4070470Y-1745490D01*
G03X4060170Y-1668400I-50469J32490D01*
G02X4073750Y-1633020I13587J15081D01*
G01X4409350D01*
X4594190Y-1817860D01*
G03X4605830Y-1961580I125810J-62142D01*
G02X4589310Y-1993680I-16517J-11801D01*
G01X4579680D01*
Y-2274320D01*
X4796650D01*
X4844980Y-2322650D01*
Y-2379980D01*
X4829980D01*
Y-2450100D01*
X4823710Y-2452690D01*
G03X4762200Y-2576990I40292J-97308D01*
G01X4763690Y-2582640D01*
X4746350Y-2599980D01*
X4689980D01*
Y-2720020D01*
X4810020D01*
Y-2663650D01*
X4825460Y-2648210D01*
X4831380Y-2650140D01*
G03X4933320Y-2629290I32620J100140D01*
G02X4946680I6680J-7643D01*
G03X5041540Y-2652180I69324J79288D01*
G01X5047110Y-2650780D01*
X5059980Y-2663650D01*
Y-2720020D01*
X5180020D01*
Y-2599980D01*
X5123650D01*
X5113640Y-2589980D01*
X5115680Y-2583990D01*
G03X5056290Y-2452690I-99682J33993D01*
G01X5050020Y-2450100D01*
Y-2379980D01*
X5035020D01*
Y-2332650D01*
X5093350Y-2274320D01*
X5309980D01*
Y-2686970D01*
X5454320Y-2831310D01*
G03X5494220Y-3004400I125810J-62143D01*
G02Y-3036500I-12425J-16050D01*
G03Y-3258400I85910J-110950D01*
G02Y-3290500I-12425J-16050D01*
G03Y-3512400I85910J-110950D01*
G02Y-3544500I-12425J-16050D01*
G03Y-3766400I85910J-110950D01*
G02Y-3798500I-12425J-16050D01*
G03X5465960Y-3991030I85909J-110949D01*
G02X5449440Y-4023130I-16517J-11801D01*
G01X5439810D01*
Y-4303770D01*
X5720450D01*
Y-4208470D01*
X6029390D01*
Y-4303770D01*
X6303990D01*
Y-4467380D01*
G02X6268230Y-4480530I-20300J5D01*
G03X6028450Y-4526430I-106879J-90920D01*
G01X5717030D01*
G03X5498220Y-4682400I-132902J-45022D01*
G02Y-4714500I-12425J-16050D01*
G03Y-4936400I85910J-110950D01*
G02Y-4968500I-12425J-16050D01*
G03Y-5190400I85910J-110950D01*
G02Y-5222500I-12425J-16050D01*
G03Y-5444400I85910J-110950D01*
G02Y-5476500I-12425J-16050D01*
G03Y-5698400I85910J-110950D01*
G02Y-5730500I-12425J-16050D01*
G03Y-5952400I85910J-110950D01*
G02Y-5984500I-12425J-16050D01*
G03X5469960Y-6177030I85909J-110949D01*
G02X5453440Y-6209130I-16517J-11801D01*
G01X5443810D01*
Y-6489770D01*
X5724450D01*
Y-6394470D01*
X6021030D01*
Y-6489770D01*
X6204380D01*
G02X6218740Y-6524420I2J-20300D01*
G01X6169170Y-6573990D01*
X4526170D01*
X4272170Y-6827990D01*
X4163530D01*
G02X4154050Y-6789740I-2J20299D01*
G03X3957950I-98050J185740D01*
G02X3948470Y-6827990I-9478J-17951D01*
G01X1369530D01*
G02X1360050Y-6789740I-2J20299D01*
G03X1163950I-98050J185740D01*
G02X1154470Y-6827990I-9478J-17951D01*
G01X1020430D01*
G37*
G36*
G01X309810Y-3257430D02*
G03X49380Y-3243910I-132903J-45019D01*
G01X30010Y-3239680D01*
Y-2458220D01*
G02X64660Y-2443870I20298J-3D01*
G01X621900Y-3001100D01*
X620090Y-3006950D01*
G03X629440Y-3112820I134040J-41510D01*
G02X611410Y-3142430I-18036J-9312D01*
G01X452700D01*
X337700Y-3257430D01*
X309810D01*
G37*
G36*
G01X918650Y-3354980D02*
X915020Y-3351350D01*
Y-3221350D01*
X847420Y-3153750D01*
X854440Y-3146570D01*
G03X868300Y-2966870I-100310J98121D01*
G02X884820Y-2934770I16517J11801D01*
G01X894450D01*
Y-2654130D01*
X613810D01*
Y-2774240D01*
G02X579160Y-2788590I-20298J3D01*
G01X120020Y-2329460D01*
Y-1242110D01*
X182510Y-1179620D01*
G02X217020Y-1191560I14355J-14353D01*
G03X270440Y-1285850I139329J16659D01*
G02Y-1317950I-12425J-16050D01*
G03X442260I85910J-110950D01*
G02Y-1285850I12425J16050D01*
G03Y-1063950I-85910J110950D01*
G02Y-1031850I12425J16050D01*
G03X490390Y-879400I-85911J110946D01*
G01X488580Y-873550D01*
X852110Y-510020D01*
X1224860D01*
X1227520Y-507360D01*
G02X1260590Y-513840I14358J-14350D01*
G03X1446480Y-511560I92482J38878D01*
G02X1479730Y-504610I18899J-7406D01*
G01X1555140Y-580020D01*
X1605140D01*
X1620400Y-595290D01*
G02X1606050Y-629940I-14353J-14352D01*
G01X1513050D01*
Y-899980D01*
X1522420D01*
X1527770Y-905330D01*
G02X1513410Y-939980I-14357J-14351D01*
G01X1499980D01*
X1488110Y-944900D01*
X1463190Y-919980D01*
X886350D01*
X866650Y-939680D01*
X649680D01*
Y-1220320D01*
X659310D01*
G02X675830Y-1252420I3J-20299D01*
G03X923440Y-1290600I114170J-81579D01*
G02X942740Y-1264020I19304J6280D01*
G01X1057260D01*
G02X1076560Y-1290600I-4J-20300D01*
G03X1348180Y-1358400I133438J-43404D01*
G01X1349660Y-1350020D01*
X1817410D01*
X1924590Y-1242840D01*
X1978130D01*
G03X2020970Y-1257760I39697J45018D01*
G02X2036390Y-1292380I1061J-20271D01*
G01X1870790Y-1457980D01*
X1757140D01*
X1690140Y-1524980D01*
X1624980D01*
Y-1590140D01*
X1616950Y-1598170D01*
G02X1599620Y-1590990I-7180J7175D01*
G01Y-1580870D01*
X1574540D01*
X1508650Y-1514980D01*
X1359840D01*
X1293950Y-1580870D01*
X1279580D01*
Y-1602760D01*
X1262020D01*
X1259760Y-1595700D01*
G03X1177310Y-1559570I-57161J-18301D01*
G02X1149680Y-1548130I-8562J18408D01*
G01X867810D01*
Y-1557760D01*
G02X835710Y-1574280I-20299J-3D01*
G03X619880Y-1647620I-81580J-114169D01*
G01X617690Y-1654820D01*
X600020D01*
Y-1649980D01*
X385020D01*
Y-1634980D01*
X234980D01*
Y-2265020D01*
X385020D01*
Y-2250020D01*
X535540D01*
Y-2295530D01*
X628190Y-2388180D01*
X625440Y-2394520D01*
G03X865080Y-2536360I128691J-55932D01*
G02X897180I16050J-12425D01*
G03X963110Y-2583350I110944J85914D01*
G01Y-2956780D01*
X1106350Y-3100020D01*
X1171090D01*
G02X1185440Y-3134670I-3J-20298D01*
G01X1017560Y-3302560D01*
G03X999980Y-3344850I42440J-42441D01*
G01X999960Y-3354980D01*
X918650D01*
G37*
G36*
G01X2255020Y-511350D02*
X1978650Y-234980D01*
X1192240D01*
X1174340Y-252880D01*
X263450D01*
X114980Y-401350D01*
Y-940310D01*
G03X127330Y-1030350I45021J-39692D01*
G02X130640Y-1061730I-11048J-17030D01*
G01X64660Y-1127700D01*
G02X30010Y-1113350I-14352J14353D01*
G01Y-304800D01*
G02X304800Y-30010I274790J0D01*
G01X3190000D01*
Y-420000D01*
X3270000Y-500000D01*
Y-1099980D01*
X3230720D01*
X3210720Y-1079980D01*
X3180720D01*
X3180020Y-1079280D01*
Y-1029980D01*
X3059980D01*
Y-1030410D01*
G02X3042650Y-1037590I-10152J-1D01*
G01X2999120Y-994050D01*
X2923650D01*
X2902220Y-972620D01*
Y-829770D01*
X2912850Y-819140D01*
X3059220D01*
Y-619100D01*
X3010020D01*
Y-499980D01*
X2889980D01*
Y-619100D01*
X2849180D01*
Y-755470D01*
X2812180Y-792470D01*
Y-812100D01*
X2596180D01*
Y-849980D01*
X2469980D01*
Y-970020D01*
X2596180D01*
Y-1012140D01*
X2737550D01*
X2764810Y-1039400D01*
G02X2750450Y-1074050I-14357J-14351D01*
G01X2370260D01*
X2368420Y-1066230D01*
G03X2355020Y-1040310I-58417J-13776D01*
G01Y-1000410D01*
X2255020Y-900410D01*
Y-511350D01*
G37*
G36*
G01X317230Y-6305430D02*
Y-6210130D01*
X307600D01*
G02X291080Y-6178030I-3J20299D01*
G03X309810Y-6141470I-114175J81571D01*
G01X621230D01*
G03X639960Y-6178030I132905J45011D01*
G02X623440Y-6210130I-16517J-11801D01*
G01X613810D01*
Y-6305430D01*
X317230D01*
G37*
G36*
G01X309810Y-6051430D02*
G03X262820Y-5985500I-132904J-45014D01*
G02Y-5953400I12425J16050D01*
G03X309810Y-5887470I-85914J110944D01*
G01X621230D01*
G03X668220Y-5953400I132904J45014D01*
G02Y-5985500I-12425J-16050D01*
G03X621230Y-6051430I85914J-110944D01*
G01X309810D01*
G37*
G36*
G01Y-5797430D02*
G03X262820Y-5731500I-132904J-45014D01*
G02Y-5699400I12425J16050D01*
G03X309810Y-5633470I-85914J110944D01*
G01X621230D01*
G03X668220Y-5699400I132904J45014D01*
G02Y-5731500I-12425J-16050D01*
G03X621230Y-5797430I85914J-110944D01*
G01X309810D01*
G37*
G36*
G01X1341910Y-5979980D02*
X1154150Y-5792220D01*
Y-5403750D01*
G02X1189530Y-5390170I20299J-7D01*
G03X1234130Y-5410020I44600J40180D01*
G01X1773380D01*
X1778880Y-5428700D01*
G03X1763950Y-5440740I48723J-75695D01*
G01X1742740Y-5461950D01*
G03X1746710Y-5593000I63652J-63657D01*
G02X1748660Y-5621410I-13460J-15196D01*
G03X1728810Y-5698070I68339J-58595D01*
G01X1729910Y-5703420D01*
X1674980Y-5758350D01*
Y-5938650D01*
X1681660Y-5945330D01*
G02X1667300Y-5979980I-14357J-14351D01*
G01X1341910D01*
G37*
G36*
G01X309810Y-5543430D02*
G03X262820Y-5477500I-132904J-45014D01*
G02Y-5445400I12425J16050D01*
G03X309810Y-5379470I-85914J110944D01*
G01X621230D01*
G03X668220Y-5445400I132904J45014D01*
G02Y-5477500I-12425J-16050D01*
G03X621230Y-5543430I85914J-110944D01*
G01X309810D01*
G37*
G36*
G01Y-5289430D02*
G03X262820Y-5223500I-132904J-45014D01*
G02Y-5191400I12425J16050D01*
G03X309810Y-5125470I-85914J110944D01*
G01X621230D01*
G03X668220Y-5191400I132904J45014D01*
G02Y-5223500I-12425J-16050D01*
G03X621230Y-5289430I85914J-110944D01*
G01X309810D01*
G37*
G36*
G01X969980Y-4873500D02*
X857950Y-4985530D01*
X850780Y-4978720D01*
G03X621230Y-5035430I-96648J-101729D01*
G01X309810D01*
G03X262820Y-4969500I-132904J-45014D01*
G02Y-4937400I12425J16050D01*
G03X309810Y-4871470I-85914J110944D01*
G01X375000D01*
X470050Y-4776420D01*
X897250D01*
X935330Y-4738340D01*
G02X969980Y-4752700I14351J-14357D01*
G01Y-4873500D01*
G37*
G36*
G01X1124980Y-4780310D02*
G03X1118820Y-4788640I44999J-39719D01*
G01X1100020Y-4783340D01*
Y-4204740D01*
G02X1134670Y-4190380I20299J3D01*
G01X1163240Y-4218950D01*
Y-4716090D01*
X1124980Y-4754350D01*
Y-4780310D01*
G37*
G36*
G01X309810Y-4781430D02*
G03X262820Y-4715500I-132904J-45014D01*
G02Y-4683400I12425J16050D01*
G03X309810Y-4617470I-85914J110944D01*
G01X375000D01*
X490000Y-4502470D01*
X601390D01*
G02X620690Y-4529050I-4J-20300D01*
G03X640120Y-4654250I133440J-43399D01*
G02X623620Y-4686380I-16497J-11830D01*
G01X432750D01*
X337700Y-4781430D01*
X309810D01*
G37*
G36*
G01X1293280Y-4119610D02*
X1202050Y-4028380D01*
X1201630Y-4024900D01*
G03X1184580Y-3989690I-59597J-7126D01*
G01X1177430Y-3982520D01*
X1425310Y-3734640D01*
G02X1458960Y-3742700I14352J-14355D01*
G03X1466060Y-3760270I131028J42729D01*
G01X1414980Y-3811350D01*
Y-4412500D01*
X1381080Y-4446400D01*
Y-4776410D01*
G03X1366100Y-4817690I45019J-39695D01*
G02X1345810Y-4838530I-20292J-541D01*
G01X1328320D01*
G02X1308080Y-4816590I-5J20301D01*
G03X1293280Y-4772050I-59822J4851D01*
G01Y-4119610D01*
G37*
G36*
G01X309810Y-4527430D02*
G03X262820Y-4461500I-132904J-45014D01*
G02Y-4429400I12425J16050D01*
G03X309810Y-4363470I-85914J110944D01*
G01X375000D01*
X498650Y-4239820D01*
X853850D01*
X857650Y-4236010D01*
G02X874980Y-4243190I7178J-7179D01*
G01Y-4371350D01*
X833900Y-4412430D01*
X452700D01*
X337700Y-4527430D01*
X309810D01*
G37*
G36*
G01Y-4273430D02*
G03X262820Y-4207500I-132904J-45014D01*
G02Y-4175400I12425J16050D01*
G03X309810Y-4109470I-85914J110944D01*
G01X375000D01*
X490000Y-3994470D01*
X834980D01*
Y-4131350D01*
X816550Y-4149780D01*
X461350D01*
X337700Y-4273430D01*
X309810D01*
G37*
G36*
G01Y-4019430D02*
G03X262820Y-3953500I-132904J-45014D01*
G02Y-3921400I12425J16050D01*
G03X309810Y-3855470I-85914J110944D01*
G01X375000D01*
X495450Y-3735020D01*
X603270D01*
G02X622330Y-3762290I-4J-20299D01*
G03X629440Y-3874820I131799J-48162D01*
G02X611410Y-3904430I-18036J-9312D01*
G01X452700D01*
X337700Y-4019430D01*
X309810D01*
G37*
G36*
G01Y-3765430D02*
G03X262820Y-3699500I-132904J-45014D01*
G02Y-3667400I12425J16050D01*
G03X309810Y-3601470I-85914J110944D01*
G01X375000D01*
X491450Y-3485020D01*
X601870D01*
G02X621110Y-3511780I-4J-20300D01*
G03X627100Y-3616060I133020J-44671D01*
G02X608720Y-3644980I-18378J-8621D01*
G01X458150D01*
X337700Y-3765430D01*
X309810D01*
G37*
G36*
G01Y-3511430D02*
G03X262820Y-3445500I-132904J-45014D01*
G02Y-3413400I12425J16050D01*
G03X309810Y-3347470I-85914J110944D01*
G01X375000D01*
X490000Y-3232470D01*
X601390D01*
G02X620690Y-3259050I-4J-20300D01*
G03X628800Y-3365550I133440J-43397D01*
G02X610670Y-3394980I-18132J-9130D01*
G01X454150D01*
X337700Y-3511430D01*
X309810D01*
G37*
G36*
G01X1193360Y-2889980D02*
X1173150Y-2869770D01*
Y-2644890D01*
X1223450Y-2594590D01*
G02X1251990Y-2594410I14361J-14349D01*
G03X1264980Y-2605630I98044J100381D01*
G01Y-2810000D01*
G03X1284830Y-2854600I60030J0D01*
G02X1271250Y-2889980I-13587J-15081D01*
G01X1193360D01*
G37*
G36*
G01X1502350Y-2307470D02*
X1490320Y-2295440D01*
Y-2099680D01*
X1248150D01*
Y-1668880D01*
X1247620Y-1668350D01*
Y-1653850D01*
X1249790Y-1651090D01*
G03X1259760Y-1632300I-47195J37082D01*
G01X1262020Y-1625240D01*
X1279580D01*
Y-1775910D01*
X1409620D01*
Y-1605020D01*
X1469580D01*
Y-1775910D01*
X1574700D01*
G02X1581880Y-1793240I5J-10150D01*
G01X1565250Y-1809870D01*
X1469580D01*
Y-2004910D01*
X1599620D01*
Y-1967410D01*
X1617470D01*
X1660330Y-1924560D01*
G02X1694980Y-1938910I14352J-14353D01*
G01Y-2009860D01*
X1699980Y-2014860D01*
Y-2099680D01*
X1519680D01*
Y-2300290D01*
G02X1502350Y-2307470I-10150J-5D01*
G37*
G36*
G01X205020Y-828000D02*
Y-438650D01*
X300750Y-342920D01*
X1173190D01*
G02X1187540Y-377570I-3J-20298D01*
G01X1175140Y-389980D01*
X802390D01*
X403600Y-788770D01*
G03X241880Y-839740I-47249J-132128D01*
G02X205020Y-828000I-16561J11738D01*
G37*
G36*
G01X3674980Y-4601350D02*
X3370400Y-4905930D01*
X3364090Y-4903240D01*
G03X3179740Y-4984980I-54091J-126761D01*
G01X2820260D01*
G03X2558460Y-5071120I-130259J-45020D01*
G02X2539080Y-5097480I-19375J-6059D01*
G01X2370920D01*
G02X2351540Y-5071120I-5J20301D01*
G03X2089740Y-4984980I-131541J41120D01*
G01X1730260D01*
G03X1627560Y-4894960I-130262J-45017D01*
G02X1617270Y-4860720I4063J19887D01*
G01X1645020Y-4832970D01*
Y-4710260D01*
G03X1730260Y-4625020I-45020J130260D01*
G01X2089740D01*
G03X2350260I130260J45020D01*
G01X2559740D01*
G03X2820260I130260J45020D01*
G01X3179740D01*
G03X3440260I130260J45020D01*
G01X3568650D01*
X3640330Y-4553340D01*
G02X3674980Y-4567700I14351J-14357D01*
G01Y-4601350D01*
G37*
G36*
G01X2473650Y-3970020D02*
X2619600Y-3824070D01*
X2625910Y-3826760D01*
G03X2810260Y-3745020I54091J126761D01*
G01X3169740D01*
G03X3430260I130260J45020D01*
G01X3556650D01*
X3670330Y-3631340D01*
G02X3704980Y-3645700I14351J-14357D01*
G01Y-4032780D01*
X3619980Y-4117780D01*
Y-4446350D01*
X3531350Y-4534980D01*
X3440260D01*
G03X3179740I-130260J-45020D01*
G01X2820260D01*
G03X2559740I-130260J-45020D01*
G01X2350260D01*
G03X2089740I-130260J-45020D01*
G01X1730260D01*
G03X1615050Y-4443000I-130262J-45017D01*
G02X1602920Y-4408470I2222J20176D01*
G01X1635020Y-4376370D01*
Y-4280260D01*
G03X1720260Y-4195020I-45020J130260D01*
G01X2079740D01*
G03X2333940Y-4089730I130261J45013D01*
G01X2453650Y-3970020D01*
X2473650D01*
G37*
G36*
G01X3367350Y-2344310D02*
X3602320Y-2579280D01*
X3664980Y-2641950D01*
Y-3509350D01*
X3519350Y-3654980D01*
X3430260D01*
G03X3169740I-130260J-45020D01*
G01X2810260D01*
G03X2556060Y-3760270I-130262J-45012D01*
G01X2436350Y-3879980D01*
X2416350D01*
X2270270Y-4026060D01*
G03X2079740Y-4104980I-60272J-123941D01*
G01X1720260D01*
G03X1533620Y-4024240I-130260J-45020D01*
G02X1505020Y-4005710I-8300J18525D01*
G01X1505050Y-3848620D01*
X1529730Y-3823940D01*
G03X1720260Y-3745020I60272J123941D01*
G01X2079740D01*
G03Y-3654980I130260J45020D01*
G01X1720260D01*
G03X1717430Y-3647480I-130311J-44887D01*
G01X1717060Y-3646580D01*
X1715710Y-3639980D01*
X1721810Y-3632520D01*
X2049930D01*
X2548020Y-3134430D01*
Y-2923750D01*
G02X2583400Y-2910170I20299J-7D01*
G03X2628000Y-2930020I44600J40180D01*
G01X3570000D01*
G03X3613740Y-2828900I0J60020D01*
G02Y-2801100I14794J13900D01*
G03X3570000Y-2699980I-43740J41100D01*
G01X2720870D01*
G02X2701190Y-2674710I2J20300D01*
G03X2703020Y-2660000I-58206J14710D01*
G01Y-2310040D01*
X2804840D01*
X2804860Y-2310020D01*
X2834980D01*
Y-2385020D01*
X2971980D01*
Y-2404350D01*
X2961350Y-2414980D01*
X2834980D01*
Y-2585020D01*
X3025020D01*
Y-2478650D01*
X3062020Y-2441650D01*
Y-2218820D01*
G02X3096670Y-2204470I20300J-7D01*
G01X3129980Y-2237780D01*
Y-2420020D01*
X3250020D01*
Y-2360020D01*
X3350020D01*
Y-2351490D01*
G02X3367350Y-2344310I10152J1D01*
G37*
G36*
G01X1879860Y-2454980D02*
X1858860Y-2433980D01*
X1786840D01*
G03X1774170Y-2412420I-126832J-60032D01*
G02X1790690Y-2380320I16517J11801D01*
G01X1800320D01*
Y-2184560D01*
X1820020Y-2164860D01*
Y-1929980D01*
X1815020D01*
Y-1790140D01*
X1775020Y-1750140D01*
Y-1609860D01*
X1806860Y-1578020D01*
X1897980D01*
Y-2454980D01*
X1879860D01*
G37*
G36*
G01X1365170Y-2854600D02*
G03X1385020Y-2810000I-40180J44600D01*
G01Y-2630080D01*
X1392120Y-2627850D01*
G03X1490260Y-2489940I-42121J133849D01*
G01X1490130Y-2485560D01*
X1500410Y-2475290D01*
X1519620Y-2494500D01*
X1519750Y-2498520D01*
G03X1747080Y-2604030I140248J4520D01*
G02X1779980Y-2619950I12600J-15916D01*
G01Y-2810000D01*
G03X1808120Y-2860850I60014J0D01*
G03X1804980Y-2879850I56879J-19159D01*
G01X1804960Y-2889980D01*
X1378750D01*
G02X1365170Y-2854600I7J20299D01*
G37*
G36*
G01X1660460Y-465570D02*
X1654860Y-459980D01*
X1604860D01*
X1504560Y-359670D01*
G02X1518910Y-325020I14353J14352D01*
G01X1941350D01*
X2164980Y-548650D01*
Y-937710D01*
X2264980Y-1037710D01*
Y-1040310D01*
G03X2271080Y-1125690I45021J-39691D01*
G02X2272270Y-1155500I-13162J-15454D01*
G01X2252490Y-1175280D01*
G02X2217840Y-1160920I-14351J14357D01*
G01Y-1032960D01*
X2084860Y-899980D01*
X1854860D01*
X1844260Y-889380D01*
Y-866270D01*
X1793090Y-815100D01*
Y-598210D01*
X1780300Y-585420D01*
X1790390Y-575330D01*
X1794510Y-575270D01*
G03X1694710Y-455220I-1441J100310D01*
G02X1660460Y-465570I-19899J4003D01*
G37*
G36*
G01X2062420Y-1157650D02*
G03X2060990Y-1156120I-44559J-40214D01*
G02X2059860Y-1143420I7300J7050D01*
G03X1970310Y-1064980I-49856J33419D01*
G01X1918540D01*
X1854670Y-1128850D01*
G02X1820020Y-1114490I-14351J14357D01*
G01Y-1020020D01*
X2035140D01*
X2097800Y-1082680D01*
Y-1144070D01*
G02X2062420Y-1157650I-20299J7D01*
G37*
G36*
G01X2548020Y-2706250D02*
Y-2279580D01*
X2565650Y-2261940D01*
G02X2582980Y-2269120I7178J-7179D01*
G01Y-2660000D01*
G03X2591270Y-2690450I60068J0D01*
G02X2587480Y-2715720I-17492J-10296D01*
G03X2583400Y-2719830I40508J-44292D01*
G02X2548020Y-2706250I-15081J13587D01*
G37*
G36*
G01X2563020Y-2231270D02*
Y-2130020D01*
X2690020D01*
Y-2117520D01*
X2775750D01*
X2799680Y-2093590D01*
X2810590D01*
X2813580Y-2096640D01*
G03X2875910Y-2102080I34332J33571D01*
G02X2891980Y-2110330I5920J-8246D01*
G01Y-2118290D01*
X2888270Y-2121330D01*
G03X2884630Y-2124630I31736J-38664D01*
G01X2859280Y-2149980D01*
X2809280D01*
X2769280Y-2189980D01*
X2719980D01*
Y-2190000D01*
X2653300D01*
X2597670Y-2245620D01*
G02X2563020Y-2231270I-14352J14353D01*
G37*
G36*
G01X2883050Y-1996350D02*
G03X2861640Y-1983050I-35156J-32710D01*
G02X2848860Y-1955420I5798J19452D01*
G03X2845910Y-1911070I-43950J19350D01*
G03Y-1861070I-41000J25000D01*
G03Y-1811070I-41000J25000D01*
G03Y-1761070I-41000J25000D01*
G03Y-1711070I-41000J25000D01*
G03Y-1661070I-41000J25000D01*
G03Y-1611070I-41000J25000D01*
G03Y-1561070I-41000J25000D01*
G03Y-1511070I-41000J25000D01*
G03Y-1461070I-41000J25000D01*
G03X2852690Y-1440850I-41002J24995D01*
G03X2872910Y-1434070I-4775J47782D01*
G03X2922910I25000J41000D01*
G03X2972910I25000J41000D01*
G03X3022910I25000J41000D01*
G03X3072910I25000J41000D01*
G03X3122910I25000J41000D01*
G03X3172910I25000J41000D01*
G03X3222910I25000J41000D01*
G03X3237110Y-1439860I24998J41001D01*
G02X3244980Y-1449790I-2280J-9890D01*
G03X3300000Y-1505020I55020J-210D01*
G01X3324140D01*
X3327930Y-1508810D01*
Y-1910120D01*
X3323070Y-1914980D01*
X3097210D01*
X3059000Y-1953180D01*
G03X3043980Y-1981210I38919J-38894D01*
G03X3022910Y-1988070I3930J-47860D01*
G03X2972910I-25000J-41000D01*
G03X2912770Y-1996350I-24995J-41000D01*
G02X2883050I-14860J13837D01*
G37*
G36*
G01X4356900Y-5116050D02*
G03X4283950Y-5075220I-66902J-33948D01*
G01X4279270Y-5075600D01*
X4264800Y-5061130D01*
X4254800D01*
X4195020Y-5001350D01*
Y-4930020D01*
X4210020D01*
Y-4810020D01*
X4580020D01*
Y-4795020D01*
X4749380D01*
G02X4769680Y-4815410I1J-20299D01*
G03X4769690Y-4818000I140321J-753D01*
G03X4793410Y-4898080I140307J-1993D01*
G02X4776550Y-4929680I-16864J-11300D01*
G01X4769680D01*
Y-5024980D01*
X4521350D01*
X4470730Y-5075600D01*
X4466050Y-5075220D01*
G03X4393100Y-5116050I-6048J-74778D01*
G02X4356900I-18100J9188D01*
G37*
G36*
G01X4095020Y-4809980D02*
Y-4568650D01*
X4163350Y-4500320D01*
X4380320D01*
Y-4219680D01*
X4370690D01*
G02X4354170Y-4187580I-3J20299D01*
G03X4277260Y-3970720I-114170J81578D01*
G01X4274670Y-3970000D01*
X4245020Y-3940350D01*
Y-3599690D01*
G03X4259730Y-3565900I-45018J39695D01*
G01X4260630Y-3556750D01*
X4279980D01*
Y-3660220D01*
X4423060Y-3803310D01*
X4423070D01*
X4514780Y-3895020D01*
X4621350D01*
X4654980Y-3928650D01*
Y-3973100D01*
G03X4585830Y-4187580I45020J-132902D01*
G02X4569310Y-4219680I-16517J-11801D01*
G01X4559680D01*
Y-4475000D01*
X4474760D01*
X4396780Y-4552980D01*
X4253350D01*
X4216350Y-4589980D01*
X4159980D01*
Y-4809980D01*
X4095020D01*
G37*
G36*
G01X3973020D02*
Y-4535070D01*
X3987650Y-4520430D01*
G02X4004980Y-4527610I7178J-7179D01*
G01Y-4809980D01*
X3973020D01*
G37*
G36*
G01X4040020Y-4447300D02*
Y-2813750D01*
G02X4075400Y-2800170I20299J-7D01*
G03X4119760Y-2820020I44597J40171D01*
G02X4139980Y-2840320I-80J-20299D01*
G01Y-2870000D01*
G03X4244600Y-2910170I60022J0D01*
G02X4279980Y-2923750I15081J-13587D01*
G01Y-3506250D01*
G02X4244600Y-3519830I-20299J7D01*
G03X4154980Y-3599690I-44598J-40168D01*
G01Y-3977650D01*
X4163440Y-3986100D01*
X4155770Y-3993770D01*
X4155210Y-3994190D01*
G03X4125830Y-4187580I84789J-111808D01*
G02X4109310Y-4219680I-16517J-11801D01*
G01X4099680D01*
Y-4436650D01*
X4074670Y-4461660D01*
G02X4040020Y-4447300I-14351J14357D01*
G37*
G36*
G01X3435460Y-2093400D02*
X3441460D01*
X3476670Y-2128600D01*
X3907670Y-2559600D01*
Y-4213250D01*
X3890630D01*
X3889730Y-4204100D01*
G03X3875020Y-4170310I-59728J-5905D01*
G01Y-2554940D01*
X3424480Y-2104410D01*
X3431700Y-2097190D01*
G03X3432730Y-2096130I-33918J33988D01*
G01X3435460Y-2093400D01*
G37*
G36*
G01X4025330Y-2481660D02*
X3658340Y-2114670D01*
G02X3672700Y-2080020I14357J14351D01*
G01X3686350D01*
X3690990Y-2084660D01*
X3691460Y-2085310D01*
G03X3697560Y-2092440I48519J35335D01*
G01X4059980Y-2454860D01*
Y-2467300D01*
G02X4025330Y-2481660I-20299J-3D01*
G37*
G36*
G01X3837140Y-1673020D02*
X3849980Y-1685860D01*
Y-1786980D01*
X3770650D01*
X3760020Y-1776350D01*
Y-1683650D01*
X3770650Y-1673020D01*
X3837140D01*
G37*
G36*
G01X5107860Y-1754190D02*
X4856650Y-1502980D01*
X4030040D01*
X4030020Y-1492850D01*
G03X4029650Y-1486300I-60023J-105D01*
G01X4029580Y-1485740D01*
Y-1475020D01*
X4878210D01*
X5121170Y-1717980D01*
G02X5114800Y-1750990I-14357J-14349D01*
G03X5107860Y-1754190I55264J-128980D01*
G37*
G36*
G01X4245330Y-2340440D02*
X3814860Y-1909980D01*
X3774860D01*
X3760020Y-1895140D01*
Y-1877020D01*
X3843350D01*
X4279980Y-2313650D01*
Y-2326090D01*
G02X4245330Y-2340440I-20298J3D01*
G37*
G36*
G01X5713030Y-1832430D02*
G03X5651630Y-1756710I-132904J-45015D01*
G02X5654750Y-1720280I10348J17462D01*
G03X5505390Y-1720330I-74746J196280D01*
G02X5508540Y-1756770I-7207J-18979D01*
G03X5501400Y-1761300I71568J-120694D01*
G01X5494460Y-1766000D01*
X5298440Y-1569980D01*
X5213650D01*
X4948650Y-1304980D01*
X3957990D01*
G02X3943630Y-1270330I-3J20299D01*
G01X4138940Y-1075020D01*
X4338650D01*
X4415020Y-998650D01*
Y-915260D01*
G03X4500260Y-830020I-45020J130260D01*
G01X4859740D01*
G03X5120260I130260J45020D01*
G01X5181350D01*
X5279980Y-928650D01*
Y-1013650D01*
X5421350Y-1155020D01*
X5801350D01*
X5929980Y-1283650D01*
Y-1615310D01*
G03X6020020I45020J-39690D01*
G01Y-1246350D01*
X5838650Y-1064980D01*
X5458650D01*
X5370020Y-976350D01*
Y-891350D01*
X5218650Y-739980D01*
X5120260D01*
G03X4859740I-130260J-45020D01*
G01X4500260D01*
G03X4324980Y-915260I-130260J-45020D01*
G01Y-961350D01*
X4301350Y-984980D01*
X4101640D01*
X3831640Y-1254980D01*
X3805020D01*
Y-1239980D01*
X3684980D01*
Y-1287980D01*
X3587760D01*
X3486540Y-1389210D01*
X3481530Y-1388510D01*
G03X3474910Y-1388050I-6620J-47405D01*
G01X3445930D01*
Y-1359070D01*
G03X3445520Y-1352790I-48301J0D01*
G01X3445430Y-1352130D01*
Y-1329890D01*
X3495430Y-1279890D01*
Y-1243600D01*
X3570630D01*
X3570730Y-1243500D01*
X3605890D01*
Y-1123460D01*
X3485850D01*
Y-1123560D01*
X3425000D01*
Y-485000D01*
X3510000Y-400000D01*
Y-30010D01*
X6029200D01*
G02X6303990Y-304800I0J-274790D01*
G01Y-1764280D01*
G02X6269280Y-1778580I-20300J-1D01*
G03X6036810Y-1832430I-99569J-98871D01*
G01X5713030D01*
G37*
G36*
G01X4845350Y-3855020D02*
X5034060Y-4043730D01*
X5031310Y-4050070D01*
G03X5045830Y-4187580I128690J-55933D01*
G02X5029310Y-4219680I-16517J-11801D01*
G01X5019680D01*
Y-4436650D01*
X4941330Y-4515000D01*
X4840320D01*
Y-4219680D01*
X4830690D01*
G02X4814170Y-4187580I-3J20299D01*
G03X4745020Y-3973100I-114170J81578D01*
G01Y-3891350D01*
X4743340Y-3889670D01*
G02X4757700Y-3855020I14357J14351D01*
G01X4845350D01*
G37*
G36*
G01X6269280Y-2794580D02*
G03X6036810Y-2848430I-99569J-98871D01*
G01X5713030D01*
G03X5524200Y-2764760I-132900J-45021D01*
G01X5517860Y-2767510D01*
X5400020Y-2649670D01*
Y-2064020D01*
G02X5434670Y-2049660I20299J3D01*
G01X5454190Y-2069180D01*
X5451440Y-2075520D01*
G03X5494220Y-2242400I128691J-55933D01*
G02Y-2274500I-12425J-16050D01*
G03X5713030Y-2430470I85908J-110948D01*
G01X6036810D01*
G03X6269280Y-2484320I132901J45021D01*
G02X6303990Y-2498620I14410J-14299D01*
G01Y-2780280D01*
G02X6269280Y-2794580I-20300J-1D01*
G37*
G36*
G01X4945000Y-2295330D02*
X4860320Y-2210650D01*
Y-1993680D01*
X4850690D01*
G02X4834170Y-1961580I-3J20299D01*
G03X4664070Y-1751310I-114169J81579D01*
G01X4657730Y-1754060D01*
X4531340Y-1627670D01*
G02X4545700Y-1593020I14357J14351D01*
G01X4819350D01*
X5044190Y-1817860D01*
G03X5055830Y-1961580I125810J-62142D01*
G02X5039310Y-1993680I-16517J-11801D01*
G01X5029680D01*
Y-2210650D01*
X4945000Y-2295330D01*
G37*
G36*
G01X5724450Y-6304430D02*
Y-6209130D01*
X5714820D01*
G02X5698300Y-6177030I-3J20299D01*
G03X5717030Y-6140470I-114175J81571D01*
G01X6028450D01*
G03X6047180Y-6177030I132905J45011D01*
G02X6030660Y-6209130I-16517J-11801D01*
G01X6021030D01*
Y-6304430D01*
X5724450D01*
G37*
G36*
G01X5717030Y-6050430D02*
G03X5670040Y-5984500I-132904J-45014D01*
G02Y-5952400I12425J16050D01*
G03X5717030Y-5886470I-85914J110944D01*
G01X6028450D01*
G03X6075440Y-5952400I132904J45014D01*
G02Y-5984500I-12425J-16050D01*
G03X6028450Y-6050430I85914J-110944D01*
G01X5717030D01*
G37*
G36*
G01Y-5796430D02*
G03X5670040Y-5730500I-132904J-45014D01*
G02Y-5698400I12425J16050D01*
G03X5717030Y-5632470I-85914J110944D01*
G01X6028450D01*
G03X6075440Y-5698400I132904J45014D01*
G02Y-5730500I-12425J-16050D01*
G03X6028450Y-5796430I85914J-110944D01*
G01X5717030D01*
G37*
G36*
G01Y-5542430D02*
G03X5670040Y-5476500I-132904J-45014D01*
G02Y-5444400I12425J16050D01*
G03X5717030Y-5378470I-85914J110944D01*
G01X6028450D01*
G03X6075440Y-5444400I132904J45014D01*
G02Y-5476500I-12425J-16050D01*
G03X6028450Y-5542430I85914J-110944D01*
G01X5717030D01*
G37*
G36*
G01Y-5288430D02*
G03X5670040Y-5222500I-132904J-45014D01*
G02Y-5190400I12425J16050D01*
G03X5717030Y-5124470I-85914J110944D01*
G01X6028450D01*
G03X6075440Y-5190400I132904J45014D01*
G02Y-5222500I-12425J-16050D01*
G03X6028450Y-5288430I85914J-110944D01*
G01X5717030D01*
G37*
G36*
G01Y-5034430D02*
G03X5670040Y-4968500I-132904J-45014D01*
G02Y-4936400I12425J16050D01*
G03X5717030Y-4870470I-85914J110944D01*
G01X6028450D01*
G03X6075440Y-4936400I132904J45014D01*
G02Y-4968500I-12425J-16050D01*
G03X6028450Y-5034430I85914J-110944D01*
G01X5717030D01*
G37*
G36*
G01Y-4780430D02*
G03X5670040Y-4714500I-132904J-45014D01*
G02Y-4682400I12425J16050D01*
G03X5717030Y-4616470I-85914J110944D01*
G01X6028450D01*
G03X6075440Y-4682400I132904J45014D01*
G02Y-4714500I-12425J-16050D01*
G03X6028450Y-4780430I85914J-110944D01*
G01X5717030D01*
G37*
G36*
G01X5720450Y-4118430D02*
Y-4023130D01*
X5710820D01*
G02X5694300Y-3991030I-3J20299D01*
G03X5713030Y-3954470I-114175J81571D01*
G01X6036810D01*
G03X6055540Y-3991030I132905J45011D01*
G02X6039020Y-4023130I-16517J-11801D01*
G01X6029390D01*
Y-4118430D01*
X5720450D01*
G37*
G36*
G01X5713030Y-3864430D02*
G03X5666040Y-3798500I-132904J-45014D01*
G02Y-3766400I12425J16050D01*
G03X5713030Y-3700470I-85914J110944D01*
G01X6036810D01*
G03X6083800Y-3766400I132904J45014D01*
G02Y-3798500I-12425J-16050D01*
G03X6036810Y-3864430I85914J-110944D01*
G01X5713030D01*
G37*
G36*
G01Y-3610430D02*
G03X5666040Y-3544500I-132904J-45014D01*
G02Y-3512400I12425J16050D01*
G03X5713030Y-3446470I-85914J110944D01*
G01X6036810D01*
G03X6083800Y-3512400I132904J45014D01*
G02Y-3544500I-12425J-16050D01*
G03X6036810Y-3610430I85914J-110944D01*
G01X5713030D01*
G37*
G36*
G01Y-3356430D02*
G03X5666040Y-3290500I-132904J-45014D01*
G02Y-3258400I12425J16050D01*
G03X5713030Y-3192470I-85914J110944D01*
G01X6036810D01*
G03X6083800Y-3258400I132904J45014D01*
G02Y-3290500I-12425J-16050D01*
G03X6036810Y-3356430I85914J-110944D01*
G01X5713030D01*
G37*
G36*
G01Y-3102430D02*
G03X5666040Y-3036500I-132904J-45014D01*
G02Y-3004400I12425J16050D01*
G03X5713030Y-2938470I-85914J110944D01*
G01X6036810D01*
G03X6083800Y-3004400I132904J45014D01*
G02Y-3036500I-12425J-16050D01*
G03X6036810Y-3102430I85914J-110944D01*
G01X5713030D01*
G37*
G36*
G01Y-2340430D02*
G03X5666040Y-2274500I-132904J-45014D01*
G02Y-2242400I12425J16050D01*
G03X5713030Y-2176470I-85914J110944D01*
G01X6036810D01*
G03X6083800Y-2242400I132904J45014D01*
G02Y-2274500I-12425J-16050D01*
G03X6036810Y-2340430I85914J-110944D01*
G01X5713030D01*
G37*
G36*
G01Y-2086430D02*
G03X5666040Y-2020500I-132904J-45014D01*
G02Y-1988400I12425J16050D01*
G03X5713030Y-1922470I-85914J110944D01*
G01X6036810D01*
G03X6083800Y-1988400I132904J45014D01*
G02Y-2020500I-12425J-16050D01*
G03X6036810Y-2086430I85914J-110944D01*
G01X5713030D01*
G37*
%LPC*%
G75*
G36*
G01X3169740Y-4195020D02*
X2810260D01*
G02Y-4104980I-130260J45020D01*
G01X3169740D01*
G02Y-4195020I130260J-45020D01*
G37*
G54D38*
X5190000Y-5650000D03*
X4320000Y-5470000D03*
G54D39*
X4755000Y-6310000D03*
Y-5710000D03*
G54D40*
X1344600Y-1907390D03*
%LPD*%
G75*
G54D10*
X176910Y-5588450D03*
Y-5842450D03*
Y-6096450D03*
Y-4572450D03*
Y-4826450D03*
Y-5080450D03*
Y-5334450D03*
Y-3556450D03*
Y-3810450D03*
Y-4064450D03*
Y-4318450D03*
Y-3302450D03*
X754130Y-5588450D03*
Y-5842450D03*
Y-6096450D03*
Y-4572450D03*
Y-5080450D03*
Y-5334450D03*
Y-4318450D03*
Y-4064450D03*
Y-3810450D03*
Y-3556450D03*
X1350000Y-2494000D03*
X754130Y-3302450D03*
Y-3048450D03*
Y-2450450D03*
X1008130D03*
X790000Y-1334000D03*
X1210000D03*
X356350Y-1428900D03*
X754130Y-2196450D03*
Y-1942450D03*
Y-1688450D03*
X1008130Y-2196450D03*
Y-1942450D03*
X356350Y-1174900D03*
Y-920900D03*
Y-666900D03*
Y-412900D03*
X2370000Y-6520000D03*
X2270000Y-6177000D03*
X1650000Y-6570000D03*
Y-6140000D03*
X1660000Y-2494000D03*
X2700000Y-6177000D03*
X4240000Y-4106000D03*
X5584130Y-5587450D03*
Y-5841450D03*
Y-6095450D03*
X4910000Y-4816000D03*
Y-4820000D03*
X5584130Y-4571450D03*
Y-4825450D03*
Y-5079450D03*
Y-5333450D03*
X4700000Y-4106000D03*
X5160000D03*
X5580130Y-3909450D03*
Y-3655450D03*
Y-3401450D03*
Y-3147450D03*
Y-2893450D03*
Y-2639450D03*
Y-2385450D03*
X4720000Y-1880000D03*
X5170000D03*
X5580130Y-2131450D03*
Y-1877450D03*
X6161350Y-5587450D03*
Y-5841450D03*
Y-6095450D03*
Y-4571450D03*
Y-4825450D03*
Y-5079450D03*
Y-5333450D03*
X6169710Y-3909450D03*
Y-3655450D03*
Y-3401450D03*
Y-3147450D03*
Y-2893450D03*
Y-2639450D03*
Y-2385450D03*
Y-2131450D03*
Y-1877450D03*
G54D11*
X176910Y-6350450D03*
X754130D03*
Y-2794450D03*
X1350000Y-2240000D03*
X1008130Y-1688450D03*
X790000Y-1080000D03*
X1210000D03*
X356350Y-158900D03*
X2270000Y-5923000D03*
X1904000Y-6570000D03*
Y-6140000D03*
X1660000Y-2240000D03*
X2624000Y-6520000D03*
X2700000Y-5923000D03*
X4240000Y-4360000D03*
X5584130Y-6349450D03*
X4910000Y-5070000D03*
X5164000Y-4820000D03*
X4700000Y-4360000D03*
X5160000D03*
X5580130Y-4163450D03*
X4720000Y-2134000D03*
X5170000D03*
X6161350Y-6349450D03*
X6169710Y-4163450D03*
G54D20*
X1733070Y-764960D03*
X1653070D03*
X1573070D03*
X1493070D03*
X1413070D03*
G54D30*
X4320000Y-6440000D03*
Y-6090000D03*
Y-5470000D03*
X5190000Y-6360000D03*
Y-5650000D03*
G54D12*
G01X754130Y-3048450D02*
X60000Y-2354320D01*
Y-1217250D01*
X356350Y-920900D01*
G01X252600Y-2272000D02*
X236770Y-2256170D01*
X216170D01*
G01D02*
X150000Y-2190000D01*
G01X1164130Y-5260660D02*
Y-5788080D01*
G01D02*
X1276050Y-5900000D01*
X1450000D01*
G01X1240000Y-5150000D02*
Y-5184790D01*
X1164130Y-5260660D01*
G01X1234130Y-5350000D02*
X1830000D01*
X1980000Y-5500000D01*
Y-5570000D01*
G01X1183130Y-2649030D02*
X1200000Y-2665900D01*
Y-2880000D01*
G01X953130Y-2736870D02*
X944660Y-2745340D01*
Y-2755340D01*
G01X943470Y-2569660D02*
X953130Y-2579310D01*
Y-2736870D01*
G01X1500000Y-2880000D02*
X1200000D01*
G01X1320000Y-3130000D02*
X1276150Y-3173850D01*
X1231150D01*
X1060000Y-3345000D01*
G01X1416600Y-1758290D02*
X1392000Y-1782890D01*
X1297200D01*
X1272600Y-1758290D01*
G01X525560Y-2280000D02*
X517560Y-2272000D01*
X252600D01*
G01X951720Y-1378280D02*
X1070420D01*
G01D02*
X1126070Y-1433930D01*
G01X1272600Y-1588100D02*
X1355700Y-1505000D01*
X1696000D01*
X1753000Y-1448000D01*
X1866650D01*
G01X1272600Y-1758290D02*
Y-1588100D01*
G01X1263070Y-623070D02*
Y-896930D01*
G01X1129960Y-739960D02*
X1128070D01*
G01X978070Y-878070D02*
Y-739960D01*
G01X515000Y-660000D02*
X620870Y-554130D01*
X624120D01*
X798250Y-380000D01*
X1171000D01*
G01X978070Y-739960D02*
X963070D01*
G01X978070D02*
X1128070D01*
G01X1733070Y-764960D02*
Y-623070D01*
X1630000Y-520000D01*
X1580000D01*
X1444960Y-384960D01*
X1265040D01*
X1200000Y-450000D01*
X827250D01*
X356350Y-920900D01*
G01X1128070Y-139960D02*
X1139960D01*
G01X810040D02*
X1128070D01*
G01X1980000Y-5570000D02*
X1872000D01*
X1817000Y-5515000D01*
G01X2558000Y-3138570D02*
X2182030Y-3514540D01*
G01X1570000Y-2730000D02*
Y-2810000D01*
X1500000Y-2880000D01*
G01X1325000Y-2810000D02*
Y-2519000D01*
X1350000Y-2494000D01*
G01X1660000D02*
X1834000D01*
X1870000Y-2530000D01*
G01X1840000Y-2650000D02*
Y-2560000D01*
X1870000Y-2530000D01*
G01X1840000Y-2730000D02*
Y-2650000D01*
G01Y-2810000D02*
Y-2730000D01*
G01X1660000Y-2494000D02*
X1604000D01*
X1350000Y-2240000D01*
G01X1360000Y-1360000D02*
X1740000D01*
G01X1866650Y-1448000D02*
X2087820Y-1226830D01*
Y-1168820D01*
X2080000Y-1161000D01*
G01X1755000Y-1890000D02*
Y-1985000D01*
X1760000Y-1990000D01*
G01X1700000Y-1760000D02*
X1630000Y-1830000D01*
Y-1870000D01*
X1592610Y-1907390D01*
X1534600D01*
G01X1755000Y-1890000D02*
Y-1815000D01*
X1700000Y-1760000D01*
G01X1760000Y-1990000D02*
Y-2140000D01*
X1660000Y-2240000D01*
G01X1700000Y-1600000D02*
X1621610Y-1678390D01*
X1534600D01*
G01X1733070Y-764960D02*
Y-839960D01*
X1784240Y-891130D01*
Y-914240D01*
X1830000Y-960000D01*
X2060000D01*
X2157820Y-1057820D01*
Y-1255830D01*
X1895650Y-1518000D01*
X1782000D01*
X1700000Y-1600000D01*
G01X1343070Y-623070D02*
Y-896930D01*
G01X1868070Y-601930D02*
Y-739960D01*
G01X1605000Y-1210000D02*
X1730000D01*
G01X2029960Y-739960D02*
X2018070D01*
G01X1868070D02*
Y-878070D01*
G01X1500000Y-1210000D02*
X1452210D01*
X1406210Y-1164000D01*
X1340000D01*
G01X1500000Y-1210000D02*
X1605000D01*
G01X1868070Y-739960D02*
X2018070D01*
G01X1921070Y-1048330D02*
X1759400Y-1210000D01*
X1730000D01*
G01X2080000Y-1161000D02*
Y-1081000D01*
X2039000Y-1040000D01*
X1981000D01*
X1972670Y-1048330D01*
X1921070D01*
G01X1710040Y-139960D02*
X2018070D01*
G01X2315000Y-170000D02*
X2284960Y-139960D01*
X2018070D01*
G01X3000000Y-5370000D02*
X2830000D01*
G01X3170000D02*
X3000000D01*
G01X3340000D02*
X3170000D01*
G01X3610000D02*
X3340000D01*
G01X2385000Y-5465640D02*
X2630640Y-5220000D01*
X3530000D01*
X3665020Y-5084980D01*
X3687230D01*
X3833000Y-4939210D01*
Y-4477060D01*
X3900000Y-4410060D01*
Y-4375000D01*
G01X2535000Y-5527790D02*
X2692790Y-5370000D01*
X2830000D01*
G01X2558000Y-2283720D02*
Y-3138570D01*
G01X2780000Y-2250000D02*
X2779980Y-2250020D01*
X2678160D01*
X2643000Y-2285180D01*
Y-2660000D01*
G01X2628000Y-2760000D02*
X3570000D01*
G01X2628000Y-2870000D02*
X3570000D01*
G01X2585000Y-2185000D02*
X2573000Y-2197000D01*
G01D02*
Y-2268720D01*
G01D02*
X2558000Y-2283720D01*
G01X3347910Y-1183580D02*
Y-1207050D01*
G01Y-993580D02*
Y-1088580D01*
G01D02*
Y-1183580D01*
G01Y-703580D02*
Y-798580D01*
G01Y-893580D02*
Y-798580D01*
G01Y-603580D02*
Y-508580D01*
G01D02*
Y-220000D01*
G01X3983000Y-5001360D02*
X3614360Y-5370000D01*
X3610000D01*
G01X3983000Y-4539210D02*
Y-5001360D01*
G01X4050000Y-3965000D02*
Y-3600000D01*
G01D02*
Y-3335000D01*
G01X3545100Y-3615110D02*
X3655000Y-3505210D01*
Y-3420000D01*
G01X4270000Y-3460000D02*
Y-3664360D01*
G01X4050000Y-3965000D02*
Y-4472210D01*
X3983000Y-4539210D01*
G01X4886790Y-3755000D02*
X4572790D01*
X4420000Y-3602210D01*
Y-3460000D01*
G01X3900000Y-2565800D02*
Y-4375000D01*
G01X4270000Y-3460000D02*
Y-3110000D01*
G01X4050000Y-3335000D02*
Y-3120000D01*
G01D02*
Y-2960000D01*
G01D02*
Y-2670000D01*
G01D02*
Y-2465000D01*
G01X4270000Y-2655000D02*
Y-2510000D01*
G01Y-2800000D02*
Y-2655000D01*
G01Y-2955000D02*
Y-2800000D01*
G01Y-3110000D02*
Y-2955000D01*
G01X4420000Y-3290000D02*
Y-3460000D01*
G01Y-3075000D02*
Y-3290000D01*
G01Y-2905000D02*
Y-3075000D01*
G01Y-2715000D02*
Y-2905000D01*
G01Y-2545000D02*
Y-2715000D01*
G01Y-2360000D02*
Y-2545000D01*
G01X3655000Y-3205000D02*
Y-2960000D01*
G01Y-3420000D02*
Y-3205000D01*
G01X3840000Y-1921000D02*
X4270000Y-2351000D01*
Y-2510000D01*
G01X3678000Y-2087000D02*
X4050000Y-2459000D01*
Y-2465000D01*
G01X3436490Y-2102290D02*
X3900000Y-2565800D01*
G01X4120000Y-2760000D02*
Y-2430000D01*
X3740000Y-2050000D01*
G01X3720000Y-1940000D02*
X3750000Y-1970000D01*
X3790000D01*
X4200000Y-2380000D01*
Y-2870000D01*
G01X3565000Y-1995000D02*
X3570000D01*
X3600000Y-2025000D01*
Y-2040000D01*
G01X3840000Y-1890000D02*
Y-1921000D01*
G01X3600000Y-2040000D02*
X3647000Y-2087000D01*
X3678000D01*
G01X4380000Y-1643000D02*
X3950000D01*
Y-1785640D01*
G01X4040000Y-1493000D02*
X4860790D01*
G01X3950000Y-1785640D02*
X4420000Y-2255640D01*
Y-2360000D01*
G01X3447910Y-508580D02*
X3524720D01*
G01X3545870Y-1183480D02*
X3545770Y-1183580D01*
X3447910D01*
G01X4595020Y-4615020D02*
X4982770D01*
G01D02*
X5107790Y-4490000D01*
X5263640D01*
X5290000Y-4463640D01*
Y-4052140D01*
G01D02*
X5213860Y-3976000D01*
G01D02*
X5107790D01*
X4886790Y-3755000D01*
G01X5300000Y-2642000D02*
X5182000Y-2760000D01*
X5120000D01*
G01X4860790Y-1493000D02*
X5117790Y-1750000D01*
X5223860D01*
X5300000Y-1826140D01*
Y-2642000D01*
X85000Y-2780000D03*
X80000Y-2935000D03*
Y-3090000D03*
X230000Y-2375000D03*
X220000Y-1520000D03*
X150000Y-2260000D03*
Y-2110000D03*
Y-1950000D03*
Y-1780000D03*
Y-1640000D03*
X60000Y-1010000D03*
Y-890000D03*
Y-530000D03*
Y-410000D03*
X230000Y-1280000D03*
X160000Y-980000D03*
X220000Y-140000D03*
X1045000Y-6785000D03*
X950000Y-6680000D03*
X1220000Y-6130000D03*
X1070000Y-5980000D03*
X970000Y-6270000D03*
X950000Y-6370000D03*
X855000Y-6580000D03*
X1180000Y-5730000D03*
X1230000Y-5830000D03*
X330000Y-5660000D03*
Y-5915000D03*
X355000Y-6430000D03*
X330000Y-6170000D03*
X455000Y-6540000D03*
X595000Y-6170000D03*
Y-5920000D03*
X605000Y-5660000D03*
X1185000Y-5445000D03*
Y-5580000D03*
X295000Y-4695000D03*
X1130000Y-4685000D03*
X905000Y-4820000D03*
X325000Y-5155000D03*
Y-5405000D03*
X605000D03*
X600000Y-5150000D03*
X470000Y-4880000D03*
X645000D03*
X470000Y-4630000D03*
X1234130Y-5350000D03*
X1170000Y-4820000D03*
X1103900Y-5163900D03*
X1248260Y-4811740D03*
X1170000Y-5130000D03*
X300000Y-3680000D03*
Y-3935000D03*
X295000Y-4185000D03*
X290000Y-4440000D03*
X1130000Y-4500000D03*
Y-4380000D03*
X470000Y-4375000D03*
Y-4115000D03*
Y-3860000D03*
X550000Y-3615000D03*
X1095000Y-4087040D03*
X920000Y-3740000D03*
X1142040Y-4032040D03*
X980000Y-3780000D03*
X350000Y-2515000D03*
X940000Y-3110000D03*
X1050000D03*
X1225000Y-2660000D03*
X1240000Y-2720000D03*
X490000Y-2625000D03*
X555000Y-2695000D03*
X305000Y-2780000D03*
Y-2940000D03*
X500000D03*
X550000Y-3090000D03*
X320000Y-3095000D03*
X555000Y-3355000D03*
X405000Y-3370000D03*
X944660Y-2755340D03*
X1200000Y-2880000D03*
X1060000Y-3345000D03*
Y-1490000D03*
X930000D03*
X820000Y-1510000D03*
X710000D03*
X585000Y-1590000D03*
X460000Y-1595000D03*
X240000Y-1585000D03*
X485000Y-2295000D03*
X1290000Y-1560000D03*
X1260000Y-1700000D03*
X1202600Y-1614000D03*
X670000Y-380000D03*
X910000Y-800000D03*
X830000Y-900000D03*
X735000Y-825000D03*
X870000Y-725000D03*
X940000Y-635000D03*
X825000D03*
X725000Y-695000D03*
X620000Y-795000D03*
X1155000Y-370000D03*
X1045000D03*
X930000D03*
X800000D03*
X720000Y-435000D03*
X640000Y-515000D03*
X385000Y-540000D03*
X270000D03*
X440000Y-1050000D03*
X1055000Y-525000D03*
X848130Y-528130D03*
X515000Y-660000D03*
X978070Y-878070D03*
X1129960Y-739960D03*
X1263070Y-896930D03*
Y-623070D03*
X880000Y-210000D03*
X760000Y-220000D03*
X610000D03*
X930000Y-140000D03*
X670000D03*
X540000D03*
X1280000Y-175000D03*
X1139960Y-139960D03*
X810040D03*
X2080000Y-5650000D03*
X2260000Y-6670000D03*
X2275000Y-6365000D03*
X2095000Y-5995000D03*
Y-6115000D03*
X2100000Y-6245000D03*
X2135000Y-6390000D03*
X2140000Y-6530000D03*
Y-6650000D03*
X1510000Y-6240000D03*
X1310000Y-5740000D03*
X1300000Y-5890000D03*
X1640000Y-5640000D03*
X1650000Y-5820000D03*
X1450000Y-5900000D03*
X1675000Y-5720000D03*
X1450000Y-5740000D03*
X2080000Y-5910000D03*
X1305000Y-5565000D03*
X1315000Y-5450000D03*
X1345000Y-4720000D03*
X2250000Y-5600000D03*
X2350000Y-5325000D03*
X2135000Y-5330000D03*
X1905000Y-5245000D03*
X1620000Y-5240000D03*
X1310000Y-5235000D03*
X2075000Y-4740000D03*
Y-4895000D03*
X1755000Y-4900000D03*
X1760000Y-4740000D03*
X2255000Y-4805000D03*
X1680000Y-5560000D03*
X1450000D03*
X2140000Y-5570000D03*
X1426100Y-4816100D03*
X2245000Y-3935000D03*
X1335000Y-3920000D03*
X1345000Y-4160000D03*
Y-4420000D03*
X2040000Y-4385000D03*
X1755000Y-4370000D03*
X1750000Y-2780000D03*
Y-2690000D03*
X2290000Y-3430000D03*
X1405000Y-2800000D03*
Y-2670000D03*
X1750000Y-2860000D03*
X1680000Y-2690000D03*
Y-2780000D03*
X1320000Y-3130000D03*
X1325000Y-2810000D03*
X1840000Y-2650000D03*
Y-2730000D03*
Y-2810000D03*
X1865000Y-2880000D03*
X1880000Y-3110000D03*
X1954100Y-2880000D03*
X1960000Y-3110000D03*
X1660000Y-1975000D03*
X1650000Y-2050000D03*
X1300000D03*
X1815000Y-2405000D03*
X1860000Y-2295000D03*
Y-2230000D03*
Y-2160000D03*
X1865000Y-2045000D03*
X1855000Y-1940000D03*
Y-1830000D03*
X1870000Y-1690000D03*
X1800000Y-1650000D03*
X1875000Y-1385000D03*
X1820000Y-1430000D03*
X1650000D03*
X1460000Y-1470000D03*
X1440000Y-2025000D03*
Y-1905000D03*
X1380000Y-1500000D03*
X1530000Y-1790000D03*
X1470000D03*
X1400000D03*
X1330000D03*
X2320000Y-300000D03*
X2240000Y-1130000D03*
X2220000Y-1010000D03*
X2120000Y-900000D03*
X1910000Y-1320000D03*
X2115000Y-330000D03*
X2225000Y-445000D03*
X2280000Y-625000D03*
Y-770000D03*
X2320000Y-925000D03*
X1490000Y-895000D03*
X1415000D03*
X1495000Y-625000D03*
X1415000D03*
X1790000Y-1175000D03*
X1730000Y-1210000D03*
X1605000D03*
X1500000D03*
X1945000Y-510000D03*
X1868070Y-878070D03*
Y-601930D03*
X1343070Y-896930D03*
Y-623070D03*
X2029960Y-739960D03*
X1350000Y-1050000D03*
X2010000Y-1110000D03*
X2310000Y-1080000D03*
X2017820Y-1197820D03*
X1630000Y-85000D03*
X1375000D03*
X1605000Y-205000D03*
X1435000Y-210000D03*
X1735000D03*
X2220000Y-205000D03*
X1535000Y-170000D03*
X1710040Y-139960D03*
X2450000Y-6670000D03*
X3370000Y-5920000D03*
X3360000Y-6050000D03*
X2870000Y-5660000D03*
X2695000Y-5730000D03*
X3020000Y-5800000D03*
X3280000Y-5805000D03*
X3100000D03*
X2980000Y-6390000D03*
X2850000Y-6500000D03*
X2930000Y-6340000D03*
X2790000Y-6345000D03*
X2420000Y-6360000D03*
X2540000Y-5640000D03*
X3020000Y-6470000D03*
X2950000Y-6540000D03*
X3370000Y-5530000D03*
X3040000Y-5520000D03*
X2640000Y-5590000D03*
X3310000Y-5215000D03*
X3045000D03*
X2785000D03*
X2530000Y-5290000D03*
X2425000Y-5410000D03*
X2445000Y-5010000D03*
X2835000Y-4740000D03*
X3165000Y-4880000D03*
X2580000Y-4810000D03*
X3405000Y-4825000D03*
X3340000Y-5370000D03*
X3170000D03*
X3000000D03*
X2830000D03*
X2660000Y-5410000D03*
X2580000Y-5490000D03*
X2540000Y-5197500D03*
X3325000Y-3495000D03*
X2875000Y-3625000D03*
X3110000Y-3620000D03*
X2465000Y-3695000D03*
X2400000Y-3820000D03*
X2580000Y-4380000D03*
X3160000D03*
X3365000Y-3920000D03*
X2655000Y-3925000D03*
X2480000Y-4045000D03*
X2450000Y-4285000D03*
X3270000Y-2480000D03*
X3120000Y-2500000D03*
X3100000Y-2420000D03*
X3050000Y-2540000D03*
X2840000Y-2620000D03*
X2770000Y-2570000D03*
X2740000Y-2470000D03*
X3425000Y-2580000D03*
X3400000Y-2660000D03*
X3290000Y-3180000D03*
X3220000Y-3380000D03*
X2805000Y-3390000D03*
X2530000Y-3400000D03*
X3280000Y-2970000D03*
X3050000Y-2965000D03*
X2790000D03*
X2570000Y-2970000D03*
X2575000Y-3125000D03*
X2455000Y-3265000D03*
X3360000Y-2550000D03*
X3130000Y-2590000D03*
X3195000Y-2490000D03*
X2970000Y-2615000D03*
X2810000Y-2480000D03*
X2560000Y-2530000D03*
X3350000Y-2480000D03*
X2643000Y-2660000D03*
X2628000Y-2760000D03*
Y-2870000D03*
X3080000Y-2210000D03*
X3370000Y-2390000D03*
X3090000Y-2310000D03*
X3300000Y-1790000D03*
X3130000D03*
X2960000D03*
X3300000Y-1620000D03*
X3130000D03*
X2960000D03*
X2710000Y-2160000D03*
X2722000Y-2000270D03*
X2660000D03*
X2850000Y-2130000D03*
X2780000Y-2140000D03*
X2880000Y-1880000D03*
X3020000Y-1960000D03*
X2950000D03*
X2885000D03*
X2575000Y-2260000D03*
X2560000Y-2370000D03*
X2790000Y-2400000D03*
X2725000Y-2375000D03*
X2585000Y-2185000D03*
X3294730Y-1540590D03*
X3296790Y-1707630D03*
Y-1879830D03*
X3120470Y-1541630D03*
X3128720Y-1704550D03*
X3126650Y-1877780D03*
X2952390Y-1536470D03*
X2957550Y-1705580D03*
X2955490Y-1873650D03*
X2558780Y-1791270D03*
X2513720Y-1933720D03*
X2507000Y-1741070D03*
X2500000Y-450000D03*
X2390000Y-470000D03*
X2400000Y-600000D03*
X2640000Y-595000D03*
X2455000Y-810000D03*
X2810000Y-745000D03*
Y-680000D03*
X2845000Y-500000D03*
X3075000Y-545000D03*
X3105000Y-625000D03*
Y-715000D03*
Y-805000D03*
Y-900000D03*
X3160000Y-535000D03*
X3185000Y-450000D03*
X3245000Y-510000D03*
Y-625000D03*
X3175000Y-1000000D03*
X2660000Y-325000D03*
X2560000Y-1030000D03*
X2435000Y-1035000D03*
X2950000Y-305000D03*
X3175000Y-805000D03*
X2723950Y-1022120D03*
X3245000Y-1000000D03*
Y-900000D03*
Y-805000D03*
Y-715000D03*
X3075000Y-455000D03*
X3175000Y-715000D03*
X2453620Y-713430D03*
X3175000Y-625000D03*
X2961520Y-450980D03*
X2753090Y-483910D03*
X2750000Y-590000D03*
X2575080Y-713430D03*
X3175000Y-900000D03*
X2810000Y-210000D03*
X2690000D03*
X2560000Y-100000D03*
X2490000Y-260000D03*
X2725000Y-120000D03*
X2950000Y-60000D03*
Y-155000D03*
X3600000Y-6800000D03*
X3770000D03*
X3915000D03*
X3825000Y-6710000D03*
X4260000Y-6770000D03*
X3850000Y-5980000D03*
X3730000Y-5800000D03*
X3530000D03*
X3430000D03*
X3690000Y-6090000D03*
X3820000Y-6080000D03*
X3665000Y-6365000D03*
X3525000Y-6375000D03*
X3810000Y-6590000D03*
X4315000Y-6660000D03*
X4220000Y-5905000D03*
Y-5690000D03*
X4045000Y-6075000D03*
X4040000Y-5770000D03*
X3840000Y-5870000D03*
X3860000Y-6170000D03*
X4025000Y-6250000D03*
X3850000Y-6340000D03*
X4145000Y-6250000D03*
X3695000Y-6450000D03*
X4410000Y-5735000D03*
X4400000Y-5900000D03*
X4445000Y-6615000D03*
X4410000Y-6325000D03*
X3520000Y-6470000D03*
X3600000Y-6540000D03*
X4240000Y-6315000D03*
X3620000Y-5530000D03*
X4285000Y-5305000D03*
X3855000Y-5320000D03*
X3845000Y-5510000D03*
X3610000Y-4945000D03*
X3560000Y-5085000D03*
X3490000Y-5200000D03*
X4145000Y-4675000D03*
X4205000Y-4545000D03*
X4460000Y-4970000D03*
X4224000Y-4904000D03*
X4371000D03*
X4290000Y-4830000D03*
X4200000Y-5150000D03*
X4040000D03*
X3830000Y-4550000D03*
X3825000Y-4945000D03*
X3515000Y-4685000D03*
X3985000Y-4545000D03*
X3990000Y-4960000D03*
X3840000Y-5150000D03*
X3760000Y-5230000D03*
X3610000Y-5370000D03*
X4120000Y-5225000D03*
X4290000Y-4970000D03*
X4460000Y-4835000D03*
X4380000Y-3980000D03*
Y-4180000D03*
X4485000Y-4405000D03*
X3500000Y-3605000D03*
X3490000Y-4370000D03*
X3605000Y-3915000D03*
X4365000Y-4530000D03*
X4400000Y-4340000D03*
X4370000Y-3865000D03*
X4335000Y-3745000D03*
X4270000Y-3670000D03*
X4050000Y-3600000D03*
Y-3965000D03*
X3895000Y-3540000D03*
Y-3710000D03*
Y-3905000D03*
Y-4105000D03*
X3900000Y-4375000D03*
X3720000Y-4210000D03*
X3830000D03*
X4200000Y-3560000D03*
X4490000D03*
X3525000Y-2660000D03*
X3595000Y-2610000D03*
X3530000Y-2540000D03*
X3465000Y-2480000D03*
X3500000Y-3180000D03*
X3490000Y-3380000D03*
X3655000Y-3420000D03*
Y-3205000D03*
Y-2960000D03*
X3520000Y-2965000D03*
X4420000Y-2545000D03*
Y-2715000D03*
Y-2905000D03*
Y-3075000D03*
Y-3290000D03*
X4150000Y-3410000D03*
X4160000Y-3205000D03*
Y-3040000D03*
X4265000Y-3275000D03*
X4270000Y-3110000D03*
Y-2955000D03*
Y-2800000D03*
Y-2655000D03*
Y-2510000D03*
X4050000Y-2465000D03*
Y-2670000D03*
Y-2960000D03*
Y-3120000D03*
Y-3335000D03*
X3890000Y-2560000D03*
X3895000Y-2660000D03*
Y-2975000D03*
Y-3175000D03*
Y-3355000D03*
X4420000Y-3460000D03*
X4270000D03*
X3570000Y-2760000D03*
X4120000D03*
X4200000Y-2870000D03*
X3570000D03*
X4380000Y-1940000D03*
X4420000Y-1750000D03*
X3565000Y-1995000D03*
X3925000Y-2000000D03*
X3850000Y-2270000D03*
X4410000Y-1490000D03*
X4220000D03*
X4075000D03*
X4375000Y-1850000D03*
X4270000Y-1765000D03*
X4365000Y-1650000D03*
X4210000D03*
X4230000Y-1880000D03*
X4385000Y-2035000D03*
X4210000Y-2045000D03*
X4340000Y-2175000D03*
X4420000Y-2360000D03*
X4270000Y-2350000D03*
X4180000Y-2260000D03*
X4080000Y-2155000D03*
X3980000Y-2060000D03*
X3750000Y-2160000D03*
X3650000Y-2090000D03*
X3925000Y-2345000D03*
X3570000Y-2235000D03*
X3645000Y-2310000D03*
X3715000Y-2380000D03*
X3600000Y-2040000D03*
X3840000Y-1770000D03*
Y-1690000D03*
Y-1890000D03*
X3740000Y-2050000D03*
X3720000Y-1940000D03*
X4020000Y-1713000D03*
X3970000Y-1493000D03*
X3750000Y-1070000D03*
X3740000Y-880000D03*
X3730000Y-660000D03*
Y-520000D03*
X3660000Y-590000D03*
X3670000Y-780000D03*
X3675000Y-1010000D03*
X3820000Y-1195000D03*
X3745000Y-1145000D03*
X3635000Y-1255000D03*
X3480000Y-1345000D03*
X3545000Y-1270000D03*
X3520000Y-605000D03*
Y-685000D03*
X3550000Y-870000D03*
X3545000Y-950000D03*
X3510000Y-455000D03*
X4005000Y-510000D03*
X4065000Y-310000D03*
X4115000Y-640000D03*
X4085000Y-835000D03*
X4455000Y-1110000D03*
X4210000Y-1105000D03*
X4175000Y-1255000D03*
X4025000Y-1250000D03*
X3640000Y-470000D03*
X3750000Y-415000D03*
X3755000Y-295000D03*
X3595000Y-1085000D03*
X3635000Y-1175000D03*
X3520680Y-788580D03*
X3524720Y-508580D03*
X3450000Y-655000D03*
Y-850000D03*
Y-570000D03*
Y-745000D03*
Y-935000D03*
X3545000Y-1030000D03*
X3450000Y-1035000D03*
X3495000Y-1085000D03*
X4060000Y-85000D03*
X3755000Y-175000D03*
X3750000Y-60000D03*
X4755000Y-6310000D03*
Y-5710000D03*
X4865000Y-5845000D03*
X4730000Y-5945000D03*
X4935000Y-6250000D03*
X4915000Y-6545000D03*
X4775000D03*
X4640000D03*
X4560000Y-6240000D03*
X4675000Y-6170000D03*
X4905000Y-6075000D03*
X5060000Y-5810000D03*
X5055000Y-5965000D03*
Y-6120000D03*
X5250000Y-6115000D03*
X5255000Y-5990000D03*
X5250000Y-5810000D03*
X5400000D03*
X5395000Y-5965000D03*
X5390000Y-6100000D03*
X5410000Y-6290000D03*
X5350000Y-6545000D03*
X5555000D03*
X4615000Y-5950000D03*
Y-5795000D03*
X4535000Y-6545000D03*
X5215000D03*
X5060000D03*
X5005000Y-6360000D03*
X5105000Y-6250000D03*
X5270000D03*
X4655000Y-5300000D03*
Y-4975000D03*
X5390000Y-4605000D03*
X5395000Y-4765000D03*
X5380000Y-4925000D03*
X5385000Y-5140000D03*
X5350000Y-5260000D03*
X5345000Y-5450000D03*
X4830000Y-5570000D03*
X5075000Y-5470000D03*
X5205000Y-5370000D03*
X5260000Y-5220000D03*
Y-5055000D03*
X5080000Y-5080000D03*
X5085000Y-5215000D03*
X5025000Y-5300000D03*
X4915000Y-5390000D03*
X4710000Y-5400000D03*
X4555000Y-5530000D03*
X5025000Y-4590000D03*
X4885000Y-4625000D03*
X4725000D03*
X4630000Y-4650000D03*
X4534000Y-4904000D03*
X4565000Y-4650000D03*
X4830000Y-3990000D03*
X5020000Y-4190000D03*
X4840000D03*
X4550000D03*
X5495000Y-4370000D03*
X5345000Y-3670000D03*
X5215000Y-3805000D03*
X5180000Y-3570000D03*
X5040000Y-3535000D03*
X4790000Y-3515000D03*
X4600000Y-3600000D03*
X4745000Y-3750000D03*
X5090000Y-3955000D03*
X5305000Y-4035000D03*
X5310000Y-4220000D03*
X4765000Y-3890000D03*
X4950000Y-4335000D03*
X4880000Y-4455000D03*
X5300000Y-4510000D03*
X5135000D03*
X5210000Y-2460000D03*
X5340000Y-2800000D03*
X4930000Y-2955000D03*
X4650000Y-2945000D03*
X4550000Y-2710000D03*
Y-2600000D03*
X5360000Y-2895000D03*
X5340000Y-3165000D03*
X5350000Y-3430000D03*
X5180000Y-3260000D03*
Y-3000000D03*
X4940000Y-2810000D03*
X4960000Y-3090000D03*
X4965000Y-3365000D03*
X4755000Y-3345000D03*
X4735000Y-3080000D03*
X5280000Y-2520000D03*
X5160000Y-2545000D03*
X5120000Y-2830000D03*
X5045000Y-2760000D03*
X4825000D03*
X4750000Y-2835000D03*
X4540000Y-2505000D03*
Y-2850000D03*
X4535000Y-3100000D03*
X4545000Y-3380000D03*
X4710000Y-2330000D03*
X4870000Y-1960000D03*
X4880000Y-1810000D03*
X4550000Y-2230000D03*
X4860000Y-1690000D03*
X4945000Y-2255000D03*
X4725000Y-1700000D03*
X5280000Y-1520000D03*
X5065000Y-1375000D03*
X5085000Y-1715000D03*
X4865000Y-1490000D03*
X4695000D03*
X5275000Y-2355000D03*
X4820000D03*
X4560000Y-2375000D03*
X4780000Y-1650000D03*
X5105000Y-2405000D03*
X5390000Y-1215000D03*
X5485000Y-985000D03*
X5415000Y-685000D03*
X4615000D03*
X4800000Y-690000D03*
X5170000D03*
X5160000Y-920000D03*
X5025000Y-980000D03*
X5145000Y-1235000D03*
X5085000Y-1110000D03*
X4885000D03*
X4795000Y-1250000D03*
X4545000Y-1265000D03*
X5835000Y-6450000D03*
X5820000Y-6540000D03*
X5990000D03*
X5975000Y-6265000D03*
Y-6180000D03*
Y-6010000D03*
X5980000Y-5935000D03*
X5985000Y-5760000D03*
Y-5670000D03*
Y-5505000D03*
X5980000Y-5415000D03*
X5975000Y-5255000D03*
Y-5160000D03*
Y-5000000D03*
X5970000Y-4905000D03*
X5975000Y-4745000D03*
Y-4655000D03*
X6265000Y-4375000D03*
X6135000D03*
X5835000Y-4305000D03*
X5715000Y-4370000D03*
X5965000Y-4065000D03*
X6010000Y-3990000D03*
X5980000Y-3830000D03*
Y-3735000D03*
Y-3575000D03*
X5985000Y-3480000D03*
X5990000Y-3325000D03*
X5985000Y-3225000D03*
Y-3070000D03*
Y-2975000D03*
X6070000Y-2750000D03*
X5820000Y-2680000D03*
X5670000Y-2755000D03*
X6085000Y-2525000D03*
X5665000D03*
X5990000Y-2260000D03*
X5690000D03*
X5700000Y-2005000D03*
X6050000Y-2000000D03*
X5875000Y-1375000D03*
X6110000Y-1435000D03*
X5875000Y-1630000D03*
X5975000Y-1655000D03*
X6100000Y-1230000D03*
X5740000D03*
Y-995000D03*
X5760000Y-705000D03*
X6190000Y-995000D03*
X5875000Y-735000D03*
X6190000Y-725000D03*
X5735000Y-425000D03*
X6150000Y-355000D03*
X5740000Y-125000D03*
G54D21*
G01X754130Y-5842450D02*
X176910D01*
G01X754130Y-6096450D02*
X176910D01*
G01X754130Y-6350450D02*
X176910D01*
G01X754130Y-5588450D02*
X176910D01*
G01X754130Y-5080450D02*
X176910D01*
G01X754130Y-5334450D02*
X176910D01*
G01Y-4572450D02*
X356350D01*
X471350Y-4457450D01*
X852550D01*
X920000Y-4390000D01*
Y-4006570D01*
X1459070Y-3467500D01*
X1981570D01*
X2383000Y-3066070D01*
Y-1730710D01*
X2477640Y-1636070D01*
X2787910D01*
G01X176910Y-4826450D02*
X356350D01*
X451400Y-4731400D01*
X878600D01*
X960000Y-4650000D01*
Y-4023140D01*
X1475640Y-3507500D01*
X1998140D01*
X2423000Y-3082640D01*
Y-1747280D01*
X2484210Y-1686070D01*
X2787910D01*
G01X176910Y-3556450D02*
X356350D01*
X472800Y-3440000D01*
X1147150D01*
X1359650Y-3227500D01*
X1842500D01*
X1960000Y-3110000D01*
G01X176910Y-4064450D02*
X356350D01*
X471350Y-3949450D01*
X810000D01*
X869130Y-3890320D01*
Y-3762800D01*
X865000Y-3758670D01*
Y-3715000D01*
X900000Y-3680000D01*
X1020290D01*
X1392790Y-3307500D01*
X1915290D01*
X2223000Y-2999790D01*
Y-1664430D01*
X2451360Y-1436070D01*
X2787910D01*
G01X176910Y-4318450D02*
X356350D01*
X480000Y-4194800D01*
X835200D01*
X880000Y-4150000D01*
Y-3990000D01*
X1442500Y-3427500D01*
X1965000D01*
X2343000Y-3049500D01*
Y-1714140D01*
X2471070Y-1586070D01*
X2787910D01*
G01X176910Y-3810450D02*
X356350D01*
X476800Y-3690000D01*
X790000D01*
X840000Y-3640000D01*
X1003720D01*
X1376220Y-3267500D01*
X1898720D01*
X2183000Y-2983220D01*
Y-1647860D01*
X2454790Y-1376070D01*
X2847910D01*
G01X1880000Y-3110000D02*
X1802500Y-3187500D01*
X1343080D01*
X1130580Y-3400000D01*
X900000D01*
X870000Y-3370000D01*
Y-3240000D01*
X817450Y-3187450D01*
X471350D01*
X356350Y-3302450D01*
X176910D01*
G01X150000Y-1710000D02*
Y-1640000D01*
G01Y-1710000D02*
Y-1780000D01*
G01Y-1870000D02*
Y-1780000D01*
G01Y-1870000D02*
Y-1950000D01*
G01Y-2030000D02*
Y-1950000D01*
G01Y-2030000D02*
Y-2110000D01*
G01Y-2190000D02*
Y-2110000D01*
G01Y-2190000D02*
Y-2260000D01*
G01X160000Y-980000D02*
Y-420000D01*
X282100Y-297900D01*
X1192990D01*
X1210890Y-280000D01*
X1960000D01*
X2210000Y-530000D01*
Y-919060D01*
X2310000Y-1019060D01*
Y-1080000D01*
G01X1600000Y-4580000D02*
Y-4814320D01*
X1490770Y-4923550D01*
X1153310D01*
X949130Y-5127730D01*
Y-5647450D01*
X754130Y-5842450D01*
G01X1600000Y-5030000D02*
X1495500D01*
X1490500Y-5035000D01*
X1098430D01*
X989130Y-5144300D01*
Y-5861450D01*
X754130Y-6096450D01*
G01X2540000Y-5197500D02*
X2330930D01*
X2275930Y-5142500D01*
X1553390D01*
X1485890Y-5075000D01*
X1115000D01*
X1029130Y-5160870D01*
Y-5880870D01*
X869130Y-6040870D01*
Y-6235450D01*
X754130Y-6350450D01*
G01X1650000Y-6140000D02*
X1381690D01*
X1069130Y-5827440D01*
Y-5198670D01*
X1103900Y-5163900D01*
G01X1170000Y-5130000D02*
Y-5177000D01*
X1133330Y-5213670D01*
X1131920D01*
X1109130Y-5236460D01*
Y-5810870D01*
X1323260Y-6025000D01*
X1697650D01*
X1770000Y-6097350D01*
Y-6450000D01*
X1650000Y-6570000D01*
G01X1590000Y-4150000D02*
Y-4357720D01*
X1487500Y-4460220D01*
Y-4832500D01*
X1436450Y-4883550D01*
X1136740D01*
X909130Y-5111160D01*
Y-5433450D01*
X754130Y-5588450D01*
G01X1095000Y-4087040D02*
X1208260Y-4200300D01*
Y-4734740D01*
X1170000Y-4773000D01*
Y-4820000D01*
G01X1248260Y-4811740D02*
Y-4138260D01*
X1142040Y-4032040D01*
G01X754130Y-5080450D02*
X826700D01*
X1015000Y-4892150D01*
Y-4166570D01*
X1000000Y-4151570D01*
Y-4039710D01*
X1492210Y-3547500D01*
X2014710D01*
X2463000Y-3099210D01*
Y-2244360D01*
X2478000Y-2229360D01*
Y-2047240D01*
X2639170Y-1886070D01*
X2787910D01*
G01X754130Y-5334450D02*
X869130Y-5219450D01*
Y-5094590D01*
X1055000Y-4908720D01*
Y-4150000D01*
X1040000Y-4135000D01*
Y-4056280D01*
X1508780Y-3587500D01*
X2031280D01*
X2503000Y-3115780D01*
Y-2260930D01*
X2518000Y-2245930D01*
Y-2063810D01*
X2645740Y-1936070D01*
X2787910D01*
G01X920000Y-3740000D02*
X935000Y-3725000D01*
X1031860D01*
X1409360Y-3347500D01*
X1931860D01*
X2263000Y-3016360D01*
Y-1681000D01*
X2457930Y-1486070D01*
X2787910D01*
G01X980000Y-3780000D02*
X1033430D01*
X1425930Y-3387500D01*
X1948430D01*
X2303000Y-3032930D01*
Y-1697570D01*
X2464500Y-1536070D01*
X2787910D01*
G01X2897910Y-1376070D02*
Y-1352500D01*
X2864480Y-1319070D01*
X2455220D01*
X2143000Y-1631290D01*
Y-2938600D01*
X2026600Y-3055000D01*
X1125000D01*
X1008130Y-2938130D01*
Y-2450450D01*
G01X2947910Y-1376070D02*
Y-1345930D01*
X2881050Y-1279070D01*
X2438650D01*
X2103000Y-1614720D01*
Y-2922030D01*
X2010030Y-3015000D01*
X1141570D01*
X1048130Y-2921560D01*
Y-2593100D01*
X1123130Y-2518100D01*
Y-2402790D01*
X1083130Y-2362800D01*
Y-2271450D01*
X1008130Y-2196450D01*
G01X2997910Y-1376070D02*
Y-1339360D01*
X2897620Y-1239070D01*
X2422080D01*
X2063000Y-1598150D01*
Y-2905460D01*
X1993460Y-2975000D01*
X1158140D01*
X1088130Y-2904990D01*
Y-2609670D01*
X1163130Y-2534670D01*
Y-2386210D01*
X1123130Y-2346210D01*
Y-2057450D01*
X1008130Y-1942450D01*
G01X3047910Y-1376070D02*
Y-1332790D01*
X2914190Y-1199070D01*
X2405510D01*
X2023000Y-1581580D01*
Y-2888890D01*
X1976890Y-2935000D01*
X1174710D01*
X1128130Y-2888420D01*
Y-2626240D01*
X1203130Y-2551240D01*
Y-2369640D01*
X1163130Y-2329640D01*
Y-1843450D01*
X1008130Y-1688450D01*
G01X540000Y-2190000D02*
X580560Y-2230560D01*
Y-2276880D01*
X754130Y-2450450D01*
G01X1439600Y-1678390D02*
Y-1735290D01*
X1416600Y-1758290D01*
G01X881000Y-1449000D02*
X951720Y-1378280D01*
G01X1126070Y-1433930D02*
X1141140Y-1449000D01*
X1271000D01*
X1360000Y-1360000D01*
G01X792050Y-865520D02*
X675000Y-982570D01*
Y-1381650D01*
X742350Y-1449000D01*
X881000D01*
G01X440000Y-1710000D02*
X310000D01*
G01X440000Y-1870000D02*
X310000D01*
G01Y-2030000D02*
X440000D01*
G01X310000Y-2190000D02*
X440000D01*
G01X1202600Y-1614000D02*
Y-1687000D01*
X1203130Y-1687530D01*
Y-2313070D01*
X1243130Y-2353070D01*
Y-2387130D01*
X1350000Y-2494000D01*
G01X540000Y-2030000D02*
X580560Y-2070560D01*
X628240D01*
X754130Y-2196450D01*
G01X540000Y-1870000D02*
X681680D01*
X754130Y-1942450D01*
G01Y-1688450D02*
X657130D01*
X635580Y-1710000D01*
X540000D01*
G01X963070Y-739960D02*
X837510Y-865520D01*
X792050D01*
G01X1220500Y-330500D02*
X1231000Y-320000D01*
X1480000D01*
X1500000Y-340000D01*
G01X2010000Y-1110000D02*
X1937190D01*
X1782190Y-1265000D01*
X1429420D01*
X1383420Y-1219000D01*
X905000D01*
X790000Y-1334000D01*
G01X1210000Y-1080000D02*
X1239000Y-1109000D01*
X1429000D01*
X1475000Y-1155000D01*
X1705000D01*
X1760000Y-1100000D01*
G01X2017820Y-1197820D02*
X1905940D01*
X1798760Y-1305000D01*
X1239000D01*
X1210000Y-1334000D01*
G01X1560000Y-1000000D02*
X1479540D01*
X1444540Y-965000D01*
X905000D01*
X790000Y-1080000D01*
G01X2080000Y-5860000D02*
Y-5910000D01*
G01X3160000Y-5937500D02*
Y-6020000D01*
X3120000Y-6060000D01*
X2387000D01*
X2270000Y-6177000D01*
G01X3397910Y-2046070D02*
X3461060D01*
X3524000Y-2108990D01*
Y-2109000D01*
X3955000Y-2540000D01*
Y-4432850D01*
X3888000Y-4499850D01*
Y-4962000D01*
X3575000Y-5275000D01*
X2653430D01*
X2440000Y-5488430D01*
Y-5753000D01*
X2270000Y-5923000D01*
G01X1980000Y-5860000D02*
Y-5950000D01*
X2019000Y-5989000D01*
Y-6455000D01*
X1904000Y-6570000D01*
G01X1817000Y-5845000D02*
X1914000D01*
X1929000Y-5860000D01*
X1980000D01*
G01X1904000Y-6140000D02*
Y-6033000D01*
X1871000Y-6000000D01*
X1800000D01*
X1720000Y-5920000D01*
Y-5777000D01*
X1817000Y-5680000D01*
G01X2080000Y-5570000D02*
X2140000D01*
G01X2220000Y-4580000D02*
X2690000D01*
G01X1600000D02*
X2220000D01*
G01X1426100Y-4816100D02*
Y-4465050D01*
X1460000Y-4431150D01*
Y-3830000D01*
X1590000Y-3700000D01*
G01X1600000Y-5030000D02*
X2220000D01*
G01D02*
X2332500Y-5142500D01*
X3356610D01*
X3437050Y-5062060D01*
Y-4962310D01*
X3760000Y-4639360D01*
Y-4275000D01*
X3775000Y-4260000D01*
Y-4187210D01*
X3790000Y-4172210D01*
Y-2590160D01*
X3297910Y-2098070D01*
Y-2046070D01*
G01X1590000Y-4150000D02*
X2210000D01*
G01X2680000Y-3700000D02*
X2455000Y-3925000D01*
X2435000D01*
X2210000Y-4150000D01*
G01Y-3700000D02*
X1590000D01*
G01X1865000Y-2880000D02*
X1943000Y-2802000D01*
Y-1548440D01*
X2372370Y-1119070D01*
X2947330D01*
X3147910Y-1319650D01*
Y-1376070D01*
G01X1954100Y-2880000D02*
Y-2875900D01*
X1983000Y-2847000D01*
Y-1565010D01*
X2388940Y-1159070D01*
X2930760D01*
X3097910Y-1326220D01*
Y-1376070D01*
G01X1534600Y-1678390D02*
Y-1604600D01*
X1490000Y-1560000D01*
X1378490D01*
X1344600Y-1593890D01*
Y-1678390D01*
G01X1350000Y-1050000D02*
X1510000D01*
X1560000Y-1100000D01*
G01X1653070Y-764960D02*
Y-893070D01*
X1760000Y-1000000D01*
G01X1573070Y-764960D02*
Y-886960D01*
X1624900Y-938790D01*
X1642220D01*
X1660000Y-956570D01*
Y-1000000D01*
G01X1560000D02*
X1660000Y-1100000D01*
G01X3020000Y-6540000D02*
X2950000D01*
G01X3020000D02*
Y-6470000D01*
G01X3120000Y-6540000D02*
X3060000Y-6600000D01*
X2815000D01*
X2755000Y-6540000D01*
Y-6430000D01*
X2725000Y-6400000D01*
X2490000D01*
X2370000Y-6520000D01*
G01X3220000Y-6540000D02*
X3120000D01*
G01X3160000Y-6242500D02*
X3322500D01*
X3350790Y-6270790D01*
Y-6359210D01*
X3220000Y-6490000D01*
Y-6540000D01*
G01X3590000Y-5937500D02*
Y-6050000D01*
X3510000Y-6130000D01*
X2880000D01*
X2833000Y-6177000D01*
X2700000D01*
G01X3320000Y-6540000D02*
X3420000D01*
G01X3320000D02*
X3268000Y-6592000D01*
X3124570D01*
X3076570Y-6640000D01*
X2744000D01*
X2624000Y-6520000D01*
G01X3590000Y-6242500D02*
X3427500D01*
X3400000Y-6270000D01*
Y-6370000D01*
X3320000Y-6450000D01*
Y-6540000D01*
G01X3457910Y-1986070D02*
X3474910D01*
X3517920Y-2029080D01*
Y-2037920D01*
X3995000Y-2515000D01*
Y-4449420D01*
X3928000Y-4516420D01*
Y-4978570D01*
X3591570Y-5315000D01*
X2670000D01*
X2480000Y-5505000D01*
Y-5703000D01*
X2700000Y-5923000D01*
G01X2690000Y-4580000D02*
X3310000D01*
G01X3247910Y-2046070D02*
Y-2104640D01*
X3750000Y-2606730D01*
Y-4051430D01*
X3665000Y-4136430D01*
Y-4465000D01*
X3550000Y-4580000D01*
X3310000D01*
G01X2690000Y-5030000D02*
X3310000D01*
G01X3720000Y-4210000D02*
Y-4620000D01*
X3310000Y-5030000D01*
G01X3300000Y-3700000D02*
X2680000D01*
G01X3197910Y-2046070D02*
Y-2111210D01*
X3710000Y-2623300D01*
Y-3528000D01*
X3538000Y-3700000D01*
X3300000D01*
G01X2680000Y-4150000D02*
X3300000D01*
G01X2930000Y-2500000D02*
X2940000D01*
X3017000Y-2423000D01*
Y-2144810D01*
X3047910Y-2113900D01*
Y-2046070D01*
G01X2787910Y-1986070D02*
X2847910D01*
X3122910Y-1711070D01*
G01X2955490Y-1873650D02*
X2897910Y-1931230D01*
G01D02*
Y-2046070D01*
G01X2954200Y-719120D02*
X2949200D01*
X2857200Y-811120D01*
Y-991270D01*
X2905000Y-1039070D01*
X2980470D01*
X3247910Y-1306510D01*
Y-1376070D01*
G01X3197910D02*
Y-1313080D01*
X2963900Y-1079070D01*
X2868150D01*
X2701200Y-912120D01*
G01X3290000Y-2300000D02*
Y-2259870D01*
X3260060Y-2229940D01*
X3200060Y-2169940D01*
Y-2169930D01*
X3147910Y-2117780D01*
G01X2947910Y-2046070D02*
Y-2100760D01*
X2937000Y-2111670D01*
Y-2143000D01*
X2920000Y-2160000D01*
G01X2787910Y-1786070D02*
X2605780D01*
Y-1791270D01*
X2558780D01*
G01X2787910Y-1836070D02*
X2611370D01*
X2513720Y-1933720D01*
G01X2507000Y-1741070D02*
X2512000Y-1736070D01*
X2787910D01*
G01X2930000Y-2300000D02*
Y-2227000D01*
X2977000Y-2180000D01*
Y-2128240D01*
X2997910Y-2107330D01*
Y-2046070D01*
G01X3830000Y-4210000D02*
Y-2573590D01*
X3347910Y-2091500D01*
Y-2046070D01*
G01X3002120Y-942120D02*
X2972120Y-912120D01*
X2954200D01*
G01Y-719120D02*
Y-564200D01*
X2950000Y-560000D01*
G01X2530000Y-910000D02*
X2607080D01*
X2609200Y-912120D01*
X2701200D01*
G01X3520000Y-6540000D02*
X3600000D01*
G01X3520000D02*
Y-6470000D01*
G01X4320000Y-6440000D02*
X4500000D01*
G01X4405000Y-6555000D02*
X4338000D01*
X4320000Y-6537000D01*
Y-6440000D01*
G01X4410000Y-6325000D02*
X4338000D01*
X4320000Y-6343000D01*
G01X4230000Y-6325000D02*
X4302000D01*
X4320000Y-6343000D01*
G01D02*
Y-6440000D01*
G01X5164000Y-4820000D02*
Y-5286000D01*
X4970000Y-5480000D01*
X4720000D01*
X4510000Y-5690000D01*
Y-5975000D01*
X4395000Y-6090000D01*
X4320000D01*
G01X4120000Y-5150000D02*
Y-5225000D01*
G01Y-5150000D02*
X4040000D01*
G01X4120000D02*
X4200000D01*
G01X4290000Y-4904000D02*
Y-4970000D01*
G01Y-4904000D02*
Y-4830000D01*
G01Y-4904000D02*
X4371000D01*
G01X4290000D02*
X4224000D01*
G01X4460000D02*
Y-4835000D01*
G01Y-4904000D02*
X4534000D01*
G01X4460000D02*
X4371000D01*
G01X4460000D02*
Y-4970000D01*
G01X4150000Y-4870000D02*
Y-4960000D01*
X4120000Y-4990000D01*
G01X4290000Y-5150000D02*
X4246150Y-5106150D01*
X4236150D01*
X4120000Y-4990000D01*
G01X4320000Y-4650000D02*
X4420000D01*
G01D02*
X4509980Y-4560020D01*
X4959980D01*
X5160000Y-4360000D01*
G01X4320000Y-4750000D02*
X4420000D01*
G01X4050000Y-4870000D02*
Y-4550000D01*
X4240000Y-4360000D01*
G01X4220000Y-4750000D02*
Y-4650000D01*
G01X4700000Y-4360000D02*
Y-4480000D01*
X4659980Y-4520020D01*
X4493410D01*
X4415430Y-4598000D01*
X4272000D01*
X4220000Y-4650000D01*
G01X4460000Y-5150000D02*
X4540000Y-5070000D01*
X4910000D01*
G01X4700000Y-4106000D02*
Y-3910000D01*
X4640000Y-3850000D01*
X4533430D01*
X4441720Y-3758290D01*
X4441710D01*
X4325000Y-3641570D01*
Y-2295000D01*
X3862000Y-1832000D01*
X3752000D01*
X3700000Y-1780000D01*
G01Y-1680000D02*
X3752000Y-1628000D01*
X3855790D01*
X3895000Y-1667210D01*
Y-1808430D01*
X4365000Y-2278430D01*
Y-3625000D01*
X4550000Y-3810000D01*
X4864000D01*
X5160000Y-4106000D01*
G01X4200000Y-3560000D02*
Y-3959000D01*
X4240000Y-3999000D01*
Y-4106000D01*
G01X3690000Y-2120000D02*
X3710000D01*
X3750000Y-2160000D01*
G01X3800000Y-1680000D02*
X3830000D01*
X3840000Y-1690000D01*
G01X3800000Y-1780000D02*
X3830000D01*
X3840000Y-1770000D01*
G01X3800000Y-1890000D02*
X3840000D01*
G01X3745000Y-1300000D02*
X3712000Y-1333000D01*
X3606410D01*
X3503340Y-1436070D01*
X3457910D01*
G01Y-1936070D02*
X3606070D01*
X3690000Y-2020000D01*
G01X3740000Y-2050000D02*
X3720000D01*
X3690000Y-2020000D01*
G01X3700000Y-1890000D02*
Y-1920000D01*
X3720000Y-1940000D01*
G01X3457910Y-1886070D02*
X3696070D01*
X3700000Y-1890000D01*
G01X3457910Y-1836070D02*
X3555900D01*
X3611970Y-1780000D01*
X3700000D01*
G01Y-1680000D02*
X3655400D01*
X3549330Y-1786070D01*
X3457910D01*
G01Y-1736070D02*
X3542760D01*
X3690830Y-1588000D01*
X4428000D01*
X4720000Y-1880000D01*
G01X3457910Y-1686070D02*
X3536190D01*
X3674260Y-1548000D01*
X4838000D01*
X5170000Y-1880000D01*
G01X4020000Y-1713000D02*
Y-1770000D01*
X4480000Y-2230000D01*
Y-3503000D01*
X4490000Y-3513000D01*
Y-3560000D01*
G01X3970000Y-1493000D02*
X3672690D01*
X3529620Y-1636070D01*
X3457910D01*
G01Y-1586070D02*
X3523050D01*
X3656120Y-1453000D01*
X3932210D01*
X3955210Y-1430000D01*
X4896860D01*
X5161860Y-1695000D01*
X5246650D01*
X5355000Y-1803350D01*
Y-2668320D01*
X5580130Y-2893450D01*
G01X3457910Y-1536070D02*
X3516480D01*
X3639550Y-1413000D01*
X3915640D01*
X3938640Y-1390000D01*
X4913430D01*
X5178430Y-1655000D01*
X5263220D01*
X5395000Y-1786780D01*
Y-1946320D01*
X5580130Y-2131450D01*
G01X3457910Y-1486070D02*
X3509910D01*
X3622980Y-1373000D01*
X3899070D01*
X3922070Y-1350000D01*
X4930000D01*
X5195000Y-1615000D01*
X5279790D01*
X5542240Y-1877450D01*
X5580130D01*
G01X4990000Y-785000D02*
X4370000D01*
G01D02*
Y-980000D01*
X4320000Y-1030000D01*
X4120290D01*
X3850290Y-1300000D01*
X3745000D01*
G01X5190000Y-6335000D02*
Y-6330000D01*
X5270000Y-6250000D01*
G01X5105000D02*
X5190000Y-6335000D01*
G01Y-6360000D02*
X5005000D01*
G01X5190000D02*
Y-6390000D01*
G01X5255000Y-6470000D02*
X5190000Y-6405000D01*
Y-6390000D01*
G01Y-6335000D02*
Y-6360000D01*
G01Y-6390000D02*
X5110000Y-6470000D01*
G01X4520000Y-4650000D02*
X4565000D01*
G01X4910000Y-4820000D02*
Y-4816000D01*
G01X4520000Y-4750000D02*
X4840000D01*
X4910000Y-4820000D01*
G01X5016000Y-2550000D02*
X5066920Y-2600920D01*
Y-2606920D01*
X5120000Y-2660000D01*
G01X4990000Y-2440000D02*
Y-2524000D01*
X5016000Y-2550000D01*
G01X4990000Y-2440000D02*
Y-2314000D01*
X5170000Y-2134000D01*
G01X4864000Y-2550000D02*
X4813080Y-2600920D01*
X4809080D01*
X4750000Y-2660000D01*
G01X4890000Y-2440000D02*
Y-2524000D01*
X4864000Y-2550000D01*
G01X4890000Y-2440000D02*
Y-2304000D01*
X4720000Y-2134000D01*
G01X5975000Y-1655000D02*
Y-1265000D01*
X5820000Y-1110000D01*
X5440000D01*
X5325000Y-995000D01*
Y-910000D01*
X5200000Y-785000D01*
X4990000D01*
G01X6161350Y-6349450D02*
X5584130D01*
G01X6161350Y-5841450D02*
X5584130D01*
G01X6161350Y-6095450D02*
X5584130D01*
G01X6161350Y-5079450D02*
X5584130D01*
G01X6161350Y-5587450D02*
X5584130D01*
G01X6161350Y-4571450D02*
X5584130D01*
G01X6161350Y-5333450D02*
X5584130D01*
G01X6161350Y-4825450D02*
X5584130D01*
G01X6169710Y-3655450D02*
X5580130D01*
G01X6169710Y-3909450D02*
X5580130D01*
G01X6169710Y-4163450D02*
X5580130D01*
G01X6169710Y-3147450D02*
X5580130D01*
G01X6169710Y-3401450D02*
X5580130D01*
G01X6169710Y-2893450D02*
X5580130D01*
G01X6169710Y-2131450D02*
X5580130D01*
G01X6169710Y-1877450D02*
X5580130D01*
G01X6169710Y-2385450D02*
X5580130D01*
X1353070Y-474960D03*
X1793070D03*
G54D22*
X3160000Y-6242500D03*
Y-5937500D03*
X3590000Y-6242500D03*
Y-5937500D03*
G54D13*
X150000Y-1710000D03*
Y-1870000D03*
Y-2030000D03*
Y-2190000D03*
X310000Y-1710000D03*
Y-1870000D03*
Y-2030000D03*
Y-2190000D03*
X1870000Y-2530000D03*
Y-2370000D03*
X1860000Y-1600000D03*
X1700000D03*
X1860000Y-1760000D03*
X1700000D03*
X4120000Y-5150000D03*
Y-4990000D03*
G54D31*
X4460000Y-5150000D03*
X4290000D03*
X4460000Y-4904000D03*
X4290000D03*
G54D32*
X4864000Y-2550000D03*
X5016000D03*
G54D23*
X2930000Y-2500000D03*
Y-2300000D03*
G54D14*
X440000Y-1710000D03*
X540000D03*
X440000Y-1870000D03*
X540000D03*
X440000Y-2030000D03*
X540000D03*
X440000Y-2190000D03*
X540000D03*
X1980000Y-5860000D03*
X2080000D03*
Y-5570000D03*
X1980000D03*
X1860000Y-1990000D03*
X1760000D03*
X1855000Y-1890000D03*
X1755000D03*
X1660000Y-1000000D03*
Y-1100000D03*
X1560000Y-1000000D03*
Y-1100000D03*
X1760000Y-1000000D03*
Y-1100000D03*
X3420000Y-6540000D03*
X3120000D03*
X3020000D03*
X3320000D03*
X3220000D03*
X2630000Y-2070000D03*
Y-2170000D03*
X2780000Y-2350000D03*
Y-2250000D03*
X3090000Y-2260000D03*
X3190000D03*
X3290000Y-2400000D03*
Y-2300000D03*
X3090000Y-2360000D03*
X3190000D03*
X2950000Y-560000D03*
X2850000D03*
X2530000Y-910000D03*
Y-810000D03*
X3220000Y-1160000D03*
Y-1060000D03*
X3347910Y-603580D03*
Y-703580D03*
Y-1183580D03*
Y-893580D03*
Y-993580D03*
Y-508580D03*
Y-798580D03*
Y-1088580D03*
X3120000Y-1090000D03*
Y-990000D03*
X3520000Y-6540000D03*
X4420000Y-4650000D03*
X4150000Y-4870000D03*
X4050000D03*
X4320000Y-4750000D03*
X4220000D03*
X4320000Y-4650000D03*
X4220000D03*
X4420000Y-4750000D03*
X3800000Y-1680000D03*
X3700000D03*
X3690000Y-2120000D03*
Y-2020000D03*
X3800000Y-1890000D03*
X3700000D03*
Y-1780000D03*
X3800000D03*
X3745000Y-1300000D03*
Y-1200000D03*
X3545870Y-1083480D03*
Y-1183480D03*
X3447910Y-1183580D03*
Y-508580D03*
Y-798580D03*
Y-1088580D03*
X4520000Y-4650000D03*
Y-4750000D03*
X5120000Y-2660000D03*
Y-2760000D03*
X4750000Y-2660000D03*
Y-2760000D03*
X4990000Y-2440000D03*
X4890000D03*
G54D33*
G01X3090000Y-2260000D02*
Y-2210000D01*
G01X3097910Y-1992090D02*
Y-2046070D01*
G01X3220000Y-1160000D02*
Y-1187090D01*
X3255000Y-1222090D01*
G01X3097910Y-2046070D02*
Y-2134970D01*
X3190000Y-2227060D01*
Y-2260000D01*
G01Y-2360000D02*
Y-2260000D01*
G01X2920000Y-2160000D02*
X2880000Y-2200000D01*
X2830000D01*
X2780000Y-2250000D01*
G01X3220000Y-1160000D02*
X3190000Y-1130000D01*
X3160000D01*
X3120000Y-1090000D01*
G54D24*
X3122910Y-1711070D03*
G54D15*
X1128070Y-739960D03*
Y-139960D03*
X2018070Y-739960D03*
Y-139960D03*
G54D34*
G01X3300000Y-1450000D02*
X3346930D01*
X3382950Y-1486020D01*
Y-1932910D01*
X3345860Y-1970000D01*
X3120000D01*
X3097910Y-1992090D01*
G54D16*
X1583000Y-5680000D03*
Y-5845000D03*
X1817000D03*
Y-5680000D03*
X1583000Y-5515000D03*
G54D25*
X2847910Y-1376070D03*
X2897910D03*
X2947910D03*
X2997910D03*
X3047910D03*
X3097910D03*
X3147910D03*
X3197910D03*
X3247910D03*
X3297910D03*
X3347910D03*
X3397910D03*
Y-2046070D03*
X3347910D03*
X3297910D03*
X3247910D03*
X3197910D03*
X3147910D03*
X3097910D03*
X3047910D03*
X2997910D03*
X2947910D03*
X2897910D03*
X2847910D03*
G54D35*
G01X1055000Y-525000D02*
X1215000D01*
G01X440000Y-1050000D02*
X481350Y-1008650D01*
G01X491350Y-970790D02*
Y-891970D01*
X858320Y-525000D01*
G01D02*
X1055000D01*
G01X481350Y-1008650D02*
Y-980790D01*
X491350Y-970790D01*
G01X2232820Y-1170000D02*
Y-1026750D01*
X2193040Y-986970D01*
Y-986960D01*
X2091070Y-885000D01*
X2084140Y-878070D01*
X1868070D01*
G54D26*
X2787910Y-1986070D03*
Y-1936070D03*
Y-1886070D03*
Y-1836070D03*
Y-1786070D03*
Y-1736070D03*
Y-1686070D03*
Y-1636070D03*
Y-1586070D03*
Y-1536070D03*
Y-1486070D03*
Y-1436070D03*
X3457910D03*
Y-1486070D03*
Y-1536070D03*
Y-1586070D03*
Y-1636070D03*
Y-1686070D03*
Y-1736070D03*
Y-1786070D03*
Y-1836070D03*
Y-1886070D03*
Y-1936070D03*
Y-1986070D03*
G54D17*
X1817000Y-5515000D03*
G54D36*
G01X1171000Y-380000D02*
X1220500Y-330500D01*
G01X2660000Y-2000270D02*
X2722000D01*
G01X2870000Y-2120000D02*
X2897910Y-2092090D01*
Y-2046070D01*
G01X2722000Y-2000270D02*
X2736200Y-1986070D01*
X2787910D01*
G01X3147910Y-2117780D02*
Y-2046070D01*
G01X3297910Y-1376070D02*
Y-1447910D01*
X3300000Y-1450000D01*
G01X3255000Y-1222090D02*
X3297910Y-1265000D01*
Y-1376070D01*
G01X3447910Y-1183580D02*
Y-1260210D01*
X3397910Y-1310210D01*
Y-1376070D01*
G01X3347910Y-1207050D02*
Y-1376070D01*
G01X2630000Y-2070000D02*
X2756070D01*
X2780000Y-2046070D01*
X2847910D01*
G54D18*
X1600000Y-4580000D03*
X2220000D03*
X1600000Y-5030000D03*
X2220000D03*
X2210000Y-4150000D03*
X1590000D03*
X2210000Y-3700000D03*
X1590000D03*
X2690000Y-4580000D03*
X3310000D03*
X2690000Y-5030000D03*
X3310000D03*
X2680000Y-3700000D03*
X3300000D03*
X2680000Y-4150000D03*
X3300000D03*
X4370000Y-785000D03*
Y-1235000D03*
X4990000Y-785000D03*
Y-1235000D03*
G54D27*
X2954200Y-719120D03*
Y-912120D03*
X2701200Y-719120D03*
Y-912120D03*
G54D37*
G01X254000Y-6604000D02*
X100000D01*
G01D02*
G02X0Y-6504000I0J100000D01*
G01D02*
Y-304800D01*
G01X254000Y-6604000D02*
X100000D01*
G01D02*
G02X0Y-6504000I0J100000D01*
G01D02*
Y-304800D01*
G01X254000Y-6604000D02*
X100000D01*
G01D02*
G02X0Y-6504000I0J100000D01*
G01D02*
Y-304800D01*
G01X254000Y-6604000D02*
X100000D01*
G01D02*
G02X0Y-6504000I0J100000D01*
G01D02*
Y-304800D01*
G01X254000Y-6604000D02*
X100000D01*
G01D02*
G02X0Y-6504000I0J100000D01*
G01D02*
Y-304800D01*
G01X254000Y-6604000D02*
X100000D01*
G01D02*
G02X0Y-6504000I0J100000D01*
G01D02*
Y-304800D01*
G01X254000Y-6604000D02*
X100000D01*
G01D02*
G02X0Y-6504000I0J100000D01*
G01D02*
Y-304800D01*
G01X254000Y-6604000D02*
X100000D01*
G01D02*
G02X0Y-6504000I0J100000D01*
G01D02*
Y-304800D01*
G01X254000Y-6604000D02*
X100000D01*
G01D02*
G02X0Y-6504000I0J100000D01*
G01D02*
Y-304800D01*
G01X254000Y-6604000D02*
X100000D01*
G01D02*
G02X0Y-6504000I0J100000D01*
G01D02*
Y-304800D01*
G01X254000Y-6604000D02*
X100000D01*
G01D02*
G02X0Y-6504000I0J100000D01*
G01D02*
Y-304800D01*
G01X6334000D02*
G03X6029200Y0I-304800J0D01*
G01X304800D01*
G03X0Y-304800I0J-304800D01*
G01X1262000Y-6764000D02*
G03Y-6444000I0J160000D01*
G03Y-6764000I0J-160000D01*
G01X254000Y-6604000D02*
X754000D01*
X1008000Y-6858000D01*
X4284600D01*
X4538600Y-6604000D01*
G01X4056000Y-6764000D02*
G03Y-6444000I0J160000D01*
G03Y-6764000I0J-160000D01*
G01X4538600Y-6604000D02*
X4284600Y-6858000D01*
G01X4538600Y-6604000D02*
X4284600Y-6858000D01*
G01X4538600Y-6604000D02*
X4284600Y-6858000D01*
G01X4538600Y-6604000D02*
X4284600Y-6858000D01*
G01X4538600Y-6604000D02*
X4284600Y-6858000D01*
G01X4538600Y-6604000D02*
X4284600Y-6858000D01*
G01X4538600Y-6604000D02*
X4284600Y-6858000D01*
G01X4538600Y-6604000D02*
X4284600Y-6858000D01*
G01X4538600Y-6604000D02*
X4284600Y-6858000D01*
G01X4538600Y-6604000D02*
X4284600Y-6858000D01*
G01X4538600Y-6604000D02*
X4284600Y-6858000D01*
G01X6334000Y-6451600D02*
X6181600Y-6604000D01*
X4538600D01*
G01X5580000Y-1684000D02*
G03Y-1364000I0J160000D01*
G03Y-1684000I0J-160000D01*
G01X6334000Y-304800D02*
Y-6451600D01*
G01Y-304800D02*
Y-6451600D01*
G01Y-304800D02*
Y-6451600D01*
G01Y-304800D02*
Y-6451600D01*
G01Y-304800D02*
Y-6451600D01*
G01Y-304800D02*
Y-6451600D01*
G01Y-304800D02*
Y-6451600D01*
G01Y-304800D02*
Y-6451600D01*
G01Y-304800D02*
Y-6451600D01*
G01Y-304800D02*
Y-6451600D01*
G01Y-304800D02*
Y-6451600D01*
G54D19*
X1534600Y-1907390D03*
X1344600D03*
Y-1678390D03*
X1439600D03*
X1534600D03*
G54D28*
X3347910Y-220000D03*
G54D29*
X3093910D03*
X3601910D03*
M02*
